<?xml version="1.0" standalone="no"?>
<!DOCTYPE svg PUBLIC "-//W3C//DTD SVG 1.1//EN" "http://www.w3.org/Graphics/SVG/1.1/DTD/svg11.dtd" >
<svg xmlns="http://www.w3.org/2000/svg" xmlns:xlink="http://www.w3.org/1999/xlink" version="1.1">
<metadata>
Created by FontForge 20190801 at Fri Sep  2 10:43:37 2011
 By www-data
(c) 2011 Microsoft Corporation. All Rights Reserved.
</metadata>
<defs>
<font id="comici" horiz-adv-x="1087" >
  <font-face 
    font-family="comici"
    font-weight="400"
    font-style="italic"
    font-stretch="normal"
    units-per-em="2048"
    panose-1="3 15 7 2 3 3 2 6 2 4"
    ascent="1638"
    descent="-410"
    x-height="1036"
    cap-height="1569"
    bbox="-719 -621 6120 2257"
    underline-thickness="175"
    underline-position="-358"
    slope="-10"
    unicode-range="U+0020-FB02"
  />
<missing-glyph horiz-adv-x="1024" 
d="M127 0l258 1638h768l-258 -1638h-768zM274 127h512l220 1382h-512z" />
    <glyph glyph-name=".notdef" horiz-adv-x="1024" 
d="M127 0l258 1638h768l-258 -1638h-768zM274 127h512l220 1382h-512z" />
    <glyph glyph-name="glyph1" horiz-adv-x="0" 
 />
    <glyph glyph-name="glyph2" horiz-adv-x="975" 
 />
    <glyph glyph-name="space" unicode=" " horiz-adv-x="612" 
 />
    <glyph glyph-name="exclam" unicode="!" horiz-adv-x="487" 
d="M390 403q-14 -90 -104 -90q-76 0 -76 66l8 75q11 106 31 225l79 483q58 364 69 389.5t34 40t60 14.5q89 0 75 -90zM222 -66q-35 0 -66 44.5t-31 83.5q0 40 33.5 71t74.5 31q38 0 67.5 -42.5t29.5 -83.5q0 -44 -35 -74t-73 -30z" />
    <glyph glyph-name="quotedbl" unicode="&#x22;" horiz-adv-x="869" 
d="M338 932q-75 0 -75 104q0 65 39 264l34 199q7 38 36 63t67 25q75 0 75 -72q0 -17 -32 -208q-34 -163 -35 -212q-4 -93 -30 -128t-79 -35zM881 1407l-72 -389q-17 -90 -102 -90q-81 0 -65 88l63 397q17 110 48.5 140t72.5 30q75 0 75 -72q0 -23 -16 -85q-3 -12 -4 -19z
" />
    <glyph glyph-name="numbersign" unicode="#" horiz-adv-x="1726" 
d="M440 578l188 413h-268q-80 0 -80 73q0 103 162 103h264q37 79 66 159q61 169 95 210t99 41q27 0 45.5 -21.5t18.5 -49.5q0 -31 -48 -146l-82 -193h486l145 324q38 86 109 86q75 0 75 -62q0 -58 -137 -348h195q91 0 91 -58q0 -122 -130 -122l-94 4h-146l-172 -413h205
q143 0 143 -74q0 -111 -104 -111h-321l-142 -323q-44 -99 -129 -99q-71 0 -71 59q0 56 63 193l76 170h-500q-52 -134 -112.5 -252.5t-86 -139.5t-69.5 -21q-70 0 -70 58q0 41 39 123l109 232h-191q-69 0 -69 67t40 92.5t78 25.5h230zM628 578h500l178 413h-487z" />
    <glyph glyph-name="dollar" unicode="$" horiz-adv-x="1420" 
d="M960 1466h4q113 0 236 -39t123 -97q0 -31 -24.5 -62t-80.5 -31q-46 0 -137 20q-110 25 -151 21l-64 -408q187 -15 293 -112.5t106 -242.5q0 -189 -137 -344t-407 -212l-41 -264q-6 -38 -36 -64t-69 -26q-89 0 -73 88l39 254q-450 8 -450 218q0 126 99 126q48 0 84 -37
q70 -70 128.5 -92t168.5 -27l90 567h-8q-136 0 -249 71t-113 197q0 147 144.5 280t342.5 188l31 192q6 37 37 63.5t69 26.5q84 0 72 -84zM747 1245q-133 -47 -184.5 -116.5t-51.5 -128.5q0 -85 179 -113zM754 156q136 46 219 132t83 179q0 148 -221 209z" />
    <glyph glyph-name="percent" unicode="%" horiz-adv-x="1680" 
d="M351 1298q0 150 124.5 247t226.5 97q126 0 195.5 -73t69.5 -195q0 -155 -114 -244.5t-252 -89.5q-121 0 -185.5 73t-64.5 185zM519 1324q0 -116 109 -116q47 0 108 28t61 115q0 124 -126 124q-43 0 -97.5 -34t-54.5 -117zM1357 1309l-98 -162l-564 -897l-59 -103
q-90 -152 -116.5 -165t-45.5 -13q-31 0 -52.5 20.5t-21.5 48.5q0 51 226 400q166 247 223 348l367 600q82 134 121 176t77 42q30 0 51.5 -22t21.5 -51q0 -28 -26 -63q-57 -76 -104 -159zM974 229q0 153 108 278.5t269 125.5q127 0 218.5 -72.5t91.5 -182.5q0 -142 -114 -269
t-297 -127q-128 0 -202 69t-74 178zM1144 255q0 -108 156 -108q100 0 145.5 71t45.5 135q0 46 -49 79t-118 33q-83 0 -131.5 -69t-48.5 -141z" />
    <glyph glyph-name="ampersand" unicode="&#x26;" horiz-adv-x="1340" 
d="M869 909q53 -178 168 -424q33 62 49 113q34 115 63.5 163t71.5 48q69 0 69 -91q0 -68 -39.5 -183t-125.5 -232q118 -249 118 -301q0 -33 -34 -64.5t-74 -31.5q-46 0 -69 51l-82 199q-235 -197 -484 -197q-174 0 -284.5 101t-110.5 248q0 133 90 287.5t467 379.5
q-17 79 -17 157q0 198 102 315.5t226 117.5q93 0 147.5 -60t54.5 -157q0 -231 -306 -439zM830 1083q164 123 164 239q0 62 -49 62q-45 0 -82 -56t-37 -163q0 -38 4 -82zM711 811q-425 -240 -425 -471q0 -86 68 -144.5t175 -58.5q203 0 377 172q-60 118 -195 502z" />
    <glyph glyph-name="quotesingle" unicode="'" horiz-adv-x="795" 
d="M562 1141q-76 0 -76 59q0 16 9 80q5 22 13 131q17 250 134 250q75 0 75 -72q0 -19 -14 -79q-16 -65 -23 -153q-9 -121 -35.5 -168.5t-82.5 -47.5z" />
    <glyph glyph-name="parenleft" unicode="(" horiz-adv-x="750" 
d="M768 1411l-108 -92q-129 -110 -251.5 -413.5t-122.5 -625.5q0 -137 41 -284t179 -254q42 -40 42 -78q0 -39 -31 -67.5t-68 -28.5q-89 0 -225 170t-136 519q0 404 154.5 734t313 472.5t214.5 142.5q31 0 54 -24.5t23 -58.5q0 -37 -79 -112z" />
    <glyph glyph-name="parenright" unicode=")" horiz-adv-x="750" 
d="M130 -432q-29 0 -52 21.5t-23 51.5q0 19 17 46.5t110 89.5q200 133 309 427.5t109 582.5q0 162 -26.5 280.5t-57 177.5t-118.5 166q-46 61 -46 94q0 36 33 68.5t71 32.5q47 0 141 -108t150 -301t56 -393q0 -273 -107.5 -592t-292.5 -481.5t-273 -162.5z" />
    <glyph glyph-name="asterisk" unicode="*" horiz-adv-x="1085" 
d="M604 1313q17 166 24.5 200t37 57t65.5 23q77 0 77 -72l-21 -186q240 37 299 37q70 0 70 -74q0 -70 -43.5 -89t-297.5 -50q170 -187 170 -281q0 -34 -32 -66t-74 -32q-38 0 -64 37q-34 63 -161 236q-243 -234 -316 -234q-32 0 -54.5 22.5t-22.5 55.5q0 48 56 90t201 164
q-217 74 -245 94t-28 55q0 40 31.5 74.5t71.5 34.5q26 0 256 -96z" />
    <glyph glyph-name="plus" unicode="+" horiz-adv-x="984" 
d="M629 557l-39 -235q-15 -91 -104 -91q-86 0 -74 91l35 231q-120 -6 -172 -6q-143 0 -143 77q0 54 33.5 77.5t137.5 23.5q53 0 172 6l17 117q14 94 40.5 146.5t84.5 52.5q35 0 57 -21t22 -52q0 -20 -21 -100q-4 -15 -5 -24l-16 -115l73 -4q7 0 98 5q176 10 176 -78
q0 -40 -29.5 -73.5t-72.5 -33.5l-71 8l-101 -2q-92 -2 -98 0z" />
    <glyph glyph-name="comma" unicode="," horiz-adv-x="567" 
d="M155 -271q0 34 92 192.5t121 189t62 30.5q32 0 53.5 -23t21.5 -53q0 -18 -30 -72t-105 -179.5t-93.5 -141.5t-49.5 -16t-51.5 21t-20.5 52z" />
    <glyph glyph-name="hyphen" unicode="-" horiz-adv-x="853" 
d="M254 461q-73 0 -73 57q0 98 98 98q99 0 239 7q126 8 238 8q77 0 77 -60q0 -71 -64 -90.5t-515 -19.5z" />
    <glyph glyph-name="period" unicode="." horiz-adv-x="510" 
d="M143 11q0 55 45 100t101 45q47 0 76.5 -32t29.5 -74q0 -56 -45.5 -99t-101.5 -43q-47 0 -76 30.5t-29 72.5z" />
    <glyph glyph-name="slash" unicode="/" horiz-adv-x="1048" 
d="M1192 1483l-156 -273q-161 -281 -258 -426l-284 -413l-244 -402q-36 -59 -90 -59q-34 0 -57.5 21.5t-23.5 52.5q0 79 406 665q284 411 394 623q186 354 254 354q28 0 53 -20t25 -54q0 -27 -19 -69z" />
    <glyph glyph-name="zero" unicode="0" horiz-adv-x="1250" 
d="M132 527q0 440 208.5 733.5t515.5 293.5q220 0 330.5 -150.5t110.5 -382.5q0 -193 -83.5 -474t-245.5 -433.5t-397 -152.5q-439 0 -439 566zM328 544q0 -390 274 -390q239 0 366 287t127 580q0 341 -270 341q-209 0 -353 -229.5t-144 -588.5z" />
    <glyph glyph-name="one" unicode="1" horiz-adv-x="922" 
d="M299 0q-81 0 -109.5 13t-28.5 55q0 118 175 118l88 -4q10 85 14 144q15 183 97 526q70 278 82 387q-147 -104 -187 -104q-39 0 -61 24t-22 59q0 57 106 130q57 38 170 122q102 89 182 89q57 0 57 -54q0 -26 -28 -129q-15 -57 -26 -189q-7 -90 -83 -382q-84 -305 -92 -481
q-8 -106 -14 -136l106 2q36 1 59.5 -21.5t23.5 -57.5q0 -47 -32 -79t-79 -32h-398z" />
    <glyph glyph-name="two" unicode="2" horiz-adv-x="1250" 
d="M383 190l211 19q133 12 305 12q83 0 148.5 -30t65.5 -81q0 -39 -33.5 -75.5t-77.5 -36.5q-13 0 -67 16q-54 15 -67 15q-52 0 -155 -6q-89 -7 -154 -7q-41 0 -119 -10q-61 -8 -116 -8l-62 6q-82 0 -82 95q0 126 50 250t124.5 198t372.5 260q238 144 288 242t50 154
q0 53 -67 96.5t-136 43.5q-92 0 -184 -53l-158 -110q-50 -35 -75 -35q-92 0 -92 66q0 85 195.5 205t344.5 120q162 0 271.5 -85.5t109.5 -208.5q0 -104 -74 -259t-387 -336q-224 -128 -316 -217.5t-114 -239.5z" />
    <glyph glyph-name="three" unicode="3" horiz-adv-x="1250" 
d="M930 815q209 -78 209 -300q0 -231 -167.5 -395.5t-392.5 -164.5q-168 0 -277.5 72.5t-131.5 193.5l-2 18q-4 39 31.5 75t87.5 36q40 0 61 -37l35 -69q50 -99 227 -99q123 0 222.5 84t99.5 215q0 122 -86.5 194t-235.5 87q-97 10 -97 75q0 72 101 105l248 60
q70 17 120 72.5t50 137.5q0 72 -64.5 115t-179.5 43q-69 0 -137 -33l-125 -69q-42 -23 -55 -23q-36 0 -59.5 25t-23.5 60q0 86 160.5 159.5t246.5 73.5q202 0 311.5 -83t109.5 -231q0 -305 -286 -397z" />
    <glyph glyph-name="four" unicode="4" horiz-adv-x="1250" 
d="M967 68q-15 -95 -109 -95q-84 0 -84 96q0 17 21 146l37 227l-439 11q-165 4 -218 15.5t-53 53.5q0 47 75 125l100 103l608 716q81 95 185 95q113 0 98 -99l-133 -831l18 2q45 5 119.5 -10.5t74.5 -75.5q0 -125 -243 -111zM965 1282q-286 -366 -520 -637l417 -10z" />
    <glyph glyph-name="five" unicode="5" horiz-adv-x="1250" 
d="M598 1331q-6 -48 -88 -332q154 109 381 109q180 0 270 -112.5t90 -293.5q0 -311 -195.5 -538t-506.5 -227q-191 0 -292.5 89.5t-101.5 163.5q0 43 38 76t79 33q43 0 70 -43q50 -73 91.5 -100t144.5 -27q197 0 336.5 158.5t139.5 383.5q0 244 -194 244q-93 0 -160.5 -21.5
t-140.5 -84.5l-127 -121q-47 -45 -98 -45q-35 0 -58 24.5t-23 58.5q0 14 15 71q133 515 133 556q0 21 -8 57q-9 40 -9 51q0 71 116 71q10 0 93 -5l376 7l164 -4q18 0 55 7t55 7q34 0 59.5 -24.5t25.5 -58.5q0 -126 -255 -126h-35q-20 0 -43 2l-38 2h-19l-170 -2z" />
    <glyph glyph-name="six" unicode="6" horiz-adv-x="1250" 
d="M529 874q184 78 270 78q204 0 311.5 -96t107.5 -271q0 -270 -172 -463.5t-436 -193.5q-405 0 -405 445q0 274 138 539t413 483l110 96q74 65 115 65q34 0 59.5 -24.5t25.5 -58.5q0 -47 -124 -152l-235 -199q-90 -76 -178 -248zM436 641q-33 -118 -33 -232
q0 -307 238 -307q179 0 277.5 137.5t98.5 298.5q0 212 -278 212q-44 0 -102 -13t-201 -96z" />
    <glyph glyph-name="seven" unicode="7" horiz-adv-x="1250" 
d="M1245 1200q-150 -147 -297 -369l-245 -399q-24 -39 -121 -229q-84 -167 -128 -218t-91 -51q-35 0 -60 23t-25 57q0 44 95 209l311 551q38 68 152.5 230t232.5 276l25 20l-725 17q-84 2 -84 73q0 51 33.5 84t81.5 33q176 0 376 -8q252 -6 379 -6h182q98 0 98 -54
q0 -48 -81 -132z" />
    <glyph glyph-name="eight" unicode="8" horiz-adv-x="1250" 
d="M462 782q-135 91 -135 242q0 204 161 353t369 149q364 0 364 -309q0 -108 -38 -213t-215 -189q106 -59 162 -131t56 -194q0 -255 -162.5 -399t-428.5 -144q-198 0 -315.5 84.5t-117.5 241.5q0 133 70 283t230 226zM726 891q151 39 224 98t73 194q0 87 -43 126t-153 39
q-152 0 -225.5 -92t-73.5 -192q0 -121 198 -173zM708 715q-164 -73 -223.5 -122t-92.5 -124t-33 -154q0 -91 77 -142.5t188 -51.5q196 0 273 100.5t77 228.5q0 177 -266 265z" />
    <glyph glyph-name="nine" unicode="9" horiz-adv-x="1250" 
d="M989 614q-181 -86 -303 -86q-182 0 -304 103.5t-122 272.5q0 259 170.5 445.5t478.5 186.5q192 0 301.5 -117t109.5 -312q0 -237 -166.5 -571t-472.5 -482t-398 -148q-79 0 -79 82q0 72 83 106l176 58q111 37 229.5 115.5t239.5 260.5zM1079 864q42 117 42 201
q0 130 -72 215.5t-195 85.5q-213 0 -306 -131.5t-93 -278.5q0 -107 79 -173t214 -66q171 0 331 147z" />
    <glyph glyph-name="colon" unicode=":" horiz-adv-x="612" 
d="M425 854q-89 0 -89 85l3 55q0 62 33 98t88 36q87 0 87 -110q0 -164 -122 -164zM325 123q-87 0 -87 83l4 106q0 58 38 90t84 32q87 0 87 -125q0 -186 -126 -186z" />
    <glyph glyph-name="semicolon" unicode=";" horiz-adv-x="612" 
d="M428 848q-88 0 -88 81q0 65 3 95.5t35 65t85 34.5q90 0 90 -111q0 -165 -125 -165zM50 -127q0 79 114 214.5t170 135.5q34 0 56.5 -22.5t22.5 -52.5q0 -42 -89 -132q-87 -87 -98 -125q-23 -86 -103 -86q-73 0 -73 68z" />
    <glyph glyph-name="semicolon" unicode="&#x37e;" horiz-adv-x="612" 
d="M428 848q-88 0 -88 81q0 65 3 95.5t35 65t85 34.5q90 0 90 -111q0 -165 -125 -165zM50 -127q0 79 114 214.5t170 135.5q34 0 56.5 -22.5t22.5 -52.5q0 -42 -89 -132q-87 -87 -98 -125q-23 -86 -103 -86q-73 0 -73 68z" />
    <glyph glyph-name="less" unicode="&#x3c;" horiz-adv-x="781" 
d="M393 614q49 -39 117 -127q80 -102 111 -133q27 -27 27 -56q0 -38 -32.5 -70.5t-72.5 -32.5q-28 0 -52 18.5t-145 167.5q-87 107 -172 141q-64 24 -64 73q0 56 85 93q101 47 229 162l194 171q46 40 85 40q32 0 53 -23t21 -55q0 -27 -14 -48.5t-122.5 -115.5t-247.5 -205z
" />
    <glyph glyph-name="equal" unicode="=" horiz-adv-x="1045" 
d="M935 997q77 0 77 -68q0 -110 -105 -110l-467 2q-17 0 -108 -5q-105 -6 -105 71q0 66 48 89t193 23zM636 459l116 -2q43 -1 80 0t58.5 -15.5t21.5 -54.5q0 -108 -106 -108h-82l-311 6q-34 0 -92 -4q-72 -5 -88 -5q-80 0 -80 66q0 70 46 95.5t241 25.5q64 0 196 -4z" />
    <glyph glyph-name="greater" unicode="&#x3e;" horiz-adv-x="781" 
d="M584 645q-86 62 -203.5 192.5t-117.5 189.5q0 32 33.5 64.5t74.5 32.5q40 0 63 -32q191 -260 359 -353q46 -25 46 -65q0 -29 -27 -60.5t-194.5 -154.5t-293.5 -198t-150 -75q-31 0 -54 23t-23 56q0 50 51 83z" />
    <glyph glyph-name="question" unicode="?" horiz-adv-x="1073" 
d="M482 582l269 180q165 110 165 243q0 98 -87.5 183.5t-198.5 85.5q-61 0 -172 -66q-104 -63 -129 -63q-37 0 -61 26.5t-24 64.5q0 86 165 164.5t254 78.5q184 0 318 -135t134 -305q0 -112 -59.5 -229.5t-317.5 -281.5q-173 -112 -241 -180q-41 -41 -82 -41q-37 0 -62 26
t-25 64q0 74 154 185zM201 14q0 55 44.5 119t111.5 64q81 0 81 -82q0 -71 -41.5 -129t-96.5 -58q-40 0 -69.5 26t-29.5 60z" />
    <glyph glyph-name="at" unicode="@" horiz-adv-x="1907" 
d="M1033 535q-129 -107 -223 -107q-103 0 -184 79t-81 173q0 179 179 353.5t377 174.5q83 0 83 -88q0 -76 -116 -106q-226 -66 -271 -165t-45 -141q0 -27 23.5 -51t59.5 -24q94 0 194 162q91 139 142 139q77 0 77 -84q0 -23 -26 -118q-7 -24 -7 -44q0 -49 36.5 -60.5
t101.5 -11.5q291 0 291 352q0 202 -157 329.5t-390 127.5q-325 0 -527 -262t-202 -573q0 -226 148 -381.5t401 -155.5q83 0 188 33l184 64q46 16 60 16q36 0 60.5 -27.5t24.5 -65.5q0 -96 -188 -154t-358 -58t-338.5 79.5t-278.5 250.5t-110 381q0 218 104.5 460.5
t330.5 420t534 177.5q316 0 519 -179.5t203 -443.5q0 -252 -133.5 -423.5t-398.5 -171.5q-209 0 -287 123z" />
    <glyph glyph-name="A" unicode="A" horiz-adv-x="1498" 
d="M1114 520q-110 -13 -274 -49l-275 -55q-206 -362 -246 -400.5t-92 -38.5q-37 0 -62.5 25t-25.5 59q0 53 211 381q-11 19 -11 45q0 94 116 119q129 191 398 532t325 341q78 0 90 -111l8 -336l41 -694l31 -160q13 -65 13 -96q0 -43 -37 -78t-83 -35q-65 0 -95 132.5
t-32 418.5zM1081 1112l-360 -461q99 26 381 76z" />
    <glyph glyph-name="B" unicode="B" horiz-adv-x="1291" 
d="M1023 705q252 -116 252 -280q0 -162 -244.5 -317t-724.5 -155q-42 0 -75 39.5t-27 83.5l47 291q26 160 89.5 437t86.5 417t42 216.5t43.5 89.5t124 28.5t197.5 15.5q172 0 315.5 -117t143.5 -278q0 -111 -61.5 -240.5t-208.5 -230.5zM648 1360l-31 -174l-79 -387l149 -13
q65 0 171.5 42t169 133t62.5 177q0 83 -89.5 155.5t-198.5 72.5q-108 0 -154 -6zM685 584l-82 -4q-51 0 -113 10l-41 -225l-32 -207q356 16 507.5 106t151.5 134q0 41 -88.5 90t-200.5 77z" />
    <glyph glyph-name="C" unicode="C" horiz-adv-x="1234" 
d="M1232 1473q43 51 98 51q75 0 75 -118q0 -169 -36 -226.5t-98 -57.5q-63 0 -84 74q-21 75 -45.5 82.5t-95.5 7.5q-176 0 -433.5 -305.5t-257.5 -540.5q0 -102 66 -181t174 -79q88 0 171.5 33.5t242.5 138.5q65 41 92 41q38 0 62.5 -26t24.5 -63q0 -29 -20 -60.5t-142 -111
t-237 -118.5t-225 -39q-184 0 -298.5 128t-114.5 302q0 321 324.5 703.5t602.5 382.5q110 0 154 -18z" />
    <glyph glyph-name="D" unicode="D" horiz-adv-x="1478" 
d="M288 -6h-10q-40 0 -64 24.5t-24 59.5q0 24 26 150l70 364q24 124 106 688l20 138q7 52 56.5 95t91.5 43q22 0 150 -67q139 -75 164 -82q261 -96 429.5 -291t168.5 -422q0 -207 -123 -405.5t-296.5 -292.5t-443.5 -94q-79 0 -178 26.5t-143 65.5zM595 1294l-84 -573
l-102 -547q3 -2 7 -4q94 -68 224 -68q257 0 377.5 92t184.5 216t64 252q0 129 -71.5 238t-192.5 183.5t-407 210.5z" />
    <glyph glyph-name="E" unicode="E" horiz-adv-x="1279" 
d="M576 1337q0 -96 -86 -485l446 43q187 18 238 18q90 0 90 -83q0 -107 -111 -121l-710 -64q-68 -311 -68 -446q0 -61 25.5 -78t138.5 -17l375 9q13 0 93 10q117 15 117 -77t-72.5 -118t-439.5 -26q-284 0 -360.5 59.5t-76.5 219.5q0 177 79 515q-5 23 -5 35q0 44 32 76
q61 277 76.5 370.5t15.5 163.5q7 134 34 182t93 48q42 0 69 -31q256 66 437 66q153 0 265 -25t139 -50.5t27 -62.5q0 -48 -35.5 -85t-80.5 -37q-12 0 -31 6q-166 47 -317 47q-166 0 -397 -62z" />
    <glyph glyph-name="F" unicode="F" horiz-adv-x="1243" 
d="M591 1329l-70 -432q202 51 299 51q92 0 227.5 -9t151 -34.5t15.5 -53.5q0 -54 -34 -90t-83 -36q-71 0 -156 8q-82 8 -153 8q-74 0 -306 -57l-116 -688q-8 -45 -42 -73.5t-75 -28.5q-40 0 -62.5 24.5t-22.5 60.5q0 25 42 263l119 680q47 270 63 389q5 45 11 78l8 55
q8 45 39.5 74.5t76.5 29.5q33 0 56 -18q239 43 403 43q138 0 289.5 -41t151.5 -103q0 -38 -34 -76t-81 -38q-21 0 -37 8q-115 45 -322 45q-134 0 -358 -39z" />
    <glyph glyph-name="G" unicode="G" horiz-adv-x="1392" 
d="M1319 604q-109 -300 -337 -487t-499 -187q-417 0 -417 394q0 189 87.5 425t242.5 429.5t291 293t271 99.5q90 0 239 -64t149 -140q0 -44 -35.5 -82t-81.5 -38q-23 0 -60 25q-134 94 -244 94q-144 0 -400.5 -333.5t-256.5 -680.5q0 -127 62 -172t186 -45
q184 0 339.5 122.5t235.5 334.5q-279 -15 -491 -107q-26 -12 -47 -12q-36 0 -59.5 26.5t-23.5 62.5q0 60 67.5 106t256.5 89.5t508 43.5q40 0 65 -24.5t25 -60.5q0 -79 -73 -112z" />
    <glyph glyph-name="H" unicode="H" horiz-adv-x="1573" 
d="M1319 659q-188 -5 -428 -51l-434 -82q-8 -66 -60 -256q-48 -185 -57 -256q-8 -41 -39.5 -69.5t-73.5 -28.5q-81 0 -81 77q0 52 67 339q68 278 90 481l14 99q6 41 9 69q6 40 19 100q66 301 77 375q6 41 39 69.5t74 28.5q81 0 81 -81q0 -28 -49 -256q-40 -180 -49 -240
l-32 -252l440 80q270 49 440 49q35 149 80 432q14 86 58.5 173t99.5 87q36 0 60.5 -23t24.5 -59q0 -21 -18 -55q-23 -43 -38 -162q-24 -196 -85 -438q-49 -202 -61 -273t-31 -253q-12 -176 -21.5 -225t-41.5 -75t-72 -26q-35 0 -58 24.5t-23 58.5l26 243q21 205 40 303
q7 36 13 73z" />
    <glyph glyph-name="I" unicode="I" horiz-adv-x="1119" 
d="M834 1280q-84 -364 -121 -634q-55 -405 -72 -439l318 4q38 0 60.5 -23.5t22.5 -58.5q0 -47 -33 -85t-83 -38q-54 0 -168 -4l-99 -2q-160 -3 -272 -18q-129 -19 -199 -19q-39 0 -62.5 25t-23.5 59q0 47 35.5 85t83.5 38q77 0 217 20q31 97 69 446q21 196 130 652l-262 -8
q-36 -1 -60 22t-24 60q0 53 27 86t82 39t305 6q139 0 310 -19t198.5 -26t43 -26t15.5 -53q0 -59 -38 -91.5t-83 -32.5q-70 0 -158 15z" />
    <glyph glyph-name="J" unicode="J" horiz-adv-x="1362" 
d="M1134 1307l-14 -119q-18 -150 -82 -454.5t-138 -509t-149 -275t-168 -70.5q-169 0 -318.5 121t-149.5 274q0 177 124 177q87 0 87 -87l-4 -52q0 -80 98.5 -153t195.5 -73q86 0 191.5 498t116.5 644q2 26 7 66h-111q-29 0 -67 2l-69 2q-29 1 -48.5 0t-42 8t-36 30
t-13.5 48q0 121 158 121q36 0 100 -4l57 -2q91 -3 232 8q129 9 191 9q212 0 212 -101q0 -44 -35 -82.5t-83 -38.5l-127 15h-52q-29 0 -63 -2z" />
    <glyph glyph-name="K" unicode="K" horiz-adv-x="1251" 
d="M502 526l-86 -536q-16 -101 -103 -101q-51 0 -76 38t-25 77q0 61 128 723q75 389 125 700q6 44 40.5 74.5t76.5 30.5q39 0 61 -25.5t22 -61.5q0 -28 -61 -319q-39 -186 -59 -303q142 114 354 320l340 332q39 38 82 38q38 0 62.5 -25.5t24.5 -61.5q0 -109 -755 -760
q92 -117 320 -363l90 -88q40 -39 113 -65q75 -28 75 -72q0 -45 -33 -82t-75 -37q-154 0 -389 266z" />
    <glyph glyph-name="L" unicode="L" horiz-adv-x="1128" 
d="M301 113q262 -3 682 123q16 4 31 4q83 0 83 -87q0 -62 -66 -105t-330.5 -91.5t-425.5 -48.5q-102 0 -140.5 32.5t-38.5 98.5q0 24 5 53l71 332q105 490 189 1016q6 43 39.5 72.5t74.5 29.5q86 0 86 -83q0 -28 -63.5 -389t-128.5 -658l-39 -154q-5 -19 -15 -77
q-7 -36 -14 -68z" />
    <glyph glyph-name="M" unicode="M" horiz-adv-x="1808" 
d="M1483 1094l-309 -686l-97 -191q-73 -144 -117 -202t-106 -58q-76 0 -100 170l-37 416q-15 187 -25 534l-73 -180l-226 -608l-51 -158q-32 -97 -52.5 -133t-42 -50t-50.5 -14q-80 0 -80 83q0 40 33 161t102 277l162 401l112 315q65 183 122.5 266t125.5 83q62 0 82.5 -81
t24.5 -358q0 -310 45 -792q196 402 395 882l53 148q77 215 189 215q104 0 104 -285l-5 -305q0 -316 32 -584l22 -172q13 -98 13 -147q0 -54 -40.5 -89.5t-84.5 -35.5q-99 0 -107 217l-10 172q-11 196 -11 376q0 202 7 413z" />
    <glyph glyph-name="N" unicode="N" horiz-adv-x="1632" 
d="M527 1145l-79 -457q-23 -135 -56 -393q-48 -375 -164 -375q-48 0 -73.5 29.5t-25.5 64.5q0 34 28 142q8 31 52 266.5t55 315.5l32 233q24 164 29 270l15 172q7 60 55.5 98.5t95.5 38.5q52 0 114 -114q368 -733 781 -1180q8 27 20 127l52 381q18 126 30 256.5t12 185.5
q0 27 -12 107q-4 48 -4 73q0 148 125 148q109 0 109 -259q0 -174 -46 -441l-86 -505q-39 -238 -69 -303t-113 -65q-45 0 -120.5 71.5t-290 369t-466.5 743.5z" />
    <glyph glyph-name="O" unicode="O" horiz-adv-x="1635" 
d="M161 460q0 190 109 433t334 433t492 190q568 0 568 -473q0 -389 -269.5 -746.5t-638.5 -357.5q-265 0 -430 148.5t-165 372.5zM367 496q0 -157 118 -255t303 -98q265 0 467 282.5t202 584.5q0 170 -96.5 235.5t-297.5 65.5q-270 0 -483 -279t-213 -536z" />
    <glyph glyph-name="P" unicode="P" horiz-adv-x="1066" 
d="M385 600q-16 -60 -92 -528q-6 -42 -36 -69.5t-69 -27.5q-42 0 -63 27.5t-14 69.5l47 293q26 163 84 413q3 12 86 416l20 137q35 241 146 219q65 21 239 21q182 0 318 -119t136 -277q0 -230 -197.5 -408.5t-483.5 -178.5q-30 0 -121 12zM543 1372l-31 -182l-84 -399
l109 -13q64 -8 186 30.5t199.5 137t77.5 202.5q0 92 -96 162t-224 70q-102 0 -137 -8z" />
    <glyph glyph-name="Q" unicode="Q" horiz-adv-x="1795" 
d="M1147 -47q-180 -70 -346 -70q-282 0 -462.5 206.5t-180.5 458.5q0 379 310.5 673.5t715.5 294.5q300 0 454 -181.5t154 -488.5q0 -291 -103.5 -469.5t-328.5 -319.5l185 -200l112 -111q26 -26 26 -65q0 -45 -37.5 -82t-82.5 -37t-211 172zM979 109q-152 156 -152 247
q0 47 38 83t84 36q50 0 77 -49q93 -142 189 -229q170 89 267.5 218.5t97.5 385.5q0 232 -107.5 370t-321.5 138q-308 0 -546 -223t-238 -502q0 -189 134 -341.5t333 -152.5q70 0 145 19z" />
    <glyph glyph-name="R" unicode="R" horiz-adv-x="1287" 
d="M393 510l-26 -246l-27 -196q-5 -39 -37.5 -71t-79.5 -32q-39 0 -62.5 25t-23.5 59l31 254q33 287 94 510q67 234 78 424q8 130 19.5 176.5t55 86.5t99.5 36l240 -18q182 -14 364 -168t182 -352q0 -339 -485 -486q168 -96 297.5 -217.5t129.5 -187.5q0 -43 -36 -80
t-84 -37q-37 0 -67 30q-330 392 -662 490zM549 1323l-17 -194q-2 -33 -14.5 -96.5t-36.5 -149.5l-53 -201h88q292 0 436.5 92t144.5 188q0 120 -125 226t-278 123z" />
    <glyph glyph-name="S" unicode="S" horiz-adv-x="1420" 
d="M270 344q50 0 78 -55q40 -76 69.5 -102t93 -42t148.5 -16q195 0 352 97t157 242q0 102 -109 165t-292 69q-173 9 -270.5 75.5t-97.5 180.5q0 192 229.5 350t448.5 158q115 0 236.5 -39t121.5 -97q0 -31 -24.5 -62t-79.5 -31q-45 0 -136 20q-96 22 -138 22
q-183 0 -308.5 -89t-125.5 -189q0 -56 68.5 -83.5t272.5 -45.5q196 -14 305 -113.5t109 -244.5q0 -241 -223.5 -406t-526.5 -165q-194 0 -335.5 75.5t-141.5 199.5q0 66 36.5 96t82.5 30z" />
    <glyph glyph-name="T" unicode="T" horiz-adv-x="1392" 
d="M1464 1284h-48q-102 0 -180 4l-80 2h-112q-20 0 -37 -2l-70 -2q-6 -69 -21 -181q-16 -112 -28 -267q-26 -316 -49 -451l-10 -106q-16 -289 -148 -289q-35 0 -62.5 24t-27.5 59q0 17 14 63q14 47 29 190q12 114 17 149q21 125 40 402q11 140 23 238l18 157l-143 -4
q-173 -7 -266.5 16t-93.5 80q0 55 34 92t82 37q17 0 57 -3q172 -16 230 -16q107 0 275 12q99 7 172 7q68 0 180 -4l133 -2q43 -1 90 0t71.5 -19t24.5 -57q0 -50 -31.5 -89.5t-82.5 -39.5z" />
    <glyph glyph-name="U" unicode="U" horiz-adv-x="1509" 
d="M540 1329l-92 -588q-18 -113 -18 -203q0 -403 345 -403q398 0 562 1020l28 178q30 170 131 170q82 0 82 -91q0 -21 -4 -46l-39 -248q-179 -1159 -782 -1159q-264 0 -394.5 130t-130.5 425q0 118 55.5 487.5t95.5 432.5t95 63q72 0 72 -101q0 -29 -6 -67z" />
    <glyph glyph-name="V" unicode="V" horiz-adv-x="1331" 
d="M709 285l389 741l125 246q27 53 101 158.5t138 105.5q39 0 63.5 -25.5t24.5 -60.5q0 -43 -30 -80q-78 -97 -133 -194l-111 -220l-383 -727q-53 -101 -107.5 -185.5t-80.5 -104t-62 -19.5q-46 0 -71 29t-69 275t-85 648l-35 277q-19 147 -19 226q0 82 41 114.5t80 32.5
q74 0 84 -82l11 -174l80 -665q20 -168 49 -316z" />
    <glyph glyph-name="W" unicode="W" horiz-adv-x="2129" 
d="M1308 4q-29 122 -29 197q0 132 -10 432q-15 329 -7 487q-133 -315 -366 -766q-82 -157 -125 -264q7 -16 7 -34q0 -46 -44 -78.5t-96 -32.5q-136 0 -115 121l-12 127l-31 489q-10 152 -110 711q-10 40 16 86.5t102 46.5q41 0 70 -32t58.5 -224.5t50.5 -458.5l34 -461
q139 239 324 641q133 298 203.5 401t130.5 103q61 0 81.5 -46.5t20.5 -220.5q0 -89 -6 -212q-2 -85 6 -395l14 -412l334 607l156 295q16 31 74 177q93 238 200 238q88 0 88 -75q0 -32 -49 -126l-57 -108l-84 -179l-412 -721l-111 -202q-72 -129 -91 -155t-47.5 -41
t-63.5 -15q-51 0 -82 29.5t-22 70.5z" />
    <glyph glyph-name="X" unicode="X" horiz-adv-x="1482" 
d="M1022 723l170 -322q90 -170 182 -313q18 -24 18 -52q0 -46 -36.5 -83t-83.5 -37q-61 0 -174 221l-101 205l-122 225l-406 -397l-217 -207q-35 -33 -96 -33q-38 0 -62.5 26t-24.5 64q0 46 38 82l213 201l444 436q-103 172 -188 295l-91 158q-45 79 -106 143q-32 29 -32 67
q0 45 36.5 82.5t81.5 37.5q74 0 157.5 -149.5t293.5 -477.5l278 317q272 310 346 310q38 0 63.5 -27t25.5 -63q0 -41 -40 -82q-152 -154 -248 -269l-153 -184q-75 -90 -166 -174z" />
    <glyph glyph-name="Y" unicode="Y" horiz-adv-x="1301" 
d="M668 469q-146 232 -176 365q-28 114 -107 270q-54 106 -95 191t-41 111q0 43 37.5 79.5t82.5 36.5q47 0 75 -47l62 -125q103 -208 135 -283t51 -160q18 -76 105 -225l317 557l107 162q55 84 77.5 101.5t61.5 17.5q37 0 62.5 -24.5t25.5 -59.5q0 -47 -113 -205
q-21 -30 -47 -70l-237 -424q-87 -156 -256 -418l-160 -223l-70 -108q-38 -58 -98 -58q-37 0 -62.5 25t-25.5 59q0 40 127 230z" />
    <glyph glyph-name="Z" unicode="Z" horiz-adv-x="1420" 
d="M1299 1159q-170 -105 -484 -450l-491 -582l391 14q363 13 391 13q155 0 210 -16.5t55 -64.5q0 -55 -36 -85.5t-87 -30.5q-30 0 -88 4l-49 2l-951 -14q-102 0 -102 77q0 75 90 189l571 651q241 275 490 459l-355 -20h-405l-74 -1q-38 0 -60 19.5t-22 57.5q0 52 33 90
t149 38q88 0 203 -14q119 -14 205 -14q106 0 231 8q156 10 232 10q245 0 245 -86q0 -67 -143 -162z" />
    <glyph glyph-name="bracketleft" unicode="[" horiz-adv-x="771" 
d="M570 1323q-9 -90 -27 -203l-244 -1341l91 4h35l137 -6q74 0 74 -78q0 -45 -28.5 -81t-76.5 -36q-30 0 -86 4l-51 2q-29 1 -142 -5q-143 -8 -143 91q0 55 129 729l125 705l31 301l4 14q28 97 102 97h38q23 0 52 -2l54 -2l151 4q79 0 79 -76q0 -75 -48 -101.5t-256 -19.5z
" />
    <glyph glyph-name="backslash" unicode="\" horiz-adv-x="1126" 
d="M747 160l-173 745q-26 113 -165 469q-10 20 -10 41q0 40 36 74.5t78 34.5q32 0 55.5 -25t77.5 -168t107 -342l123 -514q72 -302 127 -473q5 -21 5 -34q0 -40 -35.5 -74.5t-76.5 -34.5q-49 0 -76 60t-73 241z" />
    <glyph glyph-name="bracketright" unicode="]" horiz-adv-x="771" 
d="M368 -412h-37l-141 -6q-71 0 -71 79q0 47 30.5 81.5t70.5 34.5q28 0 90 4l51 2h37l84 -4l185 1341q16 118 41 203q-197 -7 -236 9.5t-39 65.5q0 122 109 122l112 -4h39q23 0 52 2l53 2q133 5 112 -97l-6 -14l-61 -301q-25 -123 -96 -705q-80 -611 -102 -716t-144 -105z
" />
    <glyph glyph-name="asciicircum" unicode="^" horiz-adv-x="1190" 
d="M839 1434q-306 -312 -375 -312q-32 0 -54.5 24t-22.5 58q0 41 42 74q76 61 356 338q36 31 68 31q71 0 154 -107q22 -29 59 -74l131 -170q20 -26 20 -48q0 -37 -33 -70t-75 -33q-35 0 -59 29q-68 96 -211 260z" />
    <glyph glyph-name="underscore" unicode="_" horiz-adv-x="1284" 
d="M918 -344q-71 0 -213 4q-144 4 -211 4h-445l-137 -8l29 184h122q74 0 175 2h301q71 0 211 -4q141 -6 211 -6l335 8l-28 -184h-350z" />
    <glyph glyph-name="grave" unicode="`" horiz-adv-x="1139" 
d="M599 1221l-78 147q-38 71 -102 129q-28 25 -28 59q0 42 34 73.5t70 31.5q60 0 169.5 -156t109.5 -226q0 -37 -34 -69t-75 -32q-45 0 -66 43z" />
    <glyph glyph-name="a" unicode="a" horiz-adv-x="1048" 
d="M764 51q-216 -104 -308 -104q-374 0 -374 356q0 331 209.5 536t459.5 205q97 0 200.5 -49.5t103.5 -115.5q0 -41 -27 -64q-20 -39 -56.5 -225.5t-36.5 -268.5q0 -101 52 -278l4 -16q-22 -93 -111 -93q-15 0 -56 40.5t-60 76.5zM837 829q-63 37 -100 37
q-167 0 -311.5 -150.5t-144.5 -374.5q0 -220 190 -220q149 0 280 110q16 419 86 598z" />
    <glyph glyph-name="b" unicode="b" horiz-adv-x="1215" 
d="M325 18q-41 -49 -86 -49q-34 0 -55.5 21.5t-21.5 55.5q0 14 8 50q30 140 52 321t60 435l92 564q8 52 47.5 105.5t91.5 53.5q66 0 66 -64q0 -27 -22 -87q-4 -11 -5 -17l-78 -475q190 119 330 119q184 0 290.5 -123t106.5 -308q0 -277 -183.5 -470t-424.5 -193
q-152 0 -268 61zM439 717l-30 -174l-47 -320q112 -54 156.5 -65t105.5 -11q162 0 278 127t116 315q0 121 -65 196t-180 75q-128 0 -334 -143z" />
    <glyph glyph-name="c" unicode="c" horiz-adv-x="1052" 
d="M716 158l125 61q35 17 47 17q32 0 53.5 -24t21.5 -59q0 -81 -160.5 -148.5t-247.5 -67.5q-195 0 -308 108t-113 271q0 233 195 490t389 257q109 0 226 -51.5t117 -124.5q0 -40 -31.5 -75.5t-71.5 -35.5q-39 0 -82.5 49t-187.5 49q-105 0 -238.5 -193t-133.5 -331
q0 -98 71.5 -161.5t195.5 -63.5q61 0 133 33z" />
    <glyph glyph-name="d" unicode="d" horiz-adv-x="1203" 
d="M877 61q-158 -106 -327 -106q-190 0 -301 115.5t-111 286.5q0 263 171 474t439 211q162 0 256 -104q93 477 122 566t108 89q75 0 75 -69q0 -68 -137 -641q-50 -209 -80 -438t-28 -359v-13q0 -33 -32 -67.5t-79 -34.5q-61 0 -76 90zM885 289l23 172l41 233
q-49 162 -225 162q-214 0 -309 -148.5t-95 -302.5q0 -104 72 -183t188 -79q155 0 305 146z" />
    <glyph glyph-name="e" unicode="e" horiz-adv-x="1122" 
d="M290 301q87 -166 308 -166q78 0 185 32t146 81q41 53 82 53q33 0 55 -22.5t22 -52.5q0 -102 -174.5 -186.5t-344.5 -84.5q-214 0 -334 100.5t-120 270.5q0 246 167 482t432 236q176 0 269 -59t93 -167q0 -89 -60.5 -152.5t-131 -98t-184.5 -84.5zM303 485l327 148
q207 94 283 151q-73 80 -227 80q-246 0 -383 -379z" />
    <glyph glyph-name="f" unicode="f" horiz-adv-x="1041" 
d="M1032 1407q-122 0 -201.5 -84t-121.5 -254l-15 -61q172 12 224 12q158 0 143 -100q-12 -71 -92 -86q-17 -4 -38 -5.5t-44 -1.5q-45 3 -230 -12l-45 -227q-5 -32 -11 -79t-15 -110q-8 -62 -14 -107.5t-11 -76.5q-30 -187 -69 -295q-29 -80 -105 -80q-21 0 -38 7
t-28.5 19.5t-17 29.5t-2.5 36q2 5 2.5 10t3.5 11q22 66 38.5 136.5t29.5 146.5l39 274l45 289q-63 -5 -103 -8t-57 -3q-51 0 -71.5 24.5t-12.5 74.5q15 99 191 102l96 4q6 28 15.5 66t23.5 86q61 219 164 328q126 126 346 126q142 0 127 -98q-16 -94 -146 -94z" />
    <glyph glyph-name="g" unicode="g" 
d="M1019 430l-117 -502q-21 -81 -54 -161t-80 -141t-108.5 -102t-148.5 -64t-205 -23q-330 0 -330 107q0 35 22.5 69.5t78.5 34.5q18 0 48 -5q151 -28 236 -28q176 0 272.5 124t150.5 435q-145 -199 -330 -199q-161 0 -254.5 95.5t-93.5 251.5q0 267 186 484.5t510 217.5
q187 0 236 -96q91 -3 91 -88q0 -49 -90 -337q-15 -47 -20 -73zM765 864q-215 0 -338.5 -159t-123.5 -365q0 -199 180 -199q90 0 190.5 92t140 189t115.5 381q-73 61 -164 61z" />
    <glyph glyph-name="h" unicode="h" horiz-adv-x="1183" 
d="M442 492q-62 -384 -101.5 -449.5t-98.5 -65.5q-38 0 -63.5 25t-25.5 59q0 24 17 58q13 27 35 145l143 883l29 138q12 65 12 126q0 105 29 148t90 43q84 0 84 -89q0 -141 -53 -393q-27 -135 -41 -219l-13 -88q197 219 408 219q104 0 167 -45.5t63 -185.5q0 -57 -9 -133
l-22 -191l-13 -209q-1 -21 -1.5 -110t2 -106t-7.5 -43t-40 -48t-67 -22q-51 0 -69.5 34.5t-18.5 170.5q0 248 27 376q29 142 29 203q0 108 -71 108q-94 0 -184.5 -63.5t-235.5 -275.5z" />
    <glyph glyph-name="i" unicode="i" horiz-adv-x="574" 
d="M422 1363q0 53 42 93.5t95 40.5q46 0 73.5 -28.5t27.5 -67.5q0 -53 -41.5 -94t-96.5 -41q-43 0 -71.5 28t-28.5 69zM277 -4q-84 0 -84 77l40 306q14 120 58 309q36 172 47 236q18 100 115 100q84 0 84 -78q0 -26 -49 -258q-48 -211 -59 -309q-20 -177 -39.5 -280
t-112.5 -103z" />
    <glyph glyph-name="j" unicode="j" horiz-adv-x="826" 
d="M436 1361q0 52 42.5 93t95.5 41q45 0 73.5 -29t28.5 -68q0 -51 -43 -91.5t-96 -40.5q-44 0 -72.5 28t-28.5 67zM354 367l52 551q4 41 39 85t81 44q37 0 67 -26t28 -50l-60 -578l-71 -614q-15 -126 -120 -251.5t-241 -125.5q-142 0 -219.5 135t-77.5 189q0 42 37 77t84 35
q55 0 112 -156q28 -79 97 -79q43 0 85 53.5t58 192.5t49 518z" />
    <glyph glyph-name="k" unicode="k" horiz-adv-x="1106" 
d="M614 498q-42 -31 -201 -129q-39 -180 -57 -303q-8 -45 -40 -73t-75 -28q-84 0 -84 93q0 39 53 290q39 163 106.5 557t77.5 492q9 90 16 122.5t38 58.5t74 26q83 0 83 -83l-15 -127q-8 -82 -13 -108l-57 -321q-40 -223 -58 -349q127 86 297 228l256 227q39 35 78 35
q35 0 60 -27t25 -63q0 -28 -16 -52t-134.5 -132.5t-241.5 -204.5l172 -297q109 -188 109 -262q0 -41 -36.5 -75t-82.5 -34q-56 0 -76 57q-42 114 -121 240z" />
    <glyph glyph-name="l" unicode="l" horiz-adv-x="561" 
d="M503 786l-122 -654q-17 -87 -29.5 -114.5t-38 -44t-62.5 -16.5q-84 0 -84 77q0 23 30 176l109 576l124 713q11 71 42.5 91t71.5 20q86 0 86 -74q0 -42 -98 -581q-17 -90 -29 -169z" />
    <glyph glyph-name="m" unicode="m" horiz-adv-x="1591" 
d="M971 692q-16 -97 -22 -186l-14 -268q-11 -204 -20 -255.5t-41 -79.5t-75 -28q-83 0 -83 80q0 4 10.5 87.5t21.5 291.5q15 239 33 358q8 49 8 86q0 46 -12 78q-77 -30 -158 -102l-141 -133l-57 -64q-7 -41 -41 -176q-42 -177 -42 -257q0 -67 -6.5 -95t-38.5 -54t-75 -26
q-85 0 -85 140q0 83 50 296q39 156 44 196t11 142q23 248 62 317.5t92 69.5q36 0 62.5 -29t26.5 -66q0 -19 -24 -106q-5 -16 -6 -26l-14 -107q67 107 183 194t186 87q157 0 190 -156q134 146 328 146q203 0 203 -233q0 -189 -11 -463q-13 -342 -18 -357q-10 -31 -41.5 -54.5
t-69.5 -23.5q-82 0 -82 88q0 159 15 309l14 312q3 62 -16 143.5t-58 81.5q-32 0 -137 -58t-152 -100z" />
    <glyph glyph-name="n" unicode="n" horiz-adv-x="1072" 
d="M475 846q202 223 381 223q216 0 216 -269q0 -65 -11 -151l-33 -192q-14 -76 -14 -215q0 -207 -27.5 -260.5t-99.5 -53.5q-88 0 -82 95l6 219q2 88 24 224.5t36 184.5q10 62 10 106q0 109 -58 109q-132 0 -269 -173t-167 -309q-6 -25 -14 -54q-21 -69 -25 -135l-10 -126
q-5 -54 -37.5 -85t-79.5 -31q-84 0 -84 78l15 164q6 97 63 323q56 232 70 381l9 84q5 48 38 78.5t80 30.5q92 0 80 -129z" />
    <glyph glyph-name="o" unicode="o" horiz-adv-x="1077" 
d="M121 342q0 265 172 479.5t435 214.5q150 0 229.5 -105t79.5 -279q0 -285 -160 -498t-397 -213q-163 0 -261 115t-98 286zM675 834q-156 0 -256 -154.5t-100 -311.5q0 -104 54.5 -164.5t139.5 -60.5q132 0 233 120t101 355q0 216 -166 216h-6z" />
    <glyph glyph-name="p" unicode="p" horiz-adv-x="1095" 
d="M342 -2l-78 -479q-16 -101 -112 -101q-44 0 -67.5 28.5t-16.5 72.5l131 798q26 163 47 400l18 203q5 61 44.5 120.5t97.5 59.5q76 0 76 -78q0 -38 -25 -109q189 119 338 119q302 0 302 -378q0 -314 -153 -501.5t-387 -187.5q-101 0 -215 33zM440 684q-14 -149 -61 -475
q96 -43 209 -43q151 0 231 124.5t80 337.5q0 203 -135 203q-70 0 -138 -25t-186 -122z" />
    <glyph glyph-name="q" unicode="q" horiz-adv-x="1065" 
d="M823 -70q-56 -201 -86 -387q-6 -43 -37 -70.5t-76 -27.5q-85 0 -85 83q0 48 26 128l86 332q-98 -23 -127 -23q-204 0 -319.5 99.5t-115.5 263.5q0 136 74.5 312t245 299.5t404.5 123.5q70 0 88 -43q48 39 82 39q35 0 59 -26t24 -64q0 -30 -38 -227t-97 -427zM868 891
q-12 -6 -36 -6l-92 7q-76 0 -197 -75t-186 -214.5t-65 -246.5q0 -94 61 -155.5t181 -61.5q118 0 179 127.5t100 356.5z" />
    <glyph glyph-name="r" unicode="r" horiz-adv-x="984" 
d="M1034 739q-6 -40 -36.5 -82.5t-84.5 -42.5q-71 0 -71 71l5 54q0 17 3 43l10 84q-299 -31 -446 -284l-84 -547q-16 -103 -115 -103q-87 0 -72 103l111 700q38 239 63.5 269t75.5 30q80 0 80 -112q0 -24 -4 -54q217 187 455 187q128 0 128 -157q0 -40 -8 -89z" />
    <glyph glyph-name="s" unicode="s" horiz-adv-x="997" 
d="M840 915q-38 -11 -99 -27q-177 -48 -248 -93.5t-81 -108.5q25 -9 55 -14q235 -42 340.5 -126.5t105.5 -226.5q0 -180 -135 -279t-358 -99q-145 0 -259.5 50t-114.5 130q0 47 38.5 83t81.5 36q30 0 72 -47q21 -22 93 -37t120 -15q262 0 262 140q0 114 -164 157l-100 23
q-156 36 -195 84.5t-39 108.5q0 91 47 174t132.5 133t269.5 100q144 38 199 63q40 19 92 19q84 0 84 -81l-5 -73l2 -68q2 -91 -36.5 -121t-79.5 -30q-52 0 -66 28.5t-14 116.5z" />
    <glyph glyph-name="t" unicode="t" horiz-adv-x="965" 
d="M631 846q-12 -48 -31 -112q-84 -277 -84 -423q0 -172 80 -172q79 0 117 49q52 68 96 68q33 0 63.5 -25t30.5 -65q0 -88 -110.5 -150.5t-219.5 -62.5q-258 0 -258 321q0 176 79 430q21 67 40 134q-217 11 -248.5 36.5t-31.5 79.5q0 44 30 73.5t82 29.5l207 -17q6 26 9 60
q2 34 7 76l17 124q6 41 37.5 69t74.5 28q84 0 84 -135q0 -39 -12 -101l-20 -121q134 17 143 17q104 0 143 -20.5t39 -75.5q0 -49 -33.5 -79t-80.5 -30l-99 4q-74 0 -151 -10z" />
    <glyph glyph-name="u" unicode="u" horiz-adv-x="1065" 
d="M1044 584l-35 -217q-34 -209 -39 -282q-6 -73 -14.5 -95.5t-39.5 -46t-69 -23.5q-76 0 -82 94q-135 -63 -299 -63q-139 0 -215 61.5t-76 174.5q0 149 15 322t59 338.5t74.5 192.5t74.5 27q40 0 64 -22t24 -56q0 -32 -40 -168q-33 -104 -54.5 -260.5t-21.5 -270.5
q0 -58 6 -100q58 -36 121 -36q134 0 293 43l57 397q8 52 41.5 227.5t67 207.5t83.5 32q44 0 67 -28t15 -70z" />
    <glyph glyph-name="v" unicode="v" horiz-adv-x="996" 
d="M606 51q-15 -92 -104 -92q-71 0 -92 86l-88 408l-107 458q-4 17 -4 45q0 27 35.5 64t85.5 37q59 0 76 -62l143 -698q112 177 262 463q107 214 142.5 252.5t76.5 38.5q39 0 64 -26t25 -60q0 -39 -234 -441z" />
    <glyph glyph-name="w" unicode="w" horiz-adv-x="1401" 
d="M805 647l-113 -190l-217 -414q-20 -38 -49 -57q-43 -62 -105 -62q-57 0 -84 152t-22 567v150q0 177 43 212t84 35q37 0 60.5 -20.5t23.5 -109.5q0 -35 -4 -99l-8 -145l-13 -451q134 256 342 711q53 110 133 110q63 0 79 -71.5t16 -411.5q0 -251 10 -393l115 272l215 545
q24 61 96 61q40 0 64.5 -24t24.5 -59q0 -21 -76 -206t-172.5 -398.5t-148.5 -296t-90 -109.5t-77 -27q-52 0 -91.5 81t-39.5 425z" />
    <glyph glyph-name="x" unicode="x" horiz-adv-x="1209" 
d="M1022 721l-205 -176l260 -426q16 -26 16 -52q0 -41 -38 -75.5t-78 -34.5q-24 0 -41 12.5t-93.5 131.5t-187.5 305l-227 -201l-169 -144q-68 -59 -103 -59q-33 0 -58 26.5t-25 60.5q0 59 136 165q93 72 106 84l248 223l-102 189q-63 117 -111 165q-27 29 -27 62
q0 41 36 78t75 37q57 0 154 -154l135 -240l223 181q143 116 195 180q39 47 84 47q35 0 60 -26t25 -60q0 -58 -118 -162z" />
    <glyph glyph-name="y" unicode="y" horiz-adv-x="1066" 
d="M707 143q-194 -314 -271 -456l-96 -195q-35 -72 -100 -72q-38 0 -63.5 22.5t-25.5 59.5q0 91 308 594l-250 688l-33 74q-15 34 -15 62q0 47 38.5 82.5t81.5 35.5q32 0 58 -24t109.5 -224.5t155.5 -457.5l203 344q51 87 133.5 209.5t109.5 138.5t52 16q38 0 63.5 -25
t25.5 -60q0 -28 -19 -62z" />
    <glyph glyph-name="z" unicode="z" horiz-adv-x="1102" 
d="M513 166q106 4 185 4q38 0 112 -16q71 -15 115 -15q85 0 85 -82q0 -47 -32.5 -82.5t-83.5 -35.5q-49 0 -114 14q-66 14 -115 14q-217 0 -432 -41q-22 -4 -39 -4q-83 0 -83 68q0 62 66 114q302 240 682 736q-132 -9 -192 -9q-77 0 -207 11t-149.5 35t-19.5 55q0 49 33 87
t81 38q56 0 145 -13q100 -12 148 -12q68 0 204 10q158 11 207 11q75 0 75 -55q0 -85 -103 -189q-111 -112 -279 -309q-223 -268 -289 -334z" />
    <glyph glyph-name="braceleft" unicode="{" horiz-adv-x="750" 
d="M342 573q87 -135 87 -226q0 -45 -25 -118q-29 -94 -29 -166q0 -85 27 -172.5t81 -87.5q82 0 114 -10t32 -57q0 -43 -26 -82t-148 -39q-137 0 -205 126.5t-68 280.5q0 88 30 190q24 84 24 108q0 65 -72 124q-78 62 -78 105q0 47 90 124.5t152 94.5l59 426q30 218 145 324
t253 106q57 0 101.5 -27.5t44.5 -72.5q0 -78 -143 -86q-120 -7 -164 -70t-62 -218q-29 -246 -42 -325t-68 -152.5t-110 -99.5z" />
    <glyph glyph-name="bar" unicode="|" horiz-adv-x="863" 
d="M784 1626l-297 -1872q-18 -116 -104 -116q-69 0 -69 88q0 53 38 299l254 1601q6 36 36.5 62t70.5 26q87 0 71 -88z" />
    <glyph glyph-name="braceright" unicode="}" horiz-adv-x="750" 
d="M527 573q-49 27 -77 95.5t-28 117.5q0 29 42.5 236t42.5 265q0 74 -33 109.5t-119 41.5q-118 6 -118 63q0 56 57.5 89.5t121.5 33.5q105 0 189.5 -71t84.5 -238q0 -55 -10 -121l-39 -201l-37 -225q49 -17 110 -84.5t61 -116.5q0 -50 -111 -123q-56 -35 -82 -69.5
t-32.5 -60t-9.5 -102.5q-10 -234 -142 -415.5t-287 -181.5q-96 0 -118.5 21.5t-22.5 53.5q0 63 32.5 88t136.5 25q41 0 82.5 45.5t80 132t45 135t14.5 170.5q7 126 166 287z" />
    <glyph glyph-name="asciitilde" unicode="~" horiz-adv-x="1224" 
d="M758 862l90 -133q54 -80 127 -80q39 0 94 121q58 123 123 123q34 0 55.5 -20.5t21.5 -50.5q0 -102 -99.5 -228.5t-229.5 -126.5q-69 0 -139.5 36t-153.5 179q-42 74 -63 74q-83 0 -228 -189q-33 -51 -86 -51q-33 0 -55.5 21.5t-22.5 51.5q0 70 139 207.5t281 137.5
q86 0 146 -72z" />
    <glyph glyph-name="uni00A0" unicode="&#xa0;" horiz-adv-x="612" 
 />
    <glyph glyph-name="exclamdown" unicode="&#xa1;" horiz-adv-x="487" 
d="M473 1606q36 0 66.5 -43.5t30.5 -86.5q0 -40 -34 -71t-73 -31q-35 0 -66.5 44t-31.5 84t33.5 72t74.5 32zM307 1135q14 90 102 90q76 0 76 -66l-18 -145q-11 -89 -17 -121l-113 -690q-22 -133 -37 -201t-95 -68q-86 0 -74 89z" />
    <glyph glyph-name="cent" unicode="&#xa2;" horiz-adv-x="1276" 
d="M679 274l-10 -57q-32 -184 -121 -184q-72 0 -72 62q0 24 35 208q-158 56 -221.5 149.5t-63.5 238.5q0 302 164 508.5t365 260.5q26 161 42 221t83 60q34 0 57 -25t17 -61l-29 -178q98 -9 191 -70q42 68 116 68q54 0 54 -47q0 -54 -55.5 -166.5t-94.5 -112.5q-16 0 -41 25
q-72 79 -112 103.5t-89 31.5q-15 -92 -90 -435l-96 -432q124 6 197 74l137 162q40 47 80 47q73 0 73 -64q0 -85 -148.5 -232.5t-367.5 -154.5zM548 479l174 801q-331 -170 -331 -571q0 -80 34.5 -134t122.5 -96z" />
    <glyph glyph-name="sterling" unicode="&#xa3;" horiz-adv-x="1625" 
d="M430 891q41 326 230 522.5t463 196.5q160 0 285 -71.5t125 -187.5q0 -67 -36.5 -95.5t-74.5 -28.5q-49 0 -70 59q-27 80 -87 116t-183 36q-181 0 -307 -137.5t-158 -354.5q-6 -33 -6 -43q153 12 233 12q58 0 172 -6q117 -6 174 -6q77 0 77 -74q0 -41 -30.5 -72.5
t-72.5 -31.5q-60 0 -177 6q-113 6 -170 6q-80 0 -204 -10q9 -152 9 -244q0 -182 -81 -338h27q97 0 221 -57q130 -59 225 -59q94 0 152.5 20t82.5 50.5t56 127.5q28 72 96 72q76 0 76 -70q0 -52 -42.5 -148.5t-154 -163.5t-295.5 -67q-93 0 -227 60q-128 57 -227 57
q-73 0 -166 -41q-95 -43 -109 -43q-72 0 -72 76q0 37 64 94q119 109 158 204.5t39 235.5q0 90 -10 222q-76 -4 -154 -4q-132 0 -132 77q0 42 30 74.5t73 32.5l107 -4h71z" />
    <glyph glyph-name="currency" unicode="&#xa4;" horiz-adv-x="1253" 
d="M641 1077q81 29 201 29q39 0 123 -43l186 104q143 80 176 80q34 0 58.5 -27t24.5 -62q0 -46 -29.5 -71.5t-297.5 -171.5q14 -38 14 -88q0 -155 -116 -284q68 -58 126 -136t58 -119q0 -37 -37 -72.5t-81 -35.5q-40 0 -66 33l-78 100q-34 44 -88 90q-46 -20 -131 -20
q-89 0 -203 80l-211 -207q-38 -37 -79 -37q-37 0 -63.5 24.5t-26.5 61.5q0 47 53.5 93.5t214.5 213.5q-19 51 -19 107q0 139 109 248l-94 120q-60 77 -60 126q-1 37 36 71.5t83 34.5q39 0 67.5 -32.5t149.5 -209.5zM895 789q0 118 -119 118q-64 0 -144.5 -39.5t-80.5 -128.5
q0 -71 47 -112t123 -41q62 0 118 58t56 145z" />
    <glyph glyph-name="yen" unicode="&#xa5;" horiz-adv-x="1302" 
d="M662 608q-22 40 -72 142q-30 0 -140.5 10.5t-128.5 27t-18 45.5q0 97 99 97q56 0 118 -6q-180 426 -180 449q0 27 31 56t68 29q24 0 40.5 -13.5t53 -91.5t59.5 -143q49 -140 84 -215l90 -207q127 128 251 311l204 300q30 53 84 53q31 0 51.5 -19.5t20.5 -48.5
q0 -32 -136 -229l-168 -231l115 12q72 7 72 -62q0 -106 -99 -106q-32 0 -106 -10q-34 -5 -59 -6q-26 -2 -43 -4q-78 -82 -134 -144l-6 -47l51 -2q59 -2 158 10q93 12 93 -70q0 -53 -41 -77.5t-156 -24.5q-54 0 -131 4l-31 -202q-2 -13 -8 -82q-9 -106 -30 -136t-75 -30
q-71 0 -71 62l12 116q1 13 12 94l29 180q-61 9 -125 9q-159 3 -159 81q0 91 118 91l88 -5h65q28 0 44 -2z" />
    <glyph glyph-name="brokenbar" unicode="&#xa6;" horiz-adv-x="828" 
d="M729 1620l-109 -671q-10 -72 -89 -72q-60 0 -60 64q0 12 31 198l57 342q25 155 33.5 174t28 30t47.5 11q74 0 61 -76zM398 -43q-64 0 -64 55q0 8 17 130q9 65 18 153q34 275 57 348.5t84 73.5q62 0 62 -56q0 -14 -5 -37q-23 -98 -49 -329q-21 -204 -34.5 -271t-85.5 -67z
" />
    <glyph glyph-name="section" unicode="&#xa7;" horiz-adv-x="1300" 
d="M1057 516q61 -79 61 -180q0 -177 -138 -295.5t-377 -118.5q-225 0 -346.5 89.5t-121.5 247.5q0 96 26.5 132.5t84.5 36.5q57 0 72 -55l14 -105q25 -186 297 -186q141 0 224.5 64.5t83.5 160.5q0 115 -158 170l-330 113q-38 13 -90.5 79.5t-52.5 166.5q0 185 158 305
q-27 53 -27 119q0 169 135.5 274.5t333.5 105.5q163 0 271.5 -77.5t108.5 -141.5q0 -41 -30 -72.5t-67 -31.5q-29 0 -123 78q-96 80 -183 80q-92 0 -174 -47.5t-82 -126.5q0 -95 152 -179l268 -145q136 -74 136 -238q0 -97 -43 -155t-83 -68zM980 590q1 3 5 12q21 51 21 83
q0 105 -166 189l-268 140q-85 -48 -85 -139q0 -64 49 -113.5t243 -99.5q148 -39 201 -72z" />
    <glyph glyph-name="dieresis" unicode="&#xa8;" horiz-adv-x="1139" 
d="M1165 1293q0 -37 -36 -68t-122 -31q-38 0 -67.5 21.5t-29.5 52.5q0 55 34.5 83.5t129.5 28.5q33 0 62 -28t29 -59zM653 1288q0 -47 -48.5 -75.5t-87.5 -28.5q-108 0 -108 81q0 49 46.5 78t80.5 29q117 0 117 -84z" />
    <glyph glyph-name="copyright" unicode="&#xa9;" horiz-adv-x="1629" 
d="M1647 1109q0 -334 -270.5 -595.5t-559.5 -261.5q-636 0 -636 503q0 382 311.5 623.5t627.5 241.5q255 0 391 -142t136 -369zM362 787q0 -183 115 -271t369 -88q214 0 419 208.5t205 467.5q0 151 -84.5 242.5t-253.5 91.5q-334 0 -552 -176t-218 -475zM705 929
q0 -47 52 -81.5t109 -34.5q75 0 162 61q83 64 109 64q33 0 55.5 -23.5t22.5 -56.5q0 -74 -131.5 -147.5t-243.5 -73.5q-138 0 -227 77.5t-89 184.5q0 167 174 293.5t357 126.5q54 0 91 -28t37 -74q0 -89 -92 -89q-12 0 -29 6q-17 5 -28 5q-130 0 -229.5 -65t-99.5 -145z" />
    <glyph glyph-name="ordfeminine" unicode="&#xaa;" horiz-adv-x="1079" 
d="M864 971q-41 -26 -124.5 -45t-139.5 -19q-125 0 -193.5 74.5t-68.5 193.5q0 183 130.5 337.5t371.5 154.5q106 0 175.5 -26t69.5 -74q0 -54 -28 -78q-55 -141 -55 -313q0 -30 4 -50q-2 -3 5 -20q36 -95 36 -121q0 -25 -38 -55.5t-87 -30.5q-22 0 -58 72zM889 1513
q-27 15 -100 15q-115 0 -189.5 -104.5t-74.5 -226.5q0 -126 124 -126q117 0 176 49q0 87 21 215.5t43 177.5z" />
    <glyph glyph-name="guillemotleft" unicode="&#xab;" horiz-adv-x="1183" 
d="M393 614q49 -39 117 -127q80 -102 111 -133q27 -27 27 -56q0 -38 -32.5 -70.5t-72.5 -32.5q-28 0 -52 18.5t-145 167.5q-87 107 -172 141q-64 24 -64 73q0 56 85 93q101 47 229 162l194 171q46 40 85 40q32 0 53 -23t21 -55q0 -27 -14 -48.5t-122.5 -115.5t-247.5 -205z
M842 592q46 -35 121 -125q60 -81 108 -135q28 -25 28 -56q0 -39 -34 -71.5t-72 -32.5q-30 0 -63 30t-135 158q-84 105 -170 140q-63 24 -63 72q0 58 81 96q94 39 229 159q155 140 202 176.5t77 36.5q32 0 55.5 -24t23.5 -58q0 -35 -37 -70.5t-125.5 -110.5t-225.5 -185z" />
    <glyph glyph-name="logicalnot" unicode="&#xac;" horiz-adv-x="984" 
d="M944 338q-16 -90 -104 -90q-89 0 -74 90l33 229q-349 -20 -524 -20q-143 0 -143 77q0 54 33.5 77.5t137.5 23.5h88l336 6q13 0 98 5q176 10 176 -78q0 -28 -30 -169z" />
    <glyph glyph-name="uni00AD" unicode="&#xad;" horiz-adv-x="853" 
d="M254 461q-73 0 -73 57q0 98 98 98q99 0 239 7q126 8 238 8q77 0 77 -60q0 -71 -64 -90.5t-515 -19.5z" />
    <glyph glyph-name="registered" unicode="&#xae;" horiz-adv-x="1629" 
d="M1684 1076q0 -355 -280 -612t-619 -257q-273 0 -430 139t-157 368q0 191 93 410.5t316.5 362.5t566.5 143q234 0 372 -168t138 -386zM379 747q0 -171 114 -266.5t320 -95.5q265 0 477 195.5t212 471.5q0 163 -100.5 282.5t-274.5 119.5q-266 0 -435.5 -103t-241 -281
t-71.5 -323zM973 858l38 -53q45 -66 105 -84q59 -25 59 -73q0 -40 -32.5 -72.5t-71.5 -32.5q-114 0 -229 174q-58 81 -96 110q-52 -168 -79.5 -225t-88.5 -57q-34 0 -57.5 21t-23.5 51l4 23q0 4 3 9l168 502q58 172 133 176q9 0 24 4q76 21 103 21q230 0 318.5 -45
t88.5 -134q0 -102 -83.5 -190t-282.5 -125zM809 1012q335 30 348 129q-42 33 -217 33h-39q-24 0 -47 -7q-6 -29 -45 -155z" />
    <glyph glyph-name="macron" unicode="&#xaf;" horiz-adv-x="1284" 
d="M850 1335h50q31 0 73 2l71 2q72 2 94.5 -9.5t22.5 -45.5q0 -78 -77 -92l-113 -6h-215l-227 6q-62 0 -62 56q0 57 33.5 76t114.5 19q40 0 116 -4q82 -4 119 -4z" />
    <glyph glyph-name="degree" unicode="&#xb0;" horiz-adv-x="838" 
d="M973 1382q0 -178 -135 -292.5t-295 -114.5q-137 0 -207 82.5t-70 202.5q0 178 121.5 298.5t284.5 120.5q141 0 221 -86.5t80 -210.5zM418 1288q0 -63 36.5 -114.5t110.5 -51.5q86 0 171 61.5t85 174.5q0 78 -45.5 126t-126.5 48t-156 -68.5t-75 -175.5z" />
    <glyph glyph-name="plusminus" unicode="&#xb1;" horiz-adv-x="984" 
d="M629 557l-12 -78q-5 -32 -20.5 -111t-48.5 -108t-73 -29q-75 0 -63 91l35 231q-120 -6 -172 -6q-143 0 -143 77q0 55 32 78t139 23q53 0 172 6l23 152q25 164 119 164q34 0 56.5 -22t22.5 -54q0 -10 -6 -36q-4 -15 -7 -31l-8 -30q-4 -15 -5 -24l-16 -115l73 -4q7 0 98 5
q176 10 176 -78q0 -40 -29.5 -73.5t-72.5 -33.5l-71 8l-101 -2q-92 -2 -98 0zM547 61h98l57 2q192 7 192 -78q0 -42 -30.5 -75t-70.5 -33q-13 0 -54 7q-27 4 -294 -5q-149 -8 -277 -8q-142 0 -142 77q0 103 126 103q65 0 199 4q132 6 196 6z" />
    <glyph glyph-name="uni00B2" unicode="&#xb2;" horiz-adv-x="1333" 
d="M442 975l168 -4q40 -1 97 8q68 10 98 10q60 0 60 -62q0 -106 -281 -106h-43q-26 0 -60 2l-58 2q-74 3 -95.5 7.5t-43 25t-21.5 53.5q0 149 374 373q116 67 116 164q0 102 -106 102q-86 0 -157 -118q-32 -41 -68 -41q-67 0 -67 57q0 85 105 162.5t230 77.5q97 0 160.5 -63
t63.5 -154q0 -198 -293 -353q-100 -55 -179 -143z" />
    <glyph glyph-name="uni00B3" unicode="&#xb3;" horiz-adv-x="1333" 
d="M730 1280q151 -39 151 -166q0 -133 -109.5 -217t-276.5 -84q-231 0 -231 89q0 29 23 61t54 32q5 0 24 -6q74 -24 154 -24q195 0 195 138q0 50 -24.5 63.5t-143.5 27.5q-47 9 -47 44q0 44 25 65t94 38q110 28 110 125q0 64 -107 64q-75 0 -153 -23q-14 -4 -22 -4
q-55 0 -55 46q0 83 82.5 107.5t180.5 24.5q85 0 161.5 -42.5t76.5 -143.5q0 -148 -162 -215z" />
    <glyph glyph-name="acute" unicode="&#xb4;" horiz-adv-x="1139" 
d="M412 1269q0 37 42 74q51 43 157 160q45 51 115 106.5t111 55.5q30 0 53 -23t23 -55q0 -50 -50 -86q-89 -62 -157 -143q-149 -170 -218 -170q-31 0 -53.5 23t-22.5 58z" />
    <glyph glyph-name="mu" unicode="&#xb5;" horiz-adv-x="1065" 
d="M148 -342q-33 -64 -95 -64q-36 0 -59.5 22.5t-23.5 54.5q0 35 114 253q118 229 137 289l33 135q56 231 146.5 435t133.5 244t93 40q71 0 71 -57q0 -42 -67 -174q-108 -223 -152 -377.5t-57 -229.5l-6 -39q55 -36 114 -36q134 0 302 43l139 389q91 256 152 365.5
t143 109.5q71 0 71 -54q0 -41 -77 -210l-91 -213l-159 -432l-38 -121q-18 -57 -54.5 -84t-85.5 -27q-76 0 -64 94q-147 -63 -311 -63q-88 0 -146 24z" />
    <glyph glyph-name="paragraph" unicode="&#xb6;" horiz-adv-x="1421" 
d="M1185 1380q-51 -330 -145.5 -684t-172.5 -577t-109 -269.5t-85 -46.5q-78 0 -78 72q0 18 9 43q40 103 82 238l71 239q-33 -6 -63 -6q-213 0 -367.5 112t-154.5 286q0 215 159.5 436t475.5 327l372 101q22 6 37 6q32 0 52.5 -22t20.5 -56q0 -78 -89 -102zM1015 1427
q-388 -89 -525 -268t-137 -339q0 -109 112 -181t256 -72q47 0 106 21q110 326 166 688zM952 -184q-32 0 -56.5 21t-24.5 52q0 24 13 48q106 219 239 619.5t167.5 558t34.5 286.5q0 150 21 192.5t91 42.5q42 0 59.5 -29.5t17.5 -117.5q0 -203 -90 -524t-214 -681t-170.5 -414
t-87.5 -54z" />
    <glyph glyph-name="periodcentered" unicode="&#xb7;" horiz-adv-x="510" 
d="M249 695q0 55 45 100t101 45q47 0 76.5 -32t29.5 -74q0 -56 -45.5 -99t-101.5 -43q-47 0 -76 30.5t-29 72.5z" />
    <glyph glyph-name="periodcentered" unicode="&#x2219;" horiz-adv-x="510" 
d="M249 695q0 55 45 100t101 45q47 0 76.5 -32t29.5 -74q0 -56 -45.5 -99t-101.5 -43q-47 0 -76 30.5t-29 72.5z" />
    <glyph glyph-name="cedilla" unicode="&#xb8;" horiz-adv-x="1139" 
d="M547 -444q-103 0 -169 37t-66 94q0 69 79 69q22 0 78 -24q55 -25 92 -25q112 0 112 107q0 50 -48.5 92.5t-120.5 58.5q-54 13 -54 60q0 90 83 90q115 0 206 -84.5t91 -187.5q0 -109 -65.5 -198t-217.5 -89z" />
    <glyph glyph-name="uni00B9" unicode="&#xb9;" horiz-adv-x="1333" 
d="M514 973l72 454q-78 -43 -127 -43q-64 0 -64 51q0 72 72 93q12 5 44 25q181 110 202 110q49 0 49 -43q0 -27 -8 -78l-90 -569l45 2q85 4 118.5 -5t33.5 -42q0 -29 -27 -57.5t-62 -28.5h-407q-29 0 -47 19t-18 44q0 55 52 66l24 2h138z" />
    <glyph glyph-name="ordmasculine" unicode="&#xba;" horiz-adv-x="920" 
d="M341 1198q0 182 128.5 331.5t355.5 149.5q126 0 194.5 -74t68.5 -205q0 -192 -119 -340.5t-324 -148.5q-141 0 -222.5 79t-81.5 208zM530 1223q0 -68 37.5 -113t106.5 -45q100 0 164 88t64 197q0 74 -33.5 125t-86.5 51q-115 0 -183.5 -99.5t-68.5 -203.5z" />
    <glyph glyph-name="guillemotright" unicode="&#xbb;" horiz-adv-x="1183" 
d="M897 614q-121 129 -188.5 211t-77 98.5t-9.5 35.5q0 36 33.5 69t73.5 33q28 0 53.5 -23.5t157.5 -187.5q91 -115 178 -162q57 -29 57 -72q0 -62 -90 -94q-102 -37 -217 -141q-144 -133 -185.5 -159.5t-68.5 -26.5q-32 0 -54 22.5t-22 55.5q0 47 46 81q70 56 153 133
q109 96 160 127zM438 592q-105 115 -182.5 207t-84 105t-6.5 30q0 44 35.5 75t71.5 31q27 0 56 -25.5t153 -187.5q97 -120 181 -159q56 -31 56 -75q0 -63 -89 -93q-94 -31 -217 -140q-150 -133 -189 -160.5t-67 -27.5q-30 0 -52.5 23t-22.5 55q0 43 46 82q38 29 156 135
q114 99 155 125z" />
    <glyph glyph-name="onequarter" unicode="&#xbc;" horiz-adv-x="1333" 
d="M756 1034l74 455q-80 -43 -129 -43q-62 0 -62 49q0 74 70 94q18 7 129 76q92 59 119 59q49 0 49 -43q0 -26 -8 -77l-93 -570l48 2q85 4 117.5 -4.5t32.5 -39.5q0 -34 -27 -61.5t-62 -27.5h-408q-62 0 -62 63q0 55 50 66l24 2h138zM1077 727q160 -5 192.5 -16.5
t32.5 -53.5q0 -88 -89 -88l-205 11q-224 12 -416 12q-45 0 -137 -4l-79 -2q-78 -2 -100.5 10t-22.5 48q0 91 89 91h57l218 6zM809 14l58 2q115 4 115 -61q0 -59 -74 -59q-20 0 -58 4l-57 6l-25 -172q-11 -76 -88 -76q-73 0 -61 76l26 170l-325 -17q-68 -4 -68 59
q0 59 60 109q67 60 331 326q82 83 112.5 102t72.5 19q29 0 48.5 -19t19.5 -45q0 -16 -38 -104q-7 -17 -8 -29zM666 18l37 226l-236 -226q40 5 72 5z" />
    <glyph glyph-name="onehalf" unicode="&#xbd;" horiz-adv-x="1333" 
d="M758 1034l74 455q-80 -43 -129 -43q-62 0 -62 49q0 74 70 94q18 7 129 76q92 59 119 59q48 0 48 -54q0 -20 -9 -73l-91 -563l48 2q85 4 117.5 -4.5t32.5 -39.5q0 -34 -27 -61.5t-62 -27.5h-408q-62 0 -62 63q0 55 50 66l24 2h138zM1079 727q160 -5 192.5 -16.5
t32.5 -53.5q0 -88 -89 -88l-205 11q-224 12 -416 12q-45 0 -137 -4l-79 -2q-78 -2 -100.5 10t-22.5 48q0 91 89 91h57l218 6zM510 -205l166 -4q29 -1 98 10q75 11 99 11q60 0 60 -64q0 -106 -282 -106h-43q-25 0 -59 2l-119 4q-29 2 -52 13t-35.5 28.5t-12.5 39.5
q0 43 32.5 113t110.5 131l217 133q129 79 129 151q0 27 -31.5 60t-58.5 33q-68 0 -114 -41l-60 -76q-34 -43 -69 -43q-67 0 -67 60q0 85 106 161t229 76q88 0 152.5 -64.5t64.5 -144.5q0 -96 -57 -179.5t-222 -170.5q-119 -64 -182 -133z" />
    <glyph glyph-name="threequarters" unicode="&#xbe;" horiz-adv-x="1333" 
d="M1049 1315q64 -53 64 -157q0 -160 -109.5 -232t-259.5 -72q-192 0 -192 85q0 36 28 63.5t59 27.5q11 0 51 -12q46 -12 76 -12q68 0 116.5 16t64.5 36t16 66q0 65 -49 84l-115 15q-54 7 -54 55q0 67 119 98q120 32 120 102q0 72 -142 72q-9 0 -42 -8q-34 -8 -46 -8
q-52 0 -52 45q0 55 50 89t115 34q120 0 193.5 -53.5t73.5 -143.5q0 -117 -85 -190zM1213 569l-205 11q-224 12 -416 12q-45 0 -137 -4l-79 -2q-78 -2 -100.5 10t-22.5 48q0 91 89 91h57l218 6q231 0 460 -14q29 -2 70 -3q106 -4 131 -15t25 -48q0 -92 -90 -92zM809 14l47 2
q126 5 126 -62q0 -58 -74 -58q-20 0 -58 4q-44 6 -57 6l-25 -172q-11 -76 -88 -76q-73 0 -61 76l26 170l-325 -17q-68 -4 -68 59q0 62 60 109q100 81 213 199l202 209q38 39 101 39q68 0 68 -64q0 -12 -22 -63q-21 -49 -24 -70zM666 18l37 226l-236 -226q40 5 72 5z" />
    <glyph glyph-name="questiondown" unicode="&#xbf;" horiz-adv-x="1073" 
d="M1002 1390q0 -58 -47 -120t-108 -62q-80 0 -80 80q0 69 40.5 130t95.5 61q42 0 70.5 -26t28.5 -63zM718 825l-266 -182q-163 -111 -163 -240q0 -99 86.5 -185.5t199.5 -86.5q61 0 168 64q109 65 131 65q35 0 59.5 -25.5t24.5 -61.5q0 -89 -161 -167t-255 -78
q-186 0 -320.5 134t-134.5 302q0 151 78 260t300 253q175 112 241 180q41 41 80 41q38 0 64 -26.5t26 -61.5q0 -77 -158 -185z" />
    <glyph glyph-name="Agrave" unicode="&#xc0;" horiz-adv-x="1498" 
d="M1114 520q-110 -13 -274 -49l-275 -55q-206 -362 -246 -400.5t-92 -38.5q-37 0 -62.5 25t-25.5 59q0 53 211 381q-11 19 -11 45q0 94 116 119q129 191 398 532t325 341q78 0 90 -111l8 -336l41 -694l31 -160q13 -65 13 -96q0 -43 -37 -78t-83 -35q-65 0 -95 132.5
t-32 418.5zM1081 1112l-360 -461q99 26 381 76zM1193 1682l-78 147q-38 71 -102 129q-28 25 -28 59q0 42 34 73.5t70 31.5q60 0 169.5 -156t109.5 -226q0 -37 -34 -69t-75 -32q-45 0 -66 43z" />
    <glyph glyph-name="Aacute" unicode="&#xc1;" horiz-adv-x="1498" 
d="M1114 520q-110 -13 -274 -49l-275 -55q-206 -362 -246 -400.5t-92 -38.5q-37 0 -62.5 25t-25.5 59q0 53 211 381q-11 19 -11 45q0 94 116 119q129 191 398 532t325 341q78 0 90 -111l8 -336l41 -694l31 -160q13 -65 13 -96q0 -43 -37 -78t-83 -35q-65 0 -95 132.5
t-32 418.5zM1081 1112l-360 -461q99 26 381 76zM1108 1711q0 37 42 74q51 43 157 160q45 51 115 106.5t111 55.5q30 0 53 -23t23 -55q0 -50 -50 -86q-89 -62 -157 -143q-149 -170 -218 -170q-31 0 -53.5 23t-22.5 58z" />
    <glyph glyph-name="Acircumflex" unicode="&#xc2;" horiz-adv-x="1498" 
d="M1114 520q-110 -13 -274 -49l-275 -55q-206 -362 -246 -400.5t-92 -38.5q-37 0 -62.5 25t-25.5 59q0 53 211 381q-11 19 -11 45q0 94 116 119q129 191 398 532t325 341q78 0 90 -111l8 -336l41 -694l31 -160q13 -65 13 -96q0 -43 -37 -78t-83 -35q-65 0 -95 132.5
t-32 418.5zM1081 1112l-360 -461q99 26 381 76zM1227 1878q-305 -314 -375 -314q-31 0 -54 24t-23 55q0 44 40 79q43 33 359 336q31 31 65 31q41 0 83 -33t130 -146l131 -170q18 -24 18 -47q0 -39 -32 -71.5t-74 -32.5t-70 42t-198 247z" />
    <glyph glyph-name="Atilde" unicode="&#xc3;" horiz-adv-x="1498" 
d="M1114 520q-110 -13 -274 -49l-275 -55q-206 -362 -246 -400.5t-92 -38.5q-37 0 -62.5 25t-25.5 59q0 53 211 381q-11 19 -11 45q0 94 116 119q129 191 398 532t325 341q78 0 90 -111l8 -336l41 -694l31 -160q13 -65 13 -96q0 -43 -37 -78t-83 -35q-65 0 -95 132.5
t-32 418.5zM1081 1112l-360 -461q99 26 381 76zM1266 1946l68 -104q39 -60 102 -60q56 0 90 37l59 88l31 60q14 28 66 28q63 0 63 -55q0 -50 -88.5 -177.5t-212.5 -127.5q-115 0 -166 33t-100 131q-35 57 -86 57q-61 0 -105 -47l-59 -84q-32 -45 -70 -45q-68 0 -68 59l4 23
q4 53 98 148t224 95q100 0 150 -59z" />
    <glyph glyph-name="Adieresis" unicode="&#xc4;" horiz-adv-x="1498" 
d="M1114 520q-110 -13 -274 -49l-275 -55q-206 -362 -246 -400.5t-92 -38.5q-37 0 -62.5 25t-25.5 59q0 53 211 381q-11 19 -11 45q0 94 116 119q129 191 398 532t325 341q78 0 90 -111l8 -336l41 -694l31 -160q13 -65 13 -96q0 -43 -37 -78t-83 -35q-65 0 -95 132.5
t-32 418.5zM1081 1112l-360 -461q99 26 381 76zM1605 1744q0 -37 -36 -68t-122 -31q-38 0 -67.5 21.5t-29.5 52.5q0 55 34.5 83.5t129.5 28.5q33 0 62 -28t29 -59zM1093 1739q0 -47 -48.5 -75.5t-87.5 -28.5q-108 0 -108 81q0 49 46.5 78t80.5 29q117 0 117 -84z" />
    <glyph glyph-name="Aring" unicode="&#xc5;" horiz-adv-x="1498" 
d="M1114 520q-110 -13 -274 -49l-275 -55q-206 -362 -246 -400.5t-92 -38.5q-37 0 -62.5 25t-25.5 59q0 53 211 381q-11 19 -11 45q0 94 116 119q129 191 398 532t325 341q78 0 90 -111l8 -336l41 -694l31 -160q13 -65 13 -96q0 -43 -37 -78t-83 -35q-65 0 -95 132.5
t-32 418.5zM1081 1112l-360 -461q99 26 381 76zM1296 2001q125 0 199.5 -65.5t74.5 -161.5q0 -132 -97.5 -238t-313.5 -106q-138 0 -208 69t-70 153q0 146 115 247.5t300 101.5zM1417 1751q0 43 -42.5 73t-100.5 30q-133 0 -186 -55t-53 -118q0 -41 49.5 -72.5t113.5 -31.5
q122 0 170.5 54.5t48.5 119.5z" />
    <glyph glyph-name="AE" unicode="&#xc6;" horiz-adv-x="2226" 
d="M1253 672q-121 -5 -272 -19l-276 -24q-132 -147 -320 -385l-149 -187q-36 -45 -88 -45q-36 0 -63 26t-27 60q0 20 16.5 52t258.5 325t417 467l327 346q140 148 255 222.5t177 74.5q44 0 68 -29q262 66 438 66q432 0 432 -137q0 -49 -36 -86t-80 -37q-13 0 -31 4
q-177 49 -317 49q-168 0 -400 -61q0 -69 -11.5 -140t-70.5 -346l443 41q227 21 239 21q88 0 88 -85q0 -101 -106 -120l-711 -63q-70 -314 -70 -447q0 -58 24.5 -76t139.5 -18h77l298 6q10 0 93 10q119 14 119 -73q0 -76 -62.5 -113t-259.5 -37h-220q-153 0 -247.5 27
t-127.5 84.5t-33 173.5q0 133 68 473zM911 844q212 21 390 26q84 394 81 449q-116 -94 -241 -232z" />
    <glyph glyph-name="Ccedilla" unicode="&#xc7;" horiz-adv-x="1234" 
d="M1232 1473q43 51 98 51q75 0 75 -118q0 -169 -36 -226.5t-98 -57.5q-63 0 -84 74q-21 75 -45.5 82.5t-95.5 7.5q-176 0 -433.5 -305.5t-257.5 -540.5q0 -102 66 -181t174 -79q88 0 171.5 33.5t242.5 138.5q65 41 92 41q38 0 62.5 -26t24.5 -63q0 -29 -20 -60.5t-142 -111
t-237 -118.5t-225 -39q-184 0 -298.5 128t-114.5 302q0 321 324.5 703.5t602.5 382.5q110 0 154 -18zM480 -413q-103 0 -169 37t-66 94q0 69 79 69q22 0 78 -24q55 -25 92 -25q112 0 112 107q0 50 -48.5 92.5t-120.5 58.5q-54 13 -54 60q0 90 83 90q115 0 206 -84.5
t91 -187.5q0 -109 -65.5 -198t-217.5 -89z" />
    <glyph glyph-name="Egrave" unicode="&#xc8;" horiz-adv-x="1279" 
d="M576 1337q0 -96 -86 -485l446 43q187 18 238 18q90 0 90 -83q0 -107 -111 -121l-710 -64q-68 -311 -68 -446q0 -61 25.5 -78t138.5 -17l375 9q13 0 93 10q117 15 117 -77t-72.5 -118t-439.5 -26q-284 0 -360.5 59.5t-76.5 219.5q0 177 79 515q-5 23 -5 35q0 44 32 76
q61 277 76.5 370.5t15.5 163.5q7 134 34 182t93 48q42 0 69 -31q256 66 437 66q153 0 265 -25t139 -50.5t27 -62.5q0 -48 -35.5 -85t-80.5 -37q-12 0 -31 6q-166 47 -317 47q-166 0 -397 -62zM921 1790l-78 147q-38 71 -102 129q-28 25 -28 59q0 42 34 73.5t70 31.5
q60 0 169.5 -156t109.5 -226q0 -37 -34 -69t-75 -32q-45 0 -66 43z" />
    <glyph glyph-name="Eacute" unicode="&#xc9;" horiz-adv-x="1279" 
d="M576 1337q0 -96 -86 -485l446 43q187 18 238 18q90 0 90 -83q0 -107 -111 -121l-710 -64q-68 -311 -68 -446q0 -61 25.5 -78t138.5 -17l375 9q13 0 93 10q117 15 117 -77t-72.5 -118t-439.5 -26q-284 0 -360.5 59.5t-76.5 219.5q0 177 79 515q-5 23 -5 35q0 44 32 76
q61 277 76.5 370.5t15.5 163.5q7 134 34 182t93 48q42 0 69 -31q256 66 437 66q153 0 265 -25t139 -50.5t27 -62.5q0 -48 -35.5 -85t-80.5 -37q-12 0 -31 6q-166 47 -317 47q-166 0 -397 -62zM944 1847q0 37 42 74q51 43 157 160q45 51 115 106.5t111 55.5q30 0 53 -23
t23 -55q0 -50 -50 -86q-89 -62 -157 -143q-149 -170 -218 -170q-31 0 -53.5 23t-22.5 58z" />
    <glyph glyph-name="Ecircumflex" unicode="&#xca;" horiz-adv-x="1279" 
d="M576 1337q0 -96 -86 -485l446 43q187 18 238 18q90 0 90 -83q0 -107 -111 -121l-710 -64q-68 -311 -68 -446q0 -61 25.5 -78t138.5 -17l375 9q13 0 93 10q117 15 117 -77t-72.5 -118t-439.5 -26q-284 0 -360.5 59.5t-76.5 219.5q0 177 79 515q-5 23 -5 35q0 44 32 76
q61 277 76.5 370.5t15.5 163.5q7 134 34 182t93 48q42 0 69 -31q256 66 437 66q153 0 265 -25t139 -50.5t27 -62.5q0 -48 -35.5 -85t-80.5 -37q-12 0 -31 6q-166 47 -317 47q-166 0 -397 -62zM1092 2046q-305 -314 -375 -314q-31 0 -54 24t-23 55q0 44 40 79q43 33 359 336
q31 31 65 31q41 0 83 -33t130 -146l131 -170q18 -24 18 -47q0 -39 -32 -71.5t-74 -32.5t-70 42t-198 247z" />
    <glyph glyph-name="Edieresis" unicode="&#xcb;" horiz-adv-x="1279" 
d="M576 1337q0 -96 -86 -485l446 43q187 18 238 18q90 0 90 -83q0 -107 -111 -121l-710 -64q-68 -311 -68 -446q0 -61 25.5 -78t138.5 -17l375 9q13 0 93 10q117 15 117 -77t-72.5 -118t-439.5 -26q-284 0 -360.5 59.5t-76.5 219.5q0 177 79 515q-5 23 -5 35q0 44 32 76
q61 277 76.5 370.5t15.5 163.5q7 134 34 182t93 48q42 0 69 -31q256 66 437 66q153 0 265 -25t139 -50.5t27 -62.5q0 -48 -35.5 -85t-80.5 -37q-12 0 -31 6q-166 47 -317 47q-166 0 -397 -62zM1444 1860q0 -37 -36 -68t-122 -31q-38 0 -67.5 21.5t-29.5 52.5q0 55 34.5 83.5
t129.5 28.5q33 0 62 -28t29 -59zM932 1855q0 -47 -48.5 -75.5t-87.5 -28.5q-108 0 -108 81q0 49 46.5 78t80.5 29q117 0 117 -84z" />
    <glyph glyph-name="Igrave" unicode="&#xcc;" horiz-adv-x="1119" 
d="M834 1280q-84 -364 -121 -634q-55 -405 -72 -439l318 4q38 0 60.5 -23.5t22.5 -58.5q0 -47 -33 -85t-83 -38q-54 0 -168 -4l-99 -2q-160 -3 -272 -18q-129 -19 -199 -19q-39 0 -62.5 25t-23.5 59q0 47 35.5 85t83.5 38q77 0 217 20q31 97 69 446q21 196 130 652l-262 -8
q-36 -1 -60 22t-24 60q0 53 27 86t82 39t305 6q139 0 310 -19t198.5 -26t43 -26t15.5 -53q0 -59 -38 -91.5t-83 -32.5q-70 0 -158 15zM853 1721l-78 147q-38 71 -102 129q-28 25 -28 59q0 42 34 73.5t70 31.5q60 0 169.5 -156t109.5 -226q0 -37 -34 -69t-75 -32
q-45 0 -66 43z" />
    <glyph glyph-name="Iacute" unicode="&#xcd;" horiz-adv-x="1119" 
d="M834 1280q-84 -364 -121 -634q-55 -405 -72 -439l318 4q38 0 60.5 -23.5t22.5 -58.5q0 -47 -33 -85t-83 -38q-54 0 -168 -4l-99 -2q-160 -3 -272 -18q-129 -19 -199 -19q-39 0 -62.5 25t-23.5 59q0 47 35.5 85t83.5 38q77 0 217 20q31 97 69 446q21 196 130 652l-262 -8
q-36 -1 -60 22t-24 60q0 53 27 86t82 39t305 6q139 0 310 -19t198.5 -26t43 -26t15.5 -53q0 -59 -38 -91.5t-83 -32.5q-70 0 -158 15zM705 1738q0 37 42 74q51 43 157 160q45 51 115 106.5t111 55.5q30 0 53 -23t23 -55q0 -50 -50 -86q-89 -62 -157 -143
q-149 -170 -218 -170q-31 0 -53.5 23t-22.5 58z" />
    <glyph glyph-name="Icircumflex" unicode="&#xce;" horiz-adv-x="1119" 
d="M834 1280q-84 -364 -121 -634q-55 -405 -72 -439l318 4q38 0 60.5 -23.5t22.5 -58.5q0 -47 -33 -85t-83 -38q-54 0 -168 -4l-99 -2q-160 -3 -272 -18q-129 -19 -199 -19q-39 0 -62.5 25t-23.5 59q0 47 35.5 85t83.5 38q77 0 217 20q31 97 69 446q21 196 130 652l-262 -8
q-36 -1 -60 22t-24 60q0 53 27 86t82 39t305 6q139 0 310 -19t198.5 -26t43 -26t15.5 -53q0 -59 -38 -91.5t-83 -32.5q-70 0 -158 15zM901 1966q-305 -314 -375 -314q-31 0 -54 24t-23 55q0 44 40 79q43 33 359 336q31 31 65 31q41 0 83 -33t130 -146l131 -170
q18 -24 18 -47q0 -39 -32 -71.5t-74 -32.5t-70 42t-198 247z" />
    <glyph glyph-name="Idieresis" unicode="&#xcf;" horiz-adv-x="1119" 
d="M834 1280q-84 -364 -121 -634q-55 -405 -72 -439l318 4q38 0 60.5 -23.5t22.5 -58.5q0 -47 -33 -85t-83 -38q-54 0 -168 -4l-99 -2q-160 -3 -272 -18q-129 -19 -199 -19q-39 0 -62.5 25t-23.5 59q0 47 35.5 85t83.5 38q77 0 217 20q31 97 69 446q21 196 130 652l-262 -8
q-36 -1 -60 22t-24 60q0 53 27 86t82 39t305 6q139 0 310 -19t198.5 -26t43 -26t15.5 -53q0 -59 -38 -91.5t-83 -32.5q-70 0 -158 15zM1241 1762q0 -37 -36 -68t-122 -31q-38 0 -67.5 21.5t-29.5 52.5q0 55 34.5 83.5t129.5 28.5q33 0 62 -28t29 -59zM729 1757
q0 -47 -48.5 -75.5t-87.5 -28.5q-108 0 -108 81q0 49 46.5 78t80.5 29q117 0 117 -84z" />
    <glyph glyph-name="Eth" unicode="&#xd0;" horiz-adv-x="1478" 
d="M278 -6h-10q-88 0 -88 75q0 45 49 277l51 250l-98 -4q-133 0 -133 82q0 51 31 82t63 35t170 4l43 315l47 315q7 44 55 87.5t92 43.5q20 0 150 -65q153 -81 164 -84q273 -107 435.5 -297t162.5 -414q0 -172 -89 -349t-268 -311t-506 -134q-86 0 -180.5 26.5t-140.5 65.5z
M513 795q35 0 127 -11q72 -8 131 -8q88 0 88 -77q0 -48 -34 -83.5t-84 -35.5q-62 0 -131 8q-72 8 -129 8l-82 -422q123 -72 231 -72q238 0 357.5 78.5t194 211.5t74.5 269q0 154 -112.5 294.5t-558.5 338.5z" />
    <glyph glyph-name="Ntilde" unicode="&#xd1;" horiz-adv-x="1632" 
d="M527 1145l-79 -457q-23 -135 -56 -393q-48 -375 -164 -375q-48 0 -73.5 29.5t-25.5 64.5q0 34 28 142q8 31 52 266.5t55 315.5l32 233q24 164 29 270l15 172q7 60 55.5 98.5t95.5 38.5q52 0 114 -114q368 -733 781 -1180q8 27 20 127l52 381q18 126 30 256.5t12 185.5
q0 27 -12 107q-4 48 -4 73q0 148 125 148q109 0 109 -259q0 -174 -46 -441l-86 -505q-39 -238 -69 -303t-113 -65q-45 0 -120.5 71.5t-290 369t-466.5 743.5zM1120 1964l68 -104q39 -60 102 -60q56 0 90 37l59 88l31 60q14 28 66 28q63 0 63 -55q0 -50 -88.5 -177.5
t-212.5 -127.5q-115 0 -166 33t-100 131q-35 57 -86 57q-61 0 -105 -47l-59 -84q-32 -45 -70 -45q-68 0 -68 59l4 23q4 53 98 148t224 95q100 0 150 -59z" />
    <glyph glyph-name="Ograve" unicode="&#xd2;" horiz-adv-x="1635" 
d="M161 460q0 190 109 433t334 433t492 190q568 0 568 -473q0 -389 -269.5 -746.5t-638.5 -357.5q-265 0 -430 148.5t-165 372.5zM367 496q0 -157 118 -255t303 -98q265 0 467 282.5t202 584.5q0 170 -96.5 235.5t-297.5 65.5q-270 0 -483 -279t-213 -536zM1316 1690
l-78 147q-38 71 -102 129q-28 25 -28 59q0 42 34 73.5t70 31.5q60 0 169.5 -156t109.5 -226q0 -37 -34 -69t-75 -32q-45 0 -66 43z" />
    <glyph glyph-name="Oacute" unicode="&#xd3;" horiz-adv-x="1635" 
d="M161 460q0 190 109 433t334 433t492 190q568 0 568 -473q0 -389 -269.5 -746.5t-638.5 -357.5q-265 0 -430 148.5t-165 372.5zM367 496q0 -157 118 -255t303 -98q265 0 467 282.5t202 584.5q0 170 -96.5 235.5t-297.5 65.5q-270 0 -483 -279t-213 -536zM1147 1720
q0 37 42 74q51 43 157 160q45 51 115 106.5t111 55.5q30 0 53 -23t23 -55q0 -50 -50 -86q-89 -62 -157 -143q-149 -170 -218 -170q-31 0 -53.5 23t-22.5 58z" />
    <glyph glyph-name="Ocircumflex" unicode="&#xd4;" horiz-adv-x="1635" 
d="M161 460q0 190 109 433t334 433t492 190q568 0 568 -473q0 -389 -269.5 -746.5t-638.5 -357.5q-265 0 -430 148.5t-165 372.5zM367 496q0 -157 118 -255t303 -98q265 0 467 282.5t202 584.5q0 170 -96.5 235.5t-297.5 65.5q-270 0 -483 -279t-213 -536zM1301 1930
q-305 -314 -375 -314q-31 0 -54 24t-23 55q0 44 40 79q43 33 359 336q31 31 65 31q41 0 83 -33t130 -146l131 -170q18 -24 18 -47q0 -39 -32 -71.5t-74 -32.5t-70 42t-198 247z" />
    <glyph glyph-name="Otilde" unicode="&#xd5;" horiz-adv-x="1635" 
d="M161 460q0 190 109 433t334 433t492 190q568 0 568 -473q0 -389 -269.5 -746.5t-638.5 -357.5q-265 0 -430 148.5t-165 372.5zM367 496q0 -157 118 -255t303 -98q265 0 467 282.5t202 584.5q0 170 -96.5 235.5t-297.5 65.5q-270 0 -483 -279t-213 -536zM1274 1948
l68 -104q39 -60 102 -60q56 0 90 37l59 88l31 60q14 28 66 28q63 0 63 -55q0 -50 -88.5 -177.5t-212.5 -127.5q-115 0 -166 33t-100 131q-35 57 -86 57q-61 0 -105 -47l-59 -84q-32 -45 -70 -45q-68 0 -68 59l4 23q4 53 98 148t224 95q100 0 150 -59z" />
    <glyph glyph-name="Odieresis" unicode="&#xd6;" horiz-adv-x="1635" 
d="M161 460q0 190 109 433t334 433t492 190q568 0 568 -473q0 -389 -269.5 -746.5t-638.5 -357.5q-265 0 -430 148.5t-165 372.5zM367 496q0 -157 118 -255t303 -98q265 0 467 282.5t202 584.5q0 170 -96.5 235.5t-297.5 65.5q-270 0 -483 -279t-213 -536zM1589 1768
q0 -37 -36 -68t-122 -31q-38 0 -67.5 21.5t-29.5 52.5q0 55 34.5 83.5t129.5 28.5q33 0 62 -28t29 -59zM1077 1763q0 -47 -48.5 -75.5t-87.5 -28.5q-108 0 -108 81q0 49 46.5 78t80.5 29q117 0 117 -84z" />
    <glyph glyph-name="multiply" unicode="&#xd7;" horiz-adv-x="984" 
d="M695 639q184 -164 184 -267q0 -40 -31.5 -78t-72.5 -38q-69 0 -133 131q-19 44 -80 94q-171 -175 -201 -216.5t-83 -41.5q-38 0 -63 21.5t-25 55.5q0 67 71 134q50 47 74 71q23 23 27 25q2 5 63 82q-117 137 -188 193q-37 25 -37 64q0 46 37 83t80 37q70 0 251 -217
q94 96 191 162q36 24 63 47q39 39 80 39q37 0 64 -26t27 -61t-27.5 -66.5t-122.5 -98.5q-65 -46 -148 -129z" />
    <glyph glyph-name="Oslash" unicode="&#xd8;" horiz-adv-x="1635" 
d="M277 207q-69 116 -69 259q0 177 98.5 407t329 436.5t507.5 206.5q301 0 438 -123q168 149 197 149q35 0 58 -22t23 -53q0 -47 -182 -210q36 -89 36 -214q0 -396 -272 -750t-638 -354q-260 0 -428 147l-109 -100q-83 -76 -106 -76q-34 0 -56.5 23t-22.5 56q0 34 87 115z
M928 805l485 436q-91 70 -303 70q-276 0 -485 -282.5t-209 -529.5q0 -73 26 -137zM1499 1100q-133 -109 -319 -281l-312 -289l-325 -294q117 -93 293 -93q268 0 469 285t201 590q0 45 -7 82z" />
    <glyph glyph-name="Ugrave" unicode="&#xd9;" horiz-adv-x="1509" 
d="M540 1329l-92 -588q-18 -113 -18 -203q0 -403 345 -403q398 0 562 1020l28 178q30 170 131 170q82 0 82 -91q0 -21 -4 -46l-39 -248q-179 -1159 -782 -1159q-264 0 -394.5 130t-130.5 425q0 118 55.5 487.5t95.5 432.5t95 63q72 0 72 -101q0 -29 -6 -67zM961 1678
l-78 147q-38 71 -102 129q-28 25 -28 59q0 42 34 73.5t70 31.5q60 0 169.5 -156t109.5 -226q0 -37 -34 -69t-75 -32q-45 0 -66 43z" />
    <glyph glyph-name="Uacute" unicode="&#xda;" horiz-adv-x="1509" 
d="M540 1329l-92 -588q-18 -113 -18 -203q0 -403 345 -403q398 0 562 1020l28 178q30 170 131 170q82 0 82 -91q0 -21 -4 -46l-39 -248q-179 -1159 -782 -1159q-264 0 -394.5 130t-130.5 425q0 118 55.5 487.5t95.5 432.5t95 63q72 0 72 -101q0 -29 -6 -67zM926 1726
q0 37 42 74q51 43 157 160q45 51 115 106.5t111 55.5q30 0 53 -23t23 -55q0 -50 -50 -86q-89 -62 -157 -143q-149 -170 -218 -170q-31 0 -53.5 23t-22.5 58z" />
    <glyph glyph-name="Ucircumflex" unicode="&#xdb;" horiz-adv-x="1509" 
d="M540 1329l-92 -588q-18 -113 -18 -203q0 -403 345 -403q398 0 562 1020l28 178q30 170 131 170q82 0 82 -91q0 -21 -4 -46l-39 -248q-179 -1159 -782 -1159q-264 0 -394.5 130t-130.5 425q0 118 55.5 487.5t95.5 432.5t95 63q72 0 72 -101q0 -29 -6 -67zM1121 1936
q-305 -314 -375 -314q-31 0 -54 24t-23 55q0 44 40 79q43 33 359 336q31 31 65 31q41 0 83 -33t130 -146l131 -170q18 -24 18 -47q0 -39 -32 -71.5t-74 -32.5t-70 42t-198 247z" />
    <glyph glyph-name="Udieresis" unicode="&#xdc;" horiz-adv-x="1509" 
d="M540 1329l-92 -588q-18 -113 -18 -203q0 -403 345 -403q398 0 562 1020l28 178q30 170 131 170q82 0 82 -91q0 -21 -4 -46l-39 -248q-179 -1159 -782 -1159q-264 0 -394.5 130t-130.5 425q0 118 55.5 487.5t95.5 432.5t95 63q72 0 72 -101q0 -29 -6 -67zM1456 1746
q0 -37 -36 -68t-122 -31q-38 0 -67.5 21.5t-29.5 52.5q0 55 34.5 83.5t129.5 28.5q33 0 62 -28t29 -59zM944 1741q0 -47 -48.5 -75.5t-87.5 -28.5q-108 0 -108 81q0 49 46.5 78t80.5 29q117 0 117 -84z" />
    <glyph glyph-name="Yacute" unicode="&#xdd;" horiz-adv-x="1301" 
d="M668 469q-146 232 -176 365q-28 114 -107 270q-54 106 -95 191t-41 111q0 43 37.5 79.5t82.5 36.5q47 0 75 -47l62 -125q103 -208 135 -283t51 -160q18 -76 105 -225l317 557l107 162q55 84 77.5 101.5t61.5 17.5q37 0 62.5 -24.5t25.5 -59.5q0 -47 -113 -205
q-21 -30 -47 -70l-237 -424q-87 -156 -256 -418l-160 -223l-70 -108q-38 -58 -98 -58q-37 0 -62.5 25t-25.5 59q0 40 127 230zM858 1810q0 37 42 74q51 43 157 160q45 51 115 106.5t111 55.5q30 0 53 -23t23 -55q0 -50 -50 -86q-89 -62 -157 -143q-149 -170 -218 -170
q-31 0 -53.5 23t-22.5 58z" />
    <glyph glyph-name="Thorn" unicode="&#xde;" horiz-adv-x="1066" 
d="M539 1350l168 8q161 8 306.5 -100.5t145.5 -282.5q0 -244 -198 -421t-482 -177q-49 0 -133 14l-53 -319q-7 -45 -37.5 -71t-67.5 -26q-42 0 -63 27.5t-14 69.5l47 293q26 163 84 413q3 12 86 416l20 137q15 102 45 160.5t95 58.5q70 0 70 -83q0 -48 -17 -97zM508 1169
l-125 -585q95 -19 125 -19q200 0 332 112t132 256q0 95 -95 165.5t-224 70.5h-145z" />
    <glyph glyph-name="germandbls" unicode="&#xdf;" horiz-adv-x="908" 
d="M762 815q176 -138 176 -397q0 -492 -408 -492q-89 0 -150.5 43.5t-61.5 113.5q0 103 79 103q28 0 72 -36q47 -35 86 -35q132 0 161.5 82t29.5 189q0 86 -26 156t-138 163q-62 53 -62 100t80 110l135 111q93 76 93 219q0 133 -111 133q-194 0 -283.5 -345t-140.5 -777
q-31 -259 -72.5 -336.5t-105.5 -77.5q-36 0 -60.5 23t-24.5 56l4 22q0 4 3 12q28 88 77 343.5t62 352.5l19 117q78 481 219 642t338 161q137 0 207.5 -89t70.5 -224q0 -113 -52 -207t-216 -236z" />
    <glyph glyph-name="agrave" unicode="&#xe0;" horiz-adv-x="1048" 
d="M764 51q-216 -104 -308 -104q-374 0 -374 356q0 331 209.5 536t459.5 205q97 0 200.5 -49.5t103.5 -115.5q0 -41 -27 -64q-20 -39 -56.5 -225.5t-36.5 -268.5q0 -101 52 -278l4 -16q-22 -93 -111 -93q-15 0 -56 40.5t-60 76.5zM837 829q-63 37 -100 37
q-167 0 -311.5 -150.5t-144.5 -374.5q0 -220 190 -220q149 0 280 110q16 419 86 598zM746 1216l-78 147q-38 71 -102 129q-28 25 -28 59q0 42 34 73.5t70 31.5q60 0 169.5 -156t109.5 -226q0 -37 -34 -69t-75 -32q-45 0 -66 43z" />
    <glyph glyph-name="aacute" unicode="&#xe1;" horiz-adv-x="1048" 
d="M764 51q-216 -104 -308 -104q-374 0 -374 356q0 331 209.5 536t459.5 205q97 0 200.5 -49.5t103.5 -115.5q0 -41 -27 -64q-20 -39 -56.5 -225.5t-36.5 -268.5q0 -101 52 -278l4 -16q-22 -93 -111 -93q-15 0 -56 40.5t-60 76.5zM837 829q-63 37 -100 37
q-167 0 -311.5 -150.5t-144.5 -374.5q0 -220 190 -220q149 0 280 110q16 419 86 598zM691 1269q0 37 42 74q51 43 157 160q45 51 115 106.5t111 55.5q30 0 53 -23t23 -55q0 -50 -50 -86q-89 -62 -157 -143q-149 -170 -218 -170q-31 0 -53.5 23t-22.5 58z" />
    <glyph glyph-name="acircumflex" unicode="&#xe2;" horiz-adv-x="1048" 
d="M764 51q-216 -104 -308 -104q-374 0 -374 356q0 331 209.5 536t459.5 205q97 0 200.5 -49.5t103.5 -115.5q0 -41 -27 -64q-20 -39 -56.5 -225.5t-36.5 -268.5q0 -101 52 -278l4 -16q-22 -93 -111 -93q-15 0 -56 40.5t-60 76.5zM837 829q-63 37 -100 37
q-167 0 -311.5 -150.5t-144.5 -374.5q0 -220 190 -220q149 0 280 110q16 419 86 598zM800 1487q-305 -314 -375 -314q-31 0 -54 24t-23 55q0 44 40 79q43 33 359 336q31 31 65 31q41 0 83 -33t130 -146l131 -170q18 -24 18 -47q0 -39 -32 -71.5t-74 -32.5t-70 42t-198 247z
" />
    <glyph glyph-name="atilde" unicode="&#xe3;" horiz-adv-x="1048" 
d="M764 51q-216 -104 -308 -104q-374 0 -374 356q0 331 209.5 536t459.5 205q97 0 200.5 -49.5t103.5 -115.5q0 -41 -27 -64q-20 -39 -56.5 -225.5t-36.5 -268.5q0 -101 52 -278l4 -16q-22 -93 -111 -93q-15 0 -56 40.5t-60 76.5zM837 829q-63 37 -100 37
q-167 0 -311.5 -150.5t-144.5 -374.5q0 -220 190 -220q149 0 280 110q16 419 86 598zM796 1476l68 -104q39 -60 102 -60q56 0 90 37l59 88l31 60q14 28 66 28q63 0 63 -55q0 -50 -88.5 -177.5t-212.5 -127.5q-115 0 -166 33t-100 131q-35 57 -86 57q-61 0 -105 -47l-59 -84
q-32 -45 -70 -45q-68 0 -68 59l4 23q4 53 98 148t224 95q100 0 150 -59z" />
    <glyph glyph-name="adieresis" unicode="&#xe4;" horiz-adv-x="1048" 
d="M764 51q-216 -104 -308 -104q-374 0 -374 356q0 331 209.5 536t459.5 205q97 0 200.5 -49.5t103.5 -115.5q0 -41 -27 -64q-20 -39 -56.5 -225.5t-36.5 -268.5q0 -101 52 -278l4 -16q-22 -93 -111 -93q-15 0 -56 40.5t-60 76.5zM837 829q-63 37 -100 37
q-167 0 -311.5 -150.5t-144.5 -374.5q0 -220 190 -220q149 0 280 110q16 419 86 598zM1165 1293q0 -37 -36 -68t-122 -31q-38 0 -67.5 21.5t-29.5 52.5q0 55 34.5 83.5t129.5 28.5q33 0 62 -28t29 -59zM653 1288q0 -47 -48.5 -75.5t-87.5 -28.5q-108 0 -108 81q0 49 46.5 78
t80.5 29q117 0 117 -84z" />
    <glyph glyph-name="aring" unicode="&#xe5;" horiz-adv-x="1048" 
d="M764 51q-216 -104 -308 -104q-374 0 -374 356q0 331 209.5 536t459.5 205q97 0 200.5 -49.5t103.5 -115.5q0 -41 -27 -64q-20 -39 -56.5 -225.5t-36.5 -268.5q0 -101 52 -278l4 -16q-22 -93 -111 -93q-15 0 -56 40.5t-60 76.5zM837 829q-63 37 -100 37
q-167 0 -311.5 -150.5t-144.5 -374.5q0 -220 190 -220q149 0 280 110q16 419 86 598zM888 1757q125 0 199.5 -65.5t74.5 -161.5q0 -132 -97.5 -238t-313.5 -106q-138 0 -208 69t-70 153q0 146 115 247.5t300 101.5zM1009 1507q0 43 -42.5 73t-100.5 30q-133 0 -186 -55
t-53 -118q0 -41 49.5 -72.5t113.5 -31.5q122 0 170.5 54.5t48.5 119.5z" />
    <glyph glyph-name="ae" unicode="&#xe6;" horiz-adv-x="1867" 
d="M790 53q-45 -35 -126 -68.5t-143 -33.5q-196 0 -305.5 118t-109.5 294q0 271 214.5 470t473.5 199q64 0 137 -18.5t100.5 -30t18.5 -113.5q64 79 170.5 126.5t206.5 47.5q169 0 266 -58t97 -168q0 -83 -51 -142.5t-104.5 -89t-220.5 -103.5l-411 -182q85 -166 309 -166
q89 0 185 31t145 82q47 53 84 53q31 0 52.5 -21t21.5 -52q0 -110 -176 -191.5t-341 -81.5q-233 0 -321 113v-68q0 -43 -86 -43q-30 0 -55.5 13t-30.5 83zM831 862q-14 8 -76 8q-175 0 -314 -154.5t-139 -319.5q0 -114 71 -198.5t181 -84.5q133 0 244 102q0 114 1.5 143.5
t32.5 194.5t62 274zM1015 485l313 133q171 73 299 166q-73 80 -229 80q-242 0 -383 -379z" />
    <glyph glyph-name="ccedilla" unicode="&#xe7;" horiz-adv-x="1052" 
d="M698 -41q36 -55 36 -115q0 -105 -64.5 -196.5t-219.5 -91.5q-101 0 -169 37t-68 95q0 68 81 68q23 0 77 -24q54 -25 91 -25q115 0 115 111q0 79 -129 135q-139 30 -216.5 131.5t-77.5 233.5q0 232 195 488.5t389 256.5q109 0 226 -51.5t117 -124.5q0 -40 -31.5 -75.5
t-71.5 -35.5q-39 0 -82.5 49t-187.5 49q-105 0 -238.5 -193t-133.5 -331q0 -98 71.5 -161.5t195.5 -63.5q61 0 133 33l125 61q35 17 47 17q32 0 53.5 -24t21.5 -59q0 -112 -285 -194z" />
    <glyph glyph-name="egrave" unicode="&#xe8;" horiz-adv-x="1122" 
d="M290 301q87 -166 308 -166q78 0 185 32t146 81q41 53 82 53q33 0 55 -22.5t22 -52.5q0 -102 -174.5 -186.5t-344.5 -84.5q-214 0 -334 100.5t-120 270.5q0 246 167 482t432 236q176 0 269 -59t93 -167q0 -89 -60.5 -152.5t-131 -98t-184.5 -84.5zM303 485l327 148
q207 94 283 151q-73 80 -227 80q-246 0 -383 -379zM757 1221l-78 147q-38 71 -102 129q-28 25 -28 59q0 42 34 73.5t70 31.5q60 0 169.5 -156t109.5 -226q0 -37 -34 -69t-75 -32q-45 0 -66 43z" />
    <glyph glyph-name="eacute" unicode="&#xe9;" horiz-adv-x="1122" 
d="M290 301q87 -166 308 -166q78 0 185 32t146 81q41 53 82 53q33 0 55 -22.5t22 -52.5q0 -102 -174.5 -186.5t-344.5 -84.5q-214 0 -334 100.5t-120 270.5q0 246 167 482t432 236q176 0 269 -59t93 -167q0 -89 -60.5 -152.5t-131 -98t-184.5 -84.5zM303 485l327 148
q207 94 283 151q-73 80 -227 80q-246 0 -383 -379zM703 1269q0 37 42 74q51 43 157 160q45 51 115 106.5t111 55.5q30 0 53 -23t23 -55q0 -50 -50 -86q-89 -62 -157 -143q-149 -170 -218 -170q-31 0 -53.5 23t-22.5 58z" />
    <glyph glyph-name="ecircumflex" unicode="&#xea;" horiz-adv-x="1122" 
d="M290 301q87 -166 308 -166q78 0 185 32t146 81q41 53 82 53q33 0 55 -22.5t22 -52.5q0 -102 -174.5 -186.5t-344.5 -84.5q-214 0 -334 100.5t-120 270.5q0 246 167 482t432 236q176 0 269 -59t93 -167q0 -89 -60.5 -152.5t-131 -98t-184.5 -84.5zM303 485l327 148
q207 94 283 151q-73 80 -227 80q-246 0 -383 -379zM839 1479q-305 -314 -375 -314q-31 0 -54 24t-23 55q0 44 40 79q43 33 359 336q31 31 65 31q41 0 83 -33t130 -146l131 -170q18 -24 18 -47q0 -39 -32 -71.5t-74 -32.5t-70 42t-198 247z" />
    <glyph glyph-name="edieresis" unicode="&#xeb;" horiz-adv-x="1122" 
d="M290 301q87 -166 308 -166q78 0 185 32t146 81q41 53 82 53q33 0 55 -22.5t22 -52.5q0 -102 -174.5 -186.5t-344.5 -84.5q-214 0 -334 100.5t-120 270.5q0 246 167 482t432 236q176 0 269 -59t93 -167q0 -89 -60.5 -152.5t-131 -98t-184.5 -84.5zM303 485l327 148
q207 94 283 151q-73 80 -227 80q-246 0 -383 -379zM1224 1389q0 -37 -36 -68t-122 -31q-38 0 -67.5 21.5t-29.5 52.5q0 55 34.5 83.5t129.5 28.5q33 0 62 -28t29 -59zM712 1384q0 -47 -48.5 -75.5t-87.5 -28.5q-108 0 -108 81q0 49 46.5 78t80.5 29q117 0 117 -84z" />
    <glyph glyph-name="igrave" unicode="&#xec;" horiz-adv-x="574" 
d="M277 -4q-84 0 -84 77l40 306q14 120 58 309q36 172 47 236q18 100 115 100q84 0 84 -78q0 -26 -49 -258q-48 -211 -59 -309q-20 -177 -39.5 -280t-112.5 -103zM475 1221l-78 147q-38 71 -102 129q-28 25 -28 59q0 42 34 73.5t70 31.5q60 0 169.5 -156t109.5 -226
q0 -37 -34 -69t-75 -32q-45 0 -66 43z" />
    <glyph glyph-name="iacute" unicode="&#xed;" horiz-adv-x="574" 
d="M277 -4q-84 0 -84 77l40 306q14 120 58 309q36 172 47 236q18 100 115 100q84 0 84 -78q0 -26 -49 -258q-48 -211 -59 -309q-20 -177 -39.5 -280t-112.5 -103zM296 1269q0 37 42 74q51 43 157 160q45 51 115 106.5t111 55.5q30 0 53 -23t23 -55q0 -50 -50 -86
q-89 -62 -157 -143q-149 -170 -218 -170q-31 0 -53.5 23t-22.5 58z" />
    <glyph glyph-name="icircumflex" unicode="&#xee;" horiz-adv-x="574" 
d="M277 -4q-84 0 -84 77l40 306q14 120 58 309q36 172 47 236q18 100 115 100q84 0 84 -78q0 -26 -49 -258q-48 -211 -59 -309q-20 -177 -39.5 -280t-112.5 -103zM501 1431q-305 -314 -375 -314q-31 0 -54 24t-23 55q0 44 40 79q43 33 359 336q31 31 65 31q41 0 83 -33
t130 -146l131 -170q18 -24 18 -47q0 -39 -32 -71.5t-74 -32.5t-70 42t-198 247z" />
    <glyph glyph-name="idieresis" unicode="&#xef;" horiz-adv-x="574" 
d="M277 -4q-84 0 -84 77l40 306q14 120 58 309q36 172 47 236q18 100 115 100q84 0 84 -78q0 -26 -49 -258q-48 -211 -59 -309q-20 -177 -39.5 -280t-112.5 -103zM855 1293q0 -37 -36 -68t-122 -31q-38 0 -67.5 21.5t-29.5 52.5q0 55 34.5 83.5t129.5 28.5q33 0 62 -28
t29 -59zM343 1288q0 -47 -48.5 -75.5t-87.5 -28.5q-108 0 -108 81q0 49 46.5 78t80.5 29q117 0 117 -84z" />
    <glyph glyph-name="eth" unicode="&#xf0;" horiz-adv-x="1042" 
d="M521 1356q-46 45 -46 82q0 34 32.5 67t72.5 33q63 0 182 -174q192 90 252 90q81 0 81 -75q0 -47 -40 -74l-69 -37l-132 -58q170 -320 170 -564q0 -237 -143 -462t-393 -225q-134 0 -224.5 105t-90.5 229q0 208 172 395t428 236q-27 92 -78 204l-129 -69
q-103 -55 -129 -55q-34 0 -55.5 25.5t-21.5 59.5q0 30 20 58t218 133zM816 764l-69 -19q-242 -64 -316.5 -197.5t-74.5 -221.5q0 -67 44 -128t117 -61q164 0 243.5 165.5t79.5 274.5q0 54 -24 187z" />
    <glyph glyph-name="ntilde" unicode="&#xf1;" horiz-adv-x="1072" 
d="M475 846q202 223 381 223q216 0 216 -269q0 -65 -11 -151l-33 -192q-14 -76 -14 -215q0 -207 -27.5 -260.5t-99.5 -53.5q-88 0 -82 95l6 219q2 88 24 224.5t36 184.5q10 62 10 106q0 109 -58 109q-132 0 -269 -173t-167 -309q-6 -25 -14 -54q-21 -69 -25 -135l-10 -126
q-5 -54 -37.5 -85t-79.5 -31q-84 0 -84 78l15 164q6 97 63 323q56 232 70 381l9 84q5 48 38 78.5t80 30.5q92 0 80 -129zM788 1495l68 -104q39 -60 102 -60q56 0 90 37l59 88l31 60q14 28 66 28q63 0 63 -55q0 -50 -88.5 -177.5t-212.5 -127.5q-115 0 -166 33t-100 131
q-35 57 -86 57q-61 0 -105 -47l-59 -84q-32 -45 -70 -45q-68 0 -68 59l4 23q4 53 98 148t224 95q100 0 150 -59z" />
    <glyph glyph-name="ograve" unicode="&#xf2;" horiz-adv-x="1077" 
d="M121 342q0 265 172 479.5t435 214.5q150 0 229.5 -105t79.5 -279q0 -285 -160 -498t-397 -213q-163 0 -261 115t-98 286zM675 834q-156 0 -256 -154.5t-100 -311.5q0 -104 54.5 -164.5t139.5 -60.5q132 0 233 120t101 355q0 216 -166 216h-6zM822 1221l-78 147
q-38 71 -102 129q-28 25 -28 59q0 42 34 73.5t70 31.5q60 0 169.5 -156t109.5 -226q0 -37 -34 -69t-75 -32q-45 0 -66 43z" />
    <glyph glyph-name="oacute" unicode="&#xf3;" horiz-adv-x="1077" 
d="M121 342q0 265 172 479.5t435 214.5q150 0 229.5 -105t79.5 -279q0 -285 -160 -498t-397 -213q-163 0 -261 115t-98 286zM675 834q-156 0 -256 -154.5t-100 -311.5q0 -104 54.5 -164.5t139.5 -60.5q132 0 233 120t101 355q0 216 -166 216h-6zM695 1269q0 37 42 74
q51 43 157 160q45 51 115 106.5t111 55.5q30 0 53 -23t23 -55q0 -50 -50 -86q-89 -62 -157 -143q-149 -170 -218 -170q-31 0 -53.5 23t-22.5 58z" />
    <glyph glyph-name="ocircumflex" unicode="&#xf4;" horiz-adv-x="1077" 
d="M121 342q0 265 172 479.5t435 214.5q150 0 229.5 -105t79.5 -279q0 -285 -160 -498t-397 -213q-163 0 -261 115t-98 286zM675 834q-156 0 -256 -154.5t-100 -311.5q0 -104 54.5 -164.5t139.5 -60.5q132 0 233 120t101 355q0 216 -166 216h-6zM825 1479
q-305 -314 -375 -314q-31 0 -54 24t-23 55q0 44 40 79q43 33 359 336q31 31 65 31q41 0 83 -33t130 -146l131 -170q18 -24 18 -47q0 -39 -32 -71.5t-74 -32.5t-70 42t-198 247z" />
    <glyph glyph-name="otilde" unicode="&#xf5;" horiz-adv-x="1077" 
d="M121 342q0 265 172 479.5t435 214.5q150 0 229.5 -105t79.5 -279q0 -285 -160 -498t-397 -213q-163 0 -261 115t-98 286zM675 834q-156 0 -256 -154.5t-100 -311.5q0 -104 54.5 -164.5t139.5 -60.5q132 0 233 120t101 355q0 216 -166 216h-6zM839 1495l68 -104
q39 -60 102 -60q56 0 90 37l59 88l31 60q14 28 66 28q63 0 63 -55q0 -50 -88.5 -177.5t-212.5 -127.5q-115 0 -166 33t-100 131q-35 57 -86 57q-61 0 -105 -47l-59 -84q-32 -45 -70 -45q-68 0 -68 59l4 23q4 53 98 148t224 95q100 0 150 -59z" />
    <glyph glyph-name="odieresis" unicode="&#xf6;" horiz-adv-x="1077" 
d="M121 342q0 265 172 479.5t435 214.5q150 0 229.5 -105t79.5 -279q0 -285 -160 -498t-397 -213q-163 0 -261 115t-98 286zM675 834q-156 0 -256 -154.5t-100 -311.5q0 -104 54.5 -164.5t139.5 -60.5q132 0 233 120t101 355q0 216 -166 216h-6zM1204 1293q0 -37 -36 -68
t-122 -31q-38 0 -67.5 21.5t-29.5 52.5q0 55 34.5 83.5t129.5 28.5q33 0 62 -28t29 -59zM692 1288q0 -47 -48.5 -75.5t-87.5 -28.5q-108 0 -108 81q0 49 46.5 78t80.5 29q117 0 117 -84z" />
    <glyph glyph-name="divide" unicode="&#xf7;" horiz-adv-x="984" 
d="M696 1071q0 -108 -108 -108q-78 0 -78 65q0 113 109 113q77 0 77 -70zM852 737q149 0 149 -79q0 -40 -31 -73.5t-71 -33.5q-13 0 -54 7q-27 4 -296 -5q-182 -6 -274 -6q-143 0 -143 77q0 59 36 80t135 21q58 0 175 6q120 6 180 6q6 0 54 -5q16 -2 113 4q17 1 27 1z
M512 367q34 0 54.5 -22t20.5 -53q0 -43 -31 -74.5t-72 -31.5q-34 0 -54.5 22t-20.5 52q0 43 31 75t72 32z" />
    <glyph glyph-name="oslash" unicode="&#xf8;" horiz-adv-x="1077" 
d="M181 152q-38 88 -38 192q0 249 168 470.5t440 221.5q156 0 235 -112l17 18q99 105 131 105q22 0 36.5 -17t14.5 -39t-109 -131l-41 -41q24 -74 24 -165q0 -299 -163 -506t-393 -207q-163 0 -264 116q-11 -11 -18 -16l-9 -8q-74 -84 -96 -84q-65 0 -65 48q0 31 44.5 77.5
t73.5 66.5q6 4 12 11zM347 303l486 471q-46 60 -129 60q-158 0 -260.5 -154.5t-102.5 -313.5q0 -33 6 -63zM392 207q55 -64 144 -64q144 0 248 142t87 377z" />
    <glyph glyph-name="ugrave" unicode="&#xf9;" horiz-adv-x="1065" 
d="M1044 584l-35 -217q-34 -209 -39 -282q-6 -73 -14.5 -95.5t-39.5 -46t-69 -23.5q-76 0 -82 94q-135 -63 -299 -63q-139 0 -215 61.5t-76 174.5q0 149 15 322t59 338.5t74.5 192.5t74.5 27q40 0 64 -22t24 -56q0 -32 -40 -168q-33 -104 -54.5 -260.5t-21.5 -270.5
q0 -58 6 -100q58 -36 121 -36q134 0 293 43l57 397q8 52 41.5 227.5t67 207.5t83.5 32q44 0 67 -28t15 -70zM787 1229l-78 147q-38 71 -102 129q-28 25 -28 59q0 42 34 73.5t70 31.5q60 0 169.5 -156t109.5 -226q0 -37 -34 -69t-75 -32q-45 0 -66 43z" />
    <glyph glyph-name="uacute" unicode="&#xfa;" horiz-adv-x="1065" 
d="M1044 584l-35 -217q-34 -209 -39 -282q-6 -73 -14.5 -95.5t-39.5 -46t-69 -23.5q-76 0 -82 94q-135 -63 -299 -63q-139 0 -215 61.5t-76 174.5q0 149 15 322t59 338.5t74.5 192.5t74.5 27q40 0 64 -22t24 -56q0 -32 -40 -168q-33 -104 -54.5 -260.5t-21.5 -270.5
q0 -58 6 -100q58 -36 121 -36q134 0 293 43l57 397q8 52 41.5 227.5t67 207.5t83.5 32q44 0 67 -28t15 -70zM678 1269q0 37 42 74q51 43 157 160q45 51 115 106.5t111 55.5q30 0 53 -23t23 -55q0 -50 -50 -86q-89 -62 -157 -143q-149 -170 -218 -170q-31 0 -53.5 23
t-22.5 58z" />
    <glyph glyph-name="ucircumflex" unicode="&#xfb;" horiz-adv-x="1065" 
d="M1044 584l-35 -217q-34 -209 -39 -282q-6 -73 -14.5 -95.5t-39.5 -46t-69 -23.5q-76 0 -82 94q-135 -63 -299 -63q-139 0 -215 61.5t-76 174.5q0 149 15 322t59 338.5t74.5 192.5t74.5 27q40 0 64 -22t24 -56q0 -32 -40 -168q-33 -104 -54.5 -260.5t-21.5 -270.5
q0 -58 6 -100q58 -36 121 -36q134 0 293 43l57 397q8 52 41.5 227.5t67 207.5t83.5 32q44 0 67 -28t15 -70zM773 1479q-305 -314 -375 -314q-31 0 -54 24t-23 55q0 44 40 79q43 33 359 336q31 31 65 31q41 0 83 -33t130 -146l131 -170q18 -24 18 -47q0 -39 -32 -71.5
t-74 -32.5t-70 42t-198 247z" />
    <glyph glyph-name="udieresis" unicode="&#xfc;" horiz-adv-x="1065" 
d="M1044 584l-35 -217q-34 -209 -39 -282q-6 -73 -14.5 -95.5t-39.5 -46t-69 -23.5q-76 0 -82 94q-135 -63 -299 -63q-139 0 -215 61.5t-76 174.5q0 149 15 322t59 338.5t74.5 192.5t74.5 27q40 0 64 -22t24 -56q0 -32 -40 -168q-33 -104 -54.5 -260.5t-21.5 -270.5
q0 -58 6 -100q58 -36 121 -36q134 0 293 43l57 397q8 52 41.5 227.5t67 207.5t83.5 32q44 0 67 -28t15 -70zM1179 1385q0 -37 -36 -68t-122 -31q-38 0 -67.5 21.5t-29.5 52.5q0 55 34.5 83.5t129.5 28.5q33 0 62 -28t29 -59zM667 1380q0 -47 -48.5 -75.5t-87.5 -28.5
q-108 0 -108 81q0 49 46.5 78t80.5 29q117 0 117 -84z" />
    <glyph glyph-name="yacute" unicode="&#xfd;" horiz-adv-x="1066" 
d="M707 143q-194 -314 -271 -456l-96 -195q-35 -72 -100 -72q-38 0 -63.5 22.5t-25.5 59.5q0 91 308 594l-250 688l-33 74q-15 34 -15 62q0 47 38.5 82.5t81.5 35.5q32 0 58 -24t109.5 -224.5t155.5 -457.5l203 344q51 87 133.5 209.5t109.5 138.5t52 16q38 0 63.5 -25
t25.5 -60q0 -28 -19 -62zM535 1269q0 37 42 74q51 43 157 160q45 51 115 106.5t111 55.5q30 0 53 -23t23 -55q0 -50 -50 -86q-89 -62 -157 -143q-149 -170 -218 -170q-31 0 -53.5 23t-22.5 58z" />
    <glyph glyph-name="thorn" unicode="&#xfe;" horiz-adv-x="1095" 
d="M342 -2l-78 -479q-16 -101 -112 -101q-44 0 -67.5 28.5t-16.5 72.5l131 798q26 163 47 400q51 576 95.5 676t119.5 100q37 0 59.5 -26t16.5 -68l-80 -486q189 119 338 119q302 0 302 -378q0 -316 -153 -502.5t-387 -186.5q-101 0 -215 33zM440 684q-14 -149 -61 -475
q96 -43 209 -43q147 0 228.5 119.5t81.5 335.5q0 210 -134 210q-70 0 -138 -25t-186 -122z" />
    <glyph glyph-name="ydieresis" unicode="&#xff;" horiz-adv-x="883" 
d="M707 143q-194 -314 -271 -456l-96 -195q-35 -72 -100 -72q-38 0 -63.5 22.5t-25.5 59.5q0 91 308 594l-250 688l-33 74q-15 34 -15 62q0 47 38.5 82.5t81.5 35.5q32 0 58 -24t109.5 -224.5t155.5 -457.5l203 344q51 87 133.5 209.5t109.5 138.5t52 16q38 0 63.5 -25
t25.5 -60q0 -28 -19 -62zM1080 1293q0 -37 -36 -68t-122 -31q-38 0 -67.5 21.5t-29.5 52.5q0 55 34.5 83.5t129.5 28.5q33 0 62 -28t29 -59zM568 1288q0 -47 -48.5 -75.5t-87.5 -28.5q-108 0 -108 81q0 49 46.5 78t80.5 29q117 0 117 -84z" />
    <glyph glyph-name="Amacron" unicode="&#x100;" horiz-adv-x="1498" 
d="M1114 520q-110 -13 -274 -49l-275 -55q-206 -362 -246 -400.5t-92 -38.5q-37 0 -62.5 25t-25.5 59q0 53 211 381q-11 19 -11 45q0 94 116 119q129 191 398 532t325 341q78 0 90 -111l8 -336l41 -694l31 -160q13 -65 13 -96q0 -43 -37 -78t-83 -35q-65 0 -95 132.5
t-32 418.5zM1081 1112l-360 -461q99 26 381 76zM1260 1786h50q31 0 73 2l71 2q72 2 94.5 -9.5t22.5 -45.5q0 -78 -77 -92l-113 -6h-215l-227 6q-62 0 -62 56q0 57 33.5 76t114.5 19q40 0 116 -4q82 -4 119 -4z" />
    <glyph glyph-name="amacron" unicode="&#x101;" horiz-adv-x="1048" 
d="M764 51q-216 -104 -308 -104q-374 0 -374 356q0 331 209.5 536t459.5 205q97 0 200.5 -49.5t103.5 -115.5q0 -41 -27 -64q-20 -39 -56.5 -225.5t-36.5 -268.5q0 -101 52 -278l4 -16q-22 -93 -111 -93q-15 0 -56 40.5t-60 76.5zM837 829q-63 37 -100 37
q-167 0 -311.5 -150.5t-144.5 -374.5q0 -220 190 -220q149 0 280 110q16 419 86 598zM831 1335h50q31 0 73 2l71 2q72 2 94.5 -9.5t22.5 -45.5q0 -78 -77 -92l-113 -6h-215l-227 6q-62 0 -62 56q0 57 33.5 76t114.5 19q40 0 116 -4q82 -4 119 -4z" />
    <glyph glyph-name="Abreve" unicode="&#x102;" horiz-adv-x="1498" 
d="M1114 520q-110 -13 -274 -49l-275 -55q-206 -362 -246 -400.5t-92 -38.5q-37 0 -62.5 25t-25.5 59q0 53 211 381q-11 19 -11 45q0 94 116 119q129 191 398 532t325 341q78 0 90 -111l8 -336l41 -694l31 -160q13 -65 13 -96q0 -43 -37 -78t-83 -35q-65 0 -95 132.5
t-32 418.5zM1081 1112l-360 -461q99 26 381 76zM1555 2003q65 0 65 -59q0 -118 -143.5 -215.5t-369.5 -97.5q-129 0 -219.5 82t-90.5 195q0 132 89 132q67 0 67 -57l-4 -46q0 -68 53 -112.5t127 -44.5q272 0 342 160q28 63 84 63z" />
    <glyph glyph-name="abreve" unicode="&#x103;" horiz-adv-x="1048" 
d="M764 51q-216 -104 -308 -104q-374 0 -374 356q0 331 209.5 536t459.5 205q97 0 200.5 -49.5t103.5 -115.5q0 -41 -27 -64q-20 -39 -56.5 -225.5t-36.5 -268.5q0 -101 52 -278l4 -16q-22 -93 -111 -93q-15 0 -56 40.5t-60 76.5zM837 829q-63 37 -100 37
q-167 0 -311.5 -150.5t-144.5 -374.5q0 -220 190 -220q149 0 280 110q16 419 86 598zM1117 1552q65 0 65 -59q0 -118 -143.5 -215.5t-369.5 -97.5q-129 0 -219.5 82t-90.5 195q0 132 89 132q67 0 67 -57l-4 -46q0 -68 53 -112.5t127 -44.5q272 0 342 160q28 63 84 63z" />
    <glyph glyph-name="Aogonek" unicode="&#x104;" horiz-adv-x="1498" 
d="M1114 520q-110 -13 -274 -49l-275 -55q-206 -362 -246 -400.5t-92 -38.5q-37 0 -62.5 25t-25.5 59q0 53 211 381q-11 19 -11 45q0 94 116 119q129 191 398 532t325 341q78 0 90 -111l8 -336l41 -694l31 -160q13 -65 13 -96q0 -43 -37 -78t-83 -35q-65 0 -95 132.5
t-32 418.5zM1081 1112l-360 -461q99 26 381 76zM1195 -188q0 -91 79 -91q73 0 138 25q26 12 41 12q62 0 62 -67q0 -56 -78 -93.5t-201 -37.5q-111 0 -170 53t-59 146q0 136 108.5 241.5t179.5 105.5q67 0 67 -54q0 -23 -11.5 -40t-69.5 -64q-86 -69 -86 -136z" />
    <glyph glyph-name="aogonek" unicode="&#x105;" horiz-adv-x="1048" 
d="M764 51q-216 -104 -308 -104q-374 0 -374 356q0 331 209.5 536t459.5 205q97 0 200.5 -49.5t103.5 -115.5q0 -41 -27 -64q-20 -39 -56.5 -225.5t-36.5 -268.5q0 -101 52 -278l4 -16q-22 -93 -111 -93q-15 0 -56 40.5t-60 76.5zM837 829q-63 37 -100 37
q-167 0 -311.5 -150.5t-144.5 -374.5q0 -220 190 -220q149 0 280 110q16 419 86 598zM775 -240q0 -91 79 -91q73 0 138 25q26 12 41 12q62 0 62 -67q0 -56 -78 -93.5t-201 -37.5q-111 0 -170 53t-59 146q0 136 108.5 241.5t179.5 105.5q67 0 67 -54q0 -23 -11.5 -40
t-69.5 -64q-86 -69 -86 -136z" />
    <glyph glyph-name="Cacute" unicode="&#x106;" horiz-adv-x="1234" 
d="M1232 1473q43 51 98 51q75 0 75 -118q0 -169 -36 -226.5t-98 -57.5q-63 0 -84 74q-21 75 -45.5 82.5t-95.5 7.5q-176 0 -433.5 -305.5t-257.5 -540.5q0 -102 66 -181t174 -79q88 0 171.5 33.5t242.5 138.5q65 41 92 41q38 0 62.5 -26t24.5 -63q0 -29 -20 -60.5t-142 -111
t-237 -118.5t-225 -39q-184 0 -298.5 128t-114.5 302q0 321 324.5 703.5t602.5 382.5q110 0 154 -18zM912 1720q0 37 42 74q51 43 157 160q45 51 115 106.5t111 55.5q30 0 53 -23t23 -55q0 -50 -50 -86q-89 -62 -157 -143q-149 -170 -218 -170q-31 0 -53.5 23t-22.5 58z" />
    <glyph glyph-name="cacute" unicode="&#x107;" horiz-adv-x="1052" 
d="M716 158l125 61q35 17 47 17q32 0 53.5 -24t21.5 -59q0 -81 -160.5 -148.5t-247.5 -67.5q-195 0 -308 108t-113 271q0 233 195 490t389 257q109 0 226 -51.5t117 -124.5q0 -40 -31.5 -75.5t-71.5 -35.5q-39 0 -82.5 49t-187.5 49q-105 0 -238.5 -193t-133.5 -331
q0 -98 71.5 -161.5t195.5 -63.5q61 0 133 33zM623 1269q0 37 42 74q51 43 157 160q45 51 115 106.5t111 55.5q30 0 53 -23t23 -55q0 -50 -50 -86q-89 -62 -157 -143q-149 -170 -218 -170q-31 0 -53.5 23t-22.5 58z" />
    <glyph glyph-name="Ccircumflex" unicode="&#x108;" horiz-adv-x="1234" 
d="M1232 1473q43 51 98 51q75 0 75 -118q0 -169 -36 -226.5t-98 -57.5q-63 0 -84 74q-21 75 -45.5 82.5t-95.5 7.5q-176 0 -433.5 -305.5t-257.5 -540.5q0 -102 66 -181t174 -79q88 0 171.5 33.5t242.5 138.5q65 41 92 41q38 0 62.5 -26t24.5 -63q0 -29 -20 -60.5t-142 -111
t-237 -118.5t-225 -39q-184 0 -298.5 128t-114.5 302q0 321 324.5 703.5t602.5 382.5q110 0 154 -18zM1102 1930q-305 -314 -375 -314q-31 0 -54 24t-23 55q0 44 40 79q43 33 359 336q31 31 65 31q41 0 83 -33t130 -146l131 -170q18 -24 18 -47q0 -39 -32 -71.5t-74 -32.5
t-70 42t-198 247z" />
    <glyph glyph-name="ccircumflex" unicode="&#x109;" horiz-adv-x="1052" 
d="M716 158l125 61q35 17 47 17q32 0 53.5 -24t21.5 -59q0 -81 -160.5 -148.5t-247.5 -67.5q-195 0 -308 108t-113 271q0 233 195 490t389 257q109 0 226 -51.5t117 -124.5q0 -40 -31.5 -75.5t-71.5 -35.5q-39 0 -82.5 49t-187.5 49q-105 0 -238.5 -193t-133.5 -331
q0 -98 71.5 -161.5t195.5 -63.5q61 0 133 33zM829 1380q-305 -314 -375 -314q-31 0 -54 24t-23 55q0 44 40 79q43 33 359 336q31 31 65 31q41 0 83 -33t130 -146l131 -170q18 -24 18 -47q0 -39 -32 -71.5t-74 -32.5t-70 42t-198 247z" />
    <glyph glyph-name="Cdotaccent" unicode="&#x10a;" horiz-adv-x="1234" 
d="M1232 1473q43 51 98 51q75 0 75 -118q0 -169 -36 -226.5t-98 -57.5q-63 0 -84 74q-21 75 -45.5 82.5t-95.5 7.5q-176 0 -433.5 -305.5t-257.5 -540.5q0 -102 66 -181t174 -79q88 0 171.5 33.5t242.5 138.5q65 41 92 41q38 0 62.5 -26t24.5 -63q0 -29 -20 -60.5t-142 -111
t-237 -118.5t-225 -39q-184 0 -298.5 128t-114.5 302q0 321 324.5 703.5t602.5 382.5q110 0 154 -18zM1125 1635q-31 0 -75.5 44.5t-44.5 75.5q0 34 41.5 67.5t80.5 33.5q31 0 74.5 -47t43.5 -73q0 -36 -40.5 -68.5t-79.5 -32.5z" />
    <glyph glyph-name="cdotaccent" unicode="&#x10b;" horiz-adv-x="1052" 
d="M716 158l125 61q35 17 47 17q32 0 53.5 -24t21.5 -59q0 -81 -160.5 -148.5t-247.5 -67.5q-195 0 -308 108t-113 271q0 233 195 490t389 257q109 0 226 -51.5t117 -124.5q0 -40 -31.5 -75.5t-71.5 -35.5q-39 0 -82.5 49t-187.5 49q-105 0 -238.5 -193t-133.5 -331
q0 -98 71.5 -161.5t195.5 -63.5q61 0 133 33zM806 1184q-31 0 -75.5 44.5t-44.5 75.5q0 34 41.5 67.5t80.5 33.5q31 0 74.5 -47t43.5 -73q0 -36 -40.5 -68.5t-79.5 -32.5z" />
    <glyph glyph-name="Ccaron" unicode="&#x10c;" horiz-adv-x="1234" 
d="M1232 1473q43 51 98 51q75 0 75 -118q0 -169 -36 -226.5t-98 -57.5q-63 0 -84 74q-21 75 -45.5 82.5t-95.5 7.5q-176 0 -433.5 -305.5t-257.5 -540.5q0 -102 66 -181t174 -79q88 0 171.5 33.5t242.5 138.5q65 41 92 41q38 0 62.5 -26t24.5 -63q0 -29 -20 -60.5t-142 -111
t-237 -118.5t-225 -39q-184 0 -298.5 128t-114.5 302q0 321 324.5 703.5t602.5 382.5q110 0 154 -18zM1352 2007q27 21 51 21q27 0 46 -19.5t19 -45.5q0 -27 -12.5 -44t-133.5 -112t-183 -137.5t-78 -42.5q-32 0 -59 36l-41 64l-96 133q-59 82 -59 132q0 33 27 59t62 26
q41 0 58 -39q23 -53 147 -227z" />
    <glyph glyph-name="ccaron" unicode="&#x10d;" horiz-adv-x="1234" 
d="M716 158l125 61q35 17 47 17q32 0 53.5 -24t21.5 -59q0 -81 -160.5 -148.5t-247.5 -67.5q-195 0 -308 108t-113 271q0 233 195 490t389 257q109 0 226 -51.5t117 -124.5q0 -40 -31.5 -75.5t-71.5 -35.5q-39 0 -82.5 49t-187.5 49q-105 0 -238.5 -193t-133.5 -331
q0 -98 71.5 -161.5t195.5 -63.5q61 0 133 33zM1071 1556q27 21 51 21q27 0 46 -19.5t19 -45.5q0 -27 -12.5 -44t-133.5 -112t-183 -137.5t-78 -42.5q-32 0 -59 36l-41 64l-96 133q-59 82 -59 132q0 33 27 59t62 26q41 0 58 -39q23 -53 147 -227z" />
    <glyph glyph-name="Dcaron" unicode="&#x10e;" horiz-adv-x="1478" 
d="M288 -6h-10q-40 0 -64 24.5t-24 59.5q0 24 26 150l70 364q24 124 106 688l20 138q7 52 56.5 95t91.5 43q22 0 150 -67q139 -75 164 -82q261 -96 429.5 -291t168.5 -422q0 -207 -123 -405.5t-296.5 -292.5t-443.5 -94q-79 0 -178 26.5t-143 65.5zM595 1294l-84 -573
l-102 -547q3 -2 7 -4q94 -68 224 -68q257 0 377.5 92t184.5 216t64 252q0 129 -71.5 238t-192.5 183.5t-407 210.5zM1200 2007q27 21 51 21q27 0 46 -19.5t19 -45.5q0 -27 -12.5 -44t-133.5 -112t-183 -137.5t-78 -42.5q-32 0 -59 36l-41 64l-96 133q-59 82 -59 132
q0 33 27 59t62 26q41 0 58 -39q23 -53 147 -227z" />
    <glyph glyph-name="dcaron" unicode="&#x10f;" horiz-adv-x="1698" 
d="M1490 1350q-70 43 -70 109q0 59 45 102t106 43q109 0 109 -116q0 -110 -81.5 -247t-164.5 -137q-62 0 -62 57q0 34 36 78q12 14 24 29q11 14 25 28q15 19 33 54zM877 61q-158 -106 -327 -106q-190 0 -301 115.5t-111 286.5q0 263 171 474t439 211q162 0 256 -104
q93 477 122 566t108 89q75 0 75 -69q0 -68 -137 -641q-50 -209 -80 -438t-28 -359v-13q0 -33 -32 -67.5t-79 -34.5q-61 0 -76 90zM885 289l23 172l41 233q-49 162 -225 162q-214 0 -309 -148.5t-95 -302.5q0 -104 72 -183t188 -79q155 0 305 146z" />
    <glyph glyph-name="Dcroat" unicode="&#x110;" horiz-adv-x="1478" 
d="M278 -6h-10q-88 0 -88 75q0 45 49 277l51 250l-98 -4q-133 0 -133 82q0 51 31 82t63 35t170 4l43 315l47 315q7 44 55 87.5t92 43.5q20 0 150 -65q153 -81 164 -84q273 -107 435.5 -297t162.5 -414q0 -172 -89 -349t-268 -311t-506 -134q-86 0 -180.5 26.5t-140.5 65.5z
M513 795q35 0 127 -11q72 -8 131 -8q88 0 88 -77q0 -48 -34 -83.5t-84 -35.5q-62 0 -131 8q-72 8 -129 8l-82 -422q123 -72 231 -72q238 0 357.5 78.5t194 211.5t74.5 269q0 154 -112.5 294.5t-558.5 338.5z" />
    <glyph glyph-name="dcroat" unicode="&#x111;" horiz-adv-x="1234" 
d="M877 61q-158 -106 -327 -106q-190 0 -301 115.5t-111 286.5q0 263 171 474t439 211q162 0 256 -104l47 248h-293q-59 0 -59 66q0 50 31 70.5t116 20.5q39 0 119 -4q76 -4 119 -4q35 174 65 216t85 42q75 0 75 -69q0 -31 -32 -185h49q67 0 67 -56q0 -97 -149 -97h-2
q-31 -142 -70 -303q-46 -187 -78 -423t-30 -374v-13q0 -33 -32 -67.5t-79 -34.5q-61 0 -76 90zM885 289l23 172l41 233q-49 162 -225 162q-214 0 -309 -148.5t-95 -302.5q0 -104 72 -183t188 -79q72 0 122.5 21t148.5 92z" />
    <glyph glyph-name="Emacron" unicode="&#x112;" horiz-adv-x="1279" 
d="M576 1337q0 -96 -86 -485l446 43q187 18 238 18q90 0 90 -83q0 -107 -111 -121l-710 -64q-68 -311 -68 -446q0 -61 25.5 -78t138.5 -17l375 9q13 0 93 10q117 15 117 -77t-72.5 -118t-439.5 -26q-284 0 -360.5 59.5t-76.5 219.5q0 177 79 515q-5 23 -5 35q0 44 32 76
q61 277 76.5 370.5t15.5 163.5q7 134 34 182t93 48q42 0 69 -31q256 66 437 66q153 0 265 -25t139 -50.5t27 -62.5q0 -48 -35.5 -85t-80.5 -37q-12 0 -31 6q-166 47 -317 47q-166 0 -397 -62zM1032 1900h50q31 0 73 2l71 2q72 2 94.5 -9.5t22.5 -45.5q0 -78 -77 -92l-113 -6
h-215l-227 6q-62 0 -62 56q0 57 33.5 76t114.5 19q40 0 116 -4q82 -4 119 -4z" />
    <glyph glyph-name="emacron" unicode="&#x113;" horiz-adv-x="1122" 
d="M290 301q87 -166 308 -166q78 0 185 32t146 81q41 53 82 53q33 0 55 -22.5t22 -52.5q0 -102 -174.5 -186.5t-344.5 -84.5q-214 0 -334 100.5t-120 270.5q0 246 167 482t432 236q176 0 269 -59t93 -167q0 -89 -60.5 -152.5t-131 -98t-184.5 -84.5zM303 485l327 148
q207 94 283 151q-73 80 -227 80q-246 0 -383 -379zM831 1335h50q31 0 73 2l71 2q72 2 94.5 -9.5t22.5 -45.5q0 -78 -77 -92l-113 -6h-215l-227 6q-62 0 -62 56q0 57 33.5 76t114.5 19q40 0 116 -4q82 -4 119 -4z" />
    <glyph glyph-name="Ebreve" unicode="&#x114;" horiz-adv-x="1279" 
d="M576 1337q0 -96 -86 -485l446 43q187 18 238 18q90 0 90 -83q0 -107 -111 -121l-710 -64q-68 -311 -68 -446q0 -61 25.5 -78t138.5 -17l375 9q13 0 93 10q117 15 117 -77t-72.5 -118t-439.5 -26q-284 0 -360.5 59.5t-76.5 219.5q0 177 79 515q-5 23 -5 35q0 44 32 76
q61 277 76.5 370.5t15.5 163.5q7 134 34 182t93 48q42 0 69 -31q256 66 437 66q153 0 265 -25t139 -50.5t27 -62.5q0 -48 -35.5 -85t-80.5 -37q-12 0 -31 6q-166 47 -317 47q-166 0 -397 -62zM1403 2052q65 0 65 -59q0 -118 -143.5 -215.5t-369.5 -97.5q-129 0 -219.5 82
t-90.5 195q0 132 89 132q67 0 67 -57l-4 -46q0 -68 53 -112.5t127 -44.5q272 0 342 160q28 63 84 63z" />
    <glyph glyph-name="ebreve" unicode="&#x115;" horiz-adv-x="1122" 
d="M290 301q87 -166 308 -166q78 0 185 32t146 81q41 53 82 53q33 0 55 -22.5t22 -52.5q0 -102 -174.5 -186.5t-344.5 -84.5q-214 0 -334 100.5t-120 270.5q0 246 167 482t432 236q176 0 269 -59t93 -167q0 -89 -60.5 -152.5t-131 -98t-184.5 -84.5zM303 485l327 148
q207 94 283 151q-73 80 -227 80q-246 0 -383 -379zM1138 1552q65 0 65 -59q0 -118 -143.5 -215.5t-369.5 -97.5q-129 0 -219.5 82t-90.5 195q0 132 89 132q67 0 67 -57l-4 -46q0 -68 53 -112.5t127 -44.5q272 0 342 160q28 63 84 63z" />
    <glyph glyph-name="Edotaccent" unicode="&#x116;" horiz-adv-x="1279" 
d="M576 1337q0 -96 -86 -485l446 43q187 18 238 18q90 0 90 -83q0 -107 -111 -121l-710 -64q-68 -311 -68 -446q0 -61 25.5 -78t138.5 -17l375 9q13 0 93 10q117 15 117 -77t-72.5 -118t-439.5 -26q-284 0 -360.5 59.5t-76.5 219.5q0 177 79 515q-5 23 -5 35q0 44 32 76
q61 277 76.5 370.5t15.5 163.5q7 134 34 182t93 48q42 0 69 -31q256 66 437 66q153 0 265 -25t139 -50.5t27 -62.5q0 -48 -35.5 -85t-80.5 -37q-12 0 -31 6q-166 47 -317 47q-166 0 -397 -62zM978 1735q-31 0 -75.5 44.5t-44.5 75.5q0 34 41.5 67.5t80.5 33.5q31 0 74.5 -47
t43.5 -73q0 -36 -40.5 -68.5t-79.5 -32.5z" />
    <glyph glyph-name="edotaccent" unicode="&#x117;" horiz-adv-x="1122" 
d="M290 301q87 -166 308 -166q78 0 185 32t146 81q41 53 82 53q33 0 55 -22.5t22 -52.5q0 -102 -174.5 -186.5t-344.5 -84.5q-214 0 -334 100.5t-120 270.5q0 246 167 482t432 236q176 0 269 -59t93 -167q0 -89 -60.5 -152.5t-131 -98t-184.5 -84.5zM303 485l327 148
q207 94 283 151q-73 80 -227 80q-246 0 -383 -379zM757 1184q-31 0 -75.5 44.5t-44.5 75.5q0 34 41.5 67.5t80.5 33.5q31 0 74.5 -47t43.5 -73q0 -36 -40.5 -68.5t-79.5 -32.5z" />
    <glyph glyph-name="Eogonek" unicode="&#x118;" horiz-adv-x="1279" 
d="M576 1337q0 -96 -86 -485l446 43q187 18 238 18q90 0 90 -83q0 -107 -111 -121l-710 -64q-68 -311 -68 -446q0 -61 25.5 -78t138.5 -17l375 9q13 0 93 10q117 15 117 -77t-72.5 -118t-439.5 -26q-284 0 -360.5 59.5t-76.5 219.5q0 177 79 515q-5 23 -5 35q0 44 32 76
q61 277 76.5 370.5t15.5 163.5q7 134 34 182t93 48q42 0 69 -31q256 66 437 66q153 0 265 -25t139 -50.5t27 -62.5q0 -48 -35.5 -85t-80.5 -37q-12 0 -31 6q-166 47 -317 47q-166 0 -397 -62zM803 -257q0 -91 79 -91q73 0 138 25q26 12 41 12q62 0 62 -67q0 -56 -78 -93.5
t-201 -37.5q-111 0 -170 53t-59 146q0 136 108.5 241.5t179.5 105.5q67 0 67 -54q0 -23 -11.5 -40t-69.5 -64q-86 -69 -86 -136z" />
    <glyph glyph-name="eogonek" unicode="&#x119;" horiz-adv-x="1122" 
d="M290 301q87 -166 308 -166q78 0 185 32t146 81q41 53 82 53q33 0 55 -22.5t22 -52.5q0 -102 -174.5 -186.5t-344.5 -84.5q-214 0 -334 100.5t-120 270.5q0 246 167 482t432 236q176 0 269 -59t93 -167q0 -89 -60.5 -152.5t-131 -98t-184.5 -84.5zM303 485l327 148
q207 94 283 151q-73 80 -227 80q-246 0 -383 -379zM693 -191q0 -91 79 -91q73 0 138 25q26 12 41 12q62 0 62 -67q0 -56 -78 -93.5t-201 -37.5q-111 0 -170 53t-59 146q0 136 108.5 241.5t179.5 105.5q67 0 67 -54q0 -23 -11.5 -40t-69.5 -64q-86 -69 -86 -136z" />
    <glyph glyph-name="Ecaron" unicode="&#x11a;" horiz-adv-x="1279" 
d="M576 1337q0 -96 -86 -485l446 43q187 18 238 18q90 0 90 -83q0 -107 -111 -121l-710 -64q-68 -311 -68 -446q0 -61 25.5 -78t138.5 -17l375 9q13 0 93 10q117 15 117 -77t-72.5 -118t-439.5 -26q-284 0 -360.5 59.5t-76.5 219.5q0 177 79 515q-5 23 -5 35q0 44 32 76
q61 277 76.5 370.5t15.5 163.5q7 134 34 182t93 48q42 0 69 -31q256 66 437 66q153 0 265 -25t139 -50.5t27 -62.5q0 -48 -35.5 -85t-80.5 -37q-12 0 -31 6q-166 47 -317 47q-166 0 -397 -62zM1286 2035q27 21 51 21q27 0 46 -19.5t19 -45.5q0 -27 -12.5 -44t-133.5 -112
t-183 -137.5t-78 -42.5q-32 0 -59 36l-41 64l-96 133q-59 82 -59 132q0 33 27 59t62 26q41 0 58 -39q23 -53 147 -227z" />
    <glyph glyph-name="ecaron" unicode="&#x11b;" horiz-adv-x="1122" 
d="M290 301q87 -166 308 -166q78 0 185 32t146 81q41 53 82 53q33 0 55 -22.5t22 -52.5q0 -102 -174.5 -186.5t-344.5 -84.5q-214 0 -334 100.5t-120 270.5q0 246 167 482t432 236q176 0 269 -59t93 -167q0 -89 -60.5 -152.5t-131 -98t-184.5 -84.5zM303 485l327 148
q207 94 283 151q-73 80 -227 80q-246 0 -383 -379zM1071 1556q27 21 51 21q27 0 46 -19.5t19 -45.5q0 -27 -12.5 -44t-133.5 -112t-183 -137.5t-78 -42.5q-32 0 -59 36l-41 64l-96 133q-59 82 -59 132q0 33 27 59t62 26q41 0 58 -39q23 -53 147 -227z" />
    <glyph glyph-name="Gcircumflex" unicode="&#x11c;" horiz-adv-x="1392" 
d="M1319 604q-109 -300 -337 -487t-499 -187q-417 0 -417 394q0 189 87.5 425t242.5 429.5t291 293t271 99.5q90 0 239 -64t149 -140q0 -44 -35.5 -82t-81.5 -38q-23 0 -60 25q-134 94 -244 94q-144 0 -400.5 -333.5t-256.5 -680.5q0 -127 62 -172t186 -45
q184 0 339.5 122.5t235.5 334.5q-279 -15 -491 -107q-26 -12 -47 -12q-36 0 -59.5 26.5t-23.5 62.5q0 60 67.5 106t256.5 89.5t508 43.5q40 0 65 -24.5t25 -60.5q0 -79 -73 -112zM1141 1930q-305 -314 -375 -314q-31 0 -54 24t-23 55q0 44 40 79q43 33 359 336q31 31 65 31
q41 0 83 -33t130 -146l131 -170q18 -24 18 -47q0 -39 -32 -71.5t-74 -32.5t-70 42t-198 247z" />
    <glyph glyph-name="gcircumflex" unicode="&#x11d;" 
d="M1019 430l-117 -502q-21 -81 -54 -161t-80 -141t-108.5 -102t-148.5 -64t-205 -23q-330 0 -330 107q0 35 22.5 69.5t78.5 34.5q18 0 48 -5q151 -28 236 -28q176 0 272.5 124t150.5 435q-145 -199 -330 -199q-161 0 -254.5 95.5t-93.5 251.5q0 267 186 484.5t510 217.5
q187 0 236 -96q91 -3 91 -88q0 -49 -90 -337q-15 -47 -20 -73zM765 864q-215 0 -338.5 -159t-123.5 -365q0 -199 180 -199q90 0 190.5 92t140 189t115.5 381q-73 61 -164 61zM862 1479q-305 -314 -375 -314q-31 0 -54 24t-23 55q0 44 40 79q43 33 359 336q31 31 65 31
q41 0 83 -33t130 -146l131 -170q18 -24 18 -47q0 -39 -32 -71.5t-74 -32.5t-70 42t-198 247z" />
    <glyph glyph-name="Gbreve" unicode="&#x11e;" horiz-adv-x="1392" 
d="M1319 604q-109 -300 -337 -487t-499 -187q-417 0 -417 394q0 189 87.5 425t242.5 429.5t291 293t271 99.5q90 0 239 -64t149 -140q0 -44 -35.5 -82t-81.5 -38q-23 0 -60 25q-134 94 -244 94q-144 0 -400.5 -333.5t-256.5 -680.5q0 -127 62 -172t186 -45
q184 0 339.5 122.5t235.5 334.5q-279 -15 -491 -107q-26 -12 -47 -12q-36 0 -59.5 26.5t-23.5 62.5q0 60 67.5 106t256.5 89.5t508 43.5q40 0 65 -24.5t25 -60.5q0 -79 -73 -112zM1446 2003q65 0 65 -59q0 -118 -143.5 -215.5t-369.5 -97.5q-129 0 -219.5 82t-90.5 195
q0 132 89 132q67 0 67 -57l-4 -46q0 -68 53 -112.5t127 -44.5q272 0 342 160q28 63 84 63z" />
    <glyph glyph-name="gbreve" unicode="&#x11f;" 
d="M1019 430l-117 -502q-21 -81 -54 -161t-80 -141t-108.5 -102t-148.5 -64t-205 -23q-330 0 -330 107q0 35 22.5 69.5t78.5 34.5q18 0 48 -5q151 -28 236 -28q176 0 272.5 124t150.5 435q-145 -199 -330 -199q-161 0 -254.5 95.5t-93.5 251.5q0 267 186 484.5t510 217.5
q187 0 236 -96q91 -3 91 -88q0 -49 -90 -337q-15 -47 -20 -73zM765 864q-215 0 -338.5 -159t-123.5 -365q0 -199 180 -199q90 0 190.5 92t140 189t115.5 381q-73 61 -164 61zM1186 1552q65 0 65 -59q0 -118 -143.5 -215.5t-369.5 -97.5q-129 0 -219.5 82t-90.5 195
q0 132 89 132q67 0 67 -57l-4 -46q0 -68 53 -112.5t127 -44.5q272 0 342 160q28 63 84 63z" />
    <glyph glyph-name="Gdotaccent" unicode="&#x120;" horiz-adv-x="1392" 
d="M1319 604q-109 -300 -337 -487t-499 -187q-417 0 -417 394q0 189 87.5 425t242.5 429.5t291 293t271 99.5q90 0 239 -64t149 -140q0 -44 -35.5 -82t-81.5 -38q-23 0 -60 25q-134 94 -244 94q-144 0 -400.5 -333.5t-256.5 -680.5q0 -127 62 -172t186 -45
q184 0 339.5 122.5t235.5 334.5q-279 -15 -491 -107q-26 -12 -47 -12q-36 0 -59.5 26.5t-23.5 62.5q0 60 67.5 106t256.5 89.5t508 43.5q40 0 65 -24.5t25 -60.5q0 -79 -73 -112zM1125 1690q-31 0 -75.5 44.5t-44.5 75.5q0 34 41.5 67.5t80.5 33.5q31 0 74.5 -47t43.5 -73
q0 -36 -40.5 -68.5t-79.5 -32.5z" />
    <glyph glyph-name="gdotaccent" unicode="&#x121;" 
d="M1019 430l-117 -502q-21 -81 -54 -161t-80 -141t-108.5 -102t-148.5 -64t-205 -23q-330 0 -330 107q0 35 22.5 69.5t78.5 34.5q18 0 48 -5q151 -28 236 -28q176 0 272.5 124t150.5 435q-145 -199 -330 -199q-161 0 -254.5 95.5t-93.5 251.5q0 267 186 484.5t510 217.5
q187 0 236 -96q91 -3 91 -88q0 -49 -90 -337q-15 -47 -20 -73zM765 864q-215 0 -338.5 -159t-123.5 -365q0 -199 180 -199q90 0 190.5 92t140 189t115.5 381q-73 61 -164 61zM886 1184q-31 0 -75.5 44.5t-44.5 75.5q0 34 41.5 67.5t80.5 33.5q31 0 74.5 -47t43.5 -73
q0 -36 -40.5 -68.5t-79.5 -32.5z" />
    <glyph glyph-name="uni0122" unicode="&#x122;" horiz-adv-x="1392" 
d="M1319 604q-109 -300 -337 -487t-499 -187q-417 0 -417 394q0 189 87.5 425t242.5 429.5t291 293t271 99.5q90 0 239 -64t149 -140q0 -44 -35.5 -82t-81.5 -38q-23 0 -60 25q-134 94 -244 94q-144 0 -400.5 -333.5t-256.5 -680.5q0 -127 62 -172t186 -45
q184 0 339.5 122.5t235.5 334.5q-279 -15 -491 -107q-26 -12 -47 -12q-36 0 -59.5 26.5t-23.5 62.5q0 60 67.5 106t256.5 89.5t508 43.5q40 0 65 -24.5t25 -60.5q0 -79 -73 -112zM481 -352q-89 60 -89 115q0 51 44.5 95t105.5 44q129 0 129 -122q0 -88 -97.5 -223
t-164.5 -135q-62 0 -62 57q0 46 57 94q73 60 77 75z" />
    <glyph glyph-name="uni0123" unicode="&#x123;" 
d="M843 1448q68 -45 68 -110q0 -61 -43 -102.5t-105 -41.5q-112 0 -112 115q0 102 82 243.5t165 141.5q62 0 62 -54q0 -42 -35 -84q-14 -14 -25 -28q-12 -15 -24 -29q-11 -12 -33 -51zM1019 430l-117 -502q-21 -81 -54 -161t-80 -141t-108.5 -102t-148.5 -64t-205 -23
q-330 0 -330 107q0 35 22.5 69.5t78.5 34.5q18 0 48 -5q151 -28 236 -28q176 0 272.5 124t150.5 435q-145 -199 -330 -199q-161 0 -254.5 95.5t-93.5 251.5q0 267 186 484.5t510 217.5q187 0 236 -96q91 -3 91 -88q0 -49 -90 -337q-15 -47 -20 -73zM765 864
q-215 0 -338.5 -159t-123.5 -365q0 -199 180 -199q90 0 190.5 92t140 189t115.5 381q-73 61 -164 61z" />
    <glyph glyph-name="Hcircumflex" unicode="&#x124;" horiz-adv-x="1573" 
d="M1319 659q-188 -5 -428 -51l-434 -82q-8 -66 -60 -256q-48 -185 -57 -256q-8 -41 -39.5 -69.5t-73.5 -28.5q-81 0 -81 77q0 52 67 339q68 278 90 481l14 99q6 41 9 69q6 40 19 100q66 301 77 375q6 41 39 69.5t74 28.5q81 0 81 -81q0 -28 -49 -256q-40 -180 -49 -240
l-32 -252l440 80q270 49 440 49q35 149 80 432q14 86 58.5 173t99.5 87q36 0 60.5 -23t24.5 -59q0 -21 -18 -55q-23 -43 -38 -162q-24 -196 -85 -438q-49 -202 -61 -273t-31 -253q-12 -176 -21.5 -225t-41.5 -75t-72 -26q-35 0 -58 24.5t-23 58.5l26 243q21 205 40 303
q7 36 13 73zM1141 1930q-305 -314 -375 -314q-31 0 -54 24t-23 55q0 44 40 79q43 33 359 336q31 31 65 31q41 0 83 -33t130 -146l131 -170q18 -24 18 -47q0 -39 -32 -71.5t-74 -32.5t-70 42t-198 247z" />
    <glyph glyph-name="hcircumflex" unicode="&#x125;" horiz-adv-x="1183" 
d="M442 492q-62 -384 -101.5 -449.5t-98.5 -65.5q-38 0 -63.5 25t-25.5 59q0 24 17 58q13 27 35 145l143 883l29 138q12 65 12 126q0 105 29 148t90 43q84 0 84 -89q0 -141 -53 -393q-27 -135 -41 -219l-13 -88q197 219 408 219q104 0 167 -45.5t63 -185.5q0 -57 -9 -133
l-22 -191l-13 -209q-1 -21 -1.5 -110t2 -106t-7.5 -43t-40 -48t-67 -22q-51 0 -69.5 34.5t-18.5 170.5q0 248 27 376q29 142 29 203q0 108 -71 108q-94 0 -184.5 -63.5t-235.5 -275.5zM1032 1930q-305 -314 -375 -314q-31 0 -54 24t-23 55q0 44 40 79q43 33 359 336
q31 31 65 31q41 0 83 -33t130 -146l131 -170q18 -24 18 -47q0 -39 -32 -71.5t-74 -32.5t-70 42t-198 247z" />
    <glyph glyph-name="Hbar" unicode="&#x126;" horiz-adv-x="1573" 
d="M1614 1100q-17 -91 -68 -293q-55 -233 -65.5 -313.5t-24.5 -210.5q-12 -176 -21.5 -225t-41.5 -75t-72 -26q-35 0 -58 24.5t-23 58.5l26 243q21 205 40 303q7 36 13 73q-161 4 -862 -133q-8 -66 -60 -256q-48 -185 -57 -256q-8 -41 -39.5 -69.5t-73.5 -28.5q-81 0 -81 77
q0 52 67 339q68 278 90 481q35 246 47 289h-114q-90 0 -90 74q0 72 43.5 99.5t203.5 27.5q17 76 29 153q6 41 39 69.5t74 28.5q81 0 81 -81q0 -40 -32 -173l637 -12q36 0 227 6q24 120 68 186t88 66q36 0 60.5 -23t24.5 -59q0 -23 -18 -55q-17 -30 -30 -106h77q76 0 76 -68
q0 -129 -180 -135zM1415 1106l-872 -4q-31 -129 -57 -377l466 84q246 45 414 45q23 99 49 252z" />
    <glyph glyph-name="hbar" unicode="&#x127;" horiz-adv-x="1183" 
d="M442 492q-62 -384 -101.5 -449.5t-98.5 -65.5q-38 0 -63.5 25t-25.5 59q0 24 17 58q13 27 35 145l149 912h-28q-141 0 -141 76q0 56 32.5 79t136.5 23h33q1 2 3 94t39 123t79 31q84 0 84 -89q0 -58 -8 -149l67 2h160q153 0 153 -77q0 -39 -31.5 -73t-70.5 -34
q-14 0 -55 7q-34 5 -256 -7l-53 -281l-13 -88q197 219 408 219q104 0 167 -45.5t63 -185.5q0 -57 -9 -133l-22 -191l-13 -209q-1 -21 -1.5 -110t2 -106t-7.5 -43t-40 -48t-67 -22q-51 0 -69.5 34.5t-18.5 170.5q0 248 27 376q29 142 29 203q0 108 -71 108
q-94 0 -184.5 -63.5t-235.5 -275.5z" />
    <glyph glyph-name="Itilde" unicode="&#x128;" horiz-adv-x="1119" 
d="M834 1280q-84 -364 -121 -634q-55 -405 -72 -439l318 4q38 0 60.5 -23.5t22.5 -58.5q0 -47 -33 -85t-83 -38q-54 0 -168 -4l-99 -2q-160 -3 -272 -18q-129 -19 -199 -19q-39 0 -62.5 25t-23.5 59q0 47 35.5 85t83.5 38q77 0 217 20q31 97 69 446q21 196 130 652l-262 -8
q-36 -1 -60 22t-24 60q0 53 27 86t82 39t305 6q139 0 310 -19t198.5 -26t43 -26t15.5 -53q0 -59 -38 -91.5t-83 -32.5q-70 0 -158 15zM839 1946l68 -104q39 -60 102 -60q56 0 90 37l59 88l31 60q14 28 66 28q63 0 63 -55q0 -50 -88.5 -177.5t-212.5 -127.5q-115 0 -166 33
t-100 131q-35 57 -86 57q-61 0 -105 -47l-59 -84q-32 -45 -70 -45q-68 0 -68 59l4 23q4 53 98 148t224 95q100 0 150 -59z" />
    <glyph glyph-name="itilde" unicode="&#x129;" horiz-adv-x="574" 
d="M277 -4q-84 0 -84 77l40 306q14 120 58 309q36 172 47 236q18 100 115 100q84 0 84 -78q0 -26 -49 -258q-48 -211 -59 -309q-20 -177 -39.5 -280t-112.5 -103zM501 1495l68 -104q39 -60 102 -60q56 0 90 37l59 88l31 60q14 28 66 28q63 0 63 -55q0 -50 -88.5 -177.5
t-212.5 -127.5q-115 0 -166 33t-100 131q-35 57 -86 57q-61 0 -105 -47l-59 -84q-32 -45 -70 -45q-68 0 -68 59l4 23q4 53 98 148t224 95q100 0 150 -59z" />
    <glyph glyph-name="Imacron" unicode="&#x12a;" horiz-adv-x="1119" 
d="M834 1280q-84 -364 -121 -634q-55 -405 -72 -439l318 4q38 0 60.5 -23.5t22.5 -58.5q0 -47 -33 -85t-83 -38q-54 0 -168 -4l-99 -2q-160 -3 -272 -18q-129 -19 -199 -19q-39 0 -62.5 25t-23.5 59q0 47 35.5 85t83.5 38q77 0 217 20q31 97 69 446q21 196 130 652l-262 -8
q-36 -1 -60 22t-24 60q0 53 27 86t82 39t305 6q139 0 310 -19t198.5 -26t43 -26t15.5 -53q0 -59 -38 -91.5t-83 -32.5q-70 0 -158 15zM860 1786h50q31 0 73 2l71 2q72 2 94.5 -9.5t22.5 -45.5q0 -78 -77 -92l-113 -6h-215l-227 6q-62 0 -62 56q0 57 33.5 76t114.5 19
q40 0 116 -4q82 -4 119 -4z" />
    <glyph glyph-name="imacron" unicode="&#x12b;" horiz-adv-x="574" 
d="M277 -4q-84 0 -84 77l40 306q14 120 58 309q36 172 47 236q18 100 115 100q84 0 84 -78q0 -26 -49 -258q-48 -211 -59 -309q-20 -177 -39.5 -280t-112.5 -103zM513 1335h50q31 0 73 2l71 2q72 2 94.5 -9.5t22.5 -45.5q0 -78 -77 -92l-113 -6h-215l-227 6q-62 0 -62 56
q0 57 33.5 76t114.5 19q40 0 116 -4q82 -4 119 -4z" />
    <glyph glyph-name="Ibreve" unicode="&#x12c;" horiz-adv-x="1119" 
d="M834 1280q-84 -364 -121 -634q-55 -405 -72 -439l318 4q38 0 60.5 -23.5t22.5 -58.5q0 -47 -33 -85t-83 -38q-54 0 -168 -4l-99 -2q-160 -3 -272 -18q-129 -19 -199 -19q-39 0 -62.5 25t-23.5 59q0 47 35.5 85t83.5 38q77 0 217 20q31 97 69 446q21 196 130 652l-262 -8
q-36 -1 -60 22t-24 60q0 53 27 86t82 39t305 6q139 0 310 -19t198.5 -26t43 -26t15.5 -53q0 -59 -38 -91.5t-83 -32.5q-70 0 -158 15zM1179 2003q65 0 65 -59q0 -118 -143.5 -215.5t-369.5 -97.5q-129 0 -219.5 82t-90.5 195q0 132 89 132q67 0 67 -57l-4 -46
q0 -68 53 -112.5t127 -44.5q272 0 342 160q28 63 84 63z" />
    <glyph glyph-name="ibreve" unicode="&#x12d;" horiz-adv-x="574" 
d="M277 -4q-84 0 -84 77l40 306q14 120 58 309q36 172 47 236q18 100 115 100q84 0 84 -78q0 -26 -49 -258q-48 -211 -59 -309q-20 -177 -39.5 -280t-112.5 -103zM847 1552q65 0 65 -59q0 -118 -143.5 -215.5t-369.5 -97.5q-129 0 -219.5 82t-90.5 195q0 132 89 132
q67 0 67 -57l-4 -46q0 -68 53 -112.5t127 -44.5q272 0 342 160q28 63 84 63z" />
    <glyph glyph-name="Iogonek" unicode="&#x12e;" horiz-adv-x="1119" 
d="M834 1280q-84 -364 -121 -634q-55 -405 -72 -439l318 4q38 0 60.5 -23.5t22.5 -58.5q0 -47 -33 -85t-83 -38q-54 0 -168 -4l-99 -2q-160 -3 -272 -18q-129 -19 -199 -19q-39 0 -62.5 25t-23.5 59q0 47 35.5 85t83.5 38q77 0 217 20q31 97 69 446q21 196 130 652l-262 -8
q-36 -1 -60 22t-24 60q0 53 27 86t82 39t305 6q139 0 310 -19t198.5 -26t43 -26t15.5 -53q0 -59 -38 -91.5t-83 -32.5q-70 0 -158 15zM494 -188q0 -91 79 -91q73 0 138 25q26 12 41 12q62 0 62 -67q0 -56 -78 -93.5t-201 -37.5q-111 0 -170 53t-59 146q0 136 108.5 241.5
t179.5 105.5q67 0 67 -54q0 -23 -11.5 -40t-69.5 -64q-86 -69 -86 -136z" />
    <glyph glyph-name="iogonek" unicode="&#x12f;" horiz-adv-x="574" 
d="M422 1363q0 53 42 93.5t95 40.5q46 0 73.5 -28.5t27.5 -67.5q0 -53 -41.5 -94t-96.5 -41q-43 0 -71.5 28t-28.5 69zM277 -4q-84 0 -84 77l40 306q14 120 58 309q36 172 47 236q18 100 115 100q84 0 84 -78q0 -26 -49 -258q-48 -211 -59 -309q-20 -177 -39.5 -280
t-112.5 -103zM196 -188q0 -91 79 -91q73 0 138 25q26 12 41 12q62 0 62 -67q0 -56 -78 -93.5t-201 -37.5q-111 0 -170 53t-59 146q0 136 108.5 241.5t179.5 105.5q67 0 67 -54q0 -23 -11.5 -40t-69.5 -64q-86 -69 -86 -136z" />
    <glyph glyph-name="Idotaccent" unicode="&#x130;" horiz-adv-x="1119" 
d="M834 1280q-84 -364 -121 -634q-55 -405 -72 -439l318 4q38 0 60.5 -23.5t22.5 -58.5q0 -47 -33 -85t-83 -38q-54 0 -168 -4l-99 -2q-160 -3 -272 -18q-129 -19 -199 -19q-39 0 -62.5 25t-23.5 59q0 47 35.5 85t83.5 38q77 0 217 20q31 97 69 446q21 196 130 652l-262 -8
q-36 -1 -60 22t-24 60q0 53 27 86t82 39t305 6q139 0 310 -19t198.5 -26t43 -26t15.5 -53q0 -59 -38 -91.5t-83 -32.5q-70 0 -158 15zM826 1635q-31 0 -75.5 44.5t-44.5 75.5q0 34 41.5 67.5t80.5 33.5q31 0 74.5 -47t43.5 -73q0 -36 -40.5 -68.5t-79.5 -32.5z" />
    <glyph glyph-name="dotlessi" unicode="&#x131;" horiz-adv-x="574" 
d="M277 -4q-84 0 -84 77l40 306q14 120 58 309q36 172 47 236q18 100 115 100q84 0 84 -78q0 -26 -49 -258q-48 -211 -59 -309q-20 -177 -39.5 -280t-112.5 -103z" />
    <glyph glyph-name="IJ" unicode="&#x132;" horiz-adv-x="2307" 
d="M2101 1307l-14 -119q-30 -253 -129 -653.5t-195.5 -528t-212.5 -127.5q-168 0 -317.5 120.5t-149.5 271.5q0 180 123 180q87 0 87 -85q0 -16 -3 -36q-12 -86 89.5 -165t203.5 -79q84 0 188 484t121 658q2 26 7 66h-111q-29 0 -68 2l-68 2h-24q-80 3 -98 28t-18 55
q0 124 157 124q37 0 101 -4l56 -2q90 -3 232 8q129 9 191 9q212 0 212 -101q0 -46 -36 -83.5t-82 -37.5l-127 15h-52q-29 0 -63 -2zM834 1280q-84 -364 -121 -634q-55 -405 -72 -439l318 4q38 0 60.5 -23.5t22.5 -58.5q0 -47 -33 -85t-83 -38q-54 0 -168 -4l-99 -2
q-160 -3 -272 -18q-129 -19 -199 -19q-39 0 -62.5 25t-23.5 59q0 47 35.5 85t83.5 38q77 0 217 20q31 97 69 446q21 196 130 652l-262 -8q-36 -1 -60 22t-24 60q0 53 27 86t82 39t305 6q139 0 310 -19t198.5 -26t43 -26t15.5 -53q0 -59 -38 -91.5t-83 -32.5q-70 0 -158 15z
" />
    <glyph glyph-name="ij" unicode="&#x133;" horiz-adv-x="1086" 
d="M422 1363q0 53 42 93.5t95 40.5q46 0 73.5 -28.5t27.5 -67.5q0 -53 -41.5 -94t-96.5 -41q-43 0 -71.5 28t-28.5 69zM819 1361q0 52 42.5 93t95.5 41q45 0 73.5 -29t28.5 -68q0 -51 -43 -91.5t-96 -40.5q-44 0 -72.5 28t-28.5 67zM737 367l52 551q4 41 39 85t81 44
q37 0 67 -26t28 -50l-60 -578l-71 -614q-15 -126 -120 -251.5t-241 -125.5q-146 0 -222.5 137t-76.5 187q0 42 37 77t84 35q57 0 114 -156q28 -79 97 -79q43 0 85 53.5t58 192.5t49 518zM277 -4q-84 0 -84 77l40 306q14 120 58 309q36 172 47 236q18 100 115 100
q84 0 84 -78q0 -26 -49 -258q-48 -211 -59 -309q-20 -177 -39.5 -280t-112.5 -103z" />
    <glyph glyph-name="Jcircumflex" unicode="&#x134;" horiz-adv-x="1362" 
d="M1134 1307l-14 -119q-18 -150 -82 -454.5t-138 -509t-149 -275t-168 -70.5q-169 0 -318.5 121t-149.5 274q0 177 124 177q87 0 87 -87l-4 -52q0 -80 98.5 -153t195.5 -73q86 0 191.5 498t116.5 644q2 26 7 66h-111q-29 0 -67 2l-69 2q-29 1 -48.5 0t-42 8t-36 30
t-13.5 48q0 121 158 121q36 0 100 -4l57 -2q91 -3 232 8q129 9 191 9q212 0 212 -101q0 -44 -35 -82.5t-83 -38.5l-127 15h-52q-29 0 -63 -2zM1094 1930q-305 -314 -375 -314q-31 0 -54 24t-23 55q0 44 40 79q43 33 359 336q31 31 65 31q41 0 83 -33t130 -146l131 -170
q18 -24 18 -47q0 -39 -32 -71.5t-74 -32.5t-70 42t-198 247z" />
    <glyph glyph-name="jcircumflex" unicode="&#x135;" horiz-adv-x="826" 
d="M354 367l52 551q4 41 39 85t81 44q37 0 67 -26t28 -50l-60 -578l-71 -614q-15 -126 -120 -251.5t-241 -125.5q-142 0 -219.5 135t-77.5 189q0 42 37 77t84 35q55 0 112 -156q28 -79 97 -79q43 0 85 53.5t58 192.5t49 518zM577 1479q-305 -314 -375 -314q-31 0 -54 24
t-23 55q0 44 40 79q43 33 359 336q31 31 65 31q41 0 83 -33t130 -146l131 -170q18 -24 18 -47q0 -39 -32 -71.5t-74 -32.5t-70 42t-198 247z" />
    <glyph glyph-name="uni0136" unicode="&#x136;" horiz-adv-x="1251" 
d="M502 526l-86 -536q-16 -101 -103 -101q-51 0 -76 38t-25 77q0 61 128 723q75 389 125 700q6 44 40.5 74.5t76.5 30.5q39 0 61 -25.5t22 -61.5q0 -28 -61 -319q-39 -186 -59 -303q142 114 354 320l340 332q39 38 82 38q38 0 62.5 -25.5t24.5 -61.5q0 -109 -755 -760
q92 -117 320 -363l90 -88q40 -39 113 -65q75 -28 75 -72q0 -45 -33 -82t-75 -37q-154 0 -389 266zM613 -352q-89 60 -89 115q0 51 44.5 95t105.5 44q129 0 129 -122q0 -88 -97.5 -223t-164.5 -135q-62 0 -62 57q0 46 57 94q73 60 77 75z" />
    <glyph glyph-name="uni0137" unicode="&#x137;" horiz-adv-x="1106" 
d="M614 498q-42 -31 -201 -129q-39 -180 -57 -303q-8 -45 -40 -73t-75 -28q-84 0 -84 93q0 39 53 290q39 163 106.5 557t77.5 492q9 90 16 122.5t38 58.5t74 26q83 0 83 -83l-15 -127q-8 -82 -13 -108l-57 -321q-40 -223 -58 -349q127 86 297 228l256 227q39 35 78 35
q35 0 60 -27t25 -63q0 -28 -16 -52t-134.5 -132.5t-241.5 -204.5l172 -297q109 -188 109 -262q0 -41 -36.5 -75t-82.5 -34q-56 0 -76 57q-42 114 -121 240zM508 -352q-89 60 -89 115q0 51 44.5 95t105.5 44q129 0 129 -122q0 -88 -97.5 -223t-164.5 -135q-62 0 -62 57
q0 46 57 94q73 60 77 75z" />
    <glyph glyph-name="kgreenlandic" unicode="&#x138;" horiz-adv-x="1106" 
d="M614 498q-42 -31 -201 -129q-39 -180 -57 -303q-8 -45 -40 -73t-75 -28q-84 0 -84 93q0 39 53 290q32 134 54 250q13 85 30 153q10 42 23 163l9 82q6 64 39.5 94t78.5 30q84 0 84 -78q0 -8 -66 -426q127 86 297 228l256 227q39 35 78 35q35 0 60 -27t25 -63
q0 -28 -16 -52t-134.5 -132.5t-241.5 -204.5l172 -297q109 -188 109 -262q0 -41 -36.5 -75t-82.5 -34q-56 0 -76 57q-42 114 -121 240z" />
    <glyph glyph-name="Lacute" unicode="&#x139;" horiz-adv-x="1128" 
d="M301 113q262 -3 682 123q16 4 31 4q83 0 83 -87q0 -62 -66 -105t-330.5 -91.5t-425.5 -48.5q-102 0 -140.5 32.5t-38.5 98.5q0 24 5 53l71 332q105 490 189 1016q6 43 39.5 72.5t74.5 29.5q86 0 86 -83q0 -28 -63.5 -389t-128.5 -658l-39 -154q-5 -19 -15 -77
q-7 -36 -14 -68zM672 1720q0 37 42 74q51 43 157 160q45 51 115 106.5t111 55.5q30 0 53 -23t23 -55q0 -50 -50 -86q-89 -62 -157 -143q-149 -170 -218 -170q-31 0 -53.5 23t-22.5 58z" />
    <glyph glyph-name="lacute" unicode="&#x13a;" horiz-adv-x="561" 
d="M503 786l-122 -654q-17 -87 -29.5 -114.5t-38 -44t-62.5 -16.5q-84 0 -84 77q0 23 30 176l109 576l124 713q11 71 42.5 91t71.5 20q86 0 86 -74q0 -42 -98 -581q-17 -90 -29 -169zM490 1769q0 37 42 74q51 43 157 160q45 51 115 106.5t111 55.5q30 0 53 -23t23 -55
q0 -50 -50 -86q-89 -62 -157 -143q-149 -170 -218 -170q-31 0 -53.5 23t-22.5 58z" />
    <glyph glyph-name="uni013B" unicode="&#x13b;" horiz-adv-x="1128" 
d="M301 113q262 -3 682 123q16 4 31 4q83 0 83 -87q0 -62 -66 -105t-330.5 -91.5t-425.5 -48.5q-102 0 -140.5 32.5t-38.5 98.5q0 24 5 53l71 332q105 490 189 1016q6 43 39.5 72.5t74.5 29.5q86 0 86 -83q0 -28 -63.5 -389t-128.5 -658l-39 -154q-5 -19 -15 -77
q-7 -36 -14 -68zM481 -352q-89 60 -89 115q0 51 44.5 95t105.5 44q129 0 129 -122q0 -88 -97.5 -223t-164.5 -135q-62 0 -62 57q0 46 57 94q73 60 77 75z" />
    <glyph glyph-name="uni013C" unicode="&#x13c;" horiz-adv-x="561" 
d="M503 786l-122 -654q-17 -87 -29.5 -114.5t-38 -44t-62.5 -16.5q-84 0 -84 77q0 23 30 176l109 576l124 713q11 71 42.5 91t71.5 20q86 0 86 -74q0 -42 -98 -581q-17 -90 -29 -169zM198 -352q-89 60 -89 115q0 51 44.5 95t105.5 44q129 0 129 -122q0 -88 -97.5 -223
t-164.5 -135q-62 0 -62 57q0 46 57 94q73 60 77 75z" />
    <glyph glyph-name="Lcaron" unicode="&#x13d;" horiz-adv-x="1128" 
d="M301 113q262 -3 682 123q16 4 31 4q83 0 83 -87q0 -62 -66 -105t-330.5 -91.5t-425.5 -48.5q-102 0 -140.5 32.5t-38.5 98.5q0 24 5 53l71 332q105 490 189 1016q6 43 39.5 72.5t74.5 29.5q86 0 86 -83q0 -28 -63.5 -389t-128.5 -658l-39 -154q-5 -19 -15 -77
q-7 -36 -14 -68zM926 1280q-69 45 -69 112q0 54 44 98t107 44q109 0 109 -111q0 -112 -80.5 -250.5t-165.5 -138.5q-62 0 -62 53q0 28 14.5 52t69.5 88q21 22 33 53z" />
    <glyph glyph-name="lcaron" unicode="&#x13e;" horiz-adv-x="951" 
d="M503 786l-122 -654q-17 -87 -29.5 -114.5t-38 -44t-62.5 -16.5q-84 0 -84 77q0 23 30 176l109 576l124 713q11 71 42.5 91t71.5 20q86 0 86 -74q0 -42 -98 -581q-17 -90 -29 -169zM800 1350q-70 44 -70 109q0 59 45.5 102t106.5 43q108 0 108 -114q0 -111 -80 -248.5
t-165 -137.5q-63 0 -63 57q0 34 36 78q13 14 24 29q11 14 25 28q14 15 33 54z" />
    <glyph glyph-name="Ldot" unicode="&#x13f;" horiz-adv-x="1128" 
d="M301 113q262 -3 682 123q16 4 31 4q83 0 83 -87q0 -62 -66 -105t-330.5 -91.5t-425.5 -48.5q-102 0 -140.5 32.5t-38.5 98.5q0 24 5 53l71 332q105 490 189 1016q6 43 39.5 72.5t74.5 29.5q86 0 86 -83q0 -28 -63.5 -389t-128.5 -658l-39 -154q-5 -19 -15 -77
q-7 -36 -14 -68zM895 592q-44 0 -74 30.5t-30 74.5q0 57 44 100t99 43q46 0 77 -31t31 -74q0 -55 -46 -99t-101 -44z" />
    <glyph glyph-name="ldot" unicode="&#x140;" horiz-adv-x="809" 
d="M503 786l-122 -654q-17 -87 -29.5 -114.5t-38 -44t-62.5 -16.5q-84 0 -84 77q0 23 30 176l109 576l124 713q11 71 42.5 91t71.5 20q86 0 86 -74q0 -42 -98 -581q-17 -90 -29 -169zM765 592q-44 0 -74 30.5t-30 74.5q0 57 44 100t99 43q46 0 77 -31t31 -74q0 -55 -46 -99
t-101 -44z" />
    <glyph glyph-name="Lslash" unicode="&#x141;" horiz-adv-x="1128" 
d="M287 594q-137 -90 -174 -90q-36 0 -59.5 25.5t-23.5 61.5q0 56 60 95l248 162l102 592q6 41 40 71.5t75 30.5q40 0 62.5 -24.5t22.5 -60.5q0 -29 -77 -472q146 78 185 78q37 0 59.5 -26t22.5 -63q0 -66 -74 -104q-142 -62 -238 -125h-2l-67 -333l-39 -154
q-9 -35 -29 -145q261 -3 682 123q16 4 31 4q39 0 61 -26t22 -61q0 -63 -67.5 -106t-330 -91t-425.5 -48q-99 0 -138.5 31.5t-39.5 100.5q0 24 4 52z" />
    <glyph glyph-name="lslash" unicode="&#x142;" horiz-adv-x="465" 
d="M494 682l-102 -546q-17 -87 -29.5 -114.5t-38 -44t-62.5 -16.5q-84 0 -84 77q0 17 70 388q18 73 20 96q-104 -59 -143 -59q-33 0 -54 24.5t-21 57.5q0 65 65 96q92 44 200 123l5 27q31 168 95 554l27 157q11 66 39.5 89t73.5 23q88 0 88 -77q0 -14 -65 -386l-37 -197
l61 64q31 33 76 33q35 0 59 -25t24 -59q0 -69 -267 -285z" />
    <glyph glyph-name="Nacute" unicode="&#x143;" horiz-adv-x="1632" 
d="M527 1145l-79 -457q-23 -135 -56 -393q-48 -375 -164 -375q-48 0 -73.5 29.5t-25.5 64.5q0 34 28 142q8 31 52 266.5t55 315.5l32 233q24 164 29 270l15 172q7 60 55.5 98.5t95.5 38.5q52 0 114 -114q368 -733 781 -1180q8 27 20 127l52 381q18 126 30 256.5t12 185.5
q0 27 -12 107q-4 48 -4 73q0 148 125 148q109 0 109 -259q0 -174 -46 -441l-86 -505q-39 -238 -69 -303t-113 -65q-45 0 -120.5 71.5t-290 369t-466.5 743.5zM901 1720q0 37 42 74q51 43 157 160q45 51 115 106.5t111 55.5q30 0 53 -23t23 -55q0 -50 -50 -86
q-89 -62 -157 -143q-149 -170 -218 -170q-31 0 -53.5 23t-22.5 58z" />
    <glyph glyph-name="nacute" unicode="&#x144;" horiz-adv-x="1072" 
d="M475 846q202 223 381 223q216 0 216 -269q0 -65 -11 -151l-33 -192q-14 -76 -14 -215q0 -207 -27.5 -260.5t-99.5 -53.5q-88 0 -82 95l6 219q2 88 24 224.5t36 184.5q10 62 10 106q0 109 -58 109q-132 0 -269 -173t-167 -309q-6 -25 -14 -54q-21 -69 -25 -135l-10 -126
q-5 -54 -37.5 -85t-79.5 -31q-84 0 -84 78l15 164q6 97 63 323q56 232 70 381l9 84q5 48 38 78.5t80 30.5q92 0 80 -129zM605 1269q0 37 42 74q51 43 157 160q45 51 115 106.5t111 55.5q30 0 53 -23t23 -55q0 -50 -50 -86q-89 -62 -157 -143q-149 -170 -218 -170
q-31 0 -53.5 23t-22.5 58z" />
    <glyph glyph-name="uni0145" unicode="&#x145;" horiz-adv-x="1632" 
d="M527 1145l-79 -457q-23 -135 -56 -393q-48 -375 -164 -375q-48 0 -73.5 29.5t-25.5 64.5q0 34 28 142q8 31 52 266.5t55 315.5l32 233q24 164 29 270l15 172q7 60 55.5 98.5t95.5 38.5q52 0 114 -114q368 -733 781 -1180q8 27 20 127l52 381q18 126 30 256.5t12 185.5
q0 27 -12 107q-4 48 -4 73q0 148 125 148q109 0 109 -259q0 -174 -46 -441l-86 -505q-39 -238 -69 -303t-113 -65q-45 0 -120.5 71.5t-290 369t-466.5 743.5zM719 -352q-89 60 -89 115q0 51 44.5 95t105.5 44q129 0 129 -122q0 -88 -97.5 -223t-164.5 -135q-62 0 -62 57
q0 46 57 94q73 60 77 75z" />
    <glyph glyph-name="uni0146" unicode="&#x146;" horiz-adv-x="1072" 
d="M475 846q202 223 381 223q216 0 216 -269q0 -65 -11 -151l-33 -192q-14 -76 -14 -215q0 -207 -27.5 -260.5t-99.5 -53.5q-88 0 -82 95l6 219q2 88 24 224.5t36 184.5q10 62 10 106q0 109 -58 109q-132 0 -269 -173t-167 -309q-6 -25 -14 -54q-21 -69 -25 -135l-10 -126
q-5 -54 -37.5 -85t-79.5 -31q-84 0 -84 78l15 164q6 97 63 323q56 232 70 381l9 84q5 48 38 78.5t80 30.5q92 0 80 -129zM481 -352q-89 60 -89 115q0 51 44.5 95t105.5 44q129 0 129 -122q0 -88 -97.5 -223t-164.5 -135q-62 0 -62 57q0 46 57 94q73 60 77 75z" />
    <glyph glyph-name="Ncaron" unicode="&#x147;" horiz-adv-x="1632" 
d="M527 1145l-79 -457q-23 -135 -56 -393q-48 -375 -164 -375q-48 0 -73.5 29.5t-25.5 64.5q0 34 28 142q8 31 52 266.5t55 315.5l32 233q24 164 29 270l15 172q7 60 55.5 98.5t95.5 38.5q52 0 114 -114q368 -733 781 -1180q8 27 20 127l52 381q18 126 30 256.5t12 185.5
q0 27 -12 107q-4 48 -4 73q0 148 125 148q109 0 109 -259q0 -174 -46 -441l-86 -505q-39 -238 -69 -303t-113 -65q-45 0 -120.5 71.5t-290 369t-466.5 743.5zM1370 2007q27 21 51 21q27 0 46 -19.5t19 -45.5q0 -27 -12.5 -44t-133.5 -112t-183 -137.5t-78 -42.5
q-32 0 -59 36l-41 64l-96 133q-59 82 -59 132q0 33 27 59t62 26q41 0 58 -39q23 -53 147 -227z" />
    <glyph glyph-name="ncaron" unicode="&#x148;" horiz-adv-x="1072" 
d="M475 846q202 223 381 223q216 0 216 -269q0 -65 -11 -151l-33 -192q-14 -76 -14 -215q0 -207 -27.5 -260.5t-99.5 -53.5q-88 0 -82 95l6 219q2 88 24 224.5t36 184.5q10 62 10 106q0 109 -58 109q-132 0 -269 -173t-167 -309q-6 -25 -14 -54q-21 -69 -25 -135l-10 -126
q-5 -54 -37.5 -85t-79.5 -31q-84 0 -84 78l15 164q6 97 63 323q56 232 70 381l9 84q5 48 38 78.5t80 30.5q92 0 80 -129zM1083 1556q27 21 51 21q27 0 46 -19.5t19 -45.5q0 -27 -12.5 -44t-133.5 -112t-183 -137.5t-78 -42.5q-32 0 -59 36l-41 64l-96 133q-59 82 -59 132
q0 33 27 59t62 26q41 0 58 -39q23 -53 147 -227z" />
    <glyph glyph-name="napostrophe" unicode="&#x149;" horiz-adv-x="1272" 
d="M281 1329l65 176q29 78 88 78q70 0 70 -72q-1 -38 -64.5 -227.5t-140.5 -189.5q-67 0 -67 69q0 35 49 166zM672 846q202 223 381 223q216 0 216 -269q0 -65 -11 -151l-33 -192q-14 -80 -14 -215q0 -203 -27.5 -258.5t-99.5 -55.5q-88 0 -82 95l6 219q4 153 59 409
q10 64 10 108q0 107 -57 107q-128 0 -266.5 -170t-169.5 -312q-6 -25 -14 -54q-21 -66 -25 -135q-5 -71 -10 -125.5t-38.5 -85.5t-78.5 -31q-84 0 -84 78l14 164q5 91 64 323q52 213 64 326l15 142q5 46 38.5 76t78.5 30q93 0 80 -129z" />
    <glyph glyph-name="Eng" unicode="&#x14a;" horiz-adv-x="1632" 
d="M1314 6q-6 6 -14 13q-42 31 -259 317t-514 809q-86 -466 -135 -850q-48 -375 -164 -375q-48 0 -73.5 29.5t-25.5 64.5q0 34 28 142q8 31 52 266.5t55 315.5l32 233q24 164 29 270l15 172q7 60 55.5 98.5t95.5 38.5q52 0 114 -114q368 -733 781 -1180q17 61 31 213
q3 31 5 39q78 493 78 698q0 27 -12 107q-4 48 -4 73q0 148 125 148q109 0 109 -259q0 -193 -95 -722l-53 -332q-44 -277 -102 -437t-165.5 -235t-260.5 -75q-190 0 -190 96q0 47 35 83t81 36h12q4 0 33 -8.5t59 -8.5q95 0 153.5 61.5t88.5 272.5z" />
    <glyph glyph-name="eng" unicode="&#x14b;" horiz-adv-x="1072" 
d="M475 846q202 223 381 223q216 0 216 -262q0 -154 -34 -279l-10 -71q-21 -148 -26 -340q-14 -310 -49 -419t-130.5 -202.5t-210.5 -93.5q-162 0 -223 110t-61 177q0 43 36 78.5t83 35.5q56 0 90 -100q32 -100 108 -100q40 0 82 60t55.5 158.5t22.5 297.5q10 236 29 342
l7 40q8 58 30 150q10 62 10 106q0 109 -58 109q-134 0 -296.5 -205.5t-178.5 -465.5l-10 -126q-5 -54 -37.5 -85t-79.5 -31q-84 0 -84 78l15 164q5 90 63 323q58 256 70 381l9 84q5 48 38 78.5t80 30.5q82 0 82 -93q0 -22 -19 -153z" />
    <glyph glyph-name="Omacron" unicode="&#x14c;" horiz-adv-x="1635" 
d="M161 460q0 190 109 433t334 433t492 190q568 0 568 -473q0 -389 -269.5 -746.5t-638.5 -357.5q-265 0 -430 148.5t-165 372.5zM367 496q0 -157 118 -255t303 -98q265 0 467 282.5t202 584.5q0 170 -96.5 235.5t-297.5 65.5q-270 0 -483 -279t-213 -536zM1280 1786h50
q31 0 73 2l71 2q72 2 94.5 -9.5t22.5 -45.5q0 -78 -77 -92l-113 -6h-215l-227 6q-62 0 -62 56q0 57 33.5 76t114.5 19q40 0 116 -4q82 -4 119 -4z" />
    <glyph glyph-name="omacron" unicode="&#x14d;" horiz-adv-x="1077" 
d="M121 342q0 265 172 479.5t435 214.5q150 0 229.5 -105t79.5 -279q0 -285 -160 -498t-397 -213q-163 0 -261 115t-98 286zM675 834q-156 0 -256 -154.5t-100 -311.5q0 -104 54.5 -164.5t139.5 -60.5q132 0 233 120t101 355q0 216 -166 216h-6zM810 1335h50q31 0 73 2l71 2
q72 2 94.5 -9.5t22.5 -45.5q0 -78 -77 -92l-113 -6h-215l-227 6q-62 0 -62 56q0 57 33.5 76t114.5 19q40 0 116 -4q82 -4 119 -4z" />
    <glyph glyph-name="Obreve" unicode="&#x14e;" horiz-adv-x="1635" 
d="M161 460q0 190 109 433t334 433t492 190q568 0 568 -473q0 -389 -269.5 -746.5t-638.5 -357.5q-265 0 -430 148.5t-165 372.5zM367 496q0 -157 118 -255t303 -98q265 0 467 282.5t202 584.5q0 170 -96.5 235.5t-297.5 65.5q-270 0 -483 -279t-213 -536zM1577 2003
q65 0 65 -59q0 -118 -143.5 -215.5t-369.5 -97.5q-129 0 -219.5 82t-90.5 195q0 132 89 132q67 0 67 -57l-4 -46q0 -68 53 -112.5t127 -44.5q272 0 342 160q28 63 84 63z" />
    <glyph glyph-name="obreve" unicode="&#x14f;" horiz-adv-x="1077" 
d="M121 342q0 265 172 479.5t435 214.5q150 0 229.5 -105t79.5 -279q0 -285 -160 -498t-397 -213q-163 0 -261 115t-98 286zM675 834q-156 0 -256 -154.5t-100 -311.5q0 -104 54.5 -164.5t139.5 -60.5q132 0 233 120t101 355q0 216 -166 216h-6zM1167 1552q65 0 65 -59
q0 -118 -143.5 -215.5t-369.5 -97.5q-129 0 -219.5 82t-90.5 195q0 132 89 132q67 0 67 -57l-4 -46q0 -68 53 -112.5t127 -44.5q272 0 342 160q28 63 84 63z" />
    <glyph glyph-name="Ohungarumlaut" unicode="&#x150;" horiz-adv-x="1635" 
d="M161 460q0 190 109 433t334 433t492 190q568 0 568 -473q0 -389 -269.5 -746.5t-638.5 -357.5q-265 0 -430 148.5t-165 372.5zM367 496q0 -157 118 -255t303 -98q265 0 467 282.5t202 584.5q0 170 -96.5 235.5t-297.5 65.5q-270 0 -483 -279t-213 -536zM1067 1866
l180 154q30 26 60 26q28 0 47 -20t19 -45q0 -29 -34 -65t-141 -124q-88 -73 -147 -129q-30 -28 -62 -28q-64 0 -64 63q0 42 142 168zM1653 1874l-170 -141q-118 -98 -160 -98q-27 0 -45 20t-18 45q0 40 40 70l170 141q127 105 168 105q62 0 62 -63q0 -42 -47 -79z" />
    <glyph glyph-name="ohungarumlaut" unicode="&#x151;" horiz-adv-x="1077" 
d="M121 342q0 265 172 479.5t435 214.5q150 0 229.5 -105t79.5 -279q0 -285 -160 -498t-397 -213q-163 0 -261 115t-98 286zM675 834q-156 0 -256 -154.5t-100 -311.5q0 -104 54.5 -164.5t139.5 -60.5q132 0 233 120t101 355q0 216 -166 216h-6zM596 1415l180 154
q30 26 60 26q28 0 47 -20t19 -45q0 -29 -34 -65t-141 -124q-88 -73 -147 -129q-30 -28 -62 -28q-64 0 -64 63q0 42 142 168zM1182 1423l-170 -141q-118 -98 -160 -98q-27 0 -45 20t-18 45q0 40 40 70l170 141q127 105 168 105q62 0 62 -63q0 -42 -47 -79z" />
    <glyph glyph-name="OE" unicode="&#x152;" horiz-adv-x="2445" 
d="M1751 1362q0 -122 -84 -488l444 41q227 21 242 21q88 0 88 -80q0 -111 -111 -125l-710 -63q-68 -316 -68 -442q0 -60 21.5 -79.5t140.5 -19.5q58 0 188 4q126 4 189 4q11 0 94 10q117 14 117 -78q0 -91 -77 -117t-435 -26q-323 0 -385 80.5t-53 237.5
q-257 -303 -596 -303q-263 0 -429.5 149.5t-166.5 371.5q0 188 108.5 429t332.5 434t495 193q316 0 456 -140q0 217 125 217q43 0 66 -30q260 65 438 65q139 0 238 -18t148 -43t49 -76q0 -42 -34.5 -82.5t-83.5 -40.5q-16 0 -28 6q-165 47 -322 47q-161 0 -397 -59zM369 496
q0 -157 118 -255t301 -98q267 0 469 282.5t202 584.5q0 176 -102.5 238.5t-293.5 62.5q-268 0 -481 -278.5t-213 -536.5z" />
    <glyph glyph-name="oe" unicode="&#x153;" horiz-adv-x="1837" 
d="M891 154q-162 -213 -395 -213q-164 0 -261.5 116t-97.5 290q0 240 167.5 464.5t439.5 224.5q218 0 282 -215q174 223 424 223q164 0 263 -59t99 -168q0 -63 -38 -121t-103 -98t-235 -115l-410 -182q87 -166 307 -166q85 0 188 31t144 82q41 53 82 53q33 0 55 -22.5
t22 -52.5q0 -107 -177 -189t-342 -82q-310 0 -414 199zM1651 784q-73 80 -229 80q-242 0 -383 -379l329 148q203 91 283 151zM859 611q0 223 -162 223q-154 0 -257.5 -152.5t-103.5 -302.5q0 -103 50.5 -169.5t142.5 -66.5q122 0 226 114t104 354z" />
    <glyph glyph-name="Racute" unicode="&#x154;" horiz-adv-x="1287" 
d="M393 510l-26 -246l-27 -196q-5 -39 -37.5 -71t-79.5 -32q-39 0 -62.5 25t-23.5 59l31 254q33 287 94 510q67 234 78 424q8 130 19.5 176.5t55 86.5t99.5 36l240 -18q182 -14 364 -168t182 -352q0 -339 -485 -486q168 -96 297.5 -217.5t129.5 -187.5q0 -43 -36 -80
t-84 -37q-37 0 -67 30q-330 392 -662 490zM549 1323l-17 -194q-2 -33 -14.5 -96.5t-36.5 -149.5l-53 -201h88q292 0 436.5 92t144.5 188q0 120 -125 226t-278 123zM709 1769q0 37 42 74q51 43 157 160q45 51 115 106.5t111 55.5q30 0 53 -23t23 -55q0 -50 -50 -86
q-89 -62 -157 -143q-149 -170 -218 -170q-31 0 -53.5 23t-22.5 58z" />
    <glyph glyph-name="racute" unicode="&#x155;" horiz-adv-x="984" 
d="M1034 739q-6 -40 -36.5 -82.5t-84.5 -42.5q-71 0 -71 71l5 54q0 17 3 43l10 84q-299 -31 -446 -284l-84 -547q-16 -103 -115 -103q-87 0 -72 103l111 700q38 239 63.5 269t75.5 30q80 0 80 -112q0 -24 -4 -54q217 187 455 187q128 0 128 -157q0 -40 -8 -89zM562 1269
q0 37 42 74q51 43 157 160q45 51 115 106.5t111 55.5q30 0 53 -23t23 -55q0 -50 -50 -86q-89 -62 -157 -143q-149 -170 -218 -170q-31 0 -53.5 23t-22.5 58z" />
    <glyph glyph-name="uni0156" unicode="&#x156;" horiz-adv-x="1287" 
d="M393 510l-26 -246l-27 -196q-5 -39 -37.5 -71t-79.5 -32q-39 0 -62.5 25t-23.5 59l31 254q33 287 94 510q67 234 78 424q8 130 19.5 176.5t55 86.5t99.5 36l240 -18q182 -14 364 -168t182 -352q0 -339 -485 -486q168 -96 297.5 -217.5t129.5 -187.5q0 -43 -36 -80
t-84 -37q-37 0 -67 30q-330 392 -662 490zM549 1323l-17 -194q-2 -33 -14.5 -96.5t-36.5 -149.5l-53 -201h88q292 0 436.5 92t144.5 188q0 120 -125 226t-278 123zM563 -352q-89 60 -89 115q0 51 44.5 95t105.5 44q129 0 129 -122q0 -88 -97.5 -223t-164.5 -135
q-62 0 -62 57q0 46 57 94q73 60 77 75z" />
    <glyph glyph-name="uni0157" unicode="&#x157;" horiz-adv-x="984" 
d="M1034 739q-6 -40 -36.5 -82.5t-84.5 -42.5q-71 0 -71 71l5 54q0 17 3 43l10 84q-299 -31 -446 -284l-84 -547q-16 -103 -115 -103q-87 0 -72 103l111 700q38 239 63.5 269t75.5 30q80 0 80 -112q0 -24 -4 -54q217 187 455 187q128 0 128 -157q0 -40 -8 -89zM181 -352
q-89 60 -89 115q0 51 44.5 95t105.5 44q129 0 129 -122q0 -88 -97.5 -223t-164.5 -135q-62 0 -62 57q0 46 57 94q73 60 77 75z" />
    <glyph glyph-name="Rcaron" unicode="&#x158;" horiz-adv-x="1287" 
d="M393 510l-26 -246l-27 -196q-5 -39 -37.5 -71t-79.5 -32q-39 0 -62.5 25t-23.5 59l31 254q33 287 94 510q67 234 78 424q8 130 19.5 176.5t55 86.5t99.5 36l240 -18q182 -14 364 -168t182 -352q0 -339 -485 -486q168 -96 297.5 -217.5t129.5 -187.5q0 -43 -36 -80
t-84 -37q-37 0 -67 30q-330 392 -662 490zM549 1323l-17 -194q-2 -33 -14.5 -96.5t-36.5 -149.5l-53 -201h88q292 0 436.5 92t144.5 188q0 120 -125 226t-278 123zM1120 2007q27 21 51 21q27 0 46 -19.5t19 -45.5q0 -27 -12.5 -44t-133.5 -112t-183 -137.5t-78 -42.5
q-32 0 -59 36l-41 64l-96 133q-59 82 -59 132q0 33 27 59t62 26q41 0 58 -39q23 -53 147 -227z" />
    <glyph glyph-name="rcaron" unicode="&#x159;" horiz-adv-x="984" 
d="M1034 739q-6 -40 -36.5 -82.5t-84.5 -42.5q-71 0 -71 71l5 54q0 17 3 43l10 84q-299 -31 -446 -284l-84 -547q-16 -103 -115 -103q-87 0 -72 103l111 700q38 239 63.5 269t75.5 30q80 0 80 -112q0 -24 -4 -54q217 187 455 187q128 0 128 -157q0 -40 -8 -89zM972 1556
q27 21 51 21q27 0 46 -19.5t19 -45.5q0 -27 -12.5 -44t-133.5 -112t-183 -137.5t-78 -42.5q-32 0 -59 36l-41 64l-96 133q-59 82 -59 132q0 33 27 59t62 26q41 0 58 -39q23 -53 147 -227z" />
    <glyph glyph-name="Sacute" unicode="&#x15a;" horiz-adv-x="1420" 
d="M270 344q50 0 78 -55q40 -76 69.5 -102t93 -42t148.5 -16q195 0 352 97t157 242q0 102 -109 165t-292 69q-173 9 -270.5 75.5t-97.5 180.5q0 192 229.5 350t448.5 158q115 0 236.5 -39t121.5 -97q0 -31 -24.5 -62t-79.5 -31q-45 0 -136 20q-96 22 -138 22
q-183 0 -308.5 -89t-125.5 -189q0 -56 68.5 -83.5t272.5 -45.5q196 -14 305 -113.5t109 -244.5q0 -241 -223.5 -406t-526.5 -165q-194 0 -335.5 75.5t-141.5 199.5q0 66 36.5 96t82.5 30zM881 1720q0 37 42 74q51 43 157 160q45 51 115 106.5t111 55.5q30 0 53 -23t23 -55
q0 -50 -50 -86q-89 -62 -157 -143q-149 -170 -218 -170q-31 0 -53.5 23t-22.5 58z" />
    <glyph glyph-name="sacute" unicode="&#x15b;" horiz-adv-x="997" 
d="M840 915q-38 -11 -99 -27q-177 -48 -248 -93.5t-81 -108.5q25 -9 55 -14q235 -42 340.5 -126.5t105.5 -226.5q0 -180 -135 -279t-358 -99q-145 0 -259.5 50t-114.5 130q0 47 38.5 83t81.5 36q30 0 72 -47q21 -22 93 -37t120 -15q262 0 262 140q0 114 -164 157l-100 23
q-156 36 -195 84.5t-39 108.5q0 91 47 174t132.5 133t269.5 100q144 38 199 63q40 19 92 19q84 0 84 -81l-5 -73l2 -68q2 -91 -36.5 -121t-79.5 -30q-52 0 -66 28.5t-14 116.5zM613 1269q0 37 42 74q51 43 157 160q45 51 115 106.5t111 55.5q30 0 53 -23t23 -55
q0 -50 -50 -86q-89 -62 -157 -143q-149 -170 -218 -170q-31 0 -53.5 23t-22.5 58z" />
    <glyph glyph-name="Scircumflex" unicode="&#x15c;" horiz-adv-x="1420" 
d="M270 344q50 0 78 -55q40 -76 69.5 -102t93 -42t148.5 -16q195 0 352 97t157 242q0 102 -109 165t-292 69q-173 9 -270.5 75.5t-97.5 180.5q0 192 229.5 350t448.5 158q115 0 236.5 -39t121.5 -97q0 -31 -24.5 -62t-79.5 -31q-45 0 -136 20q-96 22 -138 22
q-183 0 -308.5 -89t-125.5 -189q0 -56 68.5 -83.5t272.5 -45.5q196 -14 305 -113.5t109 -244.5q0 -241 -223.5 -406t-526.5 -165q-194 0 -335.5 75.5t-141.5 199.5q0 66 36.5 96t82.5 30zM1082 1930q-305 -314 -375 -314q-31 0 -54 24t-23 55q0 44 40 79q43 33 359 336
q31 31 65 31q41 0 83 -33t130 -146l131 -170q18 -24 18 -47q0 -39 -32 -71.5t-74 -32.5t-70 42t-198 247z" />
    <glyph glyph-name="scircumflex" unicode="&#x15d;" horiz-adv-x="997" 
d="M840 915q-38 -11 -99 -27q-177 -48 -248 -93.5t-81 -108.5q25 -9 55 -14q235 -42 340.5 -126.5t105.5 -226.5q0 -180 -135 -279t-358 -99q-145 0 -259.5 50t-114.5 130q0 47 38.5 83t81.5 36q30 0 72 -47q21 -22 93 -37t120 -15q262 0 262 140q0 114 -164 157l-100 23
q-156 36 -195 84.5t-39 108.5q0 91 47 174t132.5 133t269.5 100q144 38 199 63q40 19 92 19q84 0 84 -81l-5 -73l2 -68q2 -91 -36.5 -121t-79.5 -30q-52 0 -66 28.5t-14 116.5zM970 1479q-305 -314 -375 -314q-31 0 -54 24t-23 55q0 44 40 79q43 33 359 336q31 31 65 31
q41 0 83 -33t130 -146l131 -170q18 -24 18 -47q0 -39 -32 -71.5t-74 -32.5t-70 42t-198 247z" />
    <glyph glyph-name="Scedilla" unicode="&#x15e;" horiz-adv-x="1420" 
d="M270 344q50 0 78 -55q40 -76 69.5 -102t93 -42t148.5 -16q195 0 352 97t157 242q0 102 -109 165t-292 69q-173 9 -270.5 75.5t-97.5 180.5q0 192 229.5 350t448.5 158q115 0 236.5 -39t121.5 -97q0 -31 -24.5 -62t-79.5 -31q-45 0 -136 20q-96 22 -138 22
q-183 0 -308.5 -89t-125.5 -189q0 -56 68.5 -83.5t272.5 -45.5q196 -14 305 -113.5t109 -244.5q0 -241 -223.5 -406t-526.5 -165q-194 0 -335.5 75.5t-141.5 199.5q0 66 36.5 96t82.5 30zM547 -444q-103 0 -169 37t-66 94q0 69 79 69q22 0 78 -24q55 -25 92 -25
q112 0 112 107q0 50 -48.5 92.5t-120.5 58.5q-54 13 -54 60q0 90 83 90q115 0 206 -84.5t91 -187.5q0 -109 -65.5 -198t-217.5 -89z" />
    <glyph glyph-name="scedilla" unicode="&#x15f;" horiz-adv-x="997" 
d="M840 915q-38 -11 -99 -27q-177 -48 -248 -93.5t-81 -108.5q25 -9 55 -14q235 -42 340.5 -126.5t105.5 -226.5q0 -180 -135 -279t-358 -99q-145 0 -259.5 50t-114.5 130q0 47 38.5 83t81.5 36q30 0 72 -47q21 -22 93 -37t120 -15q262 0 262 140q0 114 -164 157l-100 23
q-156 36 -195 84.5t-39 108.5q0 91 47 174t132.5 133t269.5 100q144 38 199 63q40 19 92 19q84 0 84 -81l-5 -73l2 -68q2 -91 -36.5 -121t-79.5 -30q-52 0 -66 28.5t-14 116.5zM317 -444q-103 0 -169 37t-66 94q0 69 79 69q22 0 78 -24q55 -25 92 -25q112 0 112 107
q0 50 -48.5 92.5t-120.5 58.5q-54 13 -54 60q0 90 83 90q115 0 206 -84.5t91 -187.5q0 -109 -65.5 -198t-217.5 -89z" />
    <glyph glyph-name="Scaron" unicode="&#x160;" horiz-adv-x="1420" 
d="M270 344q50 0 78 -55q40 -76 69.5 -102t93 -42t148.5 -16q195 0 352 97t157 242q0 102 -109 165t-292 69q-173 9 -270.5 75.5t-97.5 180.5q0 192 229.5 350t448.5 158q115 0 236.5 -39t121.5 -97q0 -31 -24.5 -62t-79.5 -31q-45 0 -136 20q-96 22 -138 22
q-183 0 -308.5 -89t-125.5 -189q0 -56 68.5 -83.5t272.5 -45.5q196 -14 305 -113.5t109 -244.5q0 -241 -223.5 -406t-526.5 -165q-194 0 -335.5 75.5t-141.5 199.5q0 66 36.5 96t82.5 30zM1413 2007q27 21 51 21q27 0 46 -19.5t19 -45.5q0 -27 -12.5 -44t-133.5 -112
t-183 -137.5t-78 -42.5q-32 0 -59 36l-41 64l-96 133q-59 82 -59 132q0 33 27 59t62 26q41 0 58 -39q23 -53 147 -227z" />
    <glyph glyph-name="scaron" unicode="&#x161;" horiz-adv-x="997" 
d="M840 915q-38 -11 -99 -27q-177 -48 -248 -93.5t-81 -108.5q25 -9 55 -14q235 -42 340.5 -126.5t105.5 -226.5q0 -180 -135 -279t-358 -99q-145 0 -259.5 50t-114.5 130q0 47 38.5 83t81.5 36q30 0 72 -47q21 -22 93 -37t120 -15q262 0 262 140q0 114 -164 157l-100 23
q-156 36 -195 84.5t-39 108.5q0 91 47 174t132.5 133t269.5 100q144 38 199 63q40 19 92 19q84 0 84 -81l-5 -73l2 -68q2 -91 -36.5 -121t-79.5 -30q-52 0 -66 28.5t-14 116.5zM978 1556q27 21 51 21q27 0 46 -19.5t19 -45.5q0 -27 -12.5 -44t-133.5 -112t-183 -137.5
t-78 -42.5q-32 0 -59 36l-41 64l-96 133q-59 82 -59 132q0 33 27 59t62 26q41 0 58 -39q23 -53 147 -227z" />
    <glyph glyph-name="uni0162" unicode="&#x162;" horiz-adv-x="1392" 
d="M1464 1284h-48q-102 0 -180 4l-80 2h-112q-20 0 -37 -2l-70 -2q-6 -69 -21 -181q-16 -112 -28 -267q-26 -316 -49 -451l-10 -106q-16 -289 -148 -289q-35 0 -62.5 24t-27.5 59q0 17 14 63q14 47 29 190q12 114 17 149q21 125 40 402q11 140 23 238l18 157l-143 -4
q-173 -7 -266.5 16t-93.5 80q0 55 34 92t82 37q17 0 57 -3q172 -16 230 -16q107 0 275 12q99 7 172 7q68 0 180 -4l133 -2q43 -1 90 0t71.5 -19t24.5 -57q0 -50 -31.5 -89.5t-82.5 -39.5zM653 -444q-103 0 -169 37t-66 94q0 69 79 69q22 0 78 -24q55 -25 92 -25
q112 0 112 107q0 50 -48.5 92.5t-120.5 58.5q-54 13 -54 60q0 90 83 90q115 0 206 -84.5t91 -187.5q0 -109 -65.5 -198t-217.5 -89z" />
    <glyph glyph-name="uni0163" unicode="&#x163;" horiz-adv-x="965" 
d="M631 846q-12 -48 -31 -112q-84 -277 -84 -423q0 -172 80 -172q79 0 117 49q52 68 96 68q33 0 63.5 -25t30.5 -65q0 -88 -110.5 -150.5t-219.5 -62.5q-258 0 -258 321q0 176 79 430q21 67 40 134q-217 11 -248.5 36.5t-31.5 79.5q0 44 30 73.5t82 29.5l207 -17q6 26 9 60
q2 34 7 76l17 124q6 41 37.5 69t74.5 28q84 0 84 -135q0 -39 -12 -101l-20 -121q134 17 143 17q104 0 143 -20.5t39 -75.5q0 -49 -33.5 -79t-80.5 -30l-99 4q-74 0 -151 -10zM480 -444q-103 0 -169 37t-66 94q0 69 79 69q22 0 78 -24q55 -25 92 -25q112 0 112 107
q0 50 -48.5 92.5t-120.5 58.5q-54 13 -54 60q0 90 83 90q115 0 206 -84.5t91 -187.5q0 -109 -65.5 -198t-217.5 -89z" />
    <glyph glyph-name="Tcaron" unicode="&#x164;" horiz-adv-x="1392" 
d="M1464 1284h-48q-102 0 -180 4l-80 2h-112q-20 0 -37 -2l-70 -2q-6 -69 -21 -181q-16 -112 -28 -267q-26 -316 -49 -451l-10 -106q-16 -289 -148 -289q-35 0 -62.5 24t-27.5 59q0 17 14 63q14 47 29 190q12 114 17 149q21 125 40 402q11 140 23 238l18 157l-143 -4
q-173 -7 -266.5 16t-93.5 80q0 55 34 92t82 37q17 0 57 -3q172 -16 230 -16q107 0 275 12q99 7 172 7q68 0 180 -4l133 -2q43 -1 90 0t71.5 -19t24.5 -57q0 -50 -31.5 -89.5t-82.5 -39.5zM1184 2056q27 21 51 21q27 0 46 -19.5t19 -45.5q0 -27 -12.5 -44t-133.5 -112
t-183 -137.5t-78 -42.5q-32 0 -59 36l-41 64l-96 133q-59 82 -59 132q0 33 27 59t62 26q41 0 58 -39q23 -53 147 -227z" />
    <glyph glyph-name="tcaron" unicode="&#x165;" horiz-adv-x="1309" 
d="M1002 1440q-70 45 -70 109q0 59 44.5 102t104.5 43q111 0 111 -117q0 -110 -81.5 -246.5t-164.5 -136.5q-62 0 -62 57q0 34 36 78q12 14 24 29q11 14 25 28q15 19 33 54zM694 842l-82 -635l-6 -51q-26 -219 -139 -219q-39 0 -63 21.5t-24 53.5q0 2 8 63q4 34 25 133
q6 28 9 48l74 584q-213 12 -254 24t-41 69q0 49 32.5 86.5t81.5 37.5l207 -17q6 32 27 210q8 78 36.5 112.5t86.5 34.5q81 0 81 -122q0 -42 -14 -114l-20 -121q134 17 143 17q113 0 148 -16t35 -66q0 -53 -33.5 -88t-81.5 -35l-98 4q-38 0 -138 -14z" />
    <glyph glyph-name="Tbar" unicode="&#x166;" horiz-adv-x="1392" 
d="M1464 1284h-48q-102 0 -180 4l-80 2h-112q-20 0 -37 -2l-70 -2q-6 -66 -20 -169q-14 -104 -25 -247h6l172 -8q88 0 88 -80q0 -45 -34 -81.5t-84 -36.5q-76 0 -158 8h-10q-13 -160 -33 -285l-10 -106q-16 -289 -148 -289q-35 0 -62.5 24t-27.5 59q0 17 14 63q14 47 29 190
q12 114 17 149q15 82 24 203l-201 -16q-37 0 -60.5 23.5t-23.5 59.5q0 53 50.5 92.5t250.5 39.5q11 140 23 238l18 157l-143 -4q-173 -7 -266.5 16t-93.5 80q0 55 34 92t82 37q17 0 57 -3q172 -16 230 -16q107 0 275 12q99 7 172 7q68 0 180 -4l133 -2q43 -1 90 0t71.5 -19
t24.5 -57q0 -50 -31.5 -89.5t-82.5 -39.5z" />
    <glyph glyph-name="tbar" unicode="&#x167;" horiz-adv-x="965" 
d="M694 842l-22 -162h2l111 -8q49 -3 71.5 -25t22.5 -54q0 -48 -35 -84t-84 -36q-54 0 -109 6h-4l-41 -323q-26 -219 -139 -219q-39 0 -63 21.5t-24 53.5q0 2 8 63q4 34 25 133q6 28 9 48l29 233q-96 -16 -127 -16q-83 0 -83 84q0 128 236 131l19 152q-213 12 -254 24
t-41 69q0 49 32.5 86.5t81.5 37.5l207 -17q6 32 27 210q8 78 36.5 112.5t86.5 34.5q81 0 81 -122q0 -42 -14 -114l-20 -121q134 17 143 17q113 0 148 -16t35 -66q0 -53 -33.5 -88t-81.5 -35l-98 4q-38 0 -138 -14z" />
    <glyph glyph-name="Utilde" unicode="&#x168;" horiz-adv-x="1509" 
d="M540 1329l-92 -588q-18 -113 -18 -203q0 -403 345 -403q398 0 562 1020l28 178q30 170 131 170q82 0 82 -91q0 -21 -4 -46l-39 -248q-179 -1159 -782 -1159q-264 0 -394.5 130t-130.5 425q0 118 55.5 487.5t95.5 432.5t95 63q72 0 72 -101q0 -29 -6 -67zM1065 1946
l68 -104q39 -60 102 -60q56 0 90 37l59 88l31 60q14 28 66 28q63 0 63 -55q0 -50 -88.5 -177.5t-212.5 -127.5q-115 0 -166 33t-100 131q-35 57 -86 57q-61 0 -105 -47l-59 -84q-32 -45 -70 -45q-68 0 -68 59l4 23q4 53 98 148t224 95q100 0 150 -59z" />
    <glyph glyph-name="utilde" unicode="&#x169;" horiz-adv-x="1065" 
d="M1044 584l-35 -217q-34 -209 -39 -282q-6 -73 -14.5 -95.5t-39.5 -46t-69 -23.5q-76 0 -82 94q-135 -63 -299 -63q-139 0 -215 61.5t-76 174.5q0 149 15 322t59 338.5t74.5 192.5t74.5 27q40 0 64 -22t24 -56q0 -32 -40 -168q-33 -104 -54.5 -260.5t-21.5 -270.5
q0 -58 6 -100q58 -36 121 -36q134 0 293 43l57 397q8 52 41.5 227.5t67 207.5t83.5 32q44 0 67 -28t15 -70zM767 1495l68 -104q39 -60 102 -60q56 0 90 37l59 88l31 60q14 28 66 28q63 0 63 -55q0 -50 -88.5 -177.5t-212.5 -127.5q-115 0 -166 33t-100 131q-35 57 -86 57
q-61 0 -105 -47l-59 -84q-32 -45 -70 -45q-68 0 -68 59l4 23q4 53 98 148t224 95q100 0 150 -59z" />
    <glyph glyph-name="Umacron" unicode="&#x16a;" horiz-adv-x="1509" 
d="M540 1329l-92 -588q-18 -113 -18 -203q0 -403 345 -403q398 0 562 1020l28 178q30 170 131 170q82 0 82 -91q0 -21 -4 -46l-39 -248q-179 -1159 -782 -1159q-264 0 -394.5 130t-130.5 425q0 118 55.5 487.5t95.5 432.5t95 63q72 0 72 -101q0 -29 -6 -67zM1059 1786h50
q31 0 73 2l71 2q72 2 94.5 -9.5t22.5 -45.5q0 -78 -77 -92l-113 -6h-215l-227 6q-62 0 -62 56q0 57 33.5 76t114.5 19q40 0 116 -4q82 -4 119 -4z" />
    <glyph glyph-name="umacron" unicode="&#x16b;" horiz-adv-x="1065" 
d="M1044 584l-35 -217q-34 -209 -39 -282q-6 -73 -14.5 -95.5t-39.5 -46t-69 -23.5q-76 0 -82 94q-135 -63 -299 -63q-139 0 -215 61.5t-76 174.5q0 149 15 322t59 338.5t74.5 192.5t74.5 27q40 0 64 -22t24 -56q0 -32 -40 -168q-33 -104 -54.5 -260.5t-21.5 -270.5
q0 -58 6 -100q58 -36 121 -36q134 0 293 43l57 397q8 52 41.5 227.5t67 207.5t83.5 32q44 0 67 -28t15 -70zM806 1335h50q31 0 73 2l71 2q72 2 94.5 -9.5t22.5 -45.5q0 -78 -77 -92l-113 -6h-215l-227 6q-62 0 -62 56q0 57 33.5 76t114.5 19q40 0 116 -4q82 -4 119 -4z" />
    <glyph glyph-name="Ubreve" unicode="&#x16c;" horiz-adv-x="1509" 
d="M540 1329l-92 -588q-18 -113 -18 -203q0 -403 345 -403q398 0 562 1020l28 178q30 170 131 170q82 0 82 -91q0 -21 -4 -46l-39 -248q-179 -1159 -782 -1159q-264 0 -394.5 130t-130.5 425q0 118 55.5 487.5t95.5 432.5t95 63q72 0 72 -101q0 -29 -6 -67zM1426 2003
q65 0 65 -59q0 -118 -143.5 -215.5t-369.5 -97.5q-129 0 -219.5 82t-90.5 195q0 132 89 132q67 0 67 -57l-4 -46q0 -68 53 -112.5t127 -44.5q272 0 342 160q28 63 84 63z" />
    <glyph glyph-name="ubreve" unicode="&#x16d;" horiz-adv-x="1065" 
d="M1044 584l-35 -217q-34 -209 -39 -282q-6 -73 -14.5 -95.5t-39.5 -46t-69 -23.5q-76 0 -82 94q-135 -63 -299 -63q-139 0 -215 61.5t-76 174.5q0 149 15 322t59 338.5t74.5 192.5t74.5 27q40 0 64 -22t24 -56q0 -32 -40 -168q-33 -104 -54.5 -260.5t-21.5 -270.5
q0 -58 6 -100q58 -36 121 -36q134 0 293 43l57 397q8 52 41.5 227.5t67 207.5t83.5 32q44 0 67 -28t15 -70zM1107 1552q65 0 65 -59q0 -118 -143.5 -215.5t-369.5 -97.5q-129 0 -219.5 82t-90.5 195q0 132 89 132q67 0 67 -57l-4 -46q0 -68 53 -112.5t127 -44.5
q272 0 342 160q28 63 84 63z" />
    <glyph glyph-name="Uring" unicode="&#x16e;" horiz-adv-x="1509" 
d="M540 1329l-92 -588q-18 -113 -18 -203q0 -403 345 -403q398 0 562 1020l28 178q30 170 131 170q82 0 82 -91q0 -21 -4 -46l-39 -248q-179 -1159 -782 -1159q-264 0 -394.5 130t-130.5 425q0 118 55.5 487.5t95.5 432.5t95 63q72 0 72 -101q0 -29 -6 -67zM1107 2208
q125 0 199.5 -65.5t74.5 -161.5q0 -132 -97.5 -238t-313.5 -106q-138 0 -208 69t-70 153q0 146 115 247.5t300 101.5zM1228 1958q0 43 -42.5 73t-100.5 30q-133 0 -186 -55t-53 -118q0 -41 49.5 -72.5t113.5 -31.5q122 0 170.5 54.5t48.5 119.5z" />
    <glyph glyph-name="uring" unicode="&#x16f;" horiz-adv-x="1065" 
d="M1044 584l-35 -217q-34 -209 -39 -282q-6 -73 -14.5 -95.5t-39.5 -46t-69 -23.5q-76 0 -82 94q-135 -63 -299 -63q-139 0 -215 61.5t-76 174.5q0 149 15 322t59 338.5t74.5 192.5t74.5 27q40 0 64 -22t24 -56q0 -32 -40 -168q-33 -104 -54.5 -260.5t-21.5 -270.5
q0 -58 6 -100q58 -36 121 -36q134 0 293 43l57 397q8 52 41.5 227.5t67 207.5t83.5 32q44 0 67 -28t15 -70zM840 1757q125 0 199.5 -65.5t74.5 -161.5q0 -132 -97.5 -238t-313.5 -106q-138 0 -208 69t-70 153q0 146 115 247.5t300 101.5zM961 1507q0 43 -42.5 73t-100.5 30
q-133 0 -186 -55t-53 -118q0 -41 49.5 -72.5t113.5 -31.5q122 0 170.5 54.5t48.5 119.5z" />
    <glyph glyph-name="Uhungarumlaut" unicode="&#x170;" horiz-adv-x="1509" 
d="M540 1329l-92 -588q-18 -113 -18 -203q0 -403 345 -403q398 0 562 1020l28 178q30 170 131 170q82 0 82 -91q0 -21 -4 -46l-39 -248q-179 -1159 -782 -1159q-264 0 -394.5 130t-130.5 425q0 118 55.5 487.5t95.5 432.5t95 63q72 0 72 -101q0 -29 -6 -67zM905 1866
l180 154q30 26 60 26q28 0 47 -20t19 -45q0 -29 -34 -65t-141 -124q-88 -73 -147 -129q-30 -28 -62 -28q-64 0 -64 63q0 42 142 168zM1491 1874l-170 -141q-118 -98 -160 -98q-27 0 -45 20t-18 45q0 40 40 70l170 141q127 105 168 105q62 0 62 -63q0 -42 -47 -79z" />
    <glyph glyph-name="uhungarumlaut" unicode="&#x171;" horiz-adv-x="1065" 
d="M1044 584l-35 -217q-34 -209 -39 -282q-6 -73 -14.5 -95.5t-39.5 -46t-69 -23.5q-76 0 -82 94q-135 -63 -299 -63q-139 0 -215 61.5t-76 174.5q0 149 15 322t59 338.5t74.5 192.5t74.5 27q40 0 64 -22t24 -56q0 -32 -40 -168q-33 -104 -54.5 -260.5t-21.5 -270.5
q0 -58 6 -100q58 -36 121 -36q134 0 293 43l57 397q8 52 41.5 227.5t67 207.5t83.5 32q44 0 67 -28t15 -70zM627 1415l180 154q30 26 60 26q28 0 47 -20t19 -45q0 -29 -34 -65t-141 -124q-88 -73 -147 -129q-30 -28 -62 -28q-64 0 -64 63q0 42 142 168zM1213 1423l-170 -141
q-118 -98 -160 -98q-27 0 -45 20t-18 45q0 40 40 70l170 141q127 105 168 105q62 0 62 -63q0 -42 -47 -79z" />
    <glyph glyph-name="Uogonek" unicode="&#x172;" horiz-adv-x="1509" 
d="M540 1329l-92 -588q-18 -113 -18 -203q0 -403 345 -403q398 0 562 1020l28 178q30 170 131 170q82 0 82 -91q0 -21 -4 -46l-39 -248q-179 -1159 -782 -1159q-264 0 -394.5 130t-130.5 425q0 118 55.5 487.5t95.5 432.5t95 63q72 0 72 -101q0 -29 -6 -67zM820 -180
q0 -91 79 -91q73 0 138 25q26 12 41 12q62 0 62 -67q0 -56 -78 -93.5t-201 -37.5q-111 0 -170 53t-59 146q0 136 108.5 241.5t179.5 105.5q67 0 67 -54q0 -23 -11.5 -40t-69.5 -64q-86 -69 -86 -136z" />
    <glyph glyph-name="uogonek" unicode="&#x173;" horiz-adv-x="1065" 
d="M1044 584l-35 -217q-34 -209 -39 -282q-6 -73 -14.5 -95.5t-39.5 -46t-69 -23.5q-76 0 -82 94q-135 -63 -299 -63q-139 0 -215 61.5t-76 174.5q0 149 15 322t59 338.5t74.5 192.5t74.5 27q40 0 64 -22t24 -56q0 -32 -40 -168q-33 -104 -54.5 -260.5t-21.5 -270.5
q0 -58 6 -100q58 -36 121 -36q134 0 293 43l57 397q8 52 41.5 227.5t67 207.5t83.5 32q44 0 67 -28t15 -70zM762 -250q0 -91 79 -91q73 0 138 25q26 12 41 12q62 0 62 -67q0 -56 -78 -93.5t-201 -37.5q-111 0 -170 53t-59 146q0 136 108.5 241.5t179.5 105.5q67 0 67 -54
q0 -23 -11.5 -40t-69.5 -64q-86 -69 -86 -136z" />
    <glyph glyph-name="Wcircumflex" unicode="&#x174;" horiz-adv-x="2129" 
d="M1308 4q-29 122 -29 197q0 132 -10 432q-15 329 -7 487q-133 -315 -366 -766q-82 -157 -125 -264q7 -16 7 -34q0 -46 -44 -78.5t-96 -32.5q-136 0 -115 121l-12 127l-31 489q-10 152 -110 711q-10 40 16 86.5t102 46.5q41 0 70 -32t58.5 -224.5t50.5 -458.5l34 -461
q139 239 324 641q133 298 203.5 401t130.5 103q61 0 81.5 -46.5t20.5 -220.5q0 -89 -6 -212q-2 -85 6 -395l14 -412l334 607l156 295q16 31 74 177q93 238 200 238q88 0 88 -75q0 -32 -49 -126l-57 -108l-84 -179l-412 -721l-111 -202q-72 -129 -91 -155t-47.5 -41
t-63.5 -15q-51 0 -82 29.5t-22 70.5zM1422 1930q-305 -314 -375 -314q-31 0 -54 24t-23 55q0 44 40 79q43 33 359 336q31 31 65 31q41 0 83 -33t130 -146l131 -170q18 -24 18 -47q0 -39 -32 -71.5t-74 -32.5t-70 42t-198 247z" />
    <glyph glyph-name="wcircumflex" unicode="&#x175;" horiz-adv-x="1401" 
d="M805 647l-113 -190l-217 -414q-20 -38 -49 -57q-43 -62 -105 -62q-57 0 -84 152t-22 567v150q0 177 43 212t84 35q37 0 60.5 -20.5t23.5 -109.5q0 -35 -4 -99l-8 -145l-13 -451q134 256 342 711q53 110 133 110q63 0 79 -71.5t16 -411.5q0 -251 10 -393l115 272l215 545
q24 61 96 61q40 0 64.5 -24t24.5 -59q0 -21 -76 -206t-172.5 -398.5t-148.5 -296t-90 -109.5t-77 -27q-52 0 -91.5 81t-39.5 425zM953 1479q-305 -314 -375 -314q-31 0 -54 24t-23 55q0 44 40 79q43 33 359 336q31 31 65 31q41 0 83 -33t130 -146l131 -170q18 -24 18 -47
q0 -39 -32 -71.5t-74 -32.5t-70 42t-198 247z" />
    <glyph glyph-name="Ycircumflex" unicode="&#x176;" horiz-adv-x="1301" 
d="M668 469q-146 232 -176 365q-28 114 -107 270q-54 106 -95 191t-41 111q0 43 37.5 79.5t82.5 36.5q47 0 75 -47l62 -125q103 -208 135 -283t51 -160q18 -76 105 -225l317 557l107 162q55 84 77.5 101.5t61.5 17.5q37 0 62.5 -24.5t25.5 -59.5q0 -47 -113 -205
q-21 -30 -47 -70l-237 -424q-87 -156 -256 -418l-160 -223l-70 -108q-38 -58 -98 -58q-37 0 -62.5 25t-25.5 59q0 40 127 230zM932 1930q-305 -314 -375 -314q-31 0 -54 24t-23 55q0 44 40 79q43 33 359 336q31 31 65 31q41 0 83 -33t130 -146l131 -170q18 -24 18 -47
q0 -39 -32 -71.5t-74 -32.5t-70 42t-198 247z" />
    <glyph glyph-name="ycircumflex" unicode="&#x177;" horiz-adv-x="1066" 
d="M707 143q-194 -314 -271 -456l-96 -195q-35 -72 -100 -72q-38 0 -63.5 22.5t-25.5 59.5q0 91 308 594l-250 688l-33 74q-15 34 -15 62q0 47 38.5 82.5t81.5 35.5q32 0 58 -24t109.5 -224.5t155.5 -457.5l203 344q51 87 133.5 209.5t109.5 138.5t52 16q38 0 63.5 -25
t25.5 -60q0 -28 -19 -62zM743 1479q-305 -314 -375 -314q-31 0 -54 24t-23 55q0 44 40 79q43 33 359 336q31 31 65 31q41 0 83 -33t130 -146l131 -170q18 -24 18 -47q0 -39 -32 -71.5t-74 -32.5t-70 42t-198 247z" />
    <glyph glyph-name="Ydieresis" unicode="&#x178;" horiz-adv-x="1301" 
d="M668 469q-146 232 -176 365q-28 114 -107 270q-54 106 -95 191t-41 111q0 43 37.5 79.5t82.5 36.5q47 0 75 -47l62 -125q103 -208 135 -283t51 -160q18 -76 105 -225l317 557l107 162q55 84 77.5 101.5t61.5 17.5q37 0 62.5 -24.5t25.5 -59.5q0 -47 -113 -205
q-21 -30 -47 -70l-237 -424q-87 -156 -256 -418l-160 -223l-70 -108q-38 -58 -98 -58q-37 0 -62.5 25t-25.5 59q0 40 127 230zM1302 1748q0 -37 -36 -68t-122 -31q-38 0 -67.5 21.5t-29.5 52.5q0 55 34.5 83.5t129.5 28.5q33 0 62 -28t29 -59zM790 1743q0 -47 -48.5 -75.5
t-87.5 -28.5q-108 0 -108 81q0 49 46.5 78t80.5 29q117 0 117 -84z" />
    <glyph glyph-name="Zacute" unicode="&#x179;" horiz-adv-x="1420" 
d="M1299 1159q-170 -105 -484 -450l-491 -582l391 14q363 13 391 13q155 0 210 -16.5t55 -64.5q0 -55 -36 -85.5t-87 -30.5q-30 0 -88 4l-49 2l-951 -14q-102 0 -102 77q0 75 90 189l571 651q241 275 490 459l-355 -20h-405l-74 -1q-38 0 -60 19.5t-22 57.5q0 52 33 90
t149 38q88 0 203 -14q119 -14 205 -14q106 0 231 8q156 10 232 10q245 0 245 -86q0 -67 -143 -162zM850 1769q0 37 42 74q51 43 157 160q45 51 115 106.5t111 55.5q30 0 53 -23t23 -55q0 -50 -50 -86q-89 -62 -157 -143q-149 -170 -218 -170q-31 0 -53.5 23t-22.5 58z" />
    <glyph glyph-name="zacute" unicode="&#x17a;" horiz-adv-x="1102" 
d="M513 166q106 4 185 4q38 0 112 -16q71 -15 115 -15q85 0 85 -82q0 -47 -32.5 -82.5t-83.5 -35.5q-49 0 -114 14q-66 14 -115 14q-217 0 -432 -41q-22 -4 -39 -4q-83 0 -83 68q0 62 66 114q302 240 682 736q-132 -9 -192 -9q-77 0 -207 11t-149.5 35t-19.5 55q0 49 33 87
t81 38q56 0 145 -13q100 -12 148 -12q68 0 204 10q158 11 207 11q75 0 75 -55q0 -85 -103 -189q-111 -112 -279 -309q-223 -268 -289 -334zM631 1269q0 37 42 74q51 43 157 160q45 51 115 106.5t111 55.5q30 0 53 -23t23 -55q0 -50 -50 -86q-89 -62 -157 -143
q-149 -170 -218 -170q-31 0 -53.5 23t-22.5 58z" />
    <glyph glyph-name="Zdotaccent" unicode="&#x17b;" horiz-adv-x="1420" 
d="M1299 1159q-170 -105 -484 -450l-491 -582l391 14q363 13 391 13q155 0 210 -16.5t55 -64.5q0 -55 -36 -85.5t-87 -30.5q-30 0 -88 4l-49 2l-951 -14q-102 0 -102 77q0 75 90 189l571 651q241 275 490 459l-355 -20h-405l-74 -1q-38 0 -60 19.5t-22 57.5q0 52 33 90
t149 38q88 0 203 -14q119 -14 205 -14q106 0 231 8q156 10 232 10q245 0 245 -86q0 -67 -143 -162zM1015 1635q-31 0 -75.5 44.5t-44.5 75.5q0 34 41.5 67.5t80.5 33.5q31 0 74.5 -47t43.5 -73q0 -36 -40.5 -68.5t-79.5 -32.5z" />
    <glyph glyph-name="zdotaccent" unicode="&#x17c;" horiz-adv-x="1102" 
d="M513 166q106 4 185 4q38 0 112 -16q71 -15 115 -15q85 0 85 -82q0 -47 -32.5 -82.5t-83.5 -35.5q-49 0 -114 14q-66 14 -115 14q-217 0 -432 -41q-22 -4 -39 -4q-83 0 -83 68q0 62 66 114q302 240 682 736q-132 -9 -192 -9q-77 0 -207 11t-149.5 35t-19.5 55q0 49 33 87
t81 38q56 0 145 -13q100 -12 148 -12q68 0 204 10q158 11 207 11q75 0 75 -55q0 -85 -103 -189q-111 -112 -279 -309q-223 -268 -289 -334zM826 1184q-31 0 -75.5 44.5t-44.5 75.5q0 34 41.5 67.5t80.5 33.5q31 0 74.5 -47t43.5 -73q0 -36 -40.5 -68.5t-79.5 -32.5z" />
    <glyph glyph-name="Zcaron" unicode="&#x17d;" horiz-adv-x="1420" 
d="M1299 1159q-170 -105 -484 -450l-491 -582l391 14q363 13 391 13q155 0 210 -16.5t55 -64.5q0 -55 -36 -85.5t-87 -30.5q-30 0 -88 4l-49 2l-951 -14q-102 0 -102 77q0 75 90 189l571 651q241 275 490 459l-355 -20h-405l-74 -1q-38 0 -60 19.5t-22 57.5q0 52 33 90
t149 38q88 0 203 -14q119 -14 205 -14q106 0 231 8q156 10 232 10q245 0 245 -86q0 -67 -143 -162zM1313 2105q27 21 51 21q27 0 46 -19.5t19 -45.5q0 -27 -12.5 -44t-133.5 -112t-183 -137.5t-78 -42.5q-32 0 -59 36l-41 64l-96 133q-59 82 -59 132q0 33 27 59t62 26
q41 0 58 -39q23 -53 147 -227z" />
    <glyph glyph-name="zcaron" unicode="&#x17e;" horiz-adv-x="1102" 
d="M513 166q106 4 185 4q38 0 112 -16q71 -15 115 -15q85 0 85 -82q0 -47 -32.5 -82.5t-83.5 -35.5q-49 0 -114 14q-66 14 -115 14q-217 0 -432 -41q-22 -4 -39 -4q-83 0 -83 68q0 62 66 114q302 240 682 736q-132 -9 -192 -9q-77 0 -207 11t-149.5 35t-19.5 55q0 49 33 87
t81 38q56 0 145 -13q100 -12 148 -12q68 0 204 10q158 11 207 11q75 0 75 -55q0 -85 -103 -189q-111 -112 -279 -309q-223 -268 -289 -334zM1052 1556q27 21 51 21q27 0 46 -19.5t19 -45.5q0 -27 -12.5 -44t-133.5 -112t-183 -137.5t-78 -42.5q-32 0 -59 36l-41 64l-96 133
q-59 82 -59 132q0 33 27 59t62 26q41 0 58 -39q23 -53 147 -227z" />
    <glyph glyph-name="longs" unicode="&#x17f;" horiz-adv-x="1041" 
d="M176 -160q-40 0 -63.5 23.5t-23.5 55.5q0 26 38 165q28 103 72 365l106 630q39 239 180.5 379.5t354.5 140.5q128 0 128 -80q0 -112 -147 -112q-129 0 -215 -89t-112 -249q-24 -138 -47 -242q-43 -201 -58 -323q-56 -431 -93.5 -547.5t-119.5 -116.5z" />
    <glyph glyph-name="florin" unicode="&#x192;" horiz-adv-x="874" 
d="M399 639q-99 -8 -147 -8q-72 0 -72 54q0 107 123 132l178 12q196 466 358.5 599t346.5 133q113 0 113 -60q0 -49 -40 -90t-131 -41q-124 0 -229 -114t-223 -410q162 10 207 10q126 0 126 -63q0 -46 -33.5 -80.5t-70.5 -40.5t-166 -6l-143 -11l-129 -368
q-88 -251 -155.5 -358t-185.5 -183t-253 -104l-12 -2q-33 -5 -61 17t-28 63q0 81 89 106q134 36 221 107t170 290z" />
    <glyph glyph-name="Aringacute" unicode="&#x1fa;" horiz-adv-x="1498" 
d="M1114 520q-110 -13 -274 -49l-275 -55q-206 -362 -246 -400.5t-92 -38.5q-37 0 -62.5 25t-25.5 59q0 53 211 381q-11 19 -11 45q0 94 116 119q129 191 398 532t325 341q78 0 90 -111l8 -336l41 -694l31 -160q13 -65 13 -96q0 -43 -37 -78t-83 -35q-65 0 -95 132.5
t-32 418.5zM1081 1112l-360 -461q99 26 381 76zM1283 1921q125 0 199.5 -65.5t74.5 -161.5q0 -132 -97.5 -238t-313.5 -106q-138 0 -208 69t-70 153q0 146 115 247.5t300 101.5zM1404 1671q0 43 -42.5 73t-100.5 30q-133 0 -186 -55t-53 -118q0 -41 49.5 -72.5t113.5 -31.5
q122 0 170.5 54.5t48.5 119.5zM1135 1859q0 37 42 74q51 43 157 160q45 51 115 106.5t111 55.5q30 0 53 -23t23 -55q0 -50 -50 -86q-89 -62 -157 -143q-149 -170 -218 -170q-31 0 -53.5 23t-22.5 58z" />
    <glyph glyph-name="aringacute" unicode="&#x1fb;" horiz-adv-x="1048" 
d="M764 51q-216 -104 -308 -104q-374 0 -374 356q0 331 209.5 536t459.5 205q97 0 200.5 -49.5t103.5 -115.5q0 -41 -27 -64q-20 -39 -56.5 -225.5t-36.5 -268.5q0 -101 52 -278l4 -16q-22 -93 -111 -93q-15 0 -56 40.5t-60 76.5zM837 829q-63 37 -100 37
q-167 0 -311.5 -150.5t-144.5 -374.5q0 -220 190 -220q149 0 280 110q16 419 86 598zM860 1557q125 0 199.5 -65.5t74.5 -161.5q0 -132 -97.5 -238t-313.5 -106q-138 0 -208 69t-70 153q0 146 115 247.5t300 101.5zM981 1307q0 43 -42.5 73t-100.5 30q-133 0 -186 -55
t-53 -118q0 -41 49.5 -72.5t113.5 -31.5q122 0 170.5 54.5t48.5 119.5zM740 1693q0 37 42 74q51 43 157 160q45 51 115 106.5t111 55.5q30 0 53 -23t23 -55q0 -50 -50 -86q-89 -62 -157 -143q-149 -170 -218 -170q-31 0 -53.5 23t-22.5 58z" />
    <glyph glyph-name="AEacute" unicode="&#x1fc;" horiz-adv-x="2226" 
d="M1253 672q-121 -5 -272 -19l-276 -24q-132 -147 -320 -385l-149 -187q-36 -45 -88 -45q-36 0 -63 26t-27 60q0 20 16.5 52t258.5 325t417 467l327 346q140 148 255 222.5t177 74.5q44 0 68 -29q262 66 438 66q432 0 432 -137q0 -49 -36 -86t-80 -37q-13 0 -31 4
q-177 49 -317 49q-168 0 -400 -61q0 -69 -11.5 -140t-70.5 -346l443 41q227 21 239 21q88 0 88 -85q0 -101 -106 -120l-711 -63q-70 -314 -70 -447q0 -58 24.5 -76t139.5 -18h77l298 6q10 0 93 10q119 14 119 -73q0 -76 -62.5 -113t-259.5 -37h-220q-153 0 -247.5 27
t-127.5 84.5t-33 173.5q0 133 68 473zM911 844q212 21 390 26q84 394 81 449q-116 -94 -241 -232zM1690 1769q0 37 42 74q51 43 157 160q45 51 115 106.5t111 55.5q30 0 53 -23t23 -55q0 -50 -50 -86q-89 -62 -157 -143q-149 -170 -218 -170q-31 0 -53.5 23t-22.5 58z" />
    <glyph glyph-name="aeacute" unicode="&#x1fd;" horiz-adv-x="1867" 
d="M790 53q-45 -35 -126 -68.5t-143 -33.5q-196 0 -305.5 118t-109.5 294q0 271 214.5 470t473.5 199q64 0 137 -18.5t100.5 -30t18.5 -113.5q64 79 170.5 126.5t206.5 47.5q169 0 266 -58t97 -168q0 -83 -51 -142.5t-104.5 -89t-220.5 -103.5l-411 -182q85 -166 309 -166
q89 0 185 31t145 82q47 53 84 53q31 0 52.5 -21t21.5 -52q0 -110 -176 -191.5t-341 -81.5q-233 0 -321 113v-68q0 -43 -86 -43q-30 0 -55.5 13t-30.5 83zM831 862q-14 8 -76 8q-175 0 -314 -154.5t-139 -319.5q0 -114 71 -198.5t181 -84.5q133 0 244 102q0 114 1.5 143.5
t32.5 194.5t62 274zM1015 485l313 133q171 73 299 166q-73 80 -229 80q-242 0 -383 -379zM1016 1269q0 37 42 74q51 43 157 160q45 51 115 106.5t111 55.5q30 0 53 -23t23 -55q0 -50 -50 -86q-89 -62 -157 -143q-149 -170 -218 -170q-31 0 -53.5 23t-22.5 58z" />
    <glyph glyph-name="Oslashacute" unicode="&#x1fe;" horiz-adv-x="1635" 
d="M277 207q-69 116 -69 259q0 177 98.5 407t329 436.5t507.5 206.5q301 0 438 -123q168 149 197 149q35 0 58 -22t23 -53q0 -47 -182 -210q36 -89 36 -214q0 -396 -272 -750t-638 -354q-260 0 -428 147l-109 -100q-83 -76 -106 -76q-34 0 -56.5 23t-22.5 56q0 34 87 115z
M928 805l485 436q-91 70 -303 70q-276 0 -485 -282.5t-209 -529.5q0 -73 26 -137zM1499 1100q-133 -109 -319 -281l-312 -289l-325 -294q117 -93 293 -93q268 0 469 285t201 590q0 45 -7 82zM942 1720q0 37 42 74q51 43 157 160q45 51 115 106.5t111 55.5q30 0 53 -23
t23 -55q0 -50 -50 -86q-89 -62 -157 -143q-149 -170 -218 -170q-31 0 -53.5 23t-22.5 58z" />
    <glyph glyph-name="oslashacute" unicode="&#x1ff;" horiz-adv-x="1077" 
d="M181 152q-38 88 -38 192q0 249 168 470.5t440 221.5q156 0 235 -112l17 18q99 105 131 105q22 0 36.5 -17t14.5 -39t-109 -131l-41 -41q24 -74 24 -165q0 -299 -163 -506t-393 -207q-163 0 -264 116q-11 -11 -18 -16l-9 -8q-74 -84 -96 -84q-65 0 -65 48q0 31 44.5 77.5
t73.5 66.5q6 4 12 11zM347 303l486 471q-46 60 -129 60q-158 0 -260.5 -154.5t-102.5 -313.5q0 -33 6 -63zM392 207q55 -64 144 -64q144 0 248 142t87 377zM623 1269q0 37 42 74q51 43 157 160q45 51 115 106.5t111 55.5q30 0 53 -23t23 -55q0 -50 -50 -86
q-89 -62 -157 -143q-149 -170 -218 -170q-31 0 -53.5 23t-22.5 58z" />
    <glyph glyph-name="uni0218" unicode="&#x218;" horiz-adv-x="1420" 
d="M270 344q50 0 78 -55q40 -76 69.5 -102t93 -42t148.5 -16q195 0 352 97t157 242q0 102 -109 165t-292 69q-173 9 -270.5 75.5t-97.5 180.5q0 192 229.5 350t448.5 158q115 0 236.5 -39t121.5 -97q0 -31 -24.5 -62t-79.5 -31q-45 0 -136 20q-96 22 -138 22
q-183 0 -308.5 -89t-125.5 -189q0 -56 68.5 -83.5t272.5 -45.5q196 -14 305 -113.5t109 -244.5q0 -241 -223.5 -406t-526.5 -165q-194 0 -335.5 75.5t-141.5 199.5q0 66 36.5 96t82.5 30zM604 -352q-89 60 -89 115q0 51 44.5 95t105.5 44q129 0 129 -122q0 -88 -97.5 -223
t-164.5 -135q-62 0 -62 57q0 46 57 94q73 60 77 75z" />
    <glyph glyph-name="uni0219" unicode="&#x219;" horiz-adv-x="997" 
d="M840 915q-38 -11 -99 -27q-177 -48 -248 -93.5t-81 -108.5q25 -9 55 -14q235 -42 340.5 -126.5t105.5 -226.5q0 -180 -135 -279t-358 -99q-145 0 -259.5 50t-114.5 130q0 47 38.5 83t81.5 36q30 0 72 -47q21 -22 93 -37t120 -15q262 0 262 140q0 114 -164 157l-100 23
q-156 36 -195 84.5t-39 108.5q0 91 47 174t132.5 133t269.5 100q144 38 199 63q40 19 92 19q84 0 84 -81l-5 -73l2 -68q2 -91 -36.5 -121t-79.5 -30q-52 0 -66 28.5t-14 116.5zM385 -352q-89 60 -89 115q0 51 44.5 95t105.5 44q129 0 129 -122q0 -88 -97.5 -223t-164.5 -135
q-62 0 -62 57q0 46 57 94q73 60 77 75z" />
    <glyph glyph-name="uni021A" unicode="&#x21a;" horiz-adv-x="1392" 
d="M1464 1284h-48q-102 0 -180 4l-80 2h-112q-20 0 -37 -2l-70 -2q-6 -69 -21 -181q-16 -112 -28 -267q-26 -316 -49 -451l-10 -106q-16 -289 -148 -289q-35 0 -62.5 24t-27.5 59q0 17 14 63q14 47 29 190q12 114 17 149q21 125 40 402q11 140 23 238l18 157l-143 -4
q-173 -7 -266.5 16t-93.5 80q0 55 34 92t82 37q17 0 57 -3q172 -16 230 -16q107 0 275 12q99 7 172 7q68 0 180 -4l133 -2q43 -1 90 0t71.5 -19t24.5 -57q0 -50 -31.5 -89.5t-82.5 -39.5zM598 -352q-89 60 -89 115q0 51 44.5 95t105.5 44q129 0 129 -122q0 -88 -97.5 -223
t-164.5 -135q-62 0 -62 57q0 46 57 94q73 60 77 75z" />
    <glyph glyph-name="uni021B" unicode="&#x21b;" horiz-adv-x="965" 
d="M631 846q-12 -48 -31 -112q-84 -277 -84 -423q0 -172 80 -172q79 0 117 49q52 68 96 68q33 0 63.5 -25t30.5 -65q0 -88 -110.5 -150.5t-219.5 -62.5q-258 0 -258 321q0 176 79 430q21 67 40 134q-217 11 -248.5 36.5t-31.5 79.5q0 44 30 73.5t82 29.5l207 -17q6 26 9 60
q2 34 7 76l17 124q6 41 37.5 69t74.5 28q84 0 84 -135q0 -39 -12 -101l-20 -121q134 17 143 17q104 0 143 -20.5t39 -75.5q0 -49 -33.5 -79t-80.5 -30l-99 4q-74 0 -151 -10zM375 -352q-89 60 -89 115q0 51 44.5 95t105.5 44q129 0 129 -122q0 -88 -97.5 -223t-164.5 -135
q-62 0 -62 57q0 46 57 94q73 60 77 75z" />
    <glyph glyph-name="uni0237" unicode="&#x237;" horiz-adv-x="678" 
d="M354 367l52 551q4 41 39 85t81 44q37 0 67 -26t28 -50l-60 -578l-71 -614q-15 -126 -120 -251.5t-241 -125.5q-142 0 -219.5 135t-77.5 189q0 42 37 77t84 35q55 0 112 -156q28 -79 97 -79q43 0 85 53.5t58 192.5t49 518z" />
    <glyph glyph-name="circumflex" unicode="&#x2c6;" horiz-adv-x="1139" 
d="M842 1479q-305 -314 -375 -314q-31 0 -54 24t-23 55q0 44 40 79q43 33 359 336q31 31 65 31q41 0 83 -33t130 -146l131 -170q18 -24 18 -47q0 -39 -32 -71.5t-74 -32.5t-70 42t-198 247z" />
    <glyph glyph-name="caron" unicode="&#x2c7;" horiz-adv-x="1139" 
d="M1071 1556q27 21 51 21q27 0 46 -19.5t19 -45.5q0 -27 -12.5 -44t-133.5 -112t-183 -137.5t-78 -42.5q-32 0 -59 36l-41 64l-96 133q-59 82 -59 132q0 33 27 59t62 26q41 0 58 -39q23 -53 147 -227z" />
    <glyph glyph-name="uni02C9" unicode="&#x2c9;" horiz-adv-x="1139" 
d="M850 1335h50q31 0 73 2l71 2q72 2 94.5 -9.5t22.5 -45.5q0 -78 -77 -92l-113 -6h-215l-227 6q-62 0 -62 56q0 57 33.5 76t114.5 19q40 0 116 -4q82 -4 119 -4z" />
    <glyph glyph-name="breve" unicode="&#x2d8;" horiz-adv-x="1139" 
d="M1186 1552q65 0 65 -59q0 -118 -143.5 -215.5t-369.5 -97.5q-129 0 -219.5 82t-90.5 195q0 132 89 132q67 0 67 -57l-4 -46q0 -68 53 -112.5t127 -44.5q272 0 342 160q28 63 84 63z" />
    <glyph glyph-name="dotaccent" unicode="&#x2d9;" horiz-adv-x="1139" 
d="M636 1184q-31 0 -75.5 44.5t-44.5 75.5q0 34 41.5 67.5t80.5 33.5q31 0 74.5 -47t43.5 -73q0 -36 -40.5 -68.5t-79.5 -32.5z" />
    <glyph glyph-name="ring" unicode="&#x2da;" horiz-adv-x="1139" 
d="M888 1757q125 0 199.5 -65.5t74.5 -161.5q0 -132 -97.5 -238t-313.5 -106q-138 0 -208 69t-70 153q0 146 115 247.5t300 101.5zM1009 1507q0 43 -42.5 73t-100.5 30q-133 0 -186 -55t-53 -118q0 -41 49.5 -72.5t113.5 -31.5q122 0 170.5 54.5t48.5 119.5z" />
    <glyph glyph-name="ogonek" unicode="&#x2db;" horiz-adv-x="1139" 
d="M445 -188q0 -91 79 -91q73 0 138 25q26 12 41 12q62 0 62 -67q0 -56 -78 -93.5t-201 -37.5q-111 0 -170 53t-59 146q0 136 108.5 241.5t179.5 105.5q67 0 67 -54q0 -23 -11.5 -40t-69.5 -64q-86 -69 -86 -136z" />
    <glyph glyph-name="tilde" unicode="&#x2dc;" horiz-adv-x="1139" 
d="M846 1495l68 -104q39 -60 102 -60q56 0 90 37l59 88l31 60q14 28 66 28q63 0 63 -55q0 -50 -88.5 -177.5t-212.5 -127.5q-115 0 -166 33t-100 131q-35 57 -86 57q-61 0 -105 -47l-59 -84q-32 -45 -70 -45q-68 0 -68 59l4 23q4 53 98 148t224 95q100 0 150 -59z" />
    <glyph glyph-name="hungarumlaut" unicode="&#x2dd;" horiz-adv-x="1139" 
d="M547 1415l180 154q30 26 60 26q28 0 47 -20t19 -45q0 -29 -34 -65t-141 -124q-88 -73 -147 -129q-30 -28 -62 -28q-64 0 -64 63q0 42 142 168zM1133 1423l-170 -141q-118 -98 -160 -98q-27 0 -45 20t-18 45q0 40 40 70l170 141q127 105 168 105q62 0 62 -63
q0 -42 -47 -79z" />
    <glyph glyph-name="tonos" unicode="&#x384;" horiz-adv-x="1139" 
d="M714 1149q-67 0 -67 67q0 33 83 190.5t105 183.5t55 26q34 0 57 -27t23 -66q0 -46 -47.5 -122t-110 -164t-98.5 -88z" />
    <glyph glyph-name="dieresistonos" unicode="&#x385;" horiz-adv-x="1139" 
d="M716 1149q-72 0 -72 70q0 37 91 237t114.5 235t60.5 35q39 0 68 -24.5t29 -69.5q0 -50 -83 -190l-126 -217q-42 -76 -82 -76zM1132 1454q48 0 79.5 -33t31.5 -79q0 -57 -46.5 -103.5t-105.5 -46.5q-47 0 -79 31.5t-32 76.5q0 63 46 108.5t106 45.5zM484 1454
q48 0 80 -32.5t32 -79.5q0 -57 -46.5 -103.5t-106.5 -46.5q-47 0 -78.5 32t-31.5 76q0 62 46 108t105 46z" />
    <glyph glyph-name="Alphatonos" unicode="&#x386;" horiz-adv-x="1498" 
d="M1114 520q-110 -13 -274 -49l-275 -55q-206 -362 -246 -400.5t-92 -38.5q-37 0 -62.5 25t-25.5 59q0 53 211 381q-11 19 -11 45q0 94 116 119q129 191 398 532t325 341q78 0 90 -111l8 -336l41 -694l31 -160q13 -65 13 -96q0 -43 -37 -78t-83 -35q-65 0 -95 132.5
t-32 418.5zM1081 1112l-360 -461q99 26 381 76zM498 1149q-67 0 -67 67q0 33 83 190.5t105 183.5t55 26q34 0 57 -27t23 -66q0 -46 -47.5 -122t-110 -164t-98.5 -88z" />
    <glyph glyph-name="anoteleia" unicode="&#x387;" horiz-adv-x="510" 
d="M252 695q0 55 43.5 100t99.5 45q47 0 77.5 -32.5t30.5 -74.5q0 -55 -45 -98t-102 -43q-46 0 -75 30t-29 73z" />
    <glyph glyph-name="Epsilontonos" unicode="&#x388;" horiz-adv-x="1616" 
d="M840 1337q0 -96 -86 -485l446 43q187 18 238 18q90 0 90 -83q0 -107 -111 -121l-710 -64q-68 -311 -68 -446q0 -61 25.5 -78t138.5 -17l375 9q13 0 93 10q117 15 117 -77t-72.5 -118t-439.5 -26q-284 0 -360.5 59.5t-76.5 219.5q0 177 79 515q-5 23 -5 35q0 44 32 76
q61 277 76.5 370.5t15.5 163.5q7 134 34 182t93 48q42 0 69 -31q256 66 437 66q153 0 265 -25t139 -50.5t27 -62.5q0 -48 -35.5 -85t-80.5 -37q-12 0 -31 6q-166 47 -317 47q-166 0 -397 -62zM256 1149q-67 0 -67 67q0 33 83 190.5t105 183.5t55 26q34 0 57 -27t23 -66
q0 -46 -47.5 -122t-110 -164t-98.5 -88z" />
    <glyph glyph-name="Etatonos" unicode="&#x389;" horiz-adv-x="2013" 
d="M1567 659q-188 -5 -428 -51l-434 -82q-8 -66 -60 -256q-48 -185 -57 -256q-8 -41 -39.5 -69.5t-73.5 -28.5q-81 0 -81 77q0 52 67 339q68 278 90 481l14 99q6 41 9 69q6 40 19 100q66 301 77 375q6 41 39 69.5t74 28.5q81 0 81 -81q0 -28 -49 -256q-40 -180 -49 -240
l-32 -252l440 80q270 49 440 49q35 149 80 432q14 86 58.5 173t99.5 87q36 0 60.5 -23t24.5 -59q0 -21 -18 -55q-23 -43 -38 -162q-24 -196 -85 -438q-49 -202 -61 -273t-31 -253q-12 -176 -21.5 -225t-41.5 -75t-72 -26q-35 0 -58 24.5t-23 58.5l26 243q21 205 40 303
q7 36 13 73zM256 1149q-67 0 -67 67q0 33 83 190.5t105 183.5t55 26q34 0 57 -27t23 -66q0 -46 -47.5 -122t-110 -164t-98.5 -88z" />
    <glyph glyph-name="Iotatonos" unicode="&#x38a;" horiz-adv-x="1549" 
d="M1076 1280q-84 -364 -121 -634q-55 -405 -72 -439l318 4q38 0 60.5 -23.5t22.5 -58.5q0 -47 -33 -85t-83 -38q-54 0 -168 -4l-99 -2q-160 -3 -272 -18q-129 -19 -199 -19q-39 0 -62.5 25t-23.5 59q0 47 35.5 85t83.5 38q77 0 217 20q31 97 69 446q21 196 130 652l-262 -8
q-36 -1 -60 22t-24 60q0 53 27 86t82 39t305 6q139 0 310 -19t198.5 -26t43 -26t15.5 -53q0 -59 -38 -91.5t-83 -32.5q-70 0 -158 15zM264 1198q-67 0 -67 67q0 33 83 190.5t105 183.5t55 26q34 0 57 -27t23 -66q0 -46 -47.5 -122t-110 -164t-98.5 -88z" />
    <glyph glyph-name="Omicrontonos" unicode="&#x38c;" horiz-adv-x="1795" 
d="M321 460q0 190 109 433t334 433t492 190q568 0 568 -473q0 -389 -269.5 -746.5t-638.5 -357.5q-265 0 -430 148.5t-165 372.5zM527 496q0 -157 118 -255t303 -98q265 0 467 282.5t202 584.5q0 170 -96.5 235.5t-297.5 65.5q-270 0 -483 -279t-213 -536zM353 1198
q-67 0 -67 67q0 33 83 190.5t105 183.5t55 26q34 0 57 -27t23 -66q0 -46 -47.5 -122t-110 -164t-98.5 -88z" />
    <glyph glyph-name="Upsilontonos" unicode="&#x38e;" horiz-adv-x="1741" 
d="M1076 469q-146 232 -176 365q-28 114 -107 270q-54 106 -95 191t-41 111q0 43 37.5 79.5t82.5 36.5q47 0 75 -47l62 -125q103 -208 135 -283t51 -160q18 -76 105 -225l317 557l107 162q55 84 77.5 101.5t61.5 17.5q37 0 62.5 -24.5t25.5 -59.5q0 -47 -113 -205
q-21 -30 -47 -70l-237 -424q-87 -156 -256 -418l-160 -223l-70 -108q-38 -58 -98 -58q-37 0 -62.5 25t-25.5 59q0 40 127 230zM330 1149q-67 0 -67 67q0 33 83 190.5t105 183.5t55 26q34 0 57 -27t23 -66q0 -46 -47.5 -122t-110 -164t-98.5 -88z" />
    <glyph glyph-name="Omegatonos" unicode="&#x38f;" horiz-adv-x="1986" 
d="M539 106q-5 20 -16 59q-90 299 -90 467q0 228 69 383.5t227 299t374 229.5t415 86q224 0 332.5 -99.5t108.5 -316.5q0 -611 -523 -1120q354 0 415.5 -21.5t61.5 -71.5q0 -51 -34 -86.5t-80 -35.5q-79 0 -170 8q-103 9 -174 9h-39l-144 -5q-40 0 -71 43t-31 87
q0 67 127 196l168 166q46 46 124.5 185t127 334.5t48.5 293.5q0 236 -280 236q-261 0 -555 -192t-294 -541q0 -111 29 -276t91 -298q18 -37 18 -62q0 -39 -21 -76.5t-53 -51t-244 -44t-302 -30.5q-39 0 -61 24t-22 59q0 37 23 68.5t76 45t369 48.5zM330 1149q-67 0 -67 67
q0 33 83 190.5t105 183.5t55 26q34 0 57 -27t23 -66q0 -46 -47.5 -122t-110 -164t-98.5 -88z" />
    <glyph glyph-name="iotadieresistonos" unicode="&#x390;" horiz-adv-x="574" 
d="M433 1053q97 0 97 -101q0 -36 -21 -136q-10 -45 -20 -97q-5 -32 -21 -87q-40 -138 -40 -260q0 -204 116 -204q119 0 119 -63q0 -39 -23 -89.5t-96 -50.5q-329 0 -329 366q0 134 85 510q17 77 25 120q7 39 38 65.5t70 26.5zM484 1149q-72 0 -72 70q0 37 91 237t114.5 235
t60.5 35q39 0 68 -24.5t29 -69.5q0 -50 -83 -190l-126 -217q-42 -76 -82 -76zM900 1454q48 0 79.5 -33t31.5 -79q0 -57 -46.5 -103.5t-105.5 -46.5q-47 0 -79 31.5t-32 76.5q0 63 46 108.5t106 45.5zM252 1454q48 0 80 -32.5t32 -79.5q0 -57 -46.5 -103.5t-106.5 -46.5
q-47 0 -78.5 32t-31.5 76q0 62 46 108t105 46z" />
    <glyph glyph-name="Alpha" unicode="&#x391;" horiz-adv-x="1498" 
d="M1114 520q-110 -13 -274 -49l-275 -55q-206 -362 -246 -400.5t-92 -38.5q-37 0 -62.5 25t-25.5 59q0 53 211 381q-11 19 -11 45q0 94 116 119q129 191 398 532t325 341q78 0 90 -111l8 -336l41 -694l31 -160q13 -65 13 -96q0 -43 -37 -78t-83 -35q-65 0 -95 132.5
t-32 418.5zM1081 1112l-360 -461q99 26 381 76z" />
    <glyph glyph-name="Beta" unicode="&#x392;" horiz-adv-x="1291" 
d="M1023 705q252 -116 252 -280q0 -162 -244.5 -317t-724.5 -155q-42 0 -75 39.5t-27 83.5l47 291q26 160 89.5 437t86.5 417t42 216.5t43.5 89.5t124 28.5t197.5 15.5q172 0 315.5 -117t143.5 -278q0 -111 -61.5 -240.5t-208.5 -230.5zM648 1360l-31 -174l-79 -387l149 -13
q65 0 171.5 42t169 133t62.5 177q0 83 -89.5 155.5t-198.5 72.5q-108 0 -154 -6zM685 584l-82 -4q-51 0 -113 10l-41 -225l-32 -207q356 16 507.5 106t151.5 134q0 41 -88.5 90t-200.5 77z" />
    <glyph glyph-name="Gamma" unicode="&#x393;" horiz-adv-x="1262" 
d="M602 1284q-26 -198 -45 -446q-26 -317 -49 -451l-10 -106q0 -289 -148 -289q-39 0 -63.5 24.5t-24.5 58.5q0 16 14 63q19 64 27 190q12 114 17 149q29 189 43 467q22 435 51.5 503.5t107.5 68.5q88 0 88 -20q0 -3 10 -4t33 -1h52q21 0 307 -12q246 -11 305 -11
q38 0 62.5 -25t24.5 -62q0 -47 -36.5 -82t-83.5 -35q-68 0 -299 12q-243 11 -299 8h-84z" />
    <glyph glyph-name="uni0394" unicode="&#x394;" horiz-adv-x="1627" 
d="M1211 1563l41 -158l168 -561q45 -151 112.5 -418t67.5 -356q0 -142 -176 -142q-58 0 -170 11l-170 18q-76 8 -226 8h-92q-55 0 -129 -2l-130 -2q-173 -3 -220 -6q-67 -8 -129 -8q-70 0 -70 54q0 48 176 327l213 338l328 585l121 222q61 112 103 151t85 39q63 0 97 -100z
M1407 125q-57 284 -157 606l-187 596q-226 -420 -366 -661l-150 -256q-82 -140 -162 -250l506 4q179 1 516 -39z" />
    <glyph glyph-name="Epsilon" unicode="&#x395;" horiz-adv-x="1279" 
d="M576 1337q0 -96 -86 -485l446 43q187 18 238 18q90 0 90 -83q0 -107 -111 -121l-710 -64q-68 -311 -68 -446q0 -61 25.5 -78t138.5 -17l375 9q13 0 93 10q117 15 117 -77t-72.5 -118t-439.5 -26q-284 0 -360.5 59.5t-76.5 219.5q0 177 79 515q-5 23 -5 35q0 44 32 76
q61 277 76.5 370.5t15.5 163.5q7 134 34 182t93 48q42 0 69 -31q256 66 437 66q153 0 265 -25t139 -50.5t27 -62.5q0 -48 -35.5 -85t-80.5 -37q-12 0 -31 6q-166 47 -317 47q-166 0 -397 -62z" />
    <glyph glyph-name="Zeta" unicode="&#x396;" horiz-adv-x="1420" 
d="M1299 1159q-170 -105 -484 -450l-491 -582l391 14q363 13 391 13q155 0 210 -16.5t55 -64.5q0 -55 -36 -85.5t-87 -30.5q-30 0 -88 4l-49 2l-951 -14q-102 0 -102 77q0 75 90 189l571 651q241 275 490 459l-355 -20h-405l-74 -1q-38 0 -60 19.5t-22 57.5q0 52 33 90
t149 38q88 0 203 -14q119 -14 205 -14q106 0 231 8q156 10 232 10q245 0 245 -86q0 -67 -143 -162z" />
    <glyph glyph-name="Eta" unicode="&#x397;" horiz-adv-x="1573" 
d="M1319 659q-188 -5 -428 -51l-434 -82q-8 -66 -60 -256q-48 -185 -57 -256q-8 -41 -39.5 -69.5t-73.5 -28.5q-81 0 -81 77q0 52 67 339q68 278 90 481l14 99q6 41 9 69q6 40 19 100q66 301 77 375q6 41 39 69.5t74 28.5q81 0 81 -81q0 -28 -49 -256q-40 -180 -49 -240
l-32 -252l440 80q270 49 440 49q35 149 80 432q14 86 58.5 173t99.5 87q36 0 60.5 -23t24.5 -59q0 -21 -18 -55q-23 -43 -38 -162q-24 -196 -85 -438q-49 -202 -61 -273t-31 -253q-12 -176 -21.5 -225t-41.5 -75t-72 -26q-35 0 -58 24.5t-23 58.5l26 243q21 205 40 303
q7 36 13 73z" />
    <glyph glyph-name="Theta" unicode="&#x398;" horiz-adv-x="1635" 
d="M161 460q0 190 109 433t334 433t492 190q568 0 568 -473q0 -389 -269.5 -746.5t-638.5 -357.5q-265 0 -430 148.5t-165 372.5zM367 496q0 -157 118 -255t303 -98q265 0 467 282.5t202 584.5q0 170 -96.5 235.5t-297.5 65.5q-270 0 -483 -279t-213 -536zM663 672
q-72 0 -72 63q0 92 97 92q100 0 238 7q125 8 239 8q77 0 77 -60q0 -72 -61 -91t-518 -19z" />
    <glyph glyph-name="Iota" unicode="&#x399;" horiz-adv-x="1119" 
d="M834 1280q-84 -364 -121 -634q-55 -405 -72 -439l318 4q38 0 60.5 -23.5t22.5 -58.5q0 -47 -33 -85t-83 -38q-54 0 -168 -4l-99 -2q-160 -3 -272 -18q-129 -19 -199 -19q-39 0 -62.5 25t-23.5 59q0 47 35.5 85t83.5 38q77 0 217 20q31 97 69 446q21 196 130 652l-262 -8
q-36 -1 -60 22t-24 60q0 53 27 86t82 39t305 6q139 0 310 -19t198.5 -26t43 -26t15.5 -53q0 -59 -38 -91.5t-83 -32.5q-70 0 -158 15z" />
    <glyph glyph-name="Kappa" unicode="&#x39a;" horiz-adv-x="1251" 
d="M502 526l-86 -536q-16 -101 -103 -101q-51 0 -76 38t-25 77q0 61 128 723q75 389 125 700q6 44 40.5 74.5t76.5 30.5q39 0 61 -25.5t22 -61.5q0 -28 -61 -319q-39 -186 -59 -303q142 114 354 320l340 332q39 38 82 38q38 0 62.5 -25.5t24.5 -61.5q0 -109 -755 -760
q92 -117 320 -363l90 -88q40 -39 113 -65q75 -28 75 -72q0 -45 -33 -82t-75 -37q-154 0 -389 266z" />
    <glyph glyph-name="Lambda" unicode="&#x39b;" horiz-adv-x="1412" 
d="M943 1096q-103 -212 -290 -478q-262 -373 -316 -462q-1 -2 -79 -103.5t-107 -117t-64 -15.5q-83 0 -83 72q0 64 91 178q137 166 311.5 426t258.5 414t225 452q39 94 117 94q36 0 59 -22.5t53 -149.5l217 -925q83 -359 83 -384q0 -32 -39 -68t-91 -36t-78 42t-141 556
q-75 357 -127 527z" />
    <glyph glyph-name="Mu" unicode="&#x39c;" horiz-adv-x="1808" 
d="M1483 1094l-309 -686l-97 -191q-73 -144 -117 -202t-106 -58q-76 0 -100 170l-37 416q-15 187 -25 534l-73 -180l-226 -608l-51 -158q-32 -97 -52.5 -133t-42 -50t-50.5 -14q-80 0 -80 83q0 40 33 161t102 277l162 401l112 315q65 183 122.5 266t125.5 83q62 0 82.5 -81
t24.5 -358q0 -310 45 -792q196 402 395 882l53 148q77 215 189 215q104 0 104 -285l-5 -305q0 -316 32 -584l22 -172q13 -98 13 -147q0 -54 -40.5 -89.5t-84.5 -35.5q-99 0 -107 217l-10 172q-11 196 -11 376q0 202 7 413z" />
    <glyph glyph-name="Nu" unicode="&#x39d;" horiz-adv-x="1632" 
d="M527 1145l-79 -457q-23 -135 -56 -393q-48 -375 -164 -375q-48 0 -73.5 29.5t-25.5 64.5q0 34 28 142q8 31 52 266.5t55 315.5l32 233q24 164 29 270l15 172q7 60 55.5 98.5t95.5 38.5q52 0 114 -114q368 -733 781 -1180q8 27 20 127l52 381q18 126 30 256.5t12 185.5
q0 27 -12 107q-4 48 -4 73q0 148 125 148q109 0 109 -259q0 -174 -46 -441l-86 -505q-39 -238 -69 -303t-113 -65q-45 0 -120.5 71.5t-290 369t-466.5 743.5z" />
    <glyph glyph-name="Xi" unicode="&#x39e;" horiz-adv-x="1475" 
d="M1217 1305l-139 -2h-555l-132 6q-87 0 -87 82q0 45 34.5 79.5t83.5 34.5q26 0 84 -4l49 -2h554l376 6q39 0 62.5 -22t23.5 -56q0 -51 -33.5 -84.5t-83.5 -33.5q-77 0 -237 -4zM1124 684h-55q-33 0 -78 -2l-323 -10q-96 -8 -180 -8q-69 0 -69 80q0 50 26.5 84t66.5 34
q74 0 242 10q176 11 239 11h160q67 0 67 -83q0 -49 -27 -82.5t-69 -33.5zM1311 -12q-69 0 -207 6q-135 6 -203 6q-118 0 -366 -16q-259 -17 -361 -17q-39 0 -62.5 23t-23.5 57q0 51 34 85t83 34q122 0 278 14q263 21 472 21q89 0 190 -8q116 -7 197 -7q84 0 84 -79
q0 -51 -33.5 -85t-81.5 -34z" />
    <glyph glyph-name="Omicron" unicode="&#x39f;" horiz-adv-x="1635" 
d="M161 460q0 190 109 433t334 433t492 190q568 0 568 -473q0 -389 -269.5 -746.5t-638.5 -357.5q-265 0 -430 148.5t-165 372.5zM367 496q0 -157 118 -255t303 -98q265 0 467 282.5t202 584.5q0 170 -96.5 235.5t-297.5 65.5q-270 0 -483 -279t-213 -536z" />
    <glyph glyph-name="Pi" unicode="&#x3a0;" horiz-adv-x="1860" 
d="M583 1362q-63 -621 -94 -760q-60 -265 -80 -432q-25 -207 -133 -207q-84 0 -84 73q0 38 27 204.5t54 285.5q37 153 111 840l-5 14q-11 23 -11 51q0 138 180 138q77 0 191 -8q114 -9 151 -9l575 -2q132 0 132 -83q0 -11 -21 -113q-59 -243 -100 -588l-62 -506
q-8 -45 -8 -100q0 -110 -29 -153.5t-92 -43.5q-84 0 -84 94q0 122 15 203q0 3 61 506q16 135 60 352q37 186 37 211q0 27 -64 27q-578 0 -727 6z" />
    <glyph glyph-name="Rho" unicode="&#x3a1;" horiz-adv-x="1066" 
d="M385 600q-16 -60 -92 -528q-6 -42 -36 -69.5t-69 -27.5q-42 0 -63 27.5t-14 69.5l47 293q26 163 84 413q3 12 86 416l20 137q35 241 146 219q65 21 239 21q182 0 318 -119t136 -277q0 -230 -197.5 -408.5t-483.5 -178.5q-30 0 -121 12zM543 1372l-31 -182l-84 -399
l109 -13q64 -8 186 30.5t199.5 137t77.5 202.5q0 92 -96 162t-224 70q-102 0 -137 -8z" />
    <glyph glyph-name="Sigma" unicode="&#x3a3;" horiz-adv-x="1530" 
d="M825 805q-442 490 -442 605q0 46 51 79t117 33q180 0 448 -9q298 -6 445 -6q73 0 73 -74q0 -120 -173 -120q-66 0 -195 6q-101 8 -190 8q-294 0 -294 -15l182 -232q57 -74 126 -159t75.5 -100.5t6.5 -33.5q0 -45 -64 -89q-130 -86 -270 -247q-170 -193 -242 -256
q265 -21 819 -21q48 0 74.5 -27t26.5 -67q0 -45 -31.5 -76t-73.5 -31q-175 0 -477 15q-283 14 -479 14q-10 0 -85 -10q-53 -7 -87 21.5t-34 60.5q0 40 112 141q106 96 276 278q199 213 305 312z" />
    <glyph glyph-name="Tau" unicode="&#x3a4;" horiz-adv-x="1392" 
d="M1464 1284h-48q-102 0 -180 4l-80 2h-112q-20 0 -37 -2l-70 -2q-6 -69 -21 -181q-16 -112 -28 -267q-26 -316 -49 -451l-10 -106q-16 -289 -148 -289q-35 0 -62.5 24t-27.5 59q0 17 14 63q14 47 29 190q12 114 17 149q21 125 40 402q11 140 23 238l18 157l-143 -4
q-173 -7 -266.5 16t-93.5 80q0 55 34 92t82 37q17 0 57 -3q172 -16 230 -16q107 0 275 12q99 7 172 7q68 0 180 -4l133 -2q43 -1 90 0t71.5 -19t24.5 -57q0 -50 -31.5 -89.5t-82.5 -39.5z" />
    <glyph glyph-name="Upsilon" unicode="&#x3a5;" horiz-adv-x="1301" 
d="M668 469q-146 232 -176 365q-28 114 -107 270q-54 106 -95 191t-41 111q0 43 37.5 79.5t82.5 36.5q47 0 75 -47l62 -125q103 -208 135 -283t51 -160q18 -76 105 -225l317 557l107 162q55 84 77.5 101.5t61.5 17.5q37 0 62.5 -24.5t25.5 -59.5q0 -47 -113 -205
q-21 -30 -47 -70l-237 -424q-87 -156 -256 -418l-160 -223l-70 -108q-38 -58 -98 -58q-37 0 -62.5 25t-25.5 59q0 40 127 230z" />
    <glyph glyph-name="Phi" unicode="&#x3a6;" horiz-adv-x="1307" 
d="M638 133q-213 17 -344 134.5t-131 286.5q0 235 201.5 486.5t484.5 305.5l19 90q24 112 120 112q83 0 83 -83q0 -31 -17 -111q432 -26 432 -378q0 -281 -195 -528t-446 -301l-14 -84q-22 -131 -123 -131q-89 0 -89 82q0 23 19 119zM880 346q154 63 274 238.5t120 362.5
q0 112 -61 161.5t-196 58.5l-27 -127q-36 -171 -66 -391l-31 -234q-7 -34 -13 -69zM722 711l26 143q12 73 29 154l31 141q-198 -72 -315 -249.5t-117 -316.5q0 -103 79.5 -175t217.5 -86l23 133l26 243q0 7 0.5 10.5t-0.5 2.5z" />
    <glyph glyph-name="Chi" unicode="&#x3a7;" horiz-adv-x="1482" 
d="M1022 723l170 -322q90 -170 182 -313q18 -24 18 -52q0 -46 -36.5 -83t-83.5 -37q-61 0 -174 221l-101 205l-122 225l-406 -397l-217 -207q-35 -33 -96 -33q-38 0 -62.5 26t-24.5 64q0 46 38 82l213 201l444 436q-103 172 -188 295l-91 158q-45 79 -106 143q-32 29 -32 67
q0 45 36.5 82.5t81.5 37.5q74 0 157.5 -149.5t293.5 -477.5l278 317q272 310 346 310q38 0 63.5 -27t25.5 -63q0 -41 -40 -82q-152 -154 -248 -269l-153 -184q-75 -90 -166 -174z" />
    <glyph glyph-name="Psi" unicode="&#x3a8;" horiz-adv-x="1380" 
d="M845 487q-5 -18 -12 -47t-17 -67l-47 -299q-7 -47 -40 -74t-75 -27q-43 0 -66.5 28.5t-17.5 72.5l50 307q2 11 5 22q15 62 17 74q-417 42 -417 447q0 96 20 215l37 241q25 166 129 166q87 0 87 -80q0 -10 -13 -80q-63 -322 -63 -444q0 -150 79.5 -201.5t187.5 -62.5
q36 152 86 481q34 210 64.5 294.5t107.5 84.5q88 0 88 -70q0 -54 -34 -178q-13 -51 -33 -155l-42 -268q-11 -74 -34 -175q362 106 461 742q8 43 39.5 71.5t75.5 28.5q39 0 62 -23t23 -56q0 -59 -63.5 -302t-219 -422.5t-425.5 -243.5z" />
    <glyph glyph-name="uni03A9" unicode="&#x3a9;" horiz-adv-x="1966" 
d="M519 106q-5 20 -16 59q-90 299 -90 467q0 228 69 383.5t227 299t374 229.5t415 86q224 0 332.5 -99.5t108.5 -316.5q0 -611 -523 -1120q354 0 415.5 -21.5t61.5 -71.5q0 -51 -34 -86.5t-80 -35.5q-79 0 -170 8q-103 9 -174 9h-39l-144 -5q-40 0 -71 43t-31 87
q0 67 127 196l168 166q46 46 124.5 185t127 334.5t48.5 293.5q0 236 -280 236q-261 0 -555 -192t-294 -541q0 -111 29 -276t91 -298q18 -37 18 -62q0 -39 -21 -76.5t-53 -51t-244 -44t-302 -30.5q-39 0 -61 24t-22 59q0 37 23 68.5t76 45t369 48.5z" />
    <glyph glyph-name="Iotadieresis" unicode="&#x3aa;" horiz-adv-x="1119" 
d="M834 1280q-84 -364 -121 -634q-55 -405 -72 -439l318 4q38 0 60.5 -23.5t22.5 -58.5q0 -47 -33 -85t-83 -38q-54 0 -168 -4l-99 -2q-160 -3 -272 -18q-129 -19 -199 -19q-39 0 -62.5 25t-23.5 59q0 47 35.5 85t83.5 38q77 0 217 20q31 97 69 446q21 196 130 652l-262 -8
q-36 -1 -60 22t-24 60q0 53 27 86t82 39t305 6q139 0 310 -19t198.5 -26t43 -26t15.5 -53q0 -59 -38 -91.5t-83 -32.5q-70 0 -158 15zM1241 1762q0 -37 -36 -68t-122 -31q-38 0 -67.5 21.5t-29.5 52.5q0 55 34.5 83.5t129.5 28.5q33 0 62 -28t29 -59zM729 1757
q0 -47 -48.5 -75.5t-87.5 -28.5q-108 0 -108 81q0 49 46.5 78t80.5 29q117 0 117 -84z" />
    <glyph glyph-name="Upsilondieresis" unicode="&#x3ab;" horiz-adv-x="1301" 
d="M668 469q-146 232 -176 365q-28 114 -107 270q-54 106 -95 191t-41 111q0 43 37.5 79.5t82.5 36.5q47 0 75 -47l62 -125q103 -208 135 -283t51 -160q18 -76 105 -225l317 557l107 162q55 84 77.5 101.5t61.5 17.5q37 0 62.5 -24.5t25.5 -59.5q0 -47 -113 -205
q-21 -30 -47 -70l-237 -424q-87 -156 -256 -418l-160 -223l-70 -108q-38 -58 -98 -58q-37 0 -62.5 25t-25.5 59q0 40 127 230zM1302 1748q0 -37 -36 -68t-122 -31q-38 0 -67.5 21.5t-29.5 52.5q0 55 34.5 83.5t129.5 28.5q33 0 62 -28t29 -59zM790 1743q0 -47 -48.5 -75.5
t-87.5 -28.5q-108 0 -108 81q0 49 46.5 78t80.5 29q117 0 117 -84z" />
    <glyph glyph-name="alphatonos" unicode="&#x3ac;" horiz-adv-x="1091" 
d="M793 211q-68 -127 -159.5 -195.5t-182.5 -68.5q-349 0 -349 357q0 316 199 520t402 204q65 0 121 -50t77 -153q102 203 152 203q89 0 89 -61q0 -22 -27 -73q-176 -328 -176 -446q0 -144 48 -358q23 -42 23 -63q0 -24 -32 -58.5t-79 -34.5q-30 0 -46.5 22t-36.5 143
q-17 94 -23 112zM785 549q0 106 -40.5 204.5t-90.5 98.5q-131 0 -243 -155t-112 -360q0 -216 174 -216q146 0 312 338v90zM761 1149q-67 0 -67 67q0 33 83 190.5t105 183.5t55 26q34 0 57 -27t23 -66q0 -46 -47.5 -122t-110 -164t-98.5 -88z" />
    <glyph glyph-name="epsilontonos" unicode="&#x3ad;" horiz-adv-x="1007" 
d="M374 555q-85 98 -85 185q0 110 127.5 211.5t258.5 101.5q133 0 224 -51t91 -126q0 -96 -102 -96q-32 0 -90 45q-56 47 -151 47q-39 0 -110 -37t-71 -92q0 -37 19 -59.5t86 -55.5q69 -36 88 -55.5t19 -47.5q0 -50 -37.5 -72.5t-131.5 -22.5q-60 0 -108 -71.5t-48 -120.5
t63.5 -80t133.5 -31q63 0 166 55q103 56 123 56q34 0 54.5 -24.5t20.5 -56.5q0 -72 -129.5 -140t-260.5 -68q-159 0 -255.5 70.5t-96.5 182.5q0 83 45.5 184t156.5 169zM666 1149q-67 0 -67 67q0 33 83 190.5t105 183.5t55 26q34 0 57 -27t23 -66q0 -46 -47.5 -122
t-110 -164t-98.5 -88z" />
    <glyph glyph-name="etatonos" unicode="&#x3ae;" horiz-adv-x="1072" 
d="M475 846q202 223 381 223q216 0 216 -269q0 -65 -11 -151l-36 -228q-10 -73 -19 -304q-3 -108 -17.5 -265t-22.5 -193.5t-40.5 -61.5t-73.5 -25q-80 0 -80 82q0 60 23.5 390.5t38.5 416.5q3 14 7 38q13 92 30 152q10 62 10 106q0 109 -58 109q-132 0 -269 -173t-167 -309
q-6 -25 -14 -54q-21 -69 -25 -135l-10 -126q-5 -54 -37.5 -85t-79.5 -31q-84 0 -84 78l15 164q6 97 63 323q56 232 70 381l9 84q5 48 38 78.5t80 30.5q81 0 81 -101zM705 1149q-67 0 -67 67q0 33 83 190.5t105 183.5t55 26q34 0 57 -27t23 -66q0 -46 -47.5 -122t-110 -164
t-98.5 -88z" />
    <glyph glyph-name="iotatonos" unicode="&#x3af;" horiz-adv-x="574" 
d="M433 1053q97 0 97 -101q0 -36 -21 -136q-10 -45 -20 -97q-5 -32 -21 -87q-40 -138 -40 -260q0 -204 116 -204q119 0 119 -63q0 -39 -23 -89.5t-96 -50.5q-329 0 -329 366q0 134 85 510q17 77 25 120q7 39 38 65.5t70 26.5zM457 1149q-67 0 -67 67q0 33 83 190.5
t105 183.5t55 26q34 0 57 -27t23 -66q0 -46 -47.5 -122t-110 -164t-98.5 -88z" />
    <glyph glyph-name="upsilondieresistonos" unicode="&#x3b0;" horiz-adv-x="1065" 
d="M906 874l14 84q8 48 41 74.5t74 26.5q85 0 85 -84q0 -13 -9 -68q-6 -31 -11 -73q-51 -429 -211.5 -662t-388.5 -233q-188 0 -284 98t-96 320q0 151 61 427q31 119 43 195q18 98 117 98q84 0 84 -77q0 -44 -45 -216q-64 -289 -64 -423q0 -226 215 -226q164 0 257 236.5
t118 502.5zM688 1149q-72 0 -72 70q0 37 91 237t114.5 235t60.5 35q39 0 68 -24.5t29 -69.5q0 -50 -83 -190l-126 -217q-42 -76 -82 -76zM1104 1454q48 0 79.5 -33t31.5 -79q0 -57 -46.5 -103.5t-105.5 -46.5q-47 0 -79 31.5t-32 76.5q0 63 46 108.5t106 45.5zM456 1454
q48 0 80 -32.5t32 -79.5q0 -57 -46.5 -103.5t-106.5 -46.5q-47 0 -78.5 32t-31.5 76q0 62 46 108t105 46z" />
    <glyph glyph-name="alpha" unicode="&#x3b1;" horiz-adv-x="1091" 
d="M793 211q-68 -127 -159.5 -195.5t-182.5 -68.5q-349 0 -349 357q0 316 199 520t402 204q65 0 121 -50t77 -153q102 203 152 203q89 0 89 -61q0 -22 -27 -73q-176 -328 -176 -446q0 -144 48 -358q23 -42 23 -63q0 -24 -32 -58.5t-79 -34.5q-30 0 -46.5 22t-36.5 143
q-17 94 -23 112zM785 549q0 106 -40.5 204.5t-90.5 98.5q-131 0 -243 -155t-112 -360q0 -216 174 -216q146 0 312 338v90z" />
    <glyph glyph-name="beta" unicode="&#x3b2;" horiz-adv-x="1201" 
d="M306 -16l-4 -33q-4 -35 -41.5 -239t-75.5 -242.5t-89 -38.5q-78 0 -78 75q0 43 49 220q31 108 106 510l154 817q31 190 128 309t245 119q120 0 200 -68.5t80 -166.5q0 -117 -86 -277q132 -33 201 -139t69 -251q0 -254 -144.5 -445t-477.5 -191q-145 0 -236 41zM961 542
q0 102 -48.5 172t-149.5 70q-112 0 -112 77q0 41 57 145q62 106 62 180q0 94 -103 94q-112 0 -145 -231q-56 -333 -136 -691q-5 -23 -6 -35q-2 -13 -4 -18q-28 -180 232 -180q157 0 255 126t98 291z" />
    <glyph glyph-name="gamma" unicode="&#x3b3;" horiz-adv-x="996" 
d="M707 143q-194 -314 -271 -456l-96 -195q-35 -72 -100 -72q-38 0 -63.5 22.5t-25.5 59.5q0 91 308 594l-250 688l-33 74q-15 34 -15 62q0 47 38.5 82.5t81.5 35.5q32 0 58 -24t109.5 -224.5t155.5 -457.5l203 344q51 87 133.5 209.5t109.5 138.5t52 16q38 0 63.5 -25
t25.5 -60q0 -28 -19 -62z" />
    <glyph glyph-name="delta" unicode="&#x3b4;" horiz-adv-x="1077" 
d="M676 1032q-28 45 -70 123q-43 75 -90 111q-128 105 -128 163q0 84 112 84l321 7h15q52 0 163 -7l148 -8q37 -1 55.5 -18t18.5 -50q0 -46 -33.5 -78t-77.5 -32q-111 0 -186 6t-117 6h-63q119 -120 210.5 -341.5t91.5 -402.5q0 -240 -162 -447t-388 -207
q-162 0 -260.5 118.5t-98.5 289.5q0 216 147 432t392 251zM865 622q0 212 -168 212q-156 0 -258.5 -152t-102.5 -303q0 -103 50.5 -169.5t142.5 -66.5q146 0 241 140.5t95 338.5z" />
    <glyph glyph-name="epsilon" unicode="&#x3b5;" horiz-adv-x="1007" 
d="M374 555q-85 98 -85 185q0 110 127.5 211.5t258.5 101.5q133 0 224 -51t91 -126q0 -96 -102 -96q-32 0 -90 45q-56 47 -151 47q-39 0 -110 -37t-71 -92q0 -37 19 -59.5t86 -55.5q69 -36 88 -55.5t19 -47.5q0 -50 -37.5 -72.5t-131.5 -22.5q-60 0 -108 -71.5t-48 -120.5
t63.5 -80t133.5 -31q63 0 166 55q103 56 123 56q34 0 54.5 -24.5t20.5 -56.5q0 -72 -129.5 -140t-260.5 -68q-159 0 -255.5 70.5t-96.5 182.5q0 83 45.5 184t156.5 169z" />
    <glyph glyph-name="zeta" unicode="&#x3b6;" horiz-adv-x="1052" 
d="M814 1346q-45 -5 -142 -21q-80 -10 -139 -10q-140 0 -185.5 19t-45.5 78q0 110 119 110q35 0 72 -5q36 -6 71 -6q94 0 299 19q196 18 297 18q59 0 59 -60q0 -53 -36.5 -92.5t-84.5 -39.5q-71 0 -292.5 -216t-357 -433.5t-135.5 -357.5q0 -79 43 -133t230 -96
q195 -44 234.5 -101t39.5 -129q0 -156 -132.5 -231t-339.5 -75q-85 0 -85 83q0 109 179 116q103 3 138.5 23.5t35.5 70.5q0 44 -82 60q-285 48 -365.5 122.5t-80.5 226.5q0 155 70.5 323t193 311t422.5 426z" />
    <glyph glyph-name="eta" unicode="&#x3b7;" horiz-adv-x="1072" 
d="M475 846q202 223 381 223q216 0 216 -269q0 -65 -11 -151l-36 -228q-10 -73 -19 -304q-3 -108 -17.5 -265t-22.5 -193.5t-40.5 -61.5t-73.5 -25q-80 0 -80 82q0 60 23.5 390.5t38.5 416.5q3 14 7 38q13 92 30 152q10 62 10 106q0 109 -58 109q-132 0 -269 -173t-167 -309
q-6 -25 -14 -54q-21 -69 -25 -135l-10 -126q-5 -54 -37.5 -85t-79.5 -31q-84 0 -84 78l15 164q6 97 63 323q56 232 70 381l9 84q5 48 38 78.5t80 30.5q81 0 81 -101z" />
    <glyph glyph-name="theta" unicode="&#x3b8;" horiz-adv-x="1250" 
d="M571 -39q-439 0 -439 566q0 443 209 735t515 292q220 0 330.5 -150.5t110.5 -382.5q0 -193 -83.5 -474t-245.5 -433.5t-397 -152.5zM1087 883q8 72 8 133q0 346 -270 346q-164 0 -291.5 -145.5t-173.5 -358.5q121 27 727 25zM1050 682q-559 5 -716 -20q-5 -60 -5 -112
q0 -396 273 -396q320 0 448 528z" />
    <glyph glyph-name="iota" unicode="&#x3b9;" horiz-adv-x="574" 
d="M433 1053q97 0 97 -101q0 -36 -21 -136q-10 -45 -20 -97q-5 -32 -21 -87q-40 -138 -40 -260q0 -204 116 -204q119 0 119 -63q0 -39 -23 -89.5t-96 -50.5q-329 0 -329 366q0 134 85 510q17 77 25 120q7 39 38 65.5t70 26.5z" />
    <glyph glyph-name="kappa" unicode="&#x3ba;" horiz-adv-x="1106" 
d="M629 551q23 -19 47 -35q62 -42 216 -199t154 -236q0 -46 -33.5 -79t-76.5 -33q-52 0 -82 41q-36 53 -112 129q-23 24 -46 51q-112 125 -231 213q-38 28 -70 68q-17 -110 -30 -221l-18 -131q-9 -65 -21 -89.5t-39.5 -41.5t-61.5 -17q-83 0 -83 77l35 268q20 167 56 335
l46 216q12 60 22 118q6 45 37.5 72.5t75.5 27.5q85 0 85 -82q0 -32 -81 -405q59 80 220 183q114 73 298 243q58 53 100 53q81 0 81 -83q0 -41 -33.5 -89t-147 -140.5t-209.5 -147.5q-52 -29 -98 -66z" />
    <glyph glyph-name="lambda" unicode="&#x3bb;" horiz-adv-x="996" 
d="M663 748q-42 -84 -84 -154l-78 -149q-116 -225 -189.5 -339.5t-101.5 -134.5t-72 -20q-35 0 -58 23.5t-23 56.5q0 40 34 86q80 98 160 258l103 196q101 187 128 259q52 137 111 188l16 12q-18 71 -41 135q-7 17 -14 43q-32 109 -168 109q-139 0 -139 85q0 50 38.5 85
t94.5 35q255 0 348.5 -160t154.5 -652q21 -168 59 -347.5t50 -215.5q14 -31 14 -61q0 -46 -32 -78.5t-72 -32.5q-69 0 -100 53t-49 214q-8 69 -27 131q-23 93 -63 375z" />
    <glyph glyph-name="uni03BC" unicode="&#x3bc;" horiz-adv-x="1065" 
d="M289 -14q-3 -53 -10.5 -220t-126.5 -167q-78 0 -78 100q0 28 6 65l90 494l10 183q6 102 21.5 206t50 223.5t50 145t38.5 38.5t53 13q40 0 64 -22t24 -56q0 -36 -40 -172q-32 -99 -54 -255t-22 -272q0 -58 6 -100q61 -36 121 -36q134 0 293 43l57 397q16 110 48.5 261
t65.5 178.5t78 27.5q44 0 67 -27.5t15 -70.5l-77 -379q-6 -29 -33 -215l-35 -217q-2 -15 -6 -67q-6 -75 -15.5 -97.5t-38 -45t-69.5 -22.5q-76 0 -82 94q-135 -63 -299 -63q-96 0 -172 35z" />
    <glyph glyph-name="nu" unicode="&#x3bd;" horiz-adv-x="996" 
d="M567 223q114 139 193.5 327.5t97.5 326.5q17 107 45.5 142.5t79.5 35.5q75 0 75 -80q0 -167 -122 -452.5t-340 -508.5q-24 -55 -94 -55q-71 0 -92 86l-88 408l-107 458q-4 17 -4 45q0 27 35.5 64t85.5 37q59 0 76 -62z" />
    <glyph glyph-name="xi" unicode="&#x3be;" horiz-adv-x="1052" 
d="M500 903q-78 20 -133 82t-55 136q0 84 61 206t208 193t380 71q85 0 85 -81q0 -49 -34.5 -82t-83.5 -33q-220 0 -315 -75.5t-95 -173.5q0 -43 33.5 -64.5t149.5 -29.5q108 -8 145 -32.5t37 -72.5q0 -51 -33.5 -85.5t-72.5 -34.5q-184 0 -323.5 -162.5t-139.5 -315.5
q0 -57 19.5 -93.5t50.5 -61t111 -48.5t237 -68q127 -55 127 -191q0 -153 -132 -228t-339 -75q-85 0 -85 83q0 109 179 116q103 3 138.5 23.5t35.5 70.5q0 44 -82 60q-285 48 -365.5 122.5t-80.5 226.5q0 207 118 374t254 243z" />
    <glyph glyph-name="omicron" unicode="&#x3bf;" horiz-adv-x="1077" 
d="M121 342q0 265 172 479.5t435 214.5q150 0 229.5 -105t79.5 -279q0 -285 -160 -498t-397 -213q-163 0 -261 115t-98 286zM675 834q-156 0 -256 -154.5t-100 -311.5q0 -104 54.5 -164.5t139.5 -60.5q132 0 233 120t101 355q0 216 -166 216h-6z" />
    <glyph glyph-name="pi" unicode="&#x3c0;" horiz-adv-x="1286" 
d="M1053 434q-40 -129 -58 -244q0 -7 56 -61q35 -29 35 -58q0 -34 -25 -69t-84 -35q-73 0 -126.5 47.5t-53.5 117.5q0 71 61 288l131 428l-307 10l-135 -452l-39 -172q-43 -187 -55.5 -215t-36 -45t-60.5 -17q-41 0 -65.5 27t-18.5 65l220 811q-88 -3 -152 -49
q-57 -45 -86 -45q-34 0 -59.5 24.5t-25.5 56.5q0 68 105.5 135t301.5 67l546 -9h41q24 0 56 2l56 2q84 3 106 -17t22 -55q0 -68 -48 -96t-175 -28z" />
    <glyph glyph-name="rho" unicode="&#x3c1;" horiz-adv-x="1077" 
d="M267 27q-18 -73 -27 -117q-33 -164 -70.5 -244t-108.5 -80q-86 0 -86 78q0 23 6 37q109 366 170 756q38 249 204 414t392 165q157 0 232.5 -110t75.5 -280q0 -275 -160 -490t-396 -215q-137 0 -232 86zM867 616q0 218 -167 218q-154 0 -258.5 -148.5t-104.5 -332.5
q0 -210 195 -210q148 0 241.5 135t93.5 338z" />
    <glyph glyph-name="sigma1" unicode="&#x3c2;" horiz-adv-x="1052" 
d="M955 776q-13 0 -88 49q-67 49 -182 49q-105 0 -238.5 -195t-133.5 -331q0 -98 52 -143t221 -86q125 -30 172 -51.5t74.5 -67t27.5 -110.5q0 -155 -131.5 -230.5t-340.5 -75.5q-85 0 -85 83q0 111 179 115q82 2 128 20t46 75q0 44 -82 60q-270 40 -358.5 114.5
t-88.5 233.5q0 264 199.5 521t388.5 257q107 0 225 -51t118 -125q0 -40 -31.5 -75.5t-71.5 -35.5z" />
    <glyph glyph-name="sigma" unicode="&#x3c3;" horiz-adv-x="1077" 
d="M1012 854q44 -77 44 -258q0 -339 -167 -497t-430 -158q-144 0 -241.5 115t-97.5 278q0 125 76 271.5t219.5 259.5t294 144t435.5 31q156 0 156 -81q0 -44 -28.5 -79.5t-84.5 -35.5q-38 0 -176 10zM819 846q-156 -18 -271 -103t-169.5 -177t-54.5 -208q0 -227 190 -227
q137 0 240.5 93.5t103.5 373.5q0 87 -20 125q-30 52 -30 73q0 31 11 50z" />
    <glyph glyph-name="tau" unicode="&#x3c4;" horiz-adv-x="965" 
d="M696 852q-34 -175 -47 -220q-40 -141 -40 -263q0 -92 33.5 -146.5t92.5 -54.5q119 0 119 -63q0 -36 -22 -88t-97 -52q-328 0 -328 362q0 133 85 523q-198 9 -240.5 24.5t-41.5 59.5q-1 47 31.5 85t82.5 38q48 0 104 -8q61 -9 103 -9h43q23 13 51 13q29 0 51 -13h51l94 11
q51 6 93 6q84 0 112 -19t28 -59q0 -115 -136 -115q-138 0 -222 -12z" />
    </font>
</defs>
</svg>
