<?xml version="1.0" standalone="no"?>
<!DOCTYPE svg PUBLIC "-//W3C//DTD SVG 1.1//EN" "http://www.w3.org/Graphics/SVG/1.1/DTD/svg11.dtd" >
<svg xmlns="http://www.w3.org/2000/svg" xmlns:xlink="http://www.w3.org/1999/xlink" version="1.1">
<metadata>
Created by FontForge 20190801 at Tue Mar 17 06:00:39 2020
 By www-data
Typeface (c) Lettersiro 2018. All Rights Reserved
</metadata>
<defs>
<font id="KeroKero51BBx" horiz-adv-x="1057" >
  <font-face 
    font-family="KeroKero51BBx"
    font-weight="400"
    font-stretch="normal"
    units-per-em="2048"
    panose-1="2 0 5 0 0 0 0 0 0 0"
    ascent="1638"
    descent="-410"
    x-height="1129"
    cap-height="1502"
    bbox="-133.009 -533.128 1877 1821"
    underline-thickness="150"
    underline-position="-292"
    unicode-range="U+001D-2265"
  />
<missing-glyph horiz-adv-x="874" 
d="M0 0v1434h824v-1434h-824zM50 50q353 159 724 0v1334q-384 -118 -724 0v-1334zM319 334l57 58q11 10 20 10q10 0 22 -11l56 -60q9 -11 9 -20q0 -11 -10 -22l-56 -62q-14 -14 -21 -14q-11 0 -20 10l-61 71q-7 9 -7 18q0 10 11 22zM313 1191q53 30 112 30q92 0 148 -47.5
t56 -127.5q0 -49 -23 -98.5t-87 -129.5q-63 -80 -99 -132t-36 -99q0 -38 24 -133h-32q-35 97 -35 148q0 76 81.5 218t81.5 217q0 57 -33 90t-91 33q-8 0 -16 -1l32 -51q7 -12 5 -21q-2 -11 -14 -20l-66 -50q-17 -11 -24 -10q-10 2 -17 14l-47 81q-5 10 -3 19q1 10 28.5 32.5
t54.5 37.5z" />
    <glyph glyph-name=".notdef" horiz-adv-x="874" 
d="M0 0v1434h824v-1434h-824zM50 50q353 159 724 0v1334q-384 -118 -724 0v-1334zM319 334l57 58q11 10 20 10q10 0 22 -11l56 -60q9 -11 9 -20q0 -11 -10 -22l-56 -62q-14 -14 -21 -14q-11 0 -20 10l-61 71q-7 9 -7 18q0 10 11 22zM313 1191q53 30 112 30q92 0 148 -47.5
t56 -127.5q0 -49 -23 -98.5t-87 -129.5q-63 -80 -99 -132t-36 -99q0 -38 24 -133h-32q-35 97 -35 148q0 76 81.5 218t81.5 217q0 57 -33 90t-91 33q-8 0 -16 -1l32 -51q7 -12 5 -21q-2 -11 -14 -20l-66 -50q-17 -11 -24 -10q-10 2 -17 14l-47 81q-5 10 -3 19q1 10 28.5 32.5
t54.5 37.5z" />
    <glyph glyph-name="uni0000" horiz-adv-x="0" 
 />
    <glyph glyph-name="uni0000" horiz-adv-x="0" 
 />
    <glyph glyph-name="nonmarkingreturn" horiz-adv-x="682" 
 />
    <glyph glyph-name="space" unicode=" " horiz-adv-x="695" 
 />
    <glyph glyph-name="space" unicode="&#xa0;" horiz-adv-x="695" 
 />
    <glyph glyph-name="exclam" unicode="!" horiz-adv-x="506" 
d="M235 334v0q-84 0 -144 -60t-60 -144q0 -85 60 -145t144 -60q85 0 145 60t60 145q0 84 -60 144t-145 60zM0 1469v0q19 -249 37 -498q19 -248 37 -497q171 -22 327 0q16 300 33 599l22 392q-218 31 -456 4z" />
    <glyph glyph-name="quotedbl" unicode="&#x22;" horiz-adv-x="853" 
d="M616 1599v0q-77 0 -132 -61t-55 -144q0 -55 25.5 -94.5t67 -62t90.5 -26.5q7 -36 -19 -77.5t-50 -69.5q-5 -6 -9 -11q74 10 135 56.5t97.5 120t36.5 164.5q0 85 -54.5 145t-132.5 60zM187 1599v0q-78 0 -132.5 -61t-54.5 -144q0 -55 25.5 -94.5t67 -62t90.5 -26.5
q6 -36 -20 -77.5t-50 -69.5q-5 -6 -9 -11q75 10 135.5 56.5t97.5 120t37 164.5q0 85 -55 145t-132 60z" />
    <glyph glyph-name="numbersign" unicode="#" horiz-adv-x="1146" 
d="M229 1242v0l-9 -116l-118 4q-51 -157 -46 -328l141 8l-9 -122l-137 6q-51 -158 -45 -329l159 9l-9 -126q120 -23 235 0l23 139l190 10l-11 -144q120 -23 235 0l27 158l152 8q38 123 30 235l-141 6l32 189l129 7q39 122 30 235l-118 5l25 147q-154 31 -328 4l-10 -139
l-121 5l21 125q-153 31 -327 4zM487 825v0l149 8l-12 -162l-161 6z" />
    <glyph glyph-name="dollar" unicode="$" horiz-adv-x="1051" 
d="M28 1127v0q25 129 106 216t193 134l-31 117q217 7 417 -1l-14 -72q111 -20 188.5 -80.5t96.5 -161.5q17 -122 -31 -196t-125 -93q-82 -19 -153.5 37t-90.5 178q-5 -11 -3 -41t9 -61.5t19 -47.5q-47 13 -87 -15.5t-54 -76t15 -90.5q52 -61 157 -124q79 -49 152.5 -109.5
t109.5 -141t1 -190.5q-27 -79 -83.5 -128t-131.5 -73l25 -126q-200 -8 -417 -1l29 109q-108 16 -187 44t-103 53q-29 83 -0.5 165t78.5 116q35 -31 112 -74.5t154 -56t111 50.5q12 35 -30 72.5t-92 69.5q-17 12 -31 22q-155 107 -246 252t-63 324z" />
    <glyph glyph-name="percent" unicode="%" horiz-adv-x="1418" 
d="M822 286v0q12 149 106.5 222.5t235.5 44.5q110 -27 157 -107t40.5 -176.5t-57.5 -173.5t-137 -99q-148 -28 -249 55t-96 234zM1047 432v0q-17 -6 -20.5 -55.5t1.5 -113t15.5 -111.5t21.5 -51q13 -1 32.5 0.5t31.5 5.5q9 6 14 53.5t4 109.5t-9 109.5t-23 52.5q-14 2 -34 2
t-34 -2zM5 1187v0q12 149 106.5 222.5t235.5 44.5q110 -27 157.5 -107t40.5 -176.5t-58 -173.5t-137 -99q-148 -28 -249 55t-96 234zM230 1333v0q-17 -6 -20.5 -55.5t2 -113t15.5 -111.5t21 -51q13 -1 32.5 1t31.5 5q9 6 14 53.5t4 109.5t-8.5 109.5t-23.5 52.5q-14 2 -34 2
t-34 -2zM727 1488v0l-493 -1480q82 -19 185.5 -18.5t189.5 14.5l572 1478q-202 46 -454 6z" />
    <glyph glyph-name="ampersand" unicode="&#x26;" horiz-adv-x="1067" 
d="M184 725v0q-78 -83 -113.5 -183t-29.5 -188q10 -107 79 -183t173.5 -116.5t221.5 -41.5q153 0 269 63t166.5 177t5.5 268l57 12q4 104 -35 182q-105 -27 -211 -54q-107 -26 -211 -53q-9 -97 48 -163l73 16q4 -60 -20.5 -128t-91.5 -83q-70 -7 -124 50t-41 154.5
t146 211.5l-4 138q-127 41 -173 116t-32.5 153.5t64 127.5t116 36.5t124.5 -118.5q18 17 40.5 28.5t41.5 13.5q-89 -55 -100 -128t33.5 -127.5t121.5 -55.5q50 2 99 36.5t77 99t14 154.5q-24 127 -99.5 205.5t-181 111.5t-218.5 25q-178 -15 -286.5 -94.5t-145.5 -195.5
t-0.5 -240t147.5 -227z" />
    <glyph glyph-name="quotesingle" unicode="'" horiz-adv-x="425" 
d="M188 1599v0q-78 0 -133 -61t-55 -144q0 -55 26 -94.5t67 -62t91 -26.5q6 -36 -20 -77.5t-50 -69.5q-5 -6 -9 -11q74 10 135 56.5t98 120t37 164.5q0 85 -55 145t-132 60z" />
    <glyph glyph-name="parenleft" unicode="(" horiz-adv-x="650" 
d="M144 1493v0q-82 -252 -113 -501t11 -494t177 -485q85 -19 166.5 -16.5t159.5 16.5q-142 369 -126 737.5t181 736.5q-218 46 -456 6z" />
    <glyph glyph-name="parenright" unicode=")" horiz-adv-x="651" 
d="M456 1493v0q83 -252 114 -501t-11 -494t-177 -485q-86 -19 -167 -16.5t-159 16.5q142 369 125.5 737.5t-181.5 736.5q219 46 456 6z" />
    <glyph glyph-name="asterisk" unicode="*" horiz-adv-x="750" 
d="M212 1509v0l7 -97l-65 61q-85 -71 -154 -146l130 -159l-99 -120q69 -75 154 -146l168 156l161 -150q86 71 155 146l-99 120l130 159q-69 75 -154 146l-86 -79l8 108q-68 5 -124.5 5.5t-131.5 -4.5z" />
    <glyph glyph-name="plus" unicode="+" horiz-adv-x="819" 
d="M184 1072v0l8 -182l-179 8q-11 -105 -12 -192t9 -202l199 9l8 -184q171 -17 327 0l9 200l200 9q16 170 0 326l-184 8l9 197q-106 11 -192.5 12t-201.5 -9z" />
    <glyph glyph-name="comma" unicode="," horiz-adv-x="424" 
d="M187 340v0q-78 0 -132.5 -60.5t-54.5 -143.5q0 -55 25.5 -95t67 -62t90.5 -26q6 -37 -20 -78.5t-50 -69.5q-5 -6 -9 -10q75 10 135.5 56t97.5 120t37 165q0 85 -55 144.5t-132 59.5z" />
    <glyph glyph-name="hyphen" unicode="-" horiz-adv-x="819" 
d="M9 465v0l744 33q16 171 0 327l-740 33q-11 -105 -12 -191.5t8 -201.5z" />
    <glyph glyph-name="hyphen" unicode="&#xad;" horiz-adv-x="819" 
d="M9 465v0l744 33q16 171 0 327l-740 33q-11 -105 -12 -191.5t8 -201.5z" />
    <glyph glyph-name="period" unicode="." horiz-adv-x="460" 
d="M205 340v0q-85 0 -145 -59.5t-60 -144.5t60 -145t145 -60t145 60t60 145t-60 144.5t-145 59.5z" />
    <glyph glyph-name="slash" unicode="/" horiz-adv-x="997" 
d="M493 1485q252 40 454 -6l-571 -1478q-87 -14 -190.5 -14.5t-185.5 18.5l493 1480v0z" />
    <glyph glyph-name="zero" unicode="0" horiz-adv-x="1137" 
d="M10 778v0q14 251 105 421.5t238 240.5t330 20q174 -54 267 -199.5t115 -335t-17.5 -377t-131.5 -325.5t-226 -180q-192 -51 -350 31.5t-249 266.5t-81 437zM681 761v0q-7 208 -53 310t-103.5 101.5t-97 -101t-33.5 -297.5q20 -330 91 -442.5t134.5 -5t61.5 434.5z" />
    <glyph glyph-name="one" unicode="1" horiz-adv-x="636" 
d="M130 1463q237 39 456 -6q-14 -361 -28 -723q-14 -361 -27 -723q-79 -14 -160 -16.5t-167 16.5l-55 1082l-149 1l15 202l115 167v0z" />
    <glyph glyph-name="two" unicode="2" horiz-adv-x="1023" 
d="M963 15v0l-929 -3q-34 47 -32.5 127.5t32.5 164.5q19 22 43 51q100 118 230.5 281t217.5 298q57 98 27.5 160t-94.5 72.5t-116 -47.5q-17 17 -38 28.5t-40 13.5q84 -56 93.5 -129t-34 -127.5t-115.5 -55.5q-48 2 -94 37t-71 99t-11 154q30 151 124.5 233t219.5 103
t247 -13t206.5 -116t98.5 -205q7 -133 -76.5 -282.5t-199.5 -282.5t-207 -219q14 1 30 3q66 7 152.5 7t167.5 -28t129.5 -104t38.5 -220z" />
    <glyph glyph-name="three" unicode="3" horiz-adv-x="1053" 
d="M820 724v0q77 -82 113 -182.5t29 -187.5q-9 -107 -78 -183t-174 -117t-221 -42q-160 0 -279.5 69t-164.5 192.5t17 288.5l272 -58q-10 -24 -7 -81t29 -109.5t82 -63.5q70 -8 124.5 49.5t41 155t-146.5 210.5l5 139q127 40 172.5 115.5t32 153.5t-64 127t-116 36.5
t-123.5 -117.5q-18 17 -41 28.5t-42 13.5q90 -56 101 -129t-34 -127.5t-121 -55.5q-50 2 -99.5 37t-77 99t-13.5 154q23 128 98.5 206t181 111t219.5 25q178 -14 286 -93.5t145 -195.5t1 -240t-147 -228z" />
    <glyph glyph-name="four" unicode="4" horiz-adv-x="1039" 
d="M443 1463q234 39 449 -6q-7 -207 -7 -414t-7 -414q24 1 44 2q21 0 45 1q22 -117 -7 -230q-25 -2 -46 -3q-21 -2 -45 -3q-8 -193 -15 -385q-79 -14 -164.5 -16.5t-171.5 16.5l-10 178q-4 93 -9 185l-236 -14l-236 -14q-27 120 -19 245l218 436q108 218 217 436v0zM486 616
q-4 94 -9 187q-5 94 -10 187q-33 -97 -66 -195q-31 -92 -63 -184q38 2 76 3l72 2v0z" />
    <glyph glyph-name="five" unicode="5" horiz-adv-x="983" 
d="M907 1483q10 -152 -36 -233t-123.5 -111.5t-159.5 -32t-143 4.5q-3 0 -7 1l2 -88q178 16 291 -73.5t157.5 -235.5t16.5 -300t-132.5 -267t-290.5 -136q-158 -15 -287 72t-170 272q-25 144 20.5 227.5t122 108.5t144 -5.5t87.5 -115.5q9 -63 -32 -128.5t-110 -108.5
q18 2 39.5 13.5t38.5 28.5q79 -93 156 -65q77 30 104 120.5t-12 187.5t-159.5 145.5t-339.5 -6.5q-20 62 -27 213t1 293t31 180l818 39v0z" />
    <glyph glyph-name="six" unicode="6" horiz-adv-x="1037" 
d="M925 1469q22 -64 20.5 -161.5t-22.5 -140.5q-60 -2 -148.5 -12.5t-168.5 -40.5t-112 -90q178 16 291 -73.5t157.5 -235.5t16.5 -300t-133 -267t-290 -136q-189 -14 -311 92t-173.5 283.5t-26.5 377t130.5 371.5t296.5 267.5t473 65.5v0zM383 394q28 -79 76.5 -125
t90.5 -44q65 10 96 103.5t28.5 212.5t-39 205.5t-107.5 83.5q-33 -4 -63.5 -41t-48.5 -114q-52 24 -100 19q1 -1 2 -1q55 -14 94 -39t51 -90q9 -54 -12.5 -102.5t-67.5 -67.5v0z" />
    <glyph glyph-name="seven" unicode="7" horiz-adv-x="834" 
d="M784 1480q-64 -371 -128 -743q-62 -358 -123 -716q-79 -14 -160 -16t-166 16q37 268 85 541t85 541q-76 2 -177 4q-100 2 -176 5q-24 94 -17 184.5t28 185.5q213 6 440 0q166 -3 309 -2v0z" />
    <glyph glyph-name="eight" unicode="8" horiz-adv-x="1013" 
d="M57 1120v0q17 171 132 267.5t293 96.5q165 -5 266 -77t136.5 -180.5t1 -221.5t-141.5 -199q128 -73 173.5 -193t20 -248.5t-111 -227t-218.5 -126.5q-168 -31 -307.5 18t-220 158.5t-71.5 260.5q25 245 211 354q-82 53 -125.5 134t-37.5 184zM425 653v0q-30 -8 -41.5 -73
t-8.5 -148.5t16 -146.5t32 -68q23 -1 62.5 0.5t60.5 7.5q16 8 27.5 71t13.5 144t-8 143.5t-37 70.5q-24 3 -59 3t-58 -4zM415 1282v0q-26 -7 -33.5 -63.5t-1.5 -129t20.5 -127t31.5 -57.5q19 -1 50 1t50 7q14 7 23 61t9.5 124t-9.5 124t-34 60q-22 3 -53 3t-53 -3z" />
    <glyph glyph-name="nine" unicode="9" horiz-adv-x="1037" 
d="M184 22q-15 41 -21 103.5t-2.5 120t17.5 84.5q88 0 178 22.5t137 110.5q-178 -16 -291 73t-157.5 235.5t-16.5 300.5t133 267t290 135q188 15 309.5 -87.5t174 -275t34 -368t-111 -367t-260.5 -272t-413 -82.5v0zM604 1093q-26 75 -56.5 109.5t-62.5 35.5
q-79 -1 -118.5 -87.5t-40 -202t36.5 -204t111 -92.5q31 -2 56.5 33t40.5 127q52 -24 100 -19q-1 1 -2 1q-55 14 -94 39t-51 90q-9 54 12.5 102t67.5 68v0z" />
    <glyph glyph-name="colon" unicode=":" horiz-adv-x="459" 
d="M205 340v0q-85 0 -145 -59.5t-60 -144.5t60 -145t145 -60q84 0 144 60t60 145t-60 144.5t-144 59.5zM205 983v0q-85 0 -145 -60t-60 -144q0 -85 60 -145t145 -60q84 0 144 60t60 145q0 84 -60 144t-144 60z" />
    <glyph glyph-name="semicolon" unicode=";" horiz-adv-x="459" 
d="M204 340v0q-77 0 -132 -60.5t-55 -143.5q0 -55 25.5 -95t67 -62t90.5 -26q7 -37 -19 -78.5t-51 -69.5q-4 -6 -8 -10q74 10 135 56t97.5 120t36.5 165q0 85 -54.5 144.5t-132.5 59.5zM204 1022v0q-85 0 -144.5 -60t-59.5 -145t59.5 -145t144.5 -60t145 60t60 145t-60 145
t-145 60z" />
    <glyph glyph-name="semicolon" unicode="&#x37e;" horiz-adv-x="459" 
d="M204 340v0q-77 0 -132 -60.5t-55 -143.5q0 -55 25.5 -95t67 -62t90.5 -26q7 -37 -19 -78.5t-51 -69.5q-4 -6 -8 -10q74 10 135 56t97.5 120t36.5 165q0 85 -54.5 144.5t-132.5 59.5zM204 1022v0q-85 0 -144.5 -60t-59.5 -145t59.5 -145t144.5 -60t145 60t60 145t-60 145
t-145 60z" />
    <glyph glyph-name="less" unicode="&#x3c;" horiz-adv-x="830" 
d="M768 876v0l-448 -109l442 -147q18 -162 3 -328l-743 181q-22 275 7 550l739 246q11 -102 11 -188.5t-11 -204.5z" />
    <glyph glyph-name="equal" unicode="=" horiz-adv-x="834" 
d="M24 307v0l743 33q17 170 0 326l-739 34q-12 -105 -13 -192t9 -201zM10 830v0l743 33q17 170 0 326l-739 34q-12 -105 -13 -191.5t9 -201.5z" />
    <glyph glyph-name="greater" unicode="&#x3e;" horiz-adv-x="830" 
d="M12 866v0l448 -109l-442 -147q-18 -161 -3 -327l742 180q23 275 -6 550l-740 247q-10 -102 -10 -189t11 -205z" />
    <glyph glyph-name="question" unicode="?" horiz-adv-x="966" 
d="M449 340v0q-85 0 -145 -59.5t-60 -144.5t60 -145t145 -60t145 60t60 145t-60 144.5t-145 59.5zM601 412v0q-164 35 -338 -6q4 10 2 45q-3 49 6 119t55 133q108 138 181 251q56 99 27 161t-94.5 72t-115.5 -48q-17 18 -38.5 29.5t-39.5 12.5q84 -55 93 -128t-34 -127.5
t-116 -55.5q-47 2 -93 37t-71 99t-11 154q30 150 124.5 232.5t219.5 103t247 -13t206.5 -115.5t98.5 -205q6 -134 -77.5 -283.5t-199.5 -282.5q-24 -33 -28.5 -82t-3.5 -82q1 -15 0 -20z" />
    <glyph glyph-name="at" unicode="@" horiz-adv-x="1633" 
d="M873 472v0q9 -153 107.5 -223.5t242.5 -26.5q77 26 137 81.5t102 124.5q109 181 115 369.5t-76.5 351t-239 267.5t-373.5 119q-177 9 -337 -37t-283.5 -152.5t-190.5 -278.5q-77 -201 -65.5 -431.5t137.5 -410.5q113 -147 294 -223t380.5 -86t368.5 39l-54 184
q-129 -38 -290.5 -32t-309 62.5t-235.5 169.5q-96 139 -101 323t53 337q81 196 250 276.5t374 67.5q217 -16 348.5 -143t154.5 -309t-83 -364q-67 -107 -96.5 -125.5t-35.5 26t-1 127.5q9 149 6 307.5t-37 301.5l-296 41l-5 -30q-143 35 -250 3t-174.5 -108.5t-90.5 -172.5
q-50 -211 1.5 -344.5t193 -160.5t359.5 80zM856 602v0q-23 -5 -62 -7.5t-63 -1.5q-22 4 -40 62.5t-24.5 136.5t7.5 139t57 69q49 5 101 -2q30 -7 44.5 -64.5t16 -133t-8 -133.5t-28.5 -65z" />
    <glyph glyph-name="A" unicode="A" 
d="M179 1447q41 59 137.5 91.5t208 26.5t198.5 -63q94 -239 175.5 -656t108.5 -844q-169 -73 -354 -69q-20 145 -49 297q-67 -2 -134 -3q-67 -2 -134 -3q-3 -51 -6 -101t-6 -101q-167 -18 -324 30l179 1395v0v0v0zM669 523q-21 3 -61.5 4.5t-70.5 1.5q-61 244 -152 480
l-16 -264q-8 -131 -17 -262q74 9 159 20q84 11 158 20v0z" />
    <glyph glyph-name="B" unicode="B" horiz-adv-x="1023" 
d="M0 1467q77 54 200.5 64t202.5 -22l1 -11q-51 -18 -85 -49q47 29 123.5 44.5t166.5 -3.5q120 -30 182.5 -111.5t74 -187t-20 -207t-98.5 -171.5q144 -83 185 -225t-5 -287q-35 -111 -113.5 -192.5t-192.5 -106.5q-75 -15 -189.5 -19.5t-228 8t-185.5 48.5q-7 365 -9 714
t-9 714v0zM408 879q97 11 137.5 82.5t33 159t-55 147.5t-127.5 47q-21 -7 -27.5 -68.5t-2 -142t16 -145.5t25.5 -80v0zM588 516v0q-38 100 -99.5 117.5t-123.5 -7.5t-101 -53q72 34 128 29q-17 -63 -16.5 -163.5t13.5 -182t34 -87.5q88 -2 133 54t51.5 137t-19.5 156z" />
    <glyph glyph-name="C" unicode="C" horiz-adv-x="1167" 
d="M877 763q-87 0 -137 30.5t-71 76.5t-21 94q0 73 33 115t82.5 58t101.5 12q-45 24 -112 16q-31 90 -106 80q-85 -18 -130.5 -126t-57.5 -258.5t5 -296t59.5 -239t104.5 -86.5q32 5 71.5 38t70.5 107t37 201q72 24 158 18.5t136 -42.5q-20 -279 -160.5 -429.5
t-356.5 -148.5q-190 8 -319.5 120t-196.5 286t-67.5 368.5t67.5 367.5t208 282.5t355 113.5q175 1 309.5 -109t167.5 -336q9 -73 -13.5 -144.5t-76.5 -120t-141 -48.5v0z" />
    <glyph glyph-name="D" unicode="D" horiz-adv-x="1173" 
d="M0 1521q187 35 380 -2q-35 -15 -68 -43.5t-45 -46.5q47 35 130 62.5t160 29.5q192 -4 318 -112.5t187 -280t60 -364t-61 -365.5t-176 -284t-286 -118q-108 -2 -197 45q0 -11 -1 -22v-21q-161 -31 -327 0l-38 774l-36 748v0zM293 797q31 -26 67.5 -36.5t68.5 -8.5l-6 -152
q-3 -77 -6 -155q26 -102 67 -146t75 -49q56 -6 93.5 86t53 236.5t5 294t-51.5 256.5t-117 124q-36 6 -63.5 -20.5t-36.5 -82.5q59 -18 88 -84t18 -139.5t-72 -114.5t-183 -9v0z" />
    <glyph glyph-name="E" unicode="E" horiz-adv-x="986" 
d="M431 913l352 14q21 -41 27.5 -113t-3 -138.5t-34.5 -92.5l-353 7l-11 -317q55 7 107 18v-109q5 51 26 104t64.5 90t115.5 38q82 -1 144 -61t65 -169q-3 -129 -85 -182.5t-207 -56.5t-256.5 20.5t-233.5 47.5q-67 16 -107 23q1 10 1 19q-16 356 -21 711q-6 362 -22 725
q196 30 462.5 33t462.5 -21q11 -83 4 -187t-28 -178l-460 38l-10 -263v0z" />
    <glyph glyph-name="F" unicode="F" horiz-adv-x="986" 
d="M0 1491q196 30 462.5 33t463.5 -21q10 -83 3 -187t-27 -178l-461 38l-8 -239q-32 -18 -69 -40q-10 -6 -19 -11q101 29 205.5 42t208.5 -1q22 -41 28 -113t-3 -138.5t-34 -92.5q-81 16 -163 24.5t-166 -4.5l-20 -564q-80 -14 -174.5 -15t-182.5 17q-16 363 -22 725
q-5 362 -22 725v0z" />
    <glyph glyph-name="G" unicode="G" horiz-adv-x="1133" 
d="M851 763q-84 0 -132.5 30.5t-69 76.5t-20.5 94q0 73 32 115t80 58t99 12q-44 24 -110 16q-30 90 -102 80q-78 -17 -122 -115.5t-58 -239.5t-1.5 -282.5t46.5 -243.5q39 -105 91 -121.5t99 31t72 132.5q-84 -13 -179 2q-18 48 -21.5 130t11.5 147q231 57 482 19
q26 -105 4.5 -228.5t-85.5 -236.5t-165.5 -184.5t-234.5 -71.5q-184 8 -309.5 120t-190.5 286t-66 368.5t65 367.5t202 282.5t344 113.5q170 1 300 -109t163 -336q8 -73 -13.5 -144.5t-74 -120t-136.5 -48.5v0z" />
    <glyph glyph-name="H" unicode="H" horiz-adv-x="1094" 
d="M0 1502q229 40 441 -6q-5 -128 -9 -264q-5 -137 -10 -265q-48 -22 -82 -56.5t-50 -65.5q58 67 152.5 99t180.5 3l-20 524q230 40 441 -6q-17 -367 -34 -722q-17 -356 -34 -723q-76 -14 -154.5 -16.5t-161.5 16.5l-22 539q-27 49 -101 70t-135 -22l-15 -585
q-78 -14 -170.5 -15.5t-177.5 18.5l-39 1477v0z" />
    <glyph glyph-name="I" unicode="I" horiz-adv-x="506" 
d="M0 1502q237 40 456 -6l-44 -1477q-81 -15 -184 -15.5t-192 18.5l-36 1480v0z" />
    <glyph glyph-name="J" unicode="J" horiz-adv-x="1029" 
d="M523 1502q238 40 456 -6l-21 -751q-10 -256 -84.5 -413.5t-186 -229.5t-233.5 -73q-184 0 -294 70t-138 191q-22 105 10.5 175t95 104.5t130.5 33.5q91 -6 133 -60.5t44 -125t-27 -125.5q19 15 34 46.5t17 59.5q43 -10 67.5 105.5t13.5 306.5l-17 692v0z" />
    <glyph glyph-name="K" unicode="K" horiz-adv-x="1120" 
d="M0 1507q109 39 236 34t224 -39q-7 -173 -13 -345l-14 -358q28 20 80 75.5t99.5 137t61.5 179.5q19 -11 39 -20t35 -9q-89 55 -113.5 130.5t2 147.5t90.5 117.5t154 39.5q95 -11 139 -71.5t47 -142t-26 -157.5q-61 -156 -171.5 -331.5t-190.5 -252.5q45 -105 91 -153
t106.5 -63.5t149.5 -21.5q27 -48 33 -129.5t-2 -158t-25 -109.5q-190 -1 -292 32t-169 128.5t-153 283.5q-3 -102 -7 -212q-3 -110 -7 -211q-173 -40 -356 2q-17 370 -24 739t-24 738v0z" />
    <glyph glyph-name="L" unicode="L" horiz-adv-x="983" 
d="M0 1484q84 13 199.5 17.5t232.5 5.5q13 1 25 1l-46 -1196q55 6 107 17v-109q5 51 26 104.5t64.5 90t115.5 38.5q82 -2 144 -62t65 -169q-3 -129 -85 -182.5t-207 -56t-256.5 20.5t-233.5 48q-67 15 -107 22q0 16 -1 33q-5 254 -16.5 661t-26.5 716v0z" />
    <glyph glyph-name="M" unicode="M" horiz-adv-x="1606" 
d="M0 1499q30 14 113.5 16t180 -3.5t167 -14t75.5 -15.5q13 -104 75 -328.5t158 -411.5l265 754q122 19 265 12.5t257 -29.5l-44 -1444q-81 -14 -184.5 -14.5t-191.5 18.5l-19 760q-25 -61 -53 -135t-54 -135q-83 47 -169 11q40 6 93.5 -5t93 -52.5t38.5 -126.5
q-5 -76 -52.5 -133t-120 -73t-152 28.5t-147.5 171.5q-89 175 -160 395l-21 -696q-81 -14 -184.5 -14.5t-192.5 18.5l-18 736l-18 710v0z" />
    <glyph glyph-name="N" unicode="N" horiz-adv-x="1238" 
d="M0 1499q262 36 504 -12q44 -142 74 -244q44 -150 77.5 -251.5t77.5 -203.5l-23 723q236 39 454 -6q-8 -264 -16 -527l-16 -528q-84 27 -178 8q61 -4 115 -20.5t86.5 -63t29.5 -143.5q-4 -88 -72.5 -148.5t-186.5 -61.5q-93 4 -166 76.5t-128.5 183t-96 229t-68.5 213.5
q-21 72 -36 115l-20 -789q-81 -14 -183.5 -14.5t-191.5 18.5l-36 1446v0z" />
    <glyph glyph-name="O" unicode="O" horiz-adv-x="1237" 
d="M610 1517q200 -4 328 -111.5t188.5 -278t56.5 -362.5t-68 -364.5t-186 -285t-297 -123.5q-174 -5 -302.5 86t-206.5 243.5t-100.5 332.5t15.5 353q18 7 43.5 6.5t44.5 -5.5q-30 164 29.5 277.5t180 172t274.5 59.5v0zM338 793q58 -51 117 -45q-3 -46 -1 -127.5
t17.5 -167.5t53 -145t106.5 -61q59 5 95.5 101t48.5 239t-2.5 288t-58.5 248t-119 120q-37 6 -65.5 -20.5t-37.5 -82.5q61 -19 91 -85t18.5 -139.5t-74.5 -114t-189 -8.5v0z" />
    <glyph glyph-name="P" unicode="P" horiz-adv-x="1189" 
d="M0 1510q220 36 424 0q-42 -22 -78.5 -50t-52.5 -52q3 2 5 3q55 38 129.5 69.5t185.5 29.5q210 -11 332 -131t158 -293.5t-11 -346t-174.5 -288.5t-332.5 -122q-97 0 -172 23l-12 -322q-79 -14 -160 -16.5t-167 16.5q-18 370 -37 740t-37 740v0zM437 958q-64 3 -117 -33
q109 30 172 2t81.5 -83.5t-6.5 -106t-93 -65.5q0 -63 33 -99.5t71 -32.5q75 12 118.5 93t58.5 195.5t2.5 227t-49 188.5t-95.5 79q-85 -2 -124 -65.5t-48 -148.5t-4 -151v0z" />
    <glyph glyph-name="Q" unicode="Q" horiz-adv-x="1234" 
d="M610 1520q196 -4 323.5 -108.5t189 -270.5t60.5 -354.5t-61.5 -360.5t-176.5 -288l47 -113q-107 -89 -268 -104l-28 85q-31 -6 -65 -7q-174 -5 -302 86t-206 243t-100.5 331.5t15.5 351.5q18 7 43 6.5t44 -4.5q-29 163 30 276t179.5 171.5t275.5 59.5v0zM534 503v0
q63 83 204 133l33 -80q16 145 3 298.5t-57 264t-122 128.5q-38 6 -66.5 -20.5t-36.5 -82.5q60 -19 90 -84.5t19 -139t-74.5 -114t-188.5 -8.5q57 -51 116 -45q-2 -45 -0.5 -123t15.5 -161.5t48.5 -144t97.5 -70.5z" />
    <glyph glyph-name="R" unicode="R" horiz-adv-x="1167" 
d="M0 1511q220 36 424 0q-41 -23 -78 -51t-52 -51q2 2 5 3q54 38 128.5 69t186.5 30q170 -8 282 -87t166.5 -201t53.5 -260t-50 -262.5t-144.5 -207t-235.5 -96.5q73 -77 156.5 -94t199.5 0q13 -6 18.5 -61t4.5 -124.5t-8 -122t-19 -53.5q-59 -8 -163.5 6t-228.5 79.5
t-241 210.5l-4 -207q-78 -14 -159.5 -16.5t-166.5 16.5l-38 752q-18 364 -37 728v0zM437 959q-63 3 -117 -33q109 30 172.5 1.5t81.5 -83.5t-7 -105.5t-92 -65.5q7 -46 54 -67t106 1t101 104.5t41 244.5q-4 133 -46.5 233t-116.5 106q-85 -1 -124 -58t-48.5 -135t-4.5 -143
v0z" />
    <glyph glyph-name="S" unicode="S" horiz-adv-x="1113" 
d="M29 1109v0q31 153 135 251.5t244 142t278 31.5t237 -78t122 -186q18 -130 -33 -208.5t-133 -98.5q-86 -21 -162.5 38.5t-96.5 190.5q-5 -12 -3 -44t9.5 -65.5t19.5 -50.5q-50 14 -92 -16.5t-57 -81t16 -96.5q26 -33 69.5 -65t96.5 -66q84 -52 162.5 -116.5t116.5 -150
t1 -201.5q-42 -117 -138.5 -173t-219.5 -67.5t-242.5 5.5t-207 47t-114.5 58q-30 88 0 175t84 124q26 -24 81 -58t119 -59.5t118.5 -22.5t80.5 55q13 37 -31.5 76.5t-97.5 74.5q-19 12 -34 22q-163 114 -260 268t-68 345z" />
    <glyph glyph-name="T" unicode="T" horiz-adv-x="1174" 
d="M736 1491l-16 -116q26 93 82 134.5t120 37.5q90 -7 146 -74.5t52.5 -151.5t-91 -143t-285.5 -50l-32 -1101q-82 -13 -185 -13.5t-192 17.5l-28 1126q-218 37 -285 65q-22 86 -19 169.5t34 143.5q343 -72 699 -44v0z" />
    <glyph glyph-name="U" unicode="U" horiz-adv-x="1156" 
d="M0 1505q238 35 456 -5q-18 -48 -30.5 -178.5t-14.5 -297t11.5 -323t47.5 -256.5t93 -98q49 9 77.5 107.5t40.5 248t10.5 310t-13 293.5t-28.5 199q237 35 456 -5l-27 -774q-10 -238 -87.5 -390t-193.5 -225t-242 -73q-135 -1 -253 74t-194 217t-85 342l-24 834v0z" />
    <glyph glyph-name="V" unicode="V" horiz-adv-x="1221" 
d="M272 1594q67 0 120 -28t87.5 -74t47.5 -103q25 -113 -25.5 -178.5t-156.5 -98.5q64 1 129 31q14 -183 32 -365.5t39 -304.5t42 -125q27 18 55 232.5t48 481.5t25 443q237 35 456 -5q-10 -110 -32 -288t-62.5 -379t-105.5 -380.5t-160.5 -294t-229.5 -119.5
q-130 2 -225.5 121t-161.5 306t-107.5 394t-62.5 385q-24 160 43 254.5t205 94.5v0z" />
    <glyph glyph-name="W" unicode="W" horiz-adv-x="1927" 
d="M724 1359q117 18 220 19.5t220 -20.5q-6 -97 4 -217t30.5 -327t45.5 -351.5t49 -148.5q27 18 55 238.5t48 495.5t25 457q237 35 456 -5q-10 -114 -32 -297t-62.5 -390t-105.5 -392t-160.5 -303t-229.5 -123q-104 0 -184 76.5t-141 212.5q43 117 64 267
q-34 -107 -92 -234.5t-146 -221.5t-213 -100q-130 3 -225 124.5t-161 313.5t-107.5 404t-63.5 396q-18 117 20.5 192.5t109 110t149.5 27.5q103 -11 164 -75t72 -151q14 -121 -43 -178t-171 -75q74 -7 152 14q13 -185 31 -364.5t38 -298.5t41 -121q27 12 58 153.5
t56.5 342.5t35.5 320.5t-7 228.5v0z" />
    <glyph glyph-name="X" unicode="X" horiz-adv-x="1240" 
d="M50 1441q180 106 422 57q26 -276 147 -538q96 113 157 258l82 -36q-45 27 -74 63t-29 104q0 67 34 112t85 65.5t104.5 14.5t94.5 -41t55 -101.5t-14 -166.5q-57 -189 -171 -348.5t-263 -302.5l123 80q150 -193 387 -372q-75 -251 -298 -328q-207 134 -397 399
q-68 -82 -105.5 -163t-29.5 -166q-93 -13 -183 -8.5t-177 41.5q34 192 120 330.5t197 250.5q-107 197 -177.5 402.5t-89.5 393.5v0z" />
    <glyph glyph-name="Y" unicode="Y" horiz-adv-x="1155" 
d="M774 391l-32 -369q-81 -5 -184.5 -5.5t-192.5 6.5l-29 365q-113 72 -179 198.5t-98 281t-43.5 311t-14.5 287.5q-1 22 -1 43q237 27 456 -4q-18 -66 -21.5 -203t8.5 -288.5t39.5 -258.5t72.5 -112q45 4 73.5 111.5t40 259t6.5 290t-26 205.5q237 27 456 -4q-2 -33 -3 -68
q-4 -169 -24.5 -359.5t-89 -370.5t-214.5 -316v0z" />
    <glyph glyph-name="Z" unicode="Z" horiz-adv-x="1102" 
d="M1045 284v0q-16 -133 -127.5 -195.5t-266.5 -77t-301 -4.5t-230 21q-16 2 -28 4q-37 40 -58.5 119.5t-4.5 235.5q118 142 280 380t218 380q-78 12 -214.5 -18.5t-234.5 -58.5q-13 -4 -24 -7q-41 98 -47.5 214.5t22.5 188.5q88 27 344 41t541 -26q41 -53 52 -164.5
t-5 -186.5q-58 -144 -142.5 -260t-180.5 -226q-84 -98 -166 -206q32 2 65 6q33 3 65 5q-28 -54 -15 -120q21 122 95 177t161.5 46.5t148 -76.5t53.5 -192z" />
    <glyph glyph-name="bracketleft" unicode="[" horiz-adv-x="676" 
d="M0 1489v0q17 -369 23 -732t22 -732q109 -22 276 -24.5t284 9.5l21 220l-227 -8q7 270 11 532q4 254 10 516l185 -4l21 221l-22 2q-143 14 -295.5 19.5t-308.5 -19.5z" />
    <glyph glyph-name="backslash" unicode="\" horiz-adv-x="997" 
d="M454 1490v0l493 -1480q-82 -19 -185.5 -18.5t-190.5 15.5l-571 1477q202 46 454 6z" />
    <glyph glyph-name="bracketright" unicode="]" horiz-adv-x="676" 
d="M626 1489v0q-17 -369 -22 -732q-6 -363 -23 -732q-108 -22 -275 -24.5t-284 9.5l-22 220l228 -8q-7 270 -11 532q-4 254 -11 516l-184 -4l-22 221l22 2q143 14 295.5 19.5t308.5 -19.5z" />
    <glyph glyph-name="asciicircum" unicode="^" horiz-adv-x="1027" 
d="M394 753v0l109 449l147 -442q161 -19 327 -4l-180 743q-275 22 -550 -6l-247 -740q102 -11 189 -11t205 11z" />
    <glyph glyph-name="underscore" unicode="_" horiz-adv-x="820" 
d="M10 -122v0l743 33q17 170 0 326l-739 34q-12 -105 -13 -192t9 -201z" />
    <glyph glyph-name="a" unicode="a" 
d="M992 -46q-194 -23 -384 25l-4 86v4q-218 -107 -359 -80t-193 160t-2 345q24 96 91 172t174 108.5t250 -3.5q-16 91 -145 114q4 38 -12 73q3 -70 -49.5 -124.5t-121.5 -54.5q-68 0 -108.5 52.5t-39.5 123.5t55.5 131.5t175 80t319.5 -31.5q150 -43 229.5 -153t109 -260
t29.5 -312.5t-9 -310.5q-4 -77 -6 -145v0zM588 198q18 7 27.5 65.5t8.5 133.5t-16 133t-45 64q-52 8 -101 3q-43 -9 -57 -70t-7.5 -138.5t24.5 -136t40 -62.5q24 -1 63 1t63 7v0z" />
    <glyph glyph-name="b" unicode="b" horiz-adv-x="1116" 
d="M402 37v0v-14t-1 -14q-158 -36 -326 0q-19 370 -37 740l-38 740q227 40 456 -6q-3 -82 -6 -163l-6 -164q-33 -23 -58.5 -56.5t-33.5 -54.5q98 91 212.5 95.5t221 -57.5t179.5 -169.5t88 -240.5q13 -143 -26.5 -280t-123 -237.5t-204.5 -131.5q-160 -36 -297 13zM479 879
v0q-31 -12 -37.5 -109t3 -222t28.5 -219.5t39 -100.5q23 -1 59.5 2t57.5 11q17 11 26 105t7 215t-16 214.5t-43 103.5q-26 5 -62.5 5t-61.5 -5z" />
    <glyph glyph-name="c" unicode="c" horiz-adv-x="1075" 
d="M10 591v0q22 249 174.5 396t376.5 157q205 1 312 -86.5t129.5 -206t-26 -210.5t-156.5 -99q-94 0 -157.5 64.5t-63.5 156.5q0 42 15 69t38 42t48 22h-2q-16 -1 -43 -8t-47 -26q-24 52 -70.5 50t-83.5 -34q-24 -22 -33.5 -100.5t-5.5 -182.5q4 -100 19 -195
q23 -138 67 -180.5t90.5 -19.5t78.5 82.5t32 126.5l282 1q-9 -180 -112 -279t-251.5 -119.5t-292.5 38t-236 194t-82 347.5z" />
    <glyph glyph-name="d" unicode="d" horiz-adv-x="1120" 
d="M511 9q-69 -2 -140 15q-125 33 -210.5 139.5t-123 251t-17 291t107.5 258.5t249 154q135 31 250 3q-2 60 -4.5 120.5t-4.5 120.5q-1 40 -3 81q-1 20 -1 40q230 56 456 6q-19 -376 -38 -753q-18 -363 -37 -727q-165 -28 -324 0q51 32 70 81q-19 -23 -78.5 -50t-151.5 -31
v0zM591 879q-25 5 -61.5 5t-62.5 -5q-29 -10 -43 -103.5t-15.5 -214.5t7 -215t25.5 -105q22 -8 58 -11t59 -2q20 6 39 100.5t29 219.5t3 222t-38 109v0z" />
    <glyph glyph-name="e" unicode="e" horiz-adv-x="1072" 
d="M397 415v0q-12 -68 26.5 -123.5t77.5 -71.5q6 -41 22 -69q-12 57 1 115t56.5 98.5t121.5 43.5q102 -1 156 -61t42 -139.5t-108.5 -138.5t-294.5 -59q-118 2 -227.5 53.5t-183 166.5t-82.5 306q-4 140 57.5 272.5t176 222.5t269.5 106q136 12 264.5 -57t189.5 -222.5
t-7 -395.5q-132 -11 -239 -20q-142 -12 -318 -27zM408 620l206 19q8 92 0.5 157.5t-36.5 87.5q-22 13 -56 9.5t-56 -18.5q-38 -28 -48 -93.5t-10 -161.5v0z" />
    <glyph glyph-name="f" unicode="f" horiz-adv-x="862" 
d="M603 870q-84 -22 -166 55l9.5 -13.5t26.5 -31t41 -30.5q-2 -36 -3 -71l-2 -70q59 9 110 18q51 8 109 17q32 -161 -4 -284q-61 -5 -114 -8q-51 -4 -109 -8q-7 -200 -13 -400q-7 -200 -13 -400q-168 -27 -327 0q-10 193 -20 387l-20 386q-22 -1 -44 -3q-22 -1 -44 -3
q-12 44 -16 97t8 123q21 4 42 7q22 3 44 7l-6 148l-6 148q-6 254 101 385.5t277 156.5q126 18 204 -22t113.5 -113.5t33.5 -158.5q-2 -113 -58.5 -202.5t-153.5 -116.5v0z" />
    <glyph glyph-name="g" unicode="g" horiz-adv-x="1191" 
d="M9 645v0q13 193 94 330t230.5 183.5t367.5 -33.5q0 19 -1 38q180 34 367 22q74 -490 40 -836t-155.5 -552.5t-309.5 -277.5q-192 -70 -315 -46t-182.5 102.5t-58.5 172.5q4 100 68.5 157t151.5 62.5t157.5 -47t86.5 -170.5q9 51 8 101q58 31 93.5 66t39.5 104
q-188 -34 -347 44.5t-251.5 232.5t-83.5 347zM457 911v0q-33 -11 -40.5 -108.5t3 -222t31 -219t42.5 -100.5q24 -2 63 1.5t63 10.5q18 11 27 105t7.5 215.5t-17 214.5t-45.5 103q-28 5 -67.5 5t-66.5 -5z" />
    <glyph glyph-name="h" unicode="h" horiz-adv-x="1033" 
d="M0 1489q240 52 456 -6q-1 -33 -3 -66q-7 -164 -14 -327q136 73 250.5 35.5t189.5 -142t91 -231.5q13 -105 8 -273t-30.5 -329.5t-74.5 -247.5q-167 -14 -319 49q38 140 65 356.5t-1 367.5q-15 81 -39 112.5t-93 24.5q-39 -3 -53.5 -23t-14.5 -63q-4 -176 -8 -353
q-5 -182 -9 -364q-156 -31 -326 0l-38 740q-18 370 -37 740v0z" />
    <glyph glyph-name="i" unicode="i" horiz-adv-x="581" 
d="M82 916q107 -21 206 -10t192 46l-12 -450q-7 -234 -13 -468q-80 -30 -163.5 -35.5t-168.5 4.5q-10 229 -21 457l-20 456v0zM265 1481q110 0 188 -77.5t78 -187.5t-78 -187.5t-188 -77.5q-109 0 -187 77.5t-78 187.5t78 187.5t187 77.5v0z" />
    <glyph glyph-name="j" unicode="j" horiz-adv-x="571" 
d="M72 916q108 -21 207 -10t192 46l-19 -680q-8 -430 -157 -614t-402 -144q-53 150 2 286q59 -20 95.5 59t56 218.5t26 300.5t5.5 305.5t-6 232.5v0zM256 1481q110 0 187.5 -77.5t77.5 -187.5t-77.5 -187.5t-187.5 -77.5t-187.5 77.5t-77.5 187.5t77.5 187.5t187.5 77.5v0z
" />
    <glyph glyph-name="k" unicode="k" horiz-adv-x="1124" 
d="M0 1489q121 30 234.5 26.5t221.5 -32.5q-4 -129 -9 -258q-5 -128 -10 -257q126 128 235 194q103 57 209.5 30.5t151.5 -125.5q41 -110 5 -200t-115 -131q-91 -43 -167 -1.5t-115 130.5q1 -36 12.5 -62.5t26.5 -46.5q-104 -52 -176 -124q76 -104 185.5 -161.5t235.5 -56.5
q21 -116 16 -206.5t-37 -192.5q-148 10 -276 89t-216 193q-3 -71 -5 -141q-3 -74 -6 -147q-163 -36 -326 0q-19 370 -37 740l-38 740v0z" />
    <glyph glyph-name="l" unicode="l" horiz-adv-x="506" 
d="M0 1489q238 40 456 -6q-18 -488 -36 -975q-10 -250 -19 -499q-78 -15 -159.5 -17t-166.5 17l-38 740q-18 370 -37 740v0z" />
    <glyph glyph-name="m" unicode="m" horiz-adv-x="1491" 
d="M0 1146q230 45 456 -6q-2 -26 -4 -51q-1 -25 -3 -51q179 121 283 96.5t150 -156.5q173 134 283 137t170.5 -94t83 -261t20.5 -363.5t-17 -402.5q-82 -32 -166 -42t-170 11q1 178 6 342q5 156 5 270.5t-12 159.5q-17 57 -56 47.5t-99 -73.5q13 -256 -11 -565
q-84 -47 -168 -52t-168 21q1 138 2 246q9 285 -14 376q-16 55 -52.5 48t-92.5 -64q-13 -177 -26 -355q-13 -177 -26 -355q-179 -37 -344 4q-11 283 -15 566t-15 567v0z" />
    <glyph glyph-name="n" unicode="n" horiz-adv-x="996" 
d="M0 1146q228 54 456 -6q-2 -22 -3 -45q-2 -20 -3 -41q192 128 299 78.5t150.5 -220t45 -407t-17.5 -481.5q-89 -39 -179.5 -46t-156.5 15q21 222 20 457.5t-20 314.5q-18 59 -59 47t-106 -82q-13 -180 -26 -361l-26 -360q-163 -41 -326 0l-24 568t-24 569v0z" />
    <glyph glyph-name="o" unicode="o" horiz-adv-x="1137" 
d="M10 603v0q25 293 210.5 437.5t462.5 88.5q174 -42 267 -154t115 -258.5t-18 -291t-131.5 -251t-226.5 -138.5q-191 -40 -349 23.5t-249 205.5t-81 338zM453 890v0q-33 -11 -40.5 -108.5t3 -222.5t31 -219t41.5 -100q25 -2 64 1t62 11q19 11 28 105t7 215.5t-17 214.5
t-46 103q-27 5 -66.5 5t-66.5 -5z" />
    <glyph glyph-name="p" unicode="p" horiz-adv-x="1162" 
d="M0 1117q203 60 419 29q-1 -48 -1 -95q-1 -47 -2 -95q97 129 224 171.5t243 -24.5t181 -267q48 -165 22 -345t-125.5 -312.5t-269.5 -157.5q-121 -12 -193 25t-95 108q-2 -114 -3 -228q-2 -114 -4 -227q-172 -33 -345 10q-12 352 -25 704l-26 704v0zM404 430
q53 78 126 95.5t139 -13.5t97.5 -98.5t1.5 -159.5q44 65 39 133q39 178 -13 275t-142 107t-165 -73t-83 -266v0z" />
    <glyph glyph-name="q" unicode="q" horiz-adv-x="1253" 
d="M1112 1117v0q-24 -673 -48 -1347q-2 -31 -3 -61q-172 -43 -344 -10q-2 113 -4 227t-3 228q-24 -71 -96 -108t-192 -25q-171 25 -270 157.5t-125.5 312.5t22.5 345q64 200 180.5 267t243.5 24.5t224 -171.5q-1 48 -2 95t-1 95q216 31 418 -29zM708 430v0q-7 183 -82 266
t-165 73t-142 -107t-13 -275q-6 -68 38 -133q-29 92 2.5 159.5t97 98.5t138.5 13.5t126 -95.5z" />
    <glyph glyph-name="r" unicode="r" horiz-adv-x="937" 
d="M0 1146q173 46 351 -1q-1 -100 -2 -201q0 -100 -1 -201q4 47 27.5 113.5t64.5 132.5t97.5 110.5t126.5 44.5q78 0 128.5 -50t72.5 -123t14 -145.5t-46 -121.5q-64 -73 -153.5 -75t-145.5 88q9 -26 20 -48.5t21 -31.5q-74 -15 -124 -84.5t-80.5 -165.5t-44 -191
t-14.5 -161q-143 -52 -290 -18q-6 282 -11 564t-11 565v0z" />
    <glyph glyph-name="s" unicode="s" horiz-adv-x="806" 
d="M21 829v0q29 142 133.5 220t233.5 92.5t230.5 -34t124.5 -159.5q13 -88 -33 -148.5t-117 -80.5t-133 11t-83 126q1 -20 5.5 -50t17.5 -49q-19 -14 -35 -38t-17 -45q3 -37 41.5 -71t93.5 -70q60 -38 115.5 -85.5t82.5 -110.5t1 -149q-38 -106 -127 -145.5t-192.5 -34.5
t-185.5 32t-107 53q-47 124 16 220q26 -25 84 -59t116 -43.5t84 39.5q9 27 -22.5 56.5t-69.5 54.5q-13 9 -24 17q-116 84 -185 197.5t-48 253.5z" />
    <glyph glyph-name="t" unicode="t" horiz-adv-x="753" 
d="M393 344v0q58 56 130 61.5t125 -44t55 -158.5q-5 -96 -89 -155t-191 -46q-167 25 -255 153t-80 382q3 74 6 149q5 112 10 225l-30 -2q-16 0 -32 -1q-42 108 -9 203l42 2q19 1 38 3q4 70 7 140q173 36 333 0q1 -30 2 -59l2 -60q36 2 73 4q35 3 70 5q32 -106 4 -207
q-36 -2 -71 -4q-36 -2 -71 -4l4 -260l4 -252q-23 -13 -40.5 -30.5t-27 -31z" />
    <glyph glyph-name="u" unicode="u" horiz-adv-x="964" 
d="M914 31q-205 -66 -425 -26l4 42q1 22 3 44q-193 -128 -300 -78.5t-150 220t-44.5 406.5t16.5 482q83 36 167 38.5t169 -7.5q-20 -223 -19 -458t20 -314q18 -60 59 -47.5t105 82.5l26 360t26 361q76 18 157 20.5t169 -20.5q5 -276 9 -553l8 -552v0z" />
    <glyph glyph-name="v" unicode="v" horiz-adv-x="972" 
d="M336 1170q41 -274 64 -463q22 -186 40.5 -280.5t47.5 -87.5q86 17 151 795q67 21 137.5 25t145.5 -18q-36 -406 -98 -656t-149 -365t-200 -116q-188 -12 -293 251.5t-182 880.5q168 60 336 34v0z" />
    <glyph glyph-name="w" unicode="w" horiz-adv-x="1512" 
d="M363 1153q5 -217 31.5 -403t62 -298t67.5 -109q24 6 48.5 76t62.5 208l2 8q-40 210 -78 501q171 70 336 34q41 -274 64 -463q22 -186 40.5 -280.5t47.5 -87.5q44 9 87 208t76 589q50 23 123 25.5t129 -20.5q-35 -406 -92.5 -656t-140 -365t-195.5 -116q-176 -10 -279 218
q-56 -116 -127.5 -166.5t-152.5 -51.5q-188 -12 -293.5 251.5t-181.5 880.5q60 37 163.5 45t199.5 -28v0z" />
    <glyph glyph-name="x" unicode="x" horiz-adv-x="970" 
d="M38 1095q140 82 327 44q20 -214 113 -417q69 82 115 184t55 239q64 14 126 11.5t119 -37.5q-14 -195 -96 -343.5t-190 -266.5q119 -159 313 -305q-58 -194 -230 -254q-160 104 -307 309q-53 -64 -82 -126.5t-23 -128.5q-72 -10 -141.5 -6.5t-136.5 32.5q26 148 92.5 255
t152.5 194q-171 315 -207 616v0z" />
    <glyph glyph-name="y" unicode="y" horiz-adv-x="1106" 
d="M473 -149v0q53 35 86.5 109.5t51.5 176.5q-190 -120 -327 -58.5t-210 239.5t-72.5 409t83.5 450q207 13 342 -104q-14 -46 -29.5 -152.5t-19 -229t17.5 -214t78.5 -107t164.5 90.5q2 310 -17 560q-5 82 -8 142q163 74 368 22q74 -490 40 -836t-155.5 -552.5
t-309.5 -277.5q-192 -70 -315.5 -46t-182.5 102.5t-58 172.5q4 100 68.5 157t151.5 62.5t157.5 -47t85.5 -170.5q9 51 9 101z" />
    <glyph glyph-name="z" unicode="z" horiz-adv-x="1010" 
d="M38 1142v0q182 -8 365 -16q231 -10 463 -20q53 -196 39 -378q-107 -94 -190 -194.5t-133 -241.5q75 5 150 9q82 5 164 9q64 -175 18 -345l-404 24t-404 25q-14 63 -28 127q-13 64 -27 127q83 164 201.5 300.5t261.5 210.5q-234 -47 -467 -93q-34 109 -40.5 222.5
t31.5 233.5z" />
    <glyph glyph-name="braceleft" unicode="{" horiz-adv-x="875" 
d="M369 1490v0q-88 -268 -117 -532q-44 -33 -102.5 -74.5t-104 -72.5t-45.5 -28q0 2 27.5 -22.5t69 -62t85 -77.5t76.5 -70q36 -274 186 -541q85 -19 166 -16.5t160 16.5q-112 291 -126 581q-45 42 -90.5 83.5t-77 69t-31.5 25.5t35 21.5t84 57.5t95 68q39 284 166 568
q-218 46 -456 6z" />
    <glyph glyph-name="bar" unicode="|" horiz-adv-x="506" 
d="M0 1490v0q19 -370 37 -740l38 -740q85 -19 166.5 -16.5t159.5 16.5q14 369 28 737q13 369 27 737q-218 46 -456 6z" />
    <glyph glyph-name="braceright" unicode="}" horiz-adv-x="875" 
d="M456 1490v0q88 -268 116 -532q44 -33 103 -74.5t104.5 -72.5t45.5 -28q0 2 -27.5 -22.5t-69 -62t-85 -77.5t-76.5 -70q-36 -274 -186 -541q-86 -19 -167 -16.5t-159 16.5q112 291 125 581q46 42 91.5 83.5t77 69t31.5 25.5t-35.5 21.5t-84.5 57.5t-94 68
q-39 284 -166 568q218 46 456 6z" />
    <glyph glyph-name="asciitilde" unicode="~" horiz-adv-x="823" 
d="M10 589v0q62 -38 146 -26t178 42q114 37 224 48t197 -60q18 157 2 299q-77 57 -165.5 48.5t-182.5 -39.5q-103 -34 -204 -40.5t-191 71.5q-12 -102 -13 -166.5t9 -176.5z" />
    <glyph glyph-name="exclamdown" unicode="&#xa1;" horiz-adv-x="506" 
d="M0 -56v0q18 248 37 497q19 248 37 497q171 23 327 0l54 -970q0 -10 1 -20q-219 -31 -456 -4zM235 1078v0q-84 0 -144 60t-60 145t60 144.5t144 59.5q85 0 145 -59.5t60 -144.5t-60 -145t-145 -60z" />
    <glyph glyph-name="cent" unicode="&#xa2;" horiz-adv-x="1167" 
d="M887 1451q27 -18 54 -39q134 -110 167 -336q9 -73 -13.5 -144.5t-76.5 -120t-141 -48.5t-137 31q-32 19 -52 45l-166 -509l2 -4q42 -94 104 -87q32 5 71.5 38t70.5 107t37 201q72 24 158 18.5t136 -42.5q-20 -279 -160.5 -429.5t-356.5 -148.5q-89 4 -165 31l-25 -76
l-165 54l36 111q-130 112 -197 286t-67.5 368.5t67.5 367.5t208 282.5t355 113.5q48 0 93 -8l28 85l165 -54zM636 1242q-77 -22 -119 -123q-46 -108 -58 -258q-7 -89 -4 -175zM787 1143q38 9 78 6q-30 16 -71 18z" />
    <glyph glyph-name="sterling" unicode="&#xa3;" horiz-adv-x="1008" 
d="M450 546q-11 -143 -54 -285q54 6 107 17v-109q4 51 25.5 104.5t65 90t115.5 38.5q82 -2 144 -62t65 -169q-3 -129 -85 -182.5t-207 -56.5t-256.5 20.5t-233.5 48.5q-67 15 -107 22q1 10 1 19q-5 120 8 210t32 170q14 58 25 124h-95v149h111q4 109 -15 259
q-23 192 39 316.5t175.5 178t242 31.5t238.5 -123.5t167 -286.5l-176 -120q-87 161 -168 211t-129.5 -17t-36.5 -256q7 -97 7 -193h209v-149h-214z" />
    <glyph glyph-name="currency" unicode="&#xa4;" horiz-adv-x="1137" 
d="M446 1071q-33 -11 -40.5 -108.5t3 -222.5t31 -219t41.5 -100q25 -2 64 1t62 11q19 11 28 105t7 215.5t-17 214.5t-46 103q-27 5 -66.5 5t-66.5 -5zM117 1122l-106 137l159 107l97 -108q171 100 409 52q60 -15 111 -37l75 96l163 -130l-79 -87q90 -111 112 -254
q22 -147 -18 -291q-29 -106 -86 -192l126 -140l-163 -130l-101 129q-60 -40 -134 -57q-191 -40 -349 24q-9 3 -18 7l-90 -100l-159 107l84 107q-37 38 -66 84q-91 142 -81 338q18 206 114 338z" />
    <glyph glyph-name="yen" unicode="&#xa5;" horiz-adv-x="1155" 
d="M231 478q-42 48 -74 109q-66 126 -98 280.5t-43.5 311t-14.5 287.5q-1 22 -1 43q237 27 456 -4q-18 -66 -21.5 -203t8.5 -288.5t39.5 -258.5t72.5 -112q45 4 73.5 111.5t40 259t6.5 290t-26 205.5q237 27 456 -4q-2 -33 -3 -68q-4 -169 -24.5 -359.5t-88.5 -370.5
q-48 -125 -133 -229h108v-166h-197l-3 -37h193v-166h-207l-8 -87q-81 -5 -184.5 -5.5t-192.5 6.5l-7 86h-217v166h204l-3 37h-194v166h83z" />
    <glyph glyph-name="brokenbar" unicode="&#xa6;" horiz-adv-x="506" 
d="M0 1512q237 19 456 -3l-44 -730q-81 -7 -184 -7.5t-192 9.5l-36 731v0zM7 657q237 19 456 -3l-44 -730q-81 -7 -184 -7.5t-192 9.5l-36 731v0z" />
    <glyph glyph-name="section" unicode="&#xa7;" horiz-adv-x="820" 
d="M69 1221v0q28 126 128 194.5t223 81.5t220 -30t119 -141q11 -78 -32.5 -131t-111 -71t-127 10t-79.5 111q1 -17 5.5 -44t16.5 -43q-19 -13 -34 -34t-15 -39q2 -33 39 -63t89 -62q71 -41 132.5 -95.5t69.5 -132.5q4 -41 -11 -75v-1q0 -1 -1 -1q-27 -73 -86 -109.5
t-133 -45.5t-148 1q6 -31 42.5 -60t86.5 -59q57 -34 110 -76t78.5 -97.5t1.5 -131.5q-37 -94 -122 -128.5t-183.5 -30t-177 28t-101.5 47.5q-46 109 14 193q25 -21 80.5 -51.5t111 -39t80.5 35.5q8 24 -22 50t-66 48q-13 8 -23 15q-111 74 -177 174.5t-46 224.5
q18 84 71.5 142.5t127.5 91.5q-81 69 -124 155t-26 188z" />
    <glyph glyph-name="questiondown" unicode="&#xbf;" horiz-adv-x="966" 
d="M470 1094v0q85 0 144.5 60t59.5 145t-59.5 145t-144.5 60t-145 -60t-60 -145t60 -145t145 -60zM318 1023v0q164 -36 338 6q-4 -10 -2 -45q3 -49 -6 -119t-55 -133q-108 -138 -181 -252q-57 -98 -27.5 -160t95 -72.5t115.5 47.5q17 -17 38.5 -28.5t39.5 -13.5
q-84 56 -93 129t34 127.5t116 55.5q47 -2 93 -37t71 -99t11 -154q-30 -151 -124.5 -233t-219.5 -103t-247 13t-206.5 115.5t-98.5 205.5q-6 134 77.5 283t199.5 283q24 32 28.5 81.5t2.5 82.5q0 14 1 20z" />
    <glyph glyph-name="Agrave" unicode="&#xc0;" 
d="M179 1447q41 59 137.5 91.5t208 26.5t198.5 -63q94 -239 175.5 -656t108.5 -844q-169 -73 -354 -69q-20 145 -49 297q-67 -2 -134 -3q-67 -2 -134 -3q-3 -51 -6 -101t-6 -101q-167 -18 -324 30l179 1395v0v0v0zM669 523q-21 3 -61.5 4.5t-70.5 1.5q-61 244 -152 480
l-16 -264q-8 -131 -17 -262q74 9 159 20q84 11 158 20v0zM428 1815h20q25 -23 108 -180v-8q-44 -12 -64 -12h-44q-12 7 -136 152q44 37 116 48z" />
    <glyph glyph-name="Aacute" unicode="&#xc1;" 
d="M179 1447q41 59 137.5 91.5t208 26.5t198.5 -63q94 -239 175.5 -656t108.5 -844q-169 -73 -354 -69q-20 145 -49 297q-67 -2 -134 -3q-67 -2 -134 -3q-3 -51 -6 -101t-6 -101q-167 -18 -324 30l179 1395v0v0v0zM669 523q-21 3 -61.5 4.5t-70.5 1.5q-61 244 -152 480
l-16 -264q-8 -131 -17 -262q74 9 159 20q84 11 158 20v0zM485 1821h8q46 0 124 -40q0 -20 -132 -160h-44q-62 5 -68 20q97 169 112 180z" />
    <glyph glyph-name="Acircumflex" unicode="&#xc2;" 
d="M179 1447q41 59 137.5 91.5t208 26.5t198.5 -63q94 -239 175.5 -656t108.5 -844q-169 -73 -354 -69q-20 145 -49 297q-67 -2 -134 -3q-67 -2 -134 -3q-3 -51 -6 -101t-6 -101q-167 -18 -324 30l179 1395v0v0v0zM669 523q-21 3 -61.5 4.5t-70.5 1.5q-61 244 -152 480
l-16 -264q-8 -131 -17 -262q74 9 159 20q84 11 158 20v0zM510 1804q11 -15 108 -184q-28 -20 -76 -20h-32q-3 0 -56 56l-60 -64h-44q-62 5 -68 20q98 172 112 184q101 8 116 8z" />
    <glyph glyph-name="Atilde" unicode="&#xc3;" 
d="M179 1447q41 59 137.5 91.5t208 26.5t198.5 -63q94 -239 175.5 -656t108.5 -844q-169 -73 -354 -69q-20 145 -49 297q-67 -2 -134 -3q-67 -2 -134 -3q-3 -51 -6 -101t-6 -101q-167 -18 -324 30l179 1395v0v0v0zM669 523q-21 3 -61.5 4.5t-70.5 1.5q-61 244 -152 480
l-16 -264q-8 -131 -17 -262q74 9 159 20q84 11 158 20v0zM518 1725q33 0 56 -28v-108h-12q-12 12 -60 20l-168 -36h-24q-32 0 -32 60v12q0 16 4 72h8q28 -24 56 -24h8q19 0 164 32z" />
    <glyph glyph-name="Adieresis" unicode="&#xc4;" 
d="M179 1447q41 59 137.5 91.5t208 26.5t198.5 -63q94 -239 175.5 -656t108.5 -844q-169 -73 -354 -69q-20 145 -49 297q-67 -2 -134 -3q-67 -2 -134 -3q-3 -51 -6 -101t-6 -101q-167 -18 -324 30l179 1395v0v0v0zM669 523q-21 3 -61.5 4.5t-70.5 1.5q-61 244 -152 480
l-16 -264q-8 -131 -17 -262q74 9 159 20q84 11 158 20v0zM397 1606q-30 0 -51.5 20.5t-21.5 49.5q0 28 21.5 48.5t51.5 20.5t51.5 -20.5t21.5 -48.5q0 -29 -21.5 -49.5t-51.5 -20.5zM582 1609q-30 0 -51.5 20.5t-21.5 49.5q0 28 21.5 48.5t51.5 20.5t51.5 -20.5t21.5 -48.5
q0 -29 -21.5 -49.5t-51.5 -20.5z" />
    <glyph glyph-name="Aring" unicode="&#xc5;" 
d="M179 1447q41 59 137.5 91.5t208 26.5t198.5 -63q94 -239 175.5 -656t108.5 -844q-169 -73 -354 -69q-20 145 -49 297q-67 -2 -134 -3q-67 -2 -134 -3q-3 -51 -6 -101t-6 -101q-167 -18 -324 30l179 1395v0v0v0zM669 523q-21 3 -61.5 4.5t-70.5 1.5q-61 244 -152 480
l-16 -264q-8 -131 -17 -262q74 9 159 20q84 11 158 20v0zM427 1577q-39 0 -66.5 26t-27.5 63q0 36 27.5 62t66.5 26t67 -26t28 -62q0 -37 -28 -63t-67 -26zM428 1630q17 0 29 11t12 27t-12 27.5t-29 11.5t-29 -11.5t-12 -27.5t12 -27t29 -11z" />
    <glyph glyph-name="AE" unicode="&#xc6;" horiz-adv-x="1742" 
d="M669 523q-21 3 -61.5 4.5t-70.5 1.5q-61 244 -152 480l-16 -264q-8 -131 -17 -262q74 9 159 20zM1007 4v-2q-169 -73 -354 -69q-20 145 -49 297q-67 -2 -134 -3q-67 -2 -134 -3q-3 -51 -6 -101t-6 -101q-167 -18 -324 30l179 1395q41 59 137.5 91.5t208.5 26.5
q108 -6 193 -60v7q196 30 462.5 33t462.5 -21q11 -83 4 -187t-28 -178l-460 38l-10 -263l352 14q21 -41 27.5 -113t-3 -138.5t-34.5 -92.5l-353 7l-11 -317q55 7 107 18v-109q5 51 26 104t64.5 90t115.5 38q82 -1 144 -61t65 -169q-3 -129 -85 -182.5t-207 -56.5t-256 21
q-49 8 -94 17z" />
    <glyph glyph-name="Ccedilla" unicode="&#xc7;" horiz-adv-x="1167" 
d="M528 -12q-154 20 -263 115q-130 112 -197 286t-67.5 368.5t67.5 367.5t208 282.5t355 113.5q175 1 309.5 -109t167.5 -336q9 -73 -13.5 -144.5t-76.5 -120t-141 -48.5t-137 30.5t-71 76.5t-21 94q0 73 33 115t82.5 58t101.5 12q-45 24 -112 16q-31 90 -106 80
q-85 -18 -130.5 -126t-57.5 -258.5t5 -296t59.5 -239t104.5 -86.5q32 5 71.5 38t70.5 107t37 201q72 24 158 18.5t136 -42.5q-20 -279 -160 -429q-123 -132 -304 -147q-1 -16 -1 -23q107 0 160 -116q8 -18 8 -56q-31 -164 -228 -164h-48q-8 0 -8 8v100q1 8 8 8q38 -8 60 -8
h32q84 14 84 72q-21 80 -104 80q-53 -8 -72 -8v110z" />
    <glyph glyph-name="Egrave" unicode="&#xc8;" horiz-adv-x="986" 
d="M431 913l352 14q21 -41 27.5 -113t-3 -138.5t-34.5 -92.5l-353 7l-11 -317q55 7 107 18v-109q5 51 26 104t64.5 90t115.5 38q82 -1 144 -61t65 -169q-3 -129 -85 -182.5t-207 -56.5t-256.5 20.5t-233.5 47.5q-67 16 -107 23q1 10 1 19q-16 356 -21 711q-6 362 -22 725
q196 30 462.5 33t462.5 -21q11 -83 4 -187t-28 -178l-460 38l-10 -263v0zM431 1775h20q25 -23 108 -180v-8q-44 -12 -64 -12h-44q-12 7 -136 152q44 37 116 48z" />
    <glyph glyph-name="Eacute" unicode="&#xc9;" horiz-adv-x="986" 
d="M431 913l352 14q21 -41 27.5 -113t-3 -138.5t-34.5 -92.5l-353 7l-11 -317q55 7 107 18v-109q5 51 26 104t64.5 90t115.5 38q82 -1 144 -61t65 -169q-3 -129 -85 -182.5t-207 -56.5t-256.5 20.5t-233.5 47.5q-67 16 -107 23q1 10 1 19q-16 356 -21 711q-6 362 -22 725
q196 30 462.5 33t462.5 -21q11 -83 4 -187t-28 -178l-460 38l-10 -263v0zM491 1787h8q46 0 124 -40q0 -20 -132 -160h-44q-62 5 -68 20q97 169 112 180z" />
    <glyph glyph-name="Ecircumflex" unicode="&#xca;" horiz-adv-x="986" 
d="M431 913l352 14q21 -41 27.5 -113t-3 -138.5t-34.5 -92.5l-353 7l-11 -317q55 7 107 18v-109q5 51 26 104t64.5 90t115.5 38q82 -1 144 -61t65 -169q-3 -129 -85 -182.5t-207 -56.5t-256.5 20.5t-233.5 47.5q-67 16 -107 23q1 10 1 19q-16 356 -21 711q-6 362 -22 725
q196 30 462.5 33t462.5 -21q11 -83 4 -187t-28 -178l-460 38l-10 -263v0zM510 1774q11 -15 108 -184q-28 -20 -76 -20h-32q-3 0 -56 56l-60 -64h-44q-62 5 -68 20q98 172 112 184q101 8 116 8z" />
    <glyph glyph-name="Edieresis" unicode="&#xcb;" horiz-adv-x="986" 
d="M431 913l352 14q21 -41 27.5 -113t-3 -138.5t-34.5 -92.5l-353 7l-11 -317q55 7 107 18v-109q5 51 26 104t64.5 90t115.5 38q82 -1 144 -61t65 -169q-3 -129 -85 -182.5t-207 -56.5t-256.5 20.5t-233.5 47.5q-67 16 -107 23q1 10 1 19q-16 356 -21 711q-6 362 -22 725
q196 30 462.5 33t462.5 -21q11 -83 4 -187t-28 -178l-460 38l-10 -263v0zM397 1566q-30 0 -51.5 20.5t-21.5 49.5q0 28 21.5 48.5t51.5 20.5t51.5 -20.5t21.5 -48.5q0 -29 -21.5 -49.5t-51.5 -20.5zM582 1569q-30 0 -51.5 20.5t-21.5 49.5q0 28 21.5 48.5t51.5 20.5
t51.5 -20.5t21.5 -48.5q0 -29 -21.5 -49.5t-51.5 -20.5z" />
    <glyph glyph-name="Igrave" unicode="&#xcc;" horiz-adv-x="506" 
d="M0 1502q237 40 456 -6l-44 -1477q-81 -15 -184 -15.5t-192 18.5l-36 1480v0zM196 1772h20q25 -23 108 -180v-8q-44 -12 -64 -12h-44q-12 7 -136 152q44 37 116 48z" />
    <glyph glyph-name="Iacute" unicode="&#xcd;" horiz-adv-x="506" 
d="M0 1502q237 40 456 -6l-44 -1477q-81 -15 -184 -15.5t-192 18.5l-36 1480v0zM259 1778h8q46 0 124 -40q0 -20 -132 -160h-44q-62 5 -68 20q97 169 112 180z" />
    <glyph glyph-name="Icircumflex" unicode="&#xce;" horiz-adv-x="506" 
d="M0 1502q237 40 456 -6l-44 -1477q-81 -15 -184 -15.5t-192 18.5l-36 1480v0zM280 1804q11 -15 108 -184q-28 -20 -76 -20h-32q-3 0 -56 56l-60 -64h-44q-62 5 -68 20q98 172 112 184q101 8 116 8z" />
    <glyph glyph-name="Idieresis" unicode="&#xcf;" horiz-adv-x="506" 
d="M0 1502q237 40 456 -6l-44 -1477q-81 -15 -184 -15.5t-192 18.5l-36 1480v0zM156 1557q-30 0 -51.5 20.5t-21.5 49.5q0 28 21.5 48.5t51.5 20.5t51.5 -20.5t21.5 -48.5q0 -29 -21.5 -49.5t-51.5 -20.5zM341 1560q-30 0 -51.5 20.5t-21.5 49.5q0 28 21.5 48.5t51.5 20.5
t51.5 -20.5t21.5 -48.5q0 -29 -21.5 -49.5t-51.5 -20.5z" />
    <glyph glyph-name="Eth" unicode="&#xd0;" horiz-adv-x="1173" 
d="M421 550q-2 -52 -4 -105q26 -102 67 -146t75 -49q56 -6 93.5 86t53 236.5t5 294t-51.5 256.5t-117 124q-36 6 -63.5 -20.5t-36.5 -82.5q59 -18 88 -84t18 -139.5t-72 -114.5t-183 -9q31 -26 67.5 -36.5t68.5 -8.5l-1 -13h122v-189h-129zM38 739l-2 34l-36 748
q187 35 380 -2q-35 -15 -68 -43.5t-45 -46.5q47 35 130 62.5t160 29.5q192 -4 318 -112.5t187 -280t60 -364t-61 -365.5t-176 -284t-286 -118q-108 -2 -197 45q0 -11 -1 -22v-21q-161 -31 -327 0l-27 551h-90v189h81z" />
    <glyph glyph-name="Ntilde" unicode="&#xd1;" horiz-adv-x="1238" 
d="M0 1499q262 36 504 -12q44 -142 74 -244q44 -150 77.5 -251.5t77.5 -203.5l-23 723q236 39 454 -6q-8 -264 -16 -527l-16 -528q-84 27 -178 8q61 -4 115 -20.5t86.5 -63t29.5 -143.5q-4 -88 -72.5 -148.5t-186.5 -61.5q-93 4 -166 76.5t-128.5 183t-96 229t-68.5 213.5
q-21 72 -36 115l-20 -789q-81 -14 -183.5 -14.5t-191.5 18.5l-36 1446v0zM668 1713q33 0 56 -28v-108h-12q-12 12 -60 20l-168 -36h-24q-32 0 -32 60v12q0 16 4 72h8q28 -24 56 -24h8q19 0 164 32z" />
    <glyph glyph-name="Ograve" unicode="&#xd2;" horiz-adv-x="1237" 
d="M610 1517q200 -4 328 -111.5t188.5 -278t56.5 -362.5t-68 -364.5t-186 -285t-297 -123.5q-174 -5 -302.5 86t-206.5 243.5t-100.5 332.5t15.5 353q18 7 43.5 6.5t44.5 -5.5q-30 164 29.5 277.5t180 172t274.5 59.5v0zM338 793q58 -51 117 -45q-3 -46 -1 -127.5
t17.5 -167.5t53 -145t106.5 -61q59 5 95.5 101t48.5 239t-2.5 288t-58.5 248t-119 120q-37 6 -65.5 -20.5t-37.5 -82.5q61 -19 91 -85t18.5 -139.5t-74.5 -114t-189 -8.5v0zM563 1775h20q25 -23 108 -180v-8q-44 -12 -64 -12h-44q-12 7 -136 152q44 37 116 48z" />
    <glyph glyph-name="Oacute" unicode="&#xd3;" horiz-adv-x="1237" 
d="M610 1517q200 -4 328 -111.5t188.5 -278t56.5 -362.5t-68 -364.5t-186 -285t-297 -123.5q-174 -5 -302.5 86t-206.5 243.5t-100.5 332.5t15.5 353q18 7 43.5 6.5t44.5 -5.5q-30 164 29.5 277.5t180 172t274.5 59.5v0zM338 793q58 -51 117 -45q-3 -46 -1 -127.5
t17.5 -167.5t53 -145t106.5 -61q59 5 95.5 101t48.5 239t-2.5 288t-58.5 248t-119 120q-37 6 -65.5 -20.5t-37.5 -82.5q61 -19 91 -85t18.5 -139.5t-74.5 -114t-189 -8.5v0zM617 1769h8q46 0 124 -40q0 -20 -132 -160h-44q-62 5 -68 20q97 169 112 180z" />
    <glyph glyph-name="Ocircumflex" unicode="&#xd4;" horiz-adv-x="1237" 
d="M610 1517q200 -4 328 -111.5t188.5 -278t56.5 -362.5t-68 -364.5t-186 -285t-297 -123.5q-174 -5 -302.5 86t-206.5 243.5t-100.5 332.5t15.5 353q18 7 43.5 6.5t44.5 -5.5q-30 164 29.5 277.5t180 172t274.5 59.5v0zM338 793q58 -51 117 -45q-3 -46 -1 -127.5
t17.5 -167.5t53 -145t106.5 -61q59 5 95.5 101t48.5 239t-2.5 288t-58.5 248t-119 120q-37 6 -65.5 -20.5t-37.5 -82.5q61 -19 91 -85t18.5 -139.5t-74.5 -114t-189 -8.5v0zM647 1788q11 -15 108 -184q-28 -20 -76 -20h-32q-3 0 -56 56l-60 -64h-44q-62 5 -68 20
q98 172 112 184q101 8 116 8z" />
    <glyph glyph-name="Otilde" unicode="&#xd5;" horiz-adv-x="1237" 
d="M610 1517q200 -4 328 -111.5t188.5 -278t56.5 -362.5t-68 -364.5t-186 -285t-297 -123.5q-174 -5 -302.5 86t-206.5 243.5t-100.5 332.5t15.5 353q18 7 43.5 6.5t44.5 -5.5q-30 164 29.5 277.5t180 172t274.5 59.5v0zM338 793q58 -51 117 -45q-3 -46 -1 -127.5
t17.5 -167.5t53 -145t106.5 -61q59 5 95.5 101t48.5 239t-2.5 288t-58.5 248t-119 120q-37 6 -65.5 -20.5t-37.5 -82.5q61 -19 91 -85t18.5 -139.5t-74.5 -114t-189 -8.5v0zM695 1719q33 0 56 -28v-108h-12q-12 12 -60 20l-168 -36h-24q-32 0 -32 60v12q0 16 4 72h8
q28 -24 56 -24h8q19 0 164 32z" />
    <glyph glyph-name="Odieresis" unicode="&#xd6;" horiz-adv-x="1237" 
d="M610 1517q200 -4 328 -111.5t188.5 -278t56.5 -362.5t-68 -364.5t-186 -285t-297 -123.5q-174 -5 -302.5 86t-206.5 243.5t-100.5 332.5t15.5 353q18 7 43.5 6.5t44.5 -5.5q-30 164 29.5 277.5t180 172t274.5 59.5v0zM338 793q58 -51 117 -45q-3 -46 -1 -127.5
t17.5 -167.5t53 -145t106.5 -61q59 5 95.5 101t48.5 239t-2.5 288t-58.5 248t-119 120q-37 6 -65.5 -20.5t-37.5 -82.5q61 -19 91 -85t18.5 -139.5t-74.5 -114t-189 -8.5v0zM504 1557q-30 0 -51.5 20.5t-21.5 49.5q0 28 21.5 48.5t51.5 20.5t51.5 -20.5t21.5 -48.5
q0 -29 -21.5 -49.5t-51.5 -20.5zM689 1560q-30 0 -51.5 20.5t-21.5 49.5q0 28 21.5 48.5t51.5 20.5t51.5 -20.5t21.5 -48.5q0 -29 -21.5 -49.5t-51.5 -20.5z" />
    <glyph glyph-name="multiply" unicode="&#xd7;" horiz-adv-x="847" 
d="M527 1101v0l-117 -139l-126 127q-80 -70 -139.5 -133t-130.5 -154l153 -129l-118 -141q114 -128 240 -221l142 141l153 -129q127 114 221 240l-130 131l139 138q-69 80 -132 139.5t-155 129.5z" />
    <glyph glyph-name="Oslash" unicode="&#xd8;" horiz-adv-x="1237" 
d="M486 784q-58 -14 -148 9q58 -51 117 -45q-2 -23 -2 -56zM779 779l-203 -519q24 -12 55 -13q59 5 95.5 101t48.5 239q8 95 4 192zM256 139q-79 76 -133 183q-78 152 -100.5 332t15.5 353q18 7 43.5 6.5t44.5 -5.5q-30 164 29.5 277.5t180 172t274.5 59.5q70 -1 132 -16
l17 49q184 44 320 -6l-78 -200q81 -91 126 -216q60 -171 56 -363t-68 -364.5t-186 -285t-297 -123.5q-82 -2 -154 17l-20 -50q-64 -16 -137 -16.5t-128 19.5zM642 1222q-22 15 -47 21q-37 6 -65.5 -20.5t-37.5 -82.5q61 -19 91 -84z" />
    <glyph glyph-name="Ugrave" unicode="&#xd9;" horiz-adv-x="1156" 
d="M0 1505q238 35 456 -5q-18 -48 -30.5 -178.5t-14.5 -297t11.5 -323t47.5 -256.5t93 -98q49 9 77.5 107.5t40.5 248t10.5 310t-13 293.5t-28.5 199q237 35 456 -5l-27 -774q-10 -238 -87.5 -390t-193.5 -225t-242 -73q-135 -1 -253 74t-194 217t-85 342l-24 834v0z
M496 1784h20q25 -23 108 -180v-8q-44 -12 -64 -12h-44q-12 7 -136 152q44 37 116 48z" />
    <glyph glyph-name="Uacute" unicode="&#xda;" horiz-adv-x="1156" 
d="M0 1505q238 35 456 -5q-18 -48 -30.5 -178.5t-14.5 -297t11.5 -323t47.5 -256.5t93 -98q49 9 77.5 107.5t40.5 248t10.5 310t-13 293.5t-28.5 199q237 35 456 -5l-27 -774q-10 -238 -87.5 -390t-193.5 -225t-242 -73q-135 -1 -253 74t-194 217t-85 342l-24 834v0z
M567 1769h8q46 0 124 -40q0 -20 -132 -160h-44q-62 5 -68 20q97 169 112 180z" />
    <glyph glyph-name="Ucircumflex" unicode="&#xdb;" horiz-adv-x="1156" 
d="M0 1505q238 35 456 -5q-18 -48 -30.5 -178.5t-14.5 -297t11.5 -323t47.5 -256.5t93 -98q49 9 77.5 107.5t40.5 248t10.5 310t-13 293.5t-28.5 199q237 35 456 -5l-27 -774q-10 -238 -87.5 -390t-193.5 -225t-242 -73q-135 -1 -253 74t-194 217t-85 342l-24 834v0z
M608 1792q11 -15 108 -184q-28 -20 -76 -20h-32q-3 0 -56 56l-60 -64h-44q-62 5 -68 20q98 172 112 184q101 8 116 8z" />
    <glyph glyph-name="Udieresis" unicode="&#xdc;" horiz-adv-x="1156" 
d="M0 1505q238 35 456 -5q-18 -48 -30.5 -178.5t-14.5 -297t11.5 -323t47.5 -256.5t93 -98q49 9 77.5 107.5t40.5 248t10.5 310t-13 293.5t-28.5 199q237 35 456 -5l-27 -774q-10 -238 -87.5 -390t-193.5 -225t-242 -73q-135 -1 -253 74t-194 217t-85 342l-24 834v0z
M464 1557q-30 0 -51.5 20.5t-21.5 49.5q0 28 21.5 48.5t51.5 20.5t51.5 -20.5t21.5 -48.5q0 -29 -21.5 -49.5t-51.5 -20.5zM649 1560q-30 0 -51.5 20.5t-21.5 49.5q0 28 21.5 48.5t51.5 20.5t51.5 -20.5t21.5 -48.5q0 -29 -21.5 -49.5t-51.5 -20.5z" />
    <glyph glyph-name="Yacute" unicode="&#xdd;" horiz-adv-x="1155" 
d="M774 391l-32 -369q-81 -5 -184.5 -5.5t-192.5 6.5l-29 365q-113 72 -179 198.5t-98 281t-43.5 311t-14.5 287.5q-1 22 -1 43q237 27 456 -4q-18 -66 -21.5 -203t8.5 -288.5t39.5 -258.5t72.5 -112q45 4 73.5 111.5t40 259t6.5 290t-26 205.5q237 27 456 -4q-2 -33 -3 -68
q-4 -169 -24.5 -359.5t-89 -370.5t-214.5 -316v0zM567 1769h8q46 0 124 -40q0 -20 -132 -160h-44q-62 5 -68 20q97 169 112 180z" />
    <glyph glyph-name="Thorn" unicode="&#xde;" horiz-adv-x="1161" 
d="M498 1000q-33 -11 -40.5 -108.5t3 -222.5t31 -219t41.5 -100q25 -2 64 1t62 11q19 11 28 105t7 215.5t-17 214.5t-46 103q-27 5 -66.5 5t-66.5 -5zM430 154l-4 -146q-81 -15 -184 -15.5t-192 18.5l-36 1480q237 40 456 -6l-7 -242q120 25 265 -4q174 -42 267 -154
t115 -258.5t-18 -291t-131.5 -251t-226.5 -138.5q-164 -34 -304 8z" />
    <glyph glyph-name="germandbls" unicode="&#xdf;" horiz-adv-x="1105" 
d="M483 1525h20q257 0 376 -296q24 -100 24 -160q0 -176 -104 -328q9 -7 92 -40q180 -114 180 -300v-36q0 -211 -184 -348q-71 -40 -132 -40h-40q-98 0 -252 120v8q20 28 124 140h4q33 -32 64 -32q92 0 87 184t-197 198l-32 108q182 159 182 346q0 116 -116 140h-20
q-87 0 -132 -236q-11 0 -32 -952q-76 -16 -172 -16h-52q-160 7 -160 24q-16 652 -16 824q0 326 208 564q142 128 280 128z" />
    <glyph glyph-name="agrave" unicode="&#xe0;" 
d="M992 -46q-194 -23 -384 25l-4 86v4q-218 -107 -359 -80t-193 160t-2 345q24 96 91 172t174 108.5t250 -3.5q-16 91 -145 114q4 38 -12 73q3 -70 -49.5 -124.5t-121.5 -54.5q-68 0 -108.5 52.5t-39.5 123.5t55.5 131.5t175 80t319.5 -31.5q150 -43 229.5 -153t109 -260
t29.5 -312.5t-9 -310.5q-4 -77 -6 -145v0zM588 198q18 7 27.5 65.5t8.5 133.5t-16 133t-45 64q-52 8 -101 3q-43 -9 -57 -70t-7.5 -138.5t24.5 -136t40 -62.5q24 -1 63 1t63 7v0zM449 1448h20q25 -23 108 -180v-8q-44 -12 -64 -12h-44q-12 7 -136 152q44 37 116 48z" />
    <glyph glyph-name="aacute" unicode="&#xe1;" 
d="M992 -46q-194 -23 -384 25l-4 86v4q-218 -107 -359 -80t-193 160t-2 345q24 96 91 172t174 108.5t250 -3.5q-16 91 -145 114q4 38 -12 73q3 -70 -49.5 -124.5t-121.5 -54.5q-68 0 -108.5 52.5t-39.5 123.5t55.5 131.5t175 80t319.5 -31.5q150 -43 229.5 -153t109 -260
t29.5 -312.5t-9 -310.5q-4 -77 -6 -145v0zM588 198q18 7 27.5 65.5t8.5 133.5t-16 133t-45 64q-52 8 -101 3q-43 -9 -57 -70t-7.5 -138.5t24.5 -136t40 -62.5q24 -1 63 1t63 7v0zM575 1406h8q46 0 124 -40q0 -20 -132 -160h-44q-62 5 -68 20q97 169 112 180z" />
    <glyph glyph-name="acircumflex" unicode="&#xe2;" 
d="M992 -46q-194 -23 -384 25l-4 86v4q-218 -107 -359 -80t-193 160t-2 345q24 96 91 172t174 108.5t250 -3.5q-16 91 -145 114q4 38 -12 73q3 -70 -49.5 -124.5t-121.5 -54.5q-68 0 -108.5 52.5t-39.5 123.5t55.5 131.5t175 80t319.5 -31.5q150 -43 229.5 -153t109 -260
t29.5 -312.5t-9 -310.5q-4 -77 -6 -145v0zM588 198q18 7 27.5 65.5t8.5 133.5t-16 133t-45 64q-52 8 -101 3q-43 -9 -57 -70t-7.5 -138.5t24.5 -136t40 -62.5q24 -1 63 1t63 7v0zM556 1432q11 -15 108 -184q-28 -20 -76 -20h-32q-3 0 -56 56l-60 -64h-44q-62 5 -68 20
q98 172 112 184q101 8 116 8z" />
    <glyph glyph-name="atilde" unicode="&#xe3;" 
d="M992 -46q-194 -23 -384 25l-4 86v4q-218 -107 -359 -80t-193 160t-2 345q24 96 91 172t174 108.5t250 -3.5q-16 91 -145 114q4 38 -12 73q3 -70 -49.5 -124.5t-121.5 -54.5q-68 0 -108.5 52.5t-39.5 123.5t55.5 131.5t175 80t319.5 -31.5q150 -43 229.5 -153t109 -260
t29.5 -312.5t-9 -310.5q-4 -77 -6 -145v0zM588 198q18 7 27.5 65.5t8.5 133.5t-16 133t-45 64q-52 8 -101 3q-43 -9 -57 -70t-7.5 -138.5t24.5 -136t40 -62.5q24 -1 63 1t63 7v0zM576 1377q33 0 56 -28v-108h-12q-12 12 -60 20l-168 -36h-24q-32 0 -32 60v12q0 16 4 72h8
q28 -24 56 -24h8q19 0 164 32z" />
    <glyph glyph-name="adieresis" unicode="&#xe4;" 
d="M992 -46q-194 -23 -384 25l-4 86v4q-218 -107 -359 -80t-193 160t-2 345q24 96 91 172t174 108.5t250 -3.5q-16 91 -145 114q4 38 -12 73q3 -70 -49.5 -124.5t-121.5 -54.5q-68 0 -108.5 52.5t-39.5 123.5t55.5 131.5t175 80t319.5 -31.5q150 -43 229.5 -153t109 -260
t29.5 -312.5t-9 -310.5q-4 -77 -6 -145v0zM588 198q18 7 27.5 65.5t8.5 133.5t-16 133t-45 64q-52 8 -101 3q-43 -9 -57 -70t-7.5 -138.5t24.5 -136t40 -62.5q24 -1 63 1t63 7v0zM447 1231q-30 0 -51.5 20.5t-21.5 49.5q0 28 21.5 48.5t51.5 20.5t51.5 -20.5t21.5 -48.5
q0 -29 -21.5 -49.5t-51.5 -20.5zM632 1234q-30 0 -51.5 20.5t-21.5 49.5q0 28 21.5 48.5t51.5 20.5t51.5 -20.5t21.5 -48.5q0 -29 -21.5 -49.5t-51.5 -20.5z" />
    <glyph glyph-name="aring" unicode="&#xe5;" 
d="M992 -46q-194 -23 -384 25l-4 86v4q-218 -107 -359 -80t-193 160t-2 345q24 96 91 172t174 108.5t250 -3.5q-16 91 -145 114q4 38 -12 73q3 -70 -49.5 -124.5t-121.5 -54.5q-68 0 -108.5 52.5t-39.5 123.5t55.5 131.5t175 80t319.5 -31.5q150 -43 229.5 -153t109 -260
t29.5 -312.5t-9 -310.5q-4 -77 -6 -145v0zM588 198q18 7 27.5 65.5t8.5 133.5t-16 133t-45 64q-52 8 -101 3q-43 -9 -57 -70t-7.5 -138.5t24.5 -136t40 -62.5q24 -1 63 1t63 7v0zM496 1207q-39 0 -66.5 26t-27.5 63q0 36 27.5 62t66.5 26t67 -26t28 -62q0 -37 -28 -63
t-67 -26zM497 1260q17 0 29 11t12 27t-12 27.5t-29 11.5t-29 -11.5t-12 -27.5t12 -27t29 -11z" />
    <glyph glyph-name="ae" unicode="&#xe6;" horiz-adv-x="1657" 
d="M588 198q18 7 27.5 65.5t8.5 133.5t-16 133t-45 64q-52 8 -101 3q-43 -9 -57 -70t-7.5 -138.5t24.5 -136t40 -62.5q24 -1 63 1t63 7zM1256 608q8 92 0.5 157.5t-36.5 87.5q-22 13 -56 9.5t-56 -18.5q-38 -28 -48 -93.5t-10 -161.5zM994 1q-1 -24 -2 -47q-194 -23 -384 25
l-4 86v4q-218 -107 -359 -80t-193 160t-2 345q24 96 91 172t174 108.5t250 -3.5q-16 91 -145 114q4 38 -12 73q3 -70 -49.5 -124.5t-121.5 -54.5q-68 0 -108.5 52.5t-39.5 123.5t55.5 131.5t175 80t319.5 -31.5q146 -42 225 -147l16 12q114 90 269 106q136 12 264.5 -57
t189.5 -222.5t-7 -395.5q-132 -11 -239 -20q-142 -12 -318 -27q-12 -68 26.5 -123.5t77.5 -71.5q6 -41 22 -69q-12 57 1 115t56.5 98.5t121.5 43.5q102 -1 156 -61t42 -139.5t-108.5 -138.5t-294.5 -59q-74 1 -145 22z" />
    <glyph glyph-name="ccedilla" unicode="&#xe7;" horiz-adv-x="1075" 
d="M513 7q-93 5 -185 43q-144 58 -236 193.5t-82 347.5q22 249 174.5 396t376.5 157q205 1 312 -86.5t129.5 -206t-26 -210.5t-156.5 -99q-94 0 -157.5 64.5t-63.5 156.5q0 42 15 69t38 42t48 22h-2q-16 -1 -43 -8t-47 -26q-24 52 -70.5 50t-83.5 -34q-24 -22 -33.5 -100.5
t-5.5 -182.5q4 -100 19 -195q23 -138 67 -180.5t90.5 -19.5t78.5 82.5t32 126.5l282 1q-9 -180 -112 -279q-102 -98 -250 -119q-1 -19 -1 -26q107 0 160 -116q8 -18 8 -56q-31 -164 -228 -164h-48q-8 0 -8 8v100q1 8 8 8q38 -8 60 -8h32q84 14 84 72q-21 80 -104 80
q-53 -8 -72 -8v105z" />
    <glyph glyph-name="egrave" unicode="&#xe8;" horiz-adv-x="1072" 
d="M397 415v0q-12 -68 26.5 -123.5t77.5 -71.5q6 -41 22 -69q-12 57 1 115t56.5 98.5t121.5 43.5q102 -1 156 -61t42 -139.5t-108.5 -138.5t-294.5 -59q-118 2 -227.5 53.5t-183 166.5t-82.5 306q-4 140 57.5 272.5t176 222.5t269.5 106q136 12 264.5 -57t189.5 -222.5
t-7 -395.5q-132 -11 -239 -20q-142 -12 -318 -27zM408 620l206 19q8 92 0.5 157.5t-36.5 87.5q-22 13 -56 9.5t-56 -18.5q-38 -28 -48 -93.5t-10 -161.5v0zM449 1448h20q25 -23 108 -180v-8q-44 -12 -64 -12h-44q-12 7 -136 152q44 37 116 48z" />
    <glyph glyph-name="eacute" unicode="&#xe9;" horiz-adv-x="1072" 
d="M397 415v0q-12 -68 26.5 -123.5t77.5 -71.5q6 -41 22 -69q-12 57 1 115t56.5 98.5t121.5 43.5q102 -1 156 -61t42 -139.5t-108.5 -138.5t-294.5 -59q-118 2 -227.5 53.5t-183 166.5t-82.5 306q-4 140 57.5 272.5t176 222.5t269.5 106q136 12 264.5 -57t189.5 -222.5
t-7 -395.5q-132 -11 -239 -20q-142 -12 -318 -27zM408 620l206 19q8 92 0.5 157.5t-36.5 87.5q-22 13 -56 9.5t-56 -18.5q-38 -28 -48 -93.5t-10 -161.5v0zM575 1406h8q46 0 124 -40q0 -20 -132 -160h-44q-62 5 -68 20q97 169 112 180z" />
    <glyph glyph-name="ecircumflex" unicode="&#xea;" horiz-adv-x="1072" 
d="M397 415v0q-12 -68 26.5 -123.5t77.5 -71.5q6 -41 22 -69q-12 57 1 115t56.5 98.5t121.5 43.5q102 -1 156 -61t42 -139.5t-108.5 -138.5t-294.5 -59q-118 2 -227.5 53.5t-183 166.5t-82.5 306q-4 140 57.5 272.5t176 222.5t269.5 106q136 12 264.5 -57t189.5 -222.5
t-7 -395.5q-132 -11 -239 -20q-142 -12 -318 -27zM408 620l206 19q8 92 0.5 157.5t-36.5 87.5q-22 13 -56 9.5t-56 -18.5q-38 -28 -48 -93.5t-10 -161.5v0zM593 1417q11 -15 108 -184q-28 -20 -76 -20h-32q-3 0 -56 56l-60 -64h-44q-62 5 -68 20q98 172 112 184q101 8 116 8
z" />
    <glyph glyph-name="edieresis" unicode="&#xeb;" horiz-adv-x="1072" 
d="M397 415v0q-12 -68 26.5 -123.5t77.5 -71.5q6 -41 22 -69q-12 57 1 115t56.5 98.5t121.5 43.5q102 -1 156 -61t42 -139.5t-108.5 -138.5t-294.5 -59q-118 2 -227.5 53.5t-183 166.5t-82.5 306q-4 140 57.5 272.5t176 222.5t269.5 106q136 12 264.5 -57t189.5 -222.5
t-7 -395.5q-132 -11 -239 -20q-142 -12 -318 -27zM408 620l206 19q8 92 0.5 157.5t-36.5 87.5q-22 13 -56 9.5t-56 -18.5q-38 -28 -48 -93.5t-10 -161.5v0zM417 1201q-30 0 -51.5 20.5t-21.5 49.5q0 28 21.5 48.5t51.5 20.5t51.5 -20.5t21.5 -48.5q0 -29 -21.5 -49.5
t-51.5 -20.5zM602 1204q-30 0 -51.5 20.5t-21.5 49.5q0 28 21.5 48.5t51.5 20.5t51.5 -20.5t21.5 -48.5q0 -29 -21.5 -49.5t-51.5 -20.5z" />
    <glyph glyph-name="igrave" unicode="&#xec;" horiz-adv-x="581" 
d="M82 916q107 -21 206 -10t192 46l-12 -450q-7 -234 -13 -468q-80 -30 -163.5 -35.5t-168.5 4.5q-10 229 -21 457l-20 456v0zM265 1481q110 0 188 -77.5t78 -187.5t-78 -187.5t-188 -77.5q-109 0 -187 77.5t-78 187.5t78 187.5t187 77.5v0zM217 1726h20q25 -23 108 -180v-8
q-44 -12 -64 -12h-44q-12 7 -136 152q44 37 116 48z" />
    <glyph glyph-name="iacute" unicode="&#xed;" horiz-adv-x="581" 
d="M82 916q107 -21 206 -10t192 46l-12 -450q-7 -234 -13 -468q-80 -30 -163.5 -35.5t-168.5 4.5q-10 229 -21 457l-20 456v0zM265 1481q110 0 188 -77.5t78 -187.5t-78 -187.5t-188 -77.5q-109 0 -187 77.5t-78 187.5t78 187.5t187 77.5v0zM282 1709h8q46 0 124 -40
q0 -20 -132 -160h-44q-62 5 -68 20q97 169 112 180z" />
    <glyph glyph-name="icircumflex" unicode="&#xee;" horiz-adv-x="581" 
d="M82 916q107 -21 206 -10t192 46l-12 -450q-7 -234 -13 -468q-80 -30 -163.5 -35.5t-168.5 4.5q-10 229 -21 457l-20 456v0zM265 1481q110 0 188 -77.5t78 -187.5t-78 -187.5t-188 -77.5q-109 0 -187 77.5t-78 187.5t78 187.5t187 77.5v0zM333 1726q11 -15 108 -184
q-28 -20 -76 -20h-32q-3 0 -56 56l-60 -64h-44q-62 5 -68 20q98 172 112 184q101 8 116 8z" />
    <glyph glyph-name="idieresis" unicode="&#xef;" horiz-adv-x="581" 
d="M82 916q107 -21 206 -10t192 46l-12 -450q-7 -234 -13 -468q-80 -30 -163.5 -35.5t-168.5 4.5q-10 229 -21 457l-20 456v0zM265 1481q110 0 188 -77.5t78 -187.5t-78 -187.5t-188 -77.5q-109 0 -187 77.5t-78 187.5t78 187.5t187 77.5v0zM164 1521q-30 0 -51.5 20.5
t-21.5 49.5q0 28 21.5 48.5t51.5 20.5t51.5 -20.5t21.5 -48.5q0 -29 -21.5 -49.5t-51.5 -20.5zM349 1524q-30 0 -51.5 20.5t-21.5 49.5q0 28 21.5 48.5t51.5 20.5t51.5 -20.5t21.5 -48.5q0 -29 -21.5 -49.5t-51.5 -20.5z" />
    <glyph glyph-name="eth" unicode="&#xf0;" horiz-adv-x="1137" 
d="M453 890q-33 -11 -40.5 -108.5t3 -222.5t31 -219t41.5 -100q25 -2 64 1t62 11q19 11 28 105t7 215.5t-17 214.5t-46 103q-27 5 -66.5 5t-66.5 -5zM1028 848q3 -7 7 -15v-2q21 -54 30 -114q22 -147 -18 -291.5t-131.5 -251t-226.5 -138.5q-191 -40 -349 23.5t-249 205.5
t-81 338q25 293 211 438q99 77 224 97q-32 46 -68 94l-82 -28l-39 89l54 26q-30 38 -62 77l189 114q57 -39 109 -79l95 45l100 -123l-74 -25l18 -16q201 -189 319 -415q13 -23 24 -49z" />
    <glyph glyph-name="ntilde" unicode="&#xf1;" horiz-adv-x="996" 
d="M0 1146q228 54 456 -6q-2 -22 -3 -45q-2 -20 -3 -41q192 128 299 78.5t150.5 -220t45 -407t-17.5 -481.5q-89 -39 -179.5 -46t-156.5 15q21 222 20 457.5t-20 314.5q-18 59 -59 47t-106 -82q-13 -180 -26 -361l-26 -360q-163 -41 -326 0l-24 568t-24 569v0zM576 1377
q33 0 56 -28v-108h-12q-12 12 -60 20l-168 -36h-24q-32 0 -32 60v12q0 16 4 72h8q28 -24 56 -24h8q19 0 164 32z" />
    <glyph glyph-name="ograve" unicode="&#xf2;" horiz-adv-x="1137" 
d="M10 603v0q25 293 210.5 437.5t462.5 88.5q174 -42 267 -154t115 -258.5t-18 -291t-131.5 -251t-226.5 -138.5q-191 -40 -349 23.5t-249 205.5t-81 338zM453 890v0q-33 -11 -40.5 -108.5t3 -222.5t31 -219t41.5 -100q25 -2 64 1t62 11q19 11 28 105t7 215.5t-17 214.5
t-46 103q-27 5 -66.5 5t-66.5 -5zM480 1414h20q25 -23 108 -180v-8q-44 -12 -64 -12h-44q-12 7 -136 152q44 37 116 48z" />
    <glyph glyph-name="oacute" unicode="&#xf3;" horiz-adv-x="1137" 
d="M10 603v0q25 293 210.5 437.5t462.5 88.5q174 -42 267 -154t115 -258.5t-18 -291t-131.5 -251t-226.5 -138.5q-191 -40 -349 23.5t-249 205.5t-81 338zM453 890v0q-33 -11 -40.5 -108.5t3 -222.5t31 -219t41.5 -100q25 -2 64 1t62 11q19 11 28 105t7 215.5t-17 214.5
t-46 103q-27 5 -66.5 5t-66.5 -5zM575 1406h8q46 0 124 -40q0 -20 -132 -160h-44q-62 5 -68 20q97 169 112 180z" />
    <glyph glyph-name="ocircumflex" unicode="&#xf4;" horiz-adv-x="1137" 
d="M10 603v0q25 293 210.5 437.5t462.5 88.5q174 -42 267 -154t115 -258.5t-18 -291t-131.5 -251t-226.5 -138.5q-191 -40 -349 23.5t-249 205.5t-81 338zM453 890v0q-33 -11 -40.5 -108.5t3 -222.5t31 -219t41.5 -100q25 -2 64 1t62 11q19 11 28 105t7 215.5t-17 214.5
t-46 103q-27 5 -66.5 5t-66.5 -5zM614 1426q11 -15 108 -184q-28 -20 -76 -20h-32q-3 0 -56 56l-60 -64h-44q-62 5 -68 20q98 172 112 184q101 8 116 8z" />
    <glyph glyph-name="otilde" unicode="&#xf5;" horiz-adv-x="1137" 
d="M10 603v0q25 293 210.5 437.5t462.5 88.5q174 -42 267 -154t115 -258.5t-18 -291t-131.5 -251t-226.5 -138.5q-191 -40 -349 23.5t-249 205.5t-81 338zM453 890v0q-33 -11 -40.5 -108.5t3 -222.5t31 -219t41.5 -100q25 -2 64 1t62 11q19 11 28 105t7 215.5t-17 214.5
t-46 103q-27 5 -66.5 5t-66.5 -5zM609 1377q33 0 56 -28v-108h-12q-12 12 -60 20l-168 -36h-24q-32 0 -32 60v12q0 16 4 72h8q28 -24 56 -24h8q19 0 164 32z" />
    <glyph glyph-name="odieresis" unicode="&#xf6;" horiz-adv-x="1137" 
d="M10 603v0q25 293 210.5 437.5t462.5 88.5q174 -42 267 -154t115 -258.5t-18 -291t-131.5 -251t-226.5 -138.5q-191 -40 -349 23.5t-249 205.5t-81 338zM453 890v0q-33 -11 -40.5 -108.5t3 -222.5t31 -219t41.5 -100q25 -2 64 1t62 11q19 11 28 105t7 215.5t-17 214.5
t-46 103q-27 5 -66.5 5t-66.5 -5zM447 1209q-30 0 -51.5 20.5t-21.5 49.5q0 28 21.5 48.5t51.5 20.5t51.5 -20.5t21.5 -48.5q0 -29 -21.5 -49.5t-51.5 -20.5zM632 1212q-30 0 -51.5 20.5t-21.5 49.5q0 28 21.5 48.5t51.5 20.5t51.5 -20.5t21.5 -48.5q0 -29 -21.5 -49.5
t-51.5 -20.5z" />
    <glyph glyph-name="divide" unicode="&#xf7;" horiz-adv-x="819" 
d="M9 465v0l744 33q16 171 0 327l-740 33q-11 -105 -12 -191.5t8 -201.5zM372 336v0q-85 0 -145 -59.5t-60 -144.5t60 -145t145 -60t145 60t60 145t-60 144.5t-145 59.5zM379 1434v0q-85 0 -145 -59.5t-60 -144.5t60 -145t145 -60t145 60t60 145t-60 144.5t-145 59.5z" />
    <glyph glyph-name="oslash" unicode="&#xf8;" horiz-adv-x="1137" 
d="M441 368l6 -28q20 -94 41 -100q25 -2 64 1t62 11q19 11 28 105t7 216q-1 43 -3 82zM616 851q-12 33 -30 39q-27 5 -66.5 5t-66.5 -5q-33 -11 -40 -108q-8 -94 2 -214zM146 193q-30 33 -55 72q-91 142 -81 338q25 293 210.5 437.5t462.5 88.5q58 -14 106 -36l150 210
l112 -80l-145 -203q24 -21 44 -45q93 -112 115 -258.5t-18 -291t-131.5 -251t-226.5 -138.5q-191 -40 -349 24q-47 18 -88 44l-96 -135l-112 80z" />
    <glyph glyph-name="ugrave" unicode="&#xf9;" horiz-adv-x="964" 
d="M914 31q-205 -66 -425 -26l4 42q1 22 3 44q-193 -128 -300 -78.5t-150 220t-44.5 406.5t16.5 482q83 36 167 38.5t169 -7.5q-20 -223 -19 -458t20 -314q18 -60 59 -47.5t105 82.5l26 360t26 361q76 18 157 20.5t169 -20.5q5 -276 9 -553l8 -552v0zM431 1414h20
q25 -23 108 -180v-8q-44 -12 -64 -12h-44q-12 7 -136 152q44 37 116 48z" />
    <glyph glyph-name="uacute" unicode="&#xfa;" horiz-adv-x="964" 
d="M914 31q-205 -66 -425 -26l4 42q1 22 3 44q-193 -128 -300 -78.5t-150 220t-44.5 406.5t16.5 482q83 36 167 38.5t169 -7.5q-20 -223 -19 -458t20 -314q18 -60 59 -47.5t105 82.5l26 360t26 361q76 18 157 20.5t169 -20.5q5 -276 9 -553l8 -552v0zM486 1406h8
q46 0 124 -40q0 -20 -132 -160h-44q-62 5 -68 20q97 169 112 180z" />
    <glyph glyph-name="ucircumflex" unicode="&#xfb;" horiz-adv-x="964" 
d="M914 31q-205 -66 -425 -26l4 42q1 22 3 44q-193 -128 -300 -78.5t-150 220t-44.5 406.5t16.5 482q83 36 167 38.5t169 -7.5q-20 -223 -19 -458t20 -314q18 -60 59 -47.5t105 82.5l26 360t26 361q76 18 157 20.5t169 -20.5q5 -276 9 -553l8 -552v0zM532 1436
q11 -15 108 -184q-28 -20 -76 -20h-32q-3 0 -56 56l-60 -64h-44q-62 5 -68 20q98 172 112 184q101 8 116 8z" />
    <glyph glyph-name="udieresis" unicode="&#xfc;" horiz-adv-x="964" 
d="M914 31q-205 -66 -425 -26l4 42q1 22 3 44q-193 -128 -300 -78.5t-150 220t-44.5 406.5t16.5 482q83 36 167 38.5t169 -7.5q-20 -223 -19 -458t20 -314q18 -60 59 -47.5t105 82.5l26 360t26 361q76 18 157 20.5t169 -20.5q5 -276 9 -553l8 -552v0zM382 1224
q-30 0 -51.5 20.5t-21.5 49.5q0 28 21.5 48.5t51.5 20.5t51.5 -20.5t21.5 -48.5q0 -29 -21.5 -49.5t-51.5 -20.5zM567 1227q-30 0 -51.5 20.5t-21.5 49.5q0 28 21.5 48.5t51.5 20.5t51.5 -20.5t21.5 -48.5q0 -29 -21.5 -49.5t-51.5 -20.5z" />
    <glyph glyph-name="yacute" unicode="&#xfd;" horiz-adv-x="1106" 
d="M473 -149v0q53 35 86.5 109.5t51.5 176.5q-190 -120 -327 -58.5t-210 239.5t-72.5 409t83.5 450q207 13 342 -104q-14 -46 -29.5 -152.5t-19 -229t17.5 -214t78.5 -107t164.5 90.5q2 310 -17 560q-5 82 -8 142q163 74 368 22q74 -490 40 -836t-155.5 -552.5
t-309.5 -277.5q-192 -70 -315.5 -46t-182.5 102.5t-58 172.5q4 100 68.5 157t151.5 62.5t157.5 -47t85.5 -170.5q9 51 9 101zM511 1406h8q46 0 124 -40q0 -20 -132 -160h-44q-62 5 -68 20q97 169 112 180z" />
    <glyph glyph-name="thorn" unicode="&#xfe;" horiz-adv-x="1054" 
d="M440 885l-5 -113q1 -34 4 -72q8 -97 25 -170t35 -79q22 -1 56 1t54 8q16 8 25.5 81t8.5 167t-13 166.5t-39 80.5q-24 4 -58.5 4.5t-57.5 -3.5q-26 -7 -35 -71zM420 297l-8 -278q-81 -15 -184 -15.5t-192 18.5l-36 1480q237 40 456 -6l-10 -352q102 19 226 -3
q152 -33 233.5 -120t100.5 -200t-15.5 -225t-115 -195t-197.5 -108q-139 -26 -258 4z" />
    <glyph glyph-name="ydieresis" unicode="&#xff;" horiz-adv-x="1106" 
d="M473 -149v0q53 35 86.5 109.5t51.5 176.5q-190 -120 -327 -58.5t-210 239.5t-72.5 409t83.5 450q207 13 342 -104q-14 -46 -29.5 -152.5t-19 -229t17.5 -214t78.5 -107t164.5 90.5q2 310 -17 560q-5 82 -8 142q163 74 368 22q74 -490 40 -836t-155.5 -552.5
t-309.5 -277.5q-192 -70 -315.5 -46t-182.5 102.5t-58 172.5q4 100 68.5 157t151.5 62.5t157.5 -47t85.5 -170.5q9 51 9 101zM411 1227q-30 0 -51.5 20.5t-21.5 49.5q0 28 21.5 48.5t51.5 20.5t51.5 -20.5t21.5 -48.5q0 -29 -21.5 -49.5t-51.5 -20.5zM596 1230
q-30 0 -51.5 20.5t-21.5 49.5q0 28 21.5 48.5t51.5 20.5t51.5 -20.5t21.5 -48.5q0 -29 -21.5 -49.5t-51.5 -20.5z" />
    <glyph glyph-name="dotlessi" unicode="&#x131;" horiz-adv-x="506" 
d="M0 1303q237 35 456 -5l-44 -1281q-81 -13 -184 -13.5t-192 16.5l-36 1283v0z" />
    <glyph glyph-name="OE" unicode="&#x152;" horiz-adv-x="1797" 
d="M338 793q58 -51 117 -45q-3 -46 -1 -127.5t17.5 -167.5t53 -145t106.5 -61q59 5 95.5 101t48.5 239t-2.5 288t-58.5 248t-119 120q-37 6 -65.5 -20.5t-37.5 -82.5q61 -19 91 -85t18.5 -139.5t-74.5 -114t-189 -8.5v0zM834 48q-90 -49 -202 -56q-174 -5 -302.5 86
t-206.5 243.5t-100.5 332.5t15.5 353q18 7 43.5 6.5t44.5 -5.5q-30 164 29.5 277.5t180 172t274.5 59.5q100 -2 182 -30v10q196 30 462.5 33t462.5 -21q11 -83 4 -187t-28 -178l-460 38l-10 -263l352 14q21 -41 27.5 -113t-3 -138.5t-34.5 -92.5l-353 7l-11 -317
q55 7 107 18v-109q5 51 26 104t64.5 90t115.5 38q82 -1 144 -61t65 -169q-3 -129 -85 -182.5t-207 -56.5t-256.5 20.5t-233.5 47.5q-67 16 -107 23v6z" />
    <glyph glyph-name="oe" unicode="&#x153;" horiz-adv-x="1712" 
d="M453 890q-33 -11 -40.5 -108.5t3 -222.5t31 -219t41.5 -100q25 -2 64 1t62 11q19 11 28 105t7 215.5t-17 214.5t-46 103q-27 5 -66.5 5t-66.5 -5zM1280 651q8 92 0.5 157.5t-36.5 87.5q-22 13 -56 9.5t-56 -18.5q-38 -28 -48 -93.5t-10 -161.5zM861 121q-75 -62 -172 -85
q-191 -40 -349 23.5t-249 205.5t-81 338q25 293 210.5 437.5t462.5 88.5q125 -30 208 -96q6 5 13 10q114 90 269 106q136 12 264.5 -57t189.5 -222.5t-7 -395.5q-132 -11 -239 -20q-142 -12 -318 -27q-12 -68 26.5 -123.5t77.5 -71.5q6 -41 22 -69q-12 57 1 115t56.5 98.5
t121.5 43.5q102 -1 156 -61t42 -139.5t-108.5 -138.5t-294.5 -59q-118 2 -227 54q-40 18 -75 45z" />
    <glyph glyph-name="Ydieresis" unicode="&#x178;" horiz-adv-x="1155" 
d="M774 391l-32 -369q-81 -5 -184.5 -5.5t-192.5 6.5l-29 365q-113 72 -179 198.5t-98 281t-43.5 311t-14.5 287.5q-1 22 -1 43q237 27 456 -4q-18 -66 -21.5 -203t8.5 -288.5t39.5 -258.5t72.5 -112q45 4 73.5 111.5t40 259t6.5 290t-26 205.5q237 27 456 -4q-2 -33 -3 -68
q-4 -169 -24.5 -359.5t-89 -370.5t-214.5 -316v0zM454 1557q-30 0 -51.5 20.5t-21.5 49.5q0 28 21.5 48.5t51.5 20.5t51.5 -20.5t21.5 -48.5q0 -29 -21.5 -49.5t-51.5 -20.5zM639 1560q-30 0 -51.5 20.5t-21.5 49.5q0 28 21.5 48.5t51.5 20.5t51.5 -20.5t21.5 -48.5
q0 -29 -21.5 -49.5t-51.5 -20.5z" />
    <glyph glyph-name="quoteleft" unicode="&#x2018;" horiz-adv-x="425" 
d="M192 1180v0q77 0 132 61t55 144q0 55 -26 94.5t-67 62t-91 26.5q-6 37 20 78t50 69q5 6 9 11q-74 -10 -135 -56t-98 -120t-37 -165q0 -85 55 -145t133 -60z" />
    <glyph glyph-name="quoteright" unicode="&#x2019;" horiz-adv-x="425" 
d="M188 1599v0q-78 0 -133 -61t-55 -144q0 -55 26 -94.5t67 -62t91 -26.5q6 -36 -20 -77.5t-50 -69.5q-5 -6 -9 -11q74 10 135 56.5t98 120t37 164.5q0 85 -55 145t-132 60z" />
    <glyph glyph-name="quotesinglbase" unicode="&#x201a;" horiz-adv-x="424" 
d="M187 340v0q-78 0 -132.5 -60.5t-54.5 -143.5q0 -55 25.5 -95t67 -62t90.5 -26q6 -37 -20 -78.5t-50 -69.5q-5 -6 -9 -10q75 10 135.5 56t97.5 120t37 165q0 85 -55 144.5t-132 59.5z" />
    <glyph glyph-name="quotedblleft" unicode="&#x201c;" horiz-adv-x="853" 
d="M191 1173v0q77 0 132 61t55 144q0 55 -25.5 94.5t-67 62t-90.5 26.5q-7 37 19 78t51 69q5 6 8 11q-74 -10 -135 -56t-97.5 -120t-36.5 -165q0 -85 54.5 -145t132.5 -60zM620 1173v0q78 0 132.5 61t54.5 144q0 55 -25.5 94.5t-66.5 62t-91 26.5q-6 37 20 78t50 69
q5 6 9 11q-75 -10 -135.5 -56t-97.5 -120t-37 -165q0 -85 55 -145t132 -60z" />
    <glyph glyph-name="quotedblright" unicode="&#x201d;" horiz-adv-x="853" 
d="M616 1599v0q-77 0 -132 -61t-55 -144q0 -55 25.5 -94.5t67 -62t90.5 -26.5q7 -36 -19 -77.5t-50 -69.5q-5 -6 -9 -11q74 10 135 56.5t97.5 120t36.5 164.5q0 85 -54.5 145t-132.5 60zM187 1599v0q-78 0 -132.5 -61t-54.5 -144q0 -55 25.5 -94.5t67 -62t90.5 -26.5
q6 -36 -20 -77.5t-50 -69.5q-5 -6 -9 -11q75 10 135.5 56.5t97.5 120t37 164.5q0 85 -55 145t-132 60z" />
    <glyph glyph-name="quotedblbase" unicode="&#x201e;" horiz-adv-x="853" 
d="M630 327v0q-77 0 -132 -61t-55 -144q0 -55 25.5 -94.5t67 -62t90.5 -26.5q7 -36 -19 -77.5t-50 -69.5q-5 -6 -9 -11q74 10 135 56.5t97.5 120t36.5 164.5q0 85 -54.5 145t-132.5 60zM201 327v0q-78 0 -132.5 -61t-54.5 -144q0 -55 25.5 -94.5t67 -62t90.5 -26.5
q6 -36 -20 -77.5t-50 -69.5q-5 -6 -9 -11q75 10 135.5 56.5t97.5 120t37 164.5q0 85 -55 145t-132 60z" />
    <glyph glyph-name="fraction" unicode="&#x2044;" horiz-adv-x="997" 
d="M493 1485q252 40 454 -6l-571 -1478q-87 -14 -190.5 -14.5t-185.5 18.5l493 1480v0z" />
    <glyph glyph-name="fraction" unicode="&#x2215;" horiz-adv-x="997" 
d="M493 1485q252 40 454 -6l-571 -1478q-87 -14 -190.5 -14.5t-185.5 18.5l493 1480v0z" />
    <glyph glyph-name="franc" unicode="&#x20a3;" horiz-adv-x="1020" 
d="M65 399q-6 184 -9 367q-5 362 -22 725q196 30 462.5 33t463.5 -21q10 -83 3 -187t-27 -178l-461 38l-8 -239q-32 -18 -69 -40q-10 -6 -19 -11q101 29 205.5 42t208.5 -1q22 -41 28 -113t-3 -138.5t-34 -92.5q-81 16 -163 24.5t-166 -4.5l-7 -204h101v-128h-106l-8 -232
q-80 -14 -174.5 -15t-182.5 17q-5 115 -9 230h-69v128h65z" />
    <glyph glyph-name="lira" unicode="&#x20a4;" horiz-adv-x="1017" 
d="M453 485q-14 -113 -48 -224q54 6 107 17v-109q4 51 25.5 104.5t65 90t115.5 38.5q82 -2 144 -62t65 -169q-3 -129 -85 -182.5t-207 -56.5t-256.5 20.5t-233.5 48.5q-67 15 -107 22q1 10 1 19q-5 120 8 210t32 170q8 31 14 63h-91v149h113l2 12q3 32 4 70h-121v149h115
q-4 43 -10 89q-23 192 39 316.5t175.5 178t242 31.5t238.5 -123.5t167 -286.5l-176 -120q-87 161 -168 211t-129.5 -17t-36.5 -256q1 -11 2 -23h205v-149h-200q0 -41 -1 -82h203v-149h-213z" />
    <glyph glyph-name="lessequal" unicode="&#x2264;" horiz-adv-x="820" 
d="M10 -122v0l743 33q17 170 0 326l-739 34q-12 -105 -13 -192t9 -201zM768 876v0l-448 -109l442 -147q18 -162 3 -328l-743 181q-22 275 7 550l739 246q11 -102 11 -188.5t-11 -204.5z" />
    <glyph glyph-name="greaterequal" unicode="&#x2265;" horiz-adv-x="855" 
d="M770 -122q10 114 9 201t-13 192l-739 -34q-17 -156 0 -326l743 -33v0zM12 876q-11 118 -11 204.5t11 188.5l739 -246q29 -275 7 -550l-743 -181q-15 166 3 328l442 147l-448 109v0z" />
    <glyph glyph-name="uni0009" horiz-adv-x="508" 
 />
    </font>
</defs>
</svg>
